M48
METRIC,LZ,000.000
;FILE_FORMAT=3:3
;TYPE=PLATED
;Layer: PTH_Through_Via
;EasyEDA v6.5.51, 2026-03-31 14:52:47
;c52bac0a0f6b4f269256ffdab479d323,9ef13e28356e43f28898171320600188,10
;Gerber Generator version 0.2
;Holesize 1 = 0.310 mm
T01C0.310
%
G05
G90
T01
X007874Y007799
X-000762Y004878
X005588Y004878
X001905Y015240
X001270Y014605
X000127Y013895
X002032Y013260
X008128Y015875
X007239Y015875
X006350Y015875
X000635Y004878
X002413Y004878
X005461Y015875
X004572Y015875
X004191Y016689
X003302Y016689
X003429Y010847
X-000508Y-001651
X003683Y-001651
X011557Y012446
X014605Y010541
X010922Y013081
X011557Y011176
X010922Y010542
X013081Y011177
X-004064Y011811
X-004953Y011811
X-005080Y015875
X-005842Y015113
X-006477Y014351
X009652Y-001270
X008382Y-002032
X-003257Y001806
X-001987Y001797
X-004572Y001778
X015494Y-003048
X016256Y-003683
X005969Y001778
X005969Y001143
X002921Y001778
X002921Y001143
X000000Y001778
X000000Y001143
X005969Y021844
X010414Y021717
X-001397Y019304
X017018Y018542
X012333Y011804
X012954Y019812
X012065Y015875
X014478Y021844
X013507Y004419
X-006350Y000127
X-002794Y011430
X-002794Y010668
X-002794Y009906
X-002794Y009144
X001651Y009906
X001651Y010668
X001651Y011430
X-001270Y010922
X-001270Y009525
X000716Y010950
X000762Y009525
X-000254Y-031030
X-000254Y-028807
X008118Y-018198
X-001905Y-018024
X-004699Y-017389
X-004064Y-018405
X-009017Y-018151
X012277Y-025555
X012747Y-026025
X021971Y-018546
X021971Y-017899
X016510Y-028692
X015113Y-028692
X014732Y-021453
X009144Y-020310
X021971Y-021215
X005588Y-023612
X006604Y-023612
X007620Y-023612
X005588Y-022596
X006604Y-022596
X007620Y-022596
X007620Y-021707
X006604Y-021707
X017272Y-025577
X017272Y-021647
X006911Y-026152
X003175Y-022342
X001905Y-023323
X011000Y-023732
X007204Y-017964
X001270Y-019040
X003175Y-020310
X003810Y-019802
X006604Y-018532
X016256Y008255
X015621Y008255
X014986Y008255
X032689Y026718
X014224Y013716
X013462Y013716
X013462Y014478
X014224Y014478
X003810Y001778
X003810Y001143
X002794Y-001651
X-006731Y004699
X-006731Y005334
X-007366Y005334
X-007366Y004699
X-007493Y012065
X-007493Y011430
X-007366Y008509
X-007366Y007874
X-008128Y-004699
X-008128Y-004064
X-008763Y-004064
X-008763Y-004699
X-008382Y023749
X-008382Y024384
X-009017Y024384
X-009017Y023749
X022225Y025908
X022225Y025273
X021590Y025273
X021590Y025908
X022479Y012954
X022479Y012319
X021844Y012319
X021844Y012954
X022225Y-003810
X022225Y-003175
X021590Y-003175
X021590Y-003810
X007874Y008890
X007874Y009525
X011303Y009271
X010668Y009271
X016891Y010668
X016891Y011303
X009144Y021844
X008509Y021844
X021082Y-010414
X021082Y-009779
X020447Y-009779
X020447Y-010414
X-009144Y-010287
X-009144Y-009652
X-008509Y-009652
X-008509Y-010287
X-007366Y-029718
X-007366Y-029083
X-008001Y-029083
X-008001Y-029718
X022098Y-029083
X022098Y-028448
X021463Y-028448
X021463Y-029083
X011303Y-026797
X011303Y-026162
X010668Y-026162
X010668Y-026797
X013970Y-015367
X013970Y-014732
X013335Y-014732
X013335Y-015367
X-002667Y-016383
X-002667Y-015748
X-003302Y-015748
X-003302Y-016383
X005715Y-014097
X014605Y-023495
X014605Y-022860
X003683Y-031750
X003683Y-031115
X004318Y-031750
X004318Y-031115
X009144Y-031750
X009144Y-031115
X009779Y-031750
X009779Y-031115
X001778Y-026924
X002413Y-026924
X-001016Y-028067
X-001016Y-027432
X-003556Y-022352
X-003556Y-021717
X-004191Y-021717
X-004191Y-022352
X014986Y-027305
X014351Y-027305
X002032Y022225
X009144Y020447
X009779Y020447
X030861Y009271
X030861Y009906
X030226Y009906
X030226Y009271
X026924Y019431
X026924Y020066
X026289Y020066
X026289Y019431
X002413Y007874
X007874Y010414
X013970Y009272
X020066Y014732
X019438Y014732
X019812Y-003682
X019807Y-003068
X016256Y000705
X016256Y001397
X-005080Y000127
X-007072Y001453
X-007070Y002088
X-007068Y002723
M30
