M48
METRIC,LZ,000.000
;FILE_FORMAT=3:3
;TYPE=NON_PLATED
;Layer: NPTH_Through
;EasyEDA v6.5.51, 2026-03-31 14:52:47
;c52bac0a0f6b4f269256ffdab479d323,9ef13e28356e43f28898171320600188,10
;Gerber Generator version 0.2
;Holesize 1 = 0.551 mm
T01C0.551
;Holesize 2 = 0.600 mm
T02C0.600
;Holesize 3 = 0.650 mm
T03C0.650
%
G05
G90
T01
X024892Y020540
X023773Y020540
X023773Y021429
X023773Y022318
X023773Y023207
X023773Y024096
X023773Y025874
X023773Y026763
X023773Y024985
X024892Y024985
X024892Y025874
X024892Y024096
X024892Y023207
X024892Y022318
X024892Y021429
X024892Y026763
X032996Y016589
X027662Y016589
X028551Y016589
X029440Y016589
X030329Y016589
X032107Y016589
X031218Y016589
X031218Y017708
X032996Y017708
X032107Y017708
X030329Y017708
X029440Y017708
X028551Y017708
X027662Y017708
X026773Y017708
X026773Y016589
X007819Y-005800
X009597Y-005800
X008708Y-005800
X006930Y-005800
X006041Y-005800
X005152Y-005800
X004263Y-005800
X003374Y-005800
X003372Y-008418
X004261Y-008418
X005150Y-008418
X006039Y-008418
X007817Y-008418
X006928Y-008418
X008706Y-008418
X009595Y-008418
T02
X029903Y020594
T03
X009494Y-029308
X003714Y-029308
M30
