G04 Layer: BottomSilkscreenLayer*
G04 EasyEDA v6.5.51, 2026-03-31 14:52:47*
G04 c52bac0a0f6b4f269256ffdab479d323,9ef13e28356e43f28898171320600188,10*
G04 Gerber Generator version 0.2*
G04 Scale: 100 percent, Rotated: No, Reflected: No *
G04 Dimensions in millimeters *
G04 leading zeros omitted , absolute positions ,4 integer and 5 decimal *
%FSLAX45Y45*%
%MOMM*%

%ADD10C,0.1524*%
%ADD11C,0.2540*%
%ADD12C,0.1270*%
%ADD13C,0.1000*%
%ADD14C,0.1520*%
%ADD15C,0.0150*%
%ADD16C,0.1500*%
%ADD17C,0.3000*%

%LPD*%
D10*
X1765297Y-2931777D02*
G01*
X1765297Y-3017685D01*
X1765297Y-2931777D02*
G01*
X1728480Y-2931777D01*
X1716206Y-2935866D01*
X1712114Y-2939958D01*
X1708025Y-2948139D01*
X1708025Y-2960413D01*
X1712114Y-2968594D01*
X1716206Y-2972686D01*
X1728480Y-2976775D01*
X1765297Y-2976775D01*
X1681025Y-2931777D02*
G01*
X1660570Y-3017685D01*
X1640116Y-2931777D02*
G01*
X1660570Y-3017685D01*
X1640116Y-2931777D02*
G01*
X1619661Y-3017685D01*
X1599206Y-2931777D02*
G01*
X1619661Y-3017685D01*
X1572206Y-2931777D02*
G01*
X1572206Y-3017685D01*
X1572206Y-2931777D02*
G01*
X1535389Y-2931777D01*
X1523116Y-2935866D01*
X1519024Y-2939958D01*
X1514934Y-2948139D01*
X1514934Y-2956321D01*
X1519024Y-2964505D01*
X1523116Y-2968594D01*
X1535389Y-2972686D01*
X1572206Y-2972686D01*
X1543570Y-2972686D02*
G01*
X1514934Y-3017685D01*
X1463387Y-2931777D02*
G01*
X1471571Y-2935866D01*
X1479753Y-2944050D01*
X1483842Y-2952231D01*
X1487934Y-2964505D01*
X1487934Y-2984959D01*
X1483842Y-2997230D01*
X1479753Y-3005414D01*
X1471571Y-3013595D01*
X1463387Y-3017685D01*
X1447025Y-3017685D01*
X1438843Y-3013595D01*
X1430662Y-3005414D01*
X1426570Y-2997230D01*
X1422478Y-2984959D01*
X1422478Y-2964505D01*
X1426570Y-2952231D01*
X1430662Y-2944050D01*
X1438843Y-2935866D01*
X1447025Y-2931777D01*
X1463387Y-2931777D01*
X1395481Y-2931777D02*
G01*
X1395481Y-3017685D01*
X1395481Y-2931777D02*
G01*
X1338206Y-3017685D01*
X1338206Y-2931777D02*
G01*
X1338206Y-3017685D01*
X889850Y1246515D02*
G01*
X898034Y1242425D01*
X906216Y1234241D01*
X910305Y1226060D01*
X914397Y1213787D01*
X914397Y1193332D01*
X910305Y1181061D01*
X906216Y1172878D01*
X898034Y1164696D01*
X889850Y1160607D01*
X873488Y1160607D01*
X865306Y1164696D01*
X857125Y1172878D01*
X853033Y1181061D01*
X848944Y1193332D01*
X848944Y1213787D01*
X853033Y1226060D01*
X857125Y1234241D01*
X865306Y1242425D01*
X873488Y1246515D01*
X889850Y1246515D01*
X821944Y1246515D02*
G01*
X789216Y1160607D01*
X756488Y1246515D02*
G01*
X789216Y1160607D01*
X725398Y1226060D02*
G01*
X725398Y1230152D01*
X721306Y1238333D01*
X717217Y1242425D01*
X709033Y1246515D01*
X692670Y1246515D01*
X684489Y1242425D01*
X680397Y1238333D01*
X676308Y1230152D01*
X676308Y1221971D01*
X680397Y1213787D01*
X688578Y1201516D01*
X729487Y1160607D01*
X672216Y1160607D01*
X596125Y1234241D02*
G01*
X600217Y1242425D01*
X612487Y1246515D01*
X620671Y1246515D01*
X632942Y1242425D01*
X641126Y1230152D01*
X645215Y1209697D01*
X645215Y1189243D01*
X641126Y1172878D01*
X632942Y1164696D01*
X620671Y1160607D01*
X616579Y1160607D01*
X604306Y1164696D01*
X596125Y1172878D01*
X592033Y1185151D01*
X592033Y1189243D01*
X596125Y1201516D01*
X604306Y1209697D01*
X616579Y1213787D01*
X620671Y1213787D01*
X632942Y1209697D01*
X641126Y1201516D01*
X645215Y1189243D01*
X524126Y1246515D02*
G01*
X565035Y1189243D01*
X503671Y1189243D01*
X524126Y1246515D02*
G01*
X524126Y1160607D01*
X452125Y1246515D02*
G01*
X464398Y1242425D01*
X472579Y1230152D01*
X476671Y1209697D01*
X476671Y1197424D01*
X472579Y1176969D01*
X464398Y1164696D01*
X452125Y1160607D01*
X443943Y1160607D01*
X431670Y1164696D01*
X423489Y1176969D01*
X419399Y1197424D01*
X419399Y1209697D01*
X423489Y1230152D01*
X431670Y1242425D01*
X443943Y1246515D01*
X452125Y1246515D01*
X1067650Y27317D02*
G01*
X1075834Y23228D01*
X1084016Y15044D01*
X1088105Y6863D01*
X1092197Y-5410D01*
X1092197Y-25864D01*
X1088105Y-38135D01*
X1084016Y-46319D01*
X1075834Y-54500D01*
X1067650Y-58590D01*
X1051288Y-58590D01*
X1043106Y-54500D01*
X1034925Y-46319D01*
X1030833Y-38135D01*
X1026744Y-25864D01*
X1026744Y-5410D01*
X1030833Y6863D01*
X1034925Y15044D01*
X1043106Y23228D01*
X1051288Y27317D01*
X1067650Y27317D01*
X999744Y27317D02*
G01*
X999744Y-58590D01*
X999744Y-58590D02*
G01*
X950653Y-58590D01*
X923653Y27317D02*
G01*
X923653Y-58590D01*
X923653Y27317D02*
G01*
X870470Y27317D01*
X923653Y-13591D02*
G01*
X890925Y-13591D01*
X923653Y-58590D02*
G01*
X870470Y-58590D01*
X843470Y27317D02*
G01*
X843470Y-58590D01*
X843470Y27317D02*
G01*
X814834Y27317D01*
X802561Y23228D01*
X794379Y15044D01*
X790287Y6863D01*
X786198Y-5410D01*
X786198Y-25864D01*
X790287Y-38135D01*
X794379Y-46319D01*
X802561Y-54500D01*
X814834Y-58590D01*
X843470Y-58590D01*
X3267862Y2312377D02*
G01*
X3267862Y2226470D01*
X3210590Y2312377D02*
G01*
X3210590Y2226470D01*
X3267862Y2271468D02*
G01*
X3210590Y2271468D01*
X3134499Y2300104D02*
G01*
X3138589Y2308288D01*
X3150862Y2312377D01*
X3159043Y2312377D01*
X3171316Y2308288D01*
X3179498Y2296015D01*
X3183590Y2275560D01*
X3183590Y2255105D01*
X3179498Y2238740D01*
X3171316Y2230560D01*
X3159043Y2226470D01*
X3154954Y2226470D01*
X3142681Y2230560D01*
X3134499Y2238740D01*
X3130407Y2251014D01*
X3130407Y2255105D01*
X3134499Y2267379D01*
X3142681Y2275560D01*
X3154954Y2279650D01*
X3159043Y2279650D01*
X3171316Y2275560D01*
X3179498Y2267379D01*
X3183590Y2255105D01*
X2779471Y1115275D02*
G01*
X2779471Y1201183D01*
X2836743Y1115275D02*
G01*
X2836743Y1201183D01*
X2779471Y1156185D02*
G01*
X2836743Y1156185D01*
X2912833Y1115275D02*
G01*
X2871924Y1115275D01*
X2867835Y1152093D01*
X2871924Y1148003D01*
X2884197Y1143911D01*
X2896471Y1143911D01*
X2908744Y1148003D01*
X2916925Y1156185D01*
X2921015Y1168458D01*
X2921015Y1176639D01*
X2916925Y1188913D01*
X2908744Y1197093D01*
X2896471Y1201183D01*
X2884197Y1201183D01*
X2871924Y1197093D01*
X2867835Y1193002D01*
X2863743Y1184821D01*
X-800046Y-2429428D02*
G01*
X-791865Y-2433520D01*
X-783681Y-2441701D01*
X-779592Y-2449883D01*
X-779592Y-2466246D01*
X-783681Y-2474429D01*
X-791865Y-2482611D01*
X-800046Y-2486700D01*
X-812319Y-2490792D01*
X-832774Y-2490792D01*
X-845045Y-2486700D01*
X-853229Y-2482611D01*
X-861410Y-2474429D01*
X-865499Y-2466246D01*
X-865499Y-2449883D01*
X-861410Y-2441701D01*
X-853229Y-2433520D01*
X-845045Y-2429428D01*
X-779592Y-2394247D02*
G01*
X-779592Y-2349248D01*
X-812319Y-2373792D01*
X-812319Y-2361519D01*
X-816409Y-2353337D01*
X-820501Y-2349248D01*
X-832774Y-2345156D01*
X-840955Y-2345156D01*
X-853229Y-2349248D01*
X-861410Y-2357429D01*
X-865499Y-2369703D01*
X-865499Y-2381973D01*
X-861410Y-2394247D01*
X-857318Y-2398339D01*
X-849137Y-2402428D01*
X-795954Y-2318156D02*
G01*
X-791865Y-2309975D01*
X-779592Y-2297701D01*
X-865499Y-2297701D01*
X-927046Y-2428158D02*
G01*
X-918865Y-2432250D01*
X-910681Y-2440431D01*
X-906592Y-2448613D01*
X-906592Y-2464976D01*
X-910681Y-2473159D01*
X-918865Y-2481341D01*
X-927046Y-2485430D01*
X-939319Y-2489522D01*
X-959774Y-2489522D01*
X-972045Y-2485430D01*
X-980229Y-2481341D01*
X-988410Y-2473159D01*
X-992499Y-2464976D01*
X-992499Y-2448613D01*
X-988410Y-2440431D01*
X-980229Y-2432250D01*
X-972045Y-2428158D01*
X-906592Y-2392977D02*
G01*
X-906592Y-2347978D01*
X-939319Y-2372522D01*
X-939319Y-2360249D01*
X-943409Y-2352067D01*
X-947501Y-2347978D01*
X-959774Y-2343886D01*
X-967955Y-2343886D01*
X-980229Y-2347978D01*
X-988410Y-2356159D01*
X-992499Y-2368433D01*
X-992499Y-2380703D01*
X-988410Y-2392977D01*
X-984318Y-2397069D01*
X-976137Y-2401158D01*
X-906592Y-2292342D02*
G01*
X-910681Y-2304613D01*
X-922954Y-2312794D01*
X-943409Y-2316886D01*
X-955682Y-2316886D01*
X-976137Y-2312794D01*
X-988410Y-2304613D01*
X-992499Y-2292342D01*
X-992499Y-2284158D01*
X-988410Y-2271887D01*
X-976137Y-2263703D01*
X-955682Y-2259614D01*
X-943409Y-2259614D01*
X-922954Y-2263703D01*
X-910681Y-2271887D01*
X-906592Y-2284158D01*
X-906592Y-2292342D01*
X-349658Y-2023188D02*
G01*
X-349658Y-2084552D01*
X-353750Y-2096825D01*
X-361932Y-2105007D01*
X-374205Y-2109096D01*
X-382386Y-2109096D01*
X-394657Y-2105007D01*
X-402841Y-2096825D01*
X-406930Y-2084552D01*
X-406930Y-2023188D01*
X-474840Y-2023188D02*
G01*
X-433931Y-2080460D01*
X-495294Y-2080460D01*
X-474840Y-2023188D02*
G01*
X-474840Y-2109096D01*
X2139822Y-3096450D02*
G01*
X2148004Y-3088266D01*
X2160277Y-3084177D01*
X2176640Y-3084177D01*
X2188913Y-3088266D01*
X2197094Y-3096450D01*
X2197094Y-3104631D01*
X2193002Y-3112813D01*
X2188913Y-3116905D01*
X2180732Y-3120994D01*
X2156185Y-3129175D01*
X2148004Y-3133267D01*
X2143912Y-3137359D01*
X2139822Y-3145541D01*
X2139822Y-3157814D01*
X2148004Y-3165995D01*
X2160277Y-3170085D01*
X2176640Y-3170085D01*
X2188913Y-3165995D01*
X2197094Y-3157814D01*
X2112822Y-3084177D02*
G01*
X2092368Y-3170085D01*
X2071913Y-3084177D02*
G01*
X2092368Y-3170085D01*
X2071913Y-3084177D02*
G01*
X2051458Y-3170085D01*
X2031004Y-3084177D02*
G01*
X2051458Y-3170085D01*
X2004004Y-3100539D02*
G01*
X1995822Y-3096450D01*
X1983549Y-3084177D01*
X1983549Y-3170085D01*
X1796646Y-1972388D02*
G01*
X1796646Y-2058296D01*
X1796646Y-1972388D02*
G01*
X1768010Y-1972388D01*
X1755736Y-1976478D01*
X1747555Y-1984662D01*
X1743463Y-1992843D01*
X1739374Y-2005116D01*
X1739374Y-2025571D01*
X1743463Y-2037842D01*
X1747555Y-2046025D01*
X1755736Y-2054207D01*
X1768010Y-2058296D01*
X1796646Y-2058296D01*
X1671464Y-1972388D02*
G01*
X1712374Y-2029660D01*
X1651010Y-2029660D01*
X1671464Y-1972388D02*
G01*
X1671464Y-2058296D01*
X2237331Y-1935231D02*
G01*
X2241422Y-1927049D01*
X2249604Y-1918865D01*
X2257785Y-1914776D01*
X2274148Y-1914776D01*
X2282332Y-1918865D01*
X2290513Y-1927049D01*
X2294602Y-1935231D01*
X2298694Y-1947504D01*
X2298694Y-1967958D01*
X2294602Y-1980229D01*
X2290513Y-1988413D01*
X2282332Y-1996594D01*
X2274148Y-2000684D01*
X2257785Y-2000684D01*
X2249604Y-1996594D01*
X2241422Y-1988413D01*
X2237331Y-1980229D01*
X2169421Y-1914776D02*
G01*
X2210330Y-1972048D01*
X2148967Y-1972048D01*
X2169421Y-1914776D02*
G01*
X2169421Y-2000684D01*
X2121966Y-1931139D02*
G01*
X2113785Y-1927049D01*
X2101514Y-1914776D01*
X2101514Y-2000684D01*
X2237331Y-2709928D02*
G01*
X2241422Y-2701747D01*
X2249604Y-2693563D01*
X2257785Y-2689473D01*
X2274148Y-2689473D01*
X2282332Y-2693563D01*
X2290513Y-2701747D01*
X2294602Y-2709928D01*
X2298694Y-2722201D01*
X2298694Y-2742656D01*
X2294602Y-2754927D01*
X2290513Y-2763111D01*
X2282332Y-2771292D01*
X2274148Y-2775381D01*
X2257785Y-2775381D01*
X2249604Y-2771292D01*
X2241422Y-2763111D01*
X2237331Y-2754927D01*
X2169421Y-2689473D02*
G01*
X2210330Y-2746745D01*
X2148967Y-2746745D01*
X2169421Y-2689473D02*
G01*
X2169421Y-2775381D01*
X2097422Y-2689473D02*
G01*
X2109696Y-2693563D01*
X2117877Y-2705836D01*
X2121966Y-2726291D01*
X2121966Y-2738564D01*
X2117877Y-2759019D01*
X2109696Y-2771292D01*
X2097422Y-2775381D01*
X2089241Y-2775381D01*
X2076968Y-2771292D01*
X2068786Y-2759019D01*
X2064694Y-2738564D01*
X2064694Y-2726291D01*
X2068786Y-2705836D01*
X2076968Y-2693563D01*
X2089241Y-2689473D01*
X2097422Y-2689473D01*
X304800Y-2131677D02*
G01*
X304800Y-2217585D01*
X304800Y-2131677D02*
G01*
X276164Y-2131677D01*
X263890Y-2135766D01*
X255709Y-2143950D01*
X251617Y-2152131D01*
X247528Y-2164405D01*
X247528Y-2184859D01*
X251617Y-2197130D01*
X255709Y-2205314D01*
X263890Y-2213495D01*
X276164Y-2217585D01*
X304800Y-2217585D01*
X171437Y-2131677D02*
G01*
X212346Y-2131677D01*
X216435Y-2168494D01*
X212346Y-2164405D01*
X200073Y-2160313D01*
X187799Y-2160313D01*
X175526Y-2164405D01*
X167345Y-2172586D01*
X163255Y-2184859D01*
X163255Y-2193041D01*
X167345Y-2205314D01*
X175526Y-2213495D01*
X187799Y-2217585D01*
X200073Y-2217585D01*
X212346Y-2213495D01*
X216435Y-2209403D01*
X220527Y-2201222D01*
G36*
X1799386Y1256182D02*
G01*
X1799386Y1225702D01*
X1834642Y1225702D01*
X1834642Y1256182D01*
G37*
G36*
X1924659Y1256182D02*
G01*
X1924659Y1225702D01*
X1959864Y1225702D01*
X1959864Y1256182D01*
G37*
G36*
X1799386Y887882D02*
G01*
X1799386Y857402D01*
X1834642Y857402D01*
X1834642Y887882D01*
G37*
G36*
X1924659Y887882D02*
G01*
X1924659Y857402D01*
X1959864Y857402D01*
X1959864Y887882D01*
G37*
D11*
X3255147Y2780451D02*
G01*
X3260531Y2780451D01*
X2712532Y2780451D02*
G01*
X2720530Y2780451D01*
X2712532Y2350452D02*
G01*
X2712532Y2780451D01*
X3260531Y2350452D02*
G01*
X2712532Y2350452D01*
X3255147Y2780451D02*
G01*
X3260531Y2780451D01*
X3260531Y2780451D02*
G01*
X3250145Y2780451D01*
X3260531Y2350452D02*
G01*
X3260531Y2780451D01*
D10*
X2019330Y-3007842D02*
G01*
X1940321Y-3007842D01*
X1940321Y-2908122D02*
G01*
X2019330Y-2908122D01*
X2034570Y-2923362D02*
G01*
X2034570Y-2992602D01*
X1816069Y-3007842D02*
G01*
X1895078Y-3007842D01*
X1895078Y-2908122D02*
G01*
X1816069Y-2908122D01*
X1800829Y-2923362D02*
G01*
X1800829Y-2992602D01*
D11*
X1569399Y-844283D02*
G01*
X1569399Y-1281582D01*
X1562971Y-1281582D01*
X-248599Y-844283D02*
G01*
X1569399Y-844283D01*
X-248599Y-844283D02*
G01*
X-248599Y-1274282D01*
X-243215Y-1274282D02*
G01*
X-248599Y-1274282D01*
X-248599Y-1274282D02*
G01*
X-238213Y-1274282D01*
X2741284Y643671D02*
G01*
X2735900Y643671D01*
X3283899Y643671D02*
G01*
X3275901Y643671D01*
X3283899Y1073670D02*
G01*
X3283899Y643671D01*
X2735900Y1073670D02*
G01*
X3283899Y1073670D01*
X2741284Y643671D02*
G01*
X2735900Y643671D01*
X2735900Y643671D02*
G01*
X2746286Y643671D01*
X2735900Y1073670D02*
G01*
X2735900Y643671D01*
D12*
X-15900Y-1887981D02*
G01*
X1338102Y-1887981D01*
X-15900Y-1487982D02*
G01*
X1338102Y-1487982D01*
D10*
X866378Y-2628722D02*
G01*
X794575Y-2628722D01*
X794575Y-2728442D01*
X866378Y-2728442D01*
X911621Y-2628722D02*
G01*
X983424Y-2628722D01*
X983424Y-2728442D01*
X911621Y-2728442D01*
X1882378Y-2781122D02*
G01*
X1810575Y-2781122D01*
X1810575Y-2880842D01*
X1882378Y-2880842D01*
X1927621Y-2781122D02*
G01*
X1999424Y-2781122D01*
X1999424Y-2880842D01*
X1927621Y-2880842D01*
X467121Y-2728442D02*
G01*
X538924Y-2728442D01*
X538924Y-2628722D01*
X467121Y-2628722D01*
X421878Y-2728442D02*
G01*
X350075Y-2728442D01*
X350075Y-2628722D01*
X421878Y-2628722D01*
X289321Y2134641D02*
G01*
X361124Y2134641D01*
X361124Y2234361D01*
X289321Y2234361D01*
X244078Y2134641D02*
G01*
X172275Y2134641D01*
X172275Y2234361D01*
X244078Y2234361D01*
X407339Y2128860D02*
G01*
X407339Y2057057D01*
X507060Y2057057D01*
X507060Y2128860D01*
X407339Y2174102D02*
G01*
X407339Y2245906D01*
X507060Y2245906D01*
X507060Y2174102D01*
D11*
X1033528Y-2792991D02*
G01*
X1039286Y-2792991D01*
X281513Y-2792991D02*
G01*
X287296Y-2792991D01*
X210400Y-3147626D02*
G01*
X210400Y-3003852D01*
X210400Y-3555738D02*
G01*
X210400Y-3393854D01*
X1110399Y-3147626D02*
G01*
X1110399Y-3003852D01*
X1110399Y-3555738D02*
G01*
X1110399Y-3393854D01*
X210400Y-3555738D02*
G01*
X1110399Y-3555738D01*
D10*
X-875357Y-2221524D02*
G01*
X-875357Y-2142515D01*
X-775637Y-2142515D02*
G01*
X-775637Y-2221524D01*
X-790877Y-2236764D02*
G01*
X-860117Y-2236764D01*
X-875357Y-2018263D02*
G01*
X-875357Y-2097272D01*
X-775637Y-2097272D02*
G01*
X-775637Y-2018263D01*
X-790877Y-2003023D02*
G01*
X-860117Y-2003023D01*
X-1002357Y-2221524D02*
G01*
X-1002357Y-2142515D01*
X-902637Y-2142515D02*
G01*
X-902637Y-2221524D01*
X-917877Y-2236764D02*
G01*
X-987117Y-2236764D01*
X-1002357Y-2018263D02*
G01*
X-1002357Y-2097272D01*
X-902637Y-2097272D02*
G01*
X-902637Y-2018263D01*
X-917877Y-2003023D02*
G01*
X-987117Y-2003023D01*
D13*
X-584200Y-1840489D02*
G01*
X-520700Y-1840489D01*
X-520700Y-1863077D01*
X-749300Y-1865889D02*
G01*
X-749300Y-1840489D01*
X-685800Y-1840489D01*
X-584200Y-2094489D02*
G01*
X-520700Y-2094489D01*
X-520700Y-2069089D01*
X-749300Y-2069089D02*
G01*
X-749300Y-2094489D01*
X-685800Y-2094489D01*
D11*
X1926920Y-3355982D02*
G01*
X1926920Y-3202950D01*
X1830448Y-3355982D02*
G01*
X1926920Y-3355982D01*
X1476921Y-3355982D02*
G01*
X1476921Y-3202957D01*
X1580509Y-3355982D02*
G01*
X1476921Y-3355982D01*
X1830448Y-3545974D02*
G01*
X1580509Y-3545974D01*
X1580509Y-3355982D02*
G01*
X1580509Y-3545974D01*
X1830448Y-3355982D02*
G01*
X1830448Y-3545974D01*
X1727197Y-2433581D02*
G01*
X1727197Y-2286193D01*
X1777197Y-2386192D02*
G01*
X1677197Y-2386192D01*
X1777197Y-2336192D02*
G01*
X1727197Y-2386192D01*
X1677197Y-2336192D01*
X1777197Y-2336192D01*
X1620083Y-2151194D02*
G01*
X1597197Y-2151194D01*
X1857197Y-2151194D02*
G01*
X1834311Y-2151194D01*
X1857197Y-2571193D02*
G01*
X1857197Y-2151194D01*
X1834311Y-2571193D02*
G01*
X1857197Y-2571193D01*
X1597197Y-2571193D02*
G01*
X1620083Y-2571193D01*
X1597197Y-2151194D02*
G01*
X1597197Y-2571193D01*
D10*
X2287455Y-2040374D02*
G01*
X2287455Y-2181374D01*
X2106734Y-2181374D02*
G01*
X2106734Y-2040374D01*
X2121974Y-2025134D02*
G01*
X2272215Y-2025134D01*
X2287455Y-2402613D02*
G01*
X2287455Y-2261613D01*
X2106734Y-2261613D02*
G01*
X2106734Y-2402613D01*
X2121974Y-2417853D02*
G01*
X2272215Y-2417853D01*
X1914377Y-2474031D02*
G01*
X2055378Y-2474031D01*
X2055378Y-2654752D02*
G01*
X1914377Y-2654752D01*
X1899137Y-2639512D02*
G01*
X1899137Y-2489271D01*
X2276617Y-2474031D02*
G01*
X2135616Y-2474031D01*
X2135616Y-2654752D02*
G01*
X2276617Y-2654752D01*
X2291857Y-2639512D02*
G01*
X2291857Y-2489271D01*
D11*
X1760057Y909500D02*
G01*
X1760057Y989497D01*
X1760103Y853455D02*
G01*
X1760103Y773457D01*
X1618089Y909500D02*
G01*
X1618089Y989497D01*
X1618137Y853455D02*
G01*
X1618137Y773457D01*
X1729074Y1020472D02*
G01*
X1649069Y1020472D01*
X1649122Y742480D02*
G01*
X1729125Y742480D01*
D10*
X1474139Y779851D02*
G01*
X1474139Y858860D01*
X1573860Y858860D02*
G01*
X1573860Y779851D01*
X1558620Y764611D02*
G01*
X1489379Y764611D01*
X1474139Y983112D02*
G01*
X1474139Y904102D01*
X1573860Y904102D02*
G01*
X1573860Y983112D01*
X1558620Y998352D02*
G01*
X1489379Y998352D01*
X1232842Y904102D02*
G01*
X1232842Y983112D01*
X1332557Y983112D02*
G01*
X1332557Y904102D01*
X1248079Y998354D02*
G01*
X1317320Y998354D01*
X1332557Y779851D02*
G01*
X1332557Y858860D01*
X1232842Y858860D02*
G01*
X1232842Y779851D01*
X1248079Y764608D02*
G01*
X1317320Y764608D01*
X1205560Y983112D02*
G01*
X1205560Y904102D01*
X1105839Y904102D02*
G01*
X1105839Y983112D01*
X1121079Y998352D02*
G01*
X1190320Y998352D01*
X1205560Y779851D02*
G01*
X1205560Y858860D01*
X1105839Y858860D02*
G01*
X1105839Y779851D01*
X1121079Y764611D02*
G01*
X1190320Y764611D01*
X-11757Y937018D02*
G01*
X-11757Y1016027D01*
X87957Y1016027D02*
G01*
X87957Y937018D01*
X3479Y1031270D02*
G01*
X72720Y1031270D01*
X87957Y812766D02*
G01*
X87957Y891776D01*
X-11757Y891776D02*
G01*
X-11757Y812766D01*
X3479Y797524D02*
G01*
X72720Y797524D01*
D11*
X1273622Y1822315D02*
G01*
X1480510Y1822315D01*
X1480510Y1794814D01*
X-159473Y1794814D02*
G01*
X-159473Y1822315D01*
X47404Y1822315D01*
X1480525Y1707936D02*
G01*
X1480525Y1794814D01*
X1480525Y1294813D02*
G01*
X1480525Y1511706D01*
X-159473Y1707936D02*
G01*
X-159473Y1794814D01*
X-159473Y1294813D02*
G01*
X-159473Y1511706D01*
X1480525Y1294813D02*
G01*
X-159473Y1294813D01*
X-309618Y488736D02*
G01*
X-309618Y589313D01*
X-102735Y589313D02*
G01*
X-304825Y589313D01*
X1630382Y488731D02*
G01*
X1630382Y589313D01*
X1423482Y589313D01*
X-309618Y75613D02*
G01*
X1630382Y75613D01*
X-309618Y292506D02*
G01*
X-309618Y75613D01*
X1630382Y292503D02*
G01*
X1630382Y75613D01*
D14*
X1952259Y1058057D02*
G01*
X1931636Y1058057D01*
X1807016Y1058057D02*
G01*
X1826638Y1058057D01*
D10*
X1807016Y1233302D02*
G01*
X1807016Y1058057D01*
X1952259Y1233302D02*
G01*
X1952259Y1058057D01*
X1807016Y1192857D02*
G01*
X1952259Y1192857D01*
D14*
X1952259Y689757D02*
G01*
X1931636Y689757D01*
X1807016Y689757D02*
G01*
X1826638Y689757D01*
D10*
X1807016Y865002D02*
G01*
X1807016Y689757D01*
X1952259Y865002D02*
G01*
X1952259Y689757D01*
X1807016Y824557D02*
G01*
X1952259Y824557D01*
X1826021Y463321D02*
G01*
X1897824Y463321D01*
X1897824Y563041D01*
X1826021Y563041D01*
X1780778Y463321D02*
G01*
X1708975Y463321D01*
X1708975Y563041D01*
X1780778Y563041D01*
X392760Y904102D02*
G01*
X392760Y975906D01*
X293039Y975906D01*
X293039Y904102D01*
X392760Y858860D02*
G01*
X392760Y787057D01*
X293039Y787057D01*
X293039Y858860D01*
X214960Y1016027D02*
G01*
X214960Y937018D01*
X115239Y937018D02*
G01*
X115239Y1016027D01*
X130479Y1031267D02*
G01*
X199720Y1031267D01*
X214960Y812766D02*
G01*
X214960Y891776D01*
X115239Y891776D02*
G01*
X115239Y812766D01*
X130479Y797526D02*
G01*
X199720Y797526D01*
X-138760Y812766D02*
G01*
X-138760Y891776D01*
X-39039Y891776D02*
G01*
X-39039Y812766D01*
X-54279Y797526D02*
G01*
X-123520Y797526D01*
X-138760Y1016027D02*
G01*
X-138760Y937018D01*
X-39039Y937018D02*
G01*
X-39039Y1016027D01*
X-54279Y1031267D02*
G01*
X-123520Y1031267D01*
X876327Y1969434D02*
G01*
X797318Y1969434D01*
X797318Y2069155D02*
G01*
X876327Y2069155D01*
X891567Y2053915D02*
G01*
X891567Y1984674D01*
X673066Y1969434D02*
G01*
X752076Y1969434D01*
X752076Y2069155D02*
G01*
X673066Y2069155D01*
X657826Y2053915D02*
G01*
X657826Y1984674D01*
X876327Y2147234D02*
G01*
X797318Y2147234D01*
X797318Y2246955D02*
G01*
X876327Y2246955D01*
X891567Y2231715D02*
G01*
X891567Y2162474D01*
X673066Y2147234D02*
G01*
X752076Y2147234D01*
X752076Y2246955D02*
G01*
X673066Y2246955D01*
X657826Y2231715D02*
G01*
X657826Y2162474D01*
X-314721Y2234255D02*
G01*
X-386524Y2234255D01*
X-386524Y2134534D01*
X-314721Y2134534D01*
X-269478Y2234255D02*
G01*
X-197675Y2234255D01*
X-197675Y2134534D01*
X-269478Y2134534D01*
X35321Y2234252D02*
G01*
X114330Y2234252D01*
X114330Y2134537D02*
G01*
X35321Y2134537D01*
X129573Y2219015D02*
G01*
X129573Y2149774D01*
X-88930Y2134537D02*
G01*
X-9921Y2134537D01*
X-9921Y2234252D02*
G01*
X-88930Y2234252D01*
X-104173Y2219015D02*
G01*
X-104173Y2149774D01*
X128518Y-2082774D02*
G01*
X128518Y-2260615D01*
X-179318Y-2082774D02*
G01*
X-179318Y-2260615D01*
G75*
G01*
X2019330Y-2908122D02*
G02*
X2034570Y-2923362I0J-15240D01*
G75*
G01*
X2034570Y-2992603D02*
G02*
X2019330Y-3007843I-15240J0D01*
G75*
G01*
X1816070Y-2908122D02*
G03*
X1800830Y-2923362I0J-15240D01*
G75*
G01*
X1800830Y-2992603D02*
G03*
X1816070Y-3007843I15240J0D01*
D12*
G75*
G01*
X-15898Y-1887982D02*
G02*
X-16002Y-1488084I-52J199949D01*
G75*
G01*
X1338100Y-1487983D02*
G02*
X1338204Y-1887880I52J-199949D01*
D10*
G75*
G01*
X-775637Y-2221525D02*
G02*
X-790877Y-2236765I-15240J0D01*
G75*
G01*
X-860118Y-2236765D02*
G02*
X-875358Y-2221525I0J15240D01*
G75*
G01*
X-775637Y-2018264D02*
G03*
X-790877Y-2003024I-15240J0D01*
G75*
G01*
X-860118Y-2003024D02*
G03*
X-875358Y-2018264I0J-15240D01*
G75*
G01*
X-902637Y-2221525D02*
G02*
X-917877Y-2236765I-15240J0D01*
G75*
G01*
X-987118Y-2236765D02*
G02*
X-1002358Y-2221525I0J15240D01*
G75*
G01*
X-902637Y-2018264D02*
G03*
X-917877Y-2003024I-15240J0D01*
G75*
G01*
X-987118Y-2003024D02*
G03*
X-1002358Y-2018264I0J-15240D01*
G75*
G01*
X2106734Y-2040374D02*
G02*
X2121974Y-2025134I15240J0D01*
G75*
G01*
X2272215Y-2025134D02*
G02*
X2287455Y-2040374I0J-15240D01*
G75*
G01*
X2106734Y-2402614D02*
G03*
X2121974Y-2417854I15240J0D01*
G75*
G01*
X2272215Y-2417854D02*
G03*
X2287455Y-2402614I0J15240D01*
G75*
G01*
X1914378Y-2654752D02*
G02*
X1899138Y-2639512I0J15240D01*
G75*
G01*
X1899138Y-2489271D02*
G02*
X1914378Y-2474031I15240J0D01*
G75*
G01*
X2276617Y-2654752D02*
G03*
X2291857Y-2639512I0J15240D01*
G75*
G01*
X2291857Y-2489271D02*
G03*
X2276617Y-2474031I-15240J0D01*
D11*
G75*
G01*
X1618137Y773463D02*
G03*
X1649123Y742480I30983J0D01*
G75*
G01*
X1729120Y742480D02*
G03*
X1760103Y773463I0J30983D01*
G75*
G01*
X1760057Y989493D02*
G03*
X1729075Y1020473I-30982J-3D01*
G75*
G01*
X1649077Y1020473D02*
G03*
X1618089Y989493I-5J-30983D01*
D10*
G75*
G01*
X1573860Y779851D02*
G02*
X1558620Y764611I-15240J0D01*
G75*
G01*
X1489380Y764611D02*
G02*
X1474140Y779851I0J15240D01*
G75*
G01*
X1573860Y983112D02*
G03*
X1558620Y998352I-15240J0D01*
G75*
G01*
X1489380Y998352D02*
G03*
X1474140Y983112I0J-15240D01*
G75*
G01*
X1317320Y764611D02*
G03*
X1332560Y779851I0J15240D01*
G75*
G01*
X1232840Y779851D02*
G03*
X1248080Y764611I15240J0D01*
G75*
G01*
X1317320Y998352D02*
G02*
X1332560Y983112I0J-15240D01*
G75*
G01*
X1232840Y983112D02*
G02*
X1248080Y998352I15240J0D01*
G75*
G01*
X1105840Y983112D02*
G02*
X1121080Y998352I15240J0D01*
G75*
G01*
X1190320Y998352D02*
G02*
X1205560Y983112I0J-15240D01*
G75*
G01*
X1105840Y779851D02*
G03*
X1121080Y764611I15240J0D01*
G75*
G01*
X1190320Y764611D02*
G03*
X1205560Y779851I0J15240D01*
G75*
G01*
X72720Y797527D02*
G03*
X87960Y812767I0J15240D01*
G75*
G01*
X-11760Y812767D02*
G03*
X3480Y797527I15240J0D01*
G75*
G01*
X72720Y1031268D02*
G02*
X87960Y1016028I0J-15240D01*
G75*
G01*
X-11760Y1016028D02*
G02*
X3480Y1031268I15240J0D01*
G75*
G01*
X199720Y797527D02*
G03*
X214960Y812767I0J15240D01*
G75*
G01*
X115240Y1016028D02*
G02*
X130480Y1031268I15240J0D01*
G75*
G01*
X199720Y1031268D02*
G02*
X214960Y1016028I0J-15240D01*
G75*
G01*
X115240Y812767D02*
G03*
X130480Y797527I15240J0D01*
G75*
G01*
X-123520Y1031268D02*
G03*
X-138760Y1016028I0J-15240D01*
G75*
G01*
X-39040Y812767D02*
G02*
X-54280Y797527I-15240J0D01*
G75*
G01*
X-123520Y797527D02*
G02*
X-138760Y812767I0J15240D01*
G75*
G01*
X-39040Y1016028D02*
G03*
X-54280Y1031268I-15240J0D01*
G75*
G01*
X876328Y2069155D02*
G02*
X891568Y2053915I0J-15240D01*
G75*
G01*
X891568Y1984675D02*
G02*
X876328Y1969435I-15240J0D01*
G75*
G01*
X673067Y2069155D02*
G03*
X657827Y2053915I0J-15240D01*
G75*
G01*
X657827Y1984675D02*
G03*
X673067Y1969435I15240J0D01*
G75*
G01*
X876328Y2246955D02*
G02*
X891568Y2231715I0J-15240D01*
G75*
G01*
X891568Y2162475D02*
G02*
X876328Y2147235I-15240J0D01*
G75*
G01*
X673067Y2246955D02*
G03*
X657827Y2231715I0J-15240D01*
G75*
G01*
X657827Y2162475D02*
G03*
X673067Y2147235I15240J0D01*
G75*
G01*
X-104170Y2149775D02*
G03*
X-88930Y2134535I15240J0D01*
G75*
G01*
X-88930Y2234255D02*
G03*
X-104170Y2219015I0J-15240D01*
G75*
G01*
X129570Y2149775D02*
G02*
X114330Y2134535I-15240J0D01*
G75*
G01*
X114330Y2234255D02*
G02*
X129570Y2219015I0J-15240D01*
D12*
G75*
G01
X1394816Y-1687982D02*
G03X1394816Y-1687982I-35916J0D01*
D16*
G75*
G01
X-481762Y-1892478D02*
G03X-481762Y-1892478I-7493J0D01*
D11*
G75*
G01
X96926Y1988414D02*
G03X96926Y1988414I-12700J0D01*
G75*
G01
X-101625Y652805D02*
G03X-101625Y652805I-25400J0D01*
D17*
G75*
G01
X-177216Y-2041550D02*
G03X-177216Y-2041550I-15011J0D01*
M02*
