G04 Layer: TopPasteMaskLayer*
G04 EasyEDA v6.5.51, 2026-03-31 14:52:47*
G04 c52bac0a0f6b4f269256ffdab479d323,9ef13e28356e43f28898171320600188,10*
G04 Gerber Generator version 0.2*
G04 Scale: 100 percent, Rotated: No, Reflected: No *
G04 Dimensions in millimeters *
G04 leading zeros omitted , absolute positions ,4 integer and 5 decimal *
%FSLAX45Y45*%
%MOMM*%

%AMMACRO1*4,1,48,0.2723,0.1901,0.2723,0.1902,0.245,0.1736,0.2166,0.1588,0.1873,0.1459,0.1573,0.1349,0.1266,0.1258,0.0954,0.1187,0.0638,0.1136,0.032,0.1105,0,0.1095,-0.032,0.1105,-0.0638,0.1136,-0.0954,0.1187,-0.1266,0.1258,-0.1573,0.1349,-0.1873,0.1459,-0.2166,0.1588,-0.245,0.1736,-0.2723,0.1902,-0.4872,-0.0248,-0.4872,-0.025,-0.4533,-0.0496,-0.4182,-0.0725,-0.3819,-0.0934,-0.3446,-0.1124,-0.3063,-0.1295,-0.2672,-0.1445,-0.2273,-0.1575,-0.1869,-0.1683,-0.1459,-0.177,-0.1045,-0.1836,-0.0628,-0.188,-0.021,-0.1902,0.0209,-0.1902,0.0628,-0.188,0.1044,-0.1836,0.1458,-0.1771,0.1868,-0.1684,0.2273,-0.1575,0.2671,-0.1445,0.3063,-0.1295,0.3446,-0.1124,0.3818,-0.0934,0.4181,-0.0725,0.4533,-0.0496,0.4872,-0.025,0.4872,-0.0249,0.2723,0.1901,0*%
%AMMACRO2*4,1,48,-0.19,0.2723,-0.1902,0.2723,-0.1736,0.245,-0.1588,0.2166,-0.1459,0.1873,-0.1349,0.1573,-0.1258,0.1266,-0.1187,0.0954,-0.1136,0.0638,-0.1105,0.032,-0.1095,0,-0.1105,-0.032,-0.1136,-0.0638,-0.1187,-0.0954,-0.1258,-0.1266,-0.1349,-0.1573,-0.1459,-0.1873,-0.1588,-0.2166,-0.1736,-0.245,-0.1901,-0.2723,0.0248,-0.4872,0.025,-0.4872,0.0496,-0.4533,0.0725,-0.4182,0.0934,-0.3819,0.1125,-0.3446,0.1295,-0.3063,0.1445,-0.2672,0.1575,-0.2274,0.1684,-0.1869,0.1771,-0.1459,0.1836,-0.1045,0.188,-0.0628,0.1902,-0.021,0.1902,0.0209,0.188,0.0628,0.1836,0.1044,0.1771,0.1458,0.1684,0.1868,0.1575,0.2273,0.1445,0.2671,0.1295,0.3063,0.1125,0.3446,0.0934,0.3818,0.0725,0.4181,0.0496,0.4533,0.025,0.4872,0.0249,0.4872,-0.19,0.2723,0*%
%AMMACRO3*4,1,48,-0.2723,-0.1901,-0.2723,-0.1902,-0.245,-0.1736,-0.2166,-0.1588,-0.1873,-0.1459,-0.1573,-0.1349,-0.1266,-0.1258,-0.0954,-0.1187,-0.0638,-0.1136,-0.032,-0.1105,0,-0.1095,0.032,-0.1105,0.0638,-0.1136,0.0954,-0.1187,0.1266,-0.1258,0.1573,-0.1349,0.1873,-0.1459,0.2166,-0.1588,0.245,-0.1736,0.2723,-0.1902,0.4872,0.0248,0.4872,0.025,0.4533,0.0496,0.4182,0.0725,0.3819,0.0934,0.3446,0.1124,0.3063,0.1295,0.2672,0.1445,0.2273,0.1575,0.1869,0.1683,0.1459,0.177,0.1045,0.1836,0.0628,0.188,0.021,0.1902,-0.0209,0.1902,-0.0628,0.188,-0.1044,0.1836,-0.1458,0.1771,-0.1868,0.1684,-0.2273,0.1575,-0.2671,0.1445,-0.3063,0.1295,-0.3446,0.1124,-0.3818,0.0934,-0.4181,0.0725,-0.4533,0.0496,-0.4872,0.025,-0.4872,0.0249,-0.2723,-0.1901,0*%
%AMMACRO4*4,1,48,0.1901,-0.2723,0.1902,-0.2723,0.1736,-0.245,0.1588,-0.2166,0.1459,-0.1873,0.1349,-0.1573,0.1258,-0.1266,0.1187,-0.0954,0.1136,-0.0638,0.1105,-0.032,0.1095,0,0.1105,0.032,0.1136,0.0638,0.1187,0.0954,0.1258,0.1266,0.1349,0.1573,0.1459,0.1873,0.1588,0.2166,0.1736,0.245,0.1902,0.2723,-0.0248,0.4872,-0.025,0.4872,-0.0496,0.4533,-0.0724,0.4182,-0.0934,0.3819,-0.1124,0.3446,-0.1295,0.3063,-0.1445,0.2672,-0.1575,0.2273,-0.1683,0.1869,-0.177,0.1459,-0.1836,0.1045,-0.1879,0.0628,-0.1902,0.021,-0.1902,-0.0209,-0.1879,-0.0628,-0.1836,-0.1044,-0.1771,-0.1458,-0.1684,-0.1868,-0.1575,-0.2273,-0.1445,-0.2671,-0.1295,-0.3063,-0.1124,-0.3446,-0.0934,-0.3818,-0.0724,-0.4181,-0.0496,-0.4533,-0.025,-0.4872,-0.0249,-0.4872,0.1901,-0.2723,0*%
%ADD10R,1.7000X0.8000*%
%ADD11R,1.4000X1.5000*%
%ADD12R,1.0720X0.5320*%
%ADD13R,1.4000X2.1200*%
%ADD14R,0.7250X0.5220*%
%ADD15MACRO1*%
%ADD16MACRO2*%
%ADD17C,0.0141*%
%ADD18MACRO3*%
%ADD19MACRO4*%
%ADD20R,0.6000X0.3000*%
%ADD21R,0.8000X0.8000*%
%ADD22R,0.9000X1.5000*%
%ADD23R,1.5000X0.9000*%
%ADD24R,0.9000X0.9000*%
%ADD25R,0.3000X1.3000*%

%LPD*%
G36*
X1332839Y-2346553D02*
G01*
X1325829Y-2351532D01*
X1325829Y-2396540D01*
X1332839Y-2401519D01*
X1380845Y-2401519D01*
X1385874Y-2396540D01*
X1385874Y-2351532D01*
X1380845Y-2346553D01*
G37*
G36*
X1234846Y-2346553D02*
G01*
X1229868Y-2351532D01*
X1229868Y-2396540D01*
X1234846Y-2401519D01*
X1282852Y-2401519D01*
X1289862Y-2396540D01*
X1289862Y-2351532D01*
X1282852Y-2346553D01*
G37*
G36*
X1332839Y-2765653D02*
G01*
X1327861Y-2770632D01*
X1327861Y-2815640D01*
X1332839Y-2820619D01*
X1385824Y-2820619D01*
X1390853Y-2815640D01*
X1390853Y-2770632D01*
X1385824Y-2765653D01*
G37*
G36*
X1229817Y-2765653D02*
G01*
X1224838Y-2770632D01*
X1224838Y-2815640D01*
X1229817Y-2820619D01*
X1282852Y-2820619D01*
X1287830Y-2815640D01*
X1287830Y-2770632D01*
X1282852Y-2765653D01*
G37*
G36*
X447395Y-2760065D02*
G01*
X442417Y-2767076D01*
X442417Y-2815082D01*
X447395Y-2820111D01*
X492404Y-2820111D01*
X497382Y-2815082D01*
X497382Y-2767076D01*
X492404Y-2760065D01*
G37*
G36*
X447395Y-2664104D02*
G01*
X442417Y-2669082D01*
X442417Y-2717088D01*
X447395Y-2724099D01*
X492404Y-2724099D01*
X497382Y-2717088D01*
X497382Y-2669082D01*
X492404Y-2664104D01*
G37*
G36*
X1332839Y-2206853D02*
G01*
X1325829Y-2211832D01*
X1325829Y-2256840D01*
X1332839Y-2261819D01*
X1380845Y-2261819D01*
X1385874Y-2256840D01*
X1385874Y-2211832D01*
X1380845Y-2206853D01*
G37*
G36*
X1234846Y-2206853D02*
G01*
X1229868Y-2211832D01*
X1229868Y-2256840D01*
X1234846Y-2261819D01*
X1282852Y-2261819D01*
X1289862Y-2256840D01*
X1289862Y-2211832D01*
X1282852Y-2206853D01*
G37*
G36*
X739495Y-2760065D02*
G01*
X734517Y-2767076D01*
X734517Y-2815082D01*
X739495Y-2820111D01*
X784504Y-2820111D01*
X789482Y-2815082D01*
X789482Y-2767076D01*
X784504Y-2760065D01*
G37*
G36*
X739495Y-2664104D02*
G01*
X734517Y-2669082D01*
X734517Y-2717088D01*
X739495Y-2724099D01*
X784504Y-2724099D01*
X789482Y-2717088D01*
X789482Y-2669082D01*
X784504Y-2664104D01*
G37*
G36*
X1332839Y-1775053D02*
G01*
X1327861Y-1780032D01*
X1327861Y-1825040D01*
X1332839Y-1830019D01*
X1385824Y-1830019D01*
X1390853Y-1825040D01*
X1390853Y-1780032D01*
X1385824Y-1775053D01*
G37*
G36*
X1229817Y-1775053D02*
G01*
X1224838Y-1780032D01*
X1224838Y-1825040D01*
X1229817Y-1830019D01*
X1282852Y-1830019D01*
X1287830Y-1825040D01*
X1287830Y-1780032D01*
X1282852Y-1775053D01*
G37*
G36*
X-98399Y-2485999D02*
G01*
X-103378Y-2490978D01*
X-103378Y-2535986D01*
X-98399Y-2540965D01*
X-50393Y-2540965D01*
X-43383Y-2535986D01*
X-43383Y-2490978D01*
X-50393Y-2485999D01*
G37*
G36*
X-406Y-2485999D02*
G01*
X-7416Y-2490978D01*
X-7416Y-2535986D01*
X-406Y-2540965D01*
X47599Y-2540965D01*
X52578Y-2535986D01*
X52578Y-2490978D01*
X47599Y-2485999D01*
G37*
G36*
X1018387Y-1794205D02*
G01*
X1014374Y-1798218D01*
X1014374Y-1848256D01*
X1018387Y-1852269D01*
X1064412Y-1852269D01*
X1068425Y-1848256D01*
X1068425Y-1798218D01*
X1064412Y-1794205D01*
G37*
G36*
X1018387Y-1879295D02*
G01*
X1014374Y-1883257D01*
X1014374Y-1933346D01*
X1018387Y-1937359D01*
X1064412Y-1937359D01*
X1068425Y-1933346D01*
X1068425Y-1883257D01*
X1064412Y-1879295D01*
G37*
G36*
X-581812Y-224231D02*
G01*
X-585825Y-228193D01*
X-585825Y-278282D01*
X-581812Y-282295D01*
X-535787Y-282295D01*
X-531774Y-278282D01*
X-531774Y-228193D01*
X-535787Y-224231D01*
G37*
G36*
X-581812Y-139141D02*
G01*
X-585825Y-143154D01*
X-585825Y-193192D01*
X-581812Y-197205D01*
X-535787Y-197205D01*
X-531774Y-193192D01*
X-531774Y-143154D01*
X-535787Y-139141D01*
G37*
G36*
X2012086Y-2335225D02*
G01*
X2008124Y-2339238D01*
X2008124Y-2385212D01*
X2012086Y-2389225D01*
X2062175Y-2389225D01*
X2066188Y-2385212D01*
X2066188Y-2339238D01*
X2062175Y-2335225D01*
G37*
G36*
X2097176Y-2335225D02*
G01*
X2093163Y-2339238D01*
X2093163Y-2385212D01*
X2097176Y-2389225D01*
X2147214Y-2389225D01*
X2151227Y-2385212D01*
X2151227Y-2339238D01*
X2147214Y-2335225D01*
G37*
G36*
X1796186Y-2335225D02*
G01*
X1792224Y-2339238D01*
X1792224Y-2385212D01*
X1796186Y-2389225D01*
X1846275Y-2389225D01*
X1850288Y-2385212D01*
X1850288Y-2339238D01*
X1846275Y-2335225D01*
G37*
G36*
X1881276Y-2335225D02*
G01*
X1877263Y-2339238D01*
X1877263Y-2385212D01*
X1881276Y-2389225D01*
X1931314Y-2389225D01*
X1935327Y-2385212D01*
X1935327Y-2339238D01*
X1931314Y-2335225D01*
G37*
G36*
X3209036Y2273147D02*
G01*
X3204006Y2268118D01*
X3204006Y2220112D01*
X3209036Y2213152D01*
X3253994Y2213152D01*
X3259023Y2220112D01*
X3259023Y2268118D01*
X3253994Y2273147D01*
G37*
G36*
X3209036Y2177135D02*
G01*
X3204006Y2170125D01*
X3204006Y2122119D01*
X3209036Y2117140D01*
X3253994Y2117140D01*
X3259023Y2122119D01*
X3259023Y2170125D01*
X3253994Y2177135D01*
G37*
G36*
X3181197Y1064412D02*
G01*
X3176168Y1059434D01*
X3176168Y1014425D01*
X3181197Y1009446D01*
X3229203Y1009446D01*
X3236163Y1014425D01*
X3236163Y1059434D01*
X3229203Y1064412D01*
G37*
G36*
X3279190Y1064412D02*
G01*
X3272180Y1059434D01*
X3272180Y1014425D01*
X3279190Y1009446D01*
X3327196Y1009446D01*
X3332175Y1014425D01*
X3332175Y1059434D01*
X3327196Y1064412D01*
G37*
G36*
X637895Y-1579676D02*
G01*
X632917Y-1584706D01*
X632917Y-1637690D01*
X637895Y-1642719D01*
X682904Y-1642719D01*
X687882Y-1637690D01*
X687882Y-1584706D01*
X682904Y-1579676D01*
G37*
G36*
X637895Y-1682699D02*
G01*
X632917Y-1687677D01*
X632917Y-1740712D01*
X637895Y-1745691D01*
X682904Y-1745691D01*
X687882Y-1740712D01*
X687882Y-1687677D01*
X682904Y-1682699D01*
G37*
G36*
X383895Y-1579676D02*
G01*
X378917Y-1584706D01*
X378917Y-1637690D01*
X383895Y-1642719D01*
X428904Y-1642719D01*
X433882Y-1637690D01*
X433882Y-1584706D01*
X428904Y-1579676D01*
G37*
G36*
X383895Y-1682699D02*
G01*
X378917Y-1687677D01*
X378917Y-1740712D01*
X383895Y-1745691D01*
X428904Y-1745691D01*
X433882Y-1740712D01*
X433882Y-1687677D01*
X428904Y-1682699D01*
G37*
G36*
X192887Y-1142796D02*
G01*
X188874Y-1146810D01*
X188874Y-1196848D01*
X192887Y-1200861D01*
X238912Y-1200861D01*
X242925Y-1196848D01*
X242925Y-1146810D01*
X238912Y-1142796D01*
G37*
G36*
X192887Y-1057706D02*
G01*
X188874Y-1061720D01*
X188874Y-1111808D01*
X192887Y-1115771D01*
X238912Y-1115771D01*
X242925Y-1111808D01*
X242925Y-1061720D01*
X238912Y-1057706D01*
G37*
G36*
X-98399Y-2613101D02*
G01*
X-103378Y-2618079D01*
X-103378Y-2663088D01*
X-98399Y-2668066D01*
X-50393Y-2668066D01*
X-43383Y-2663088D01*
X-43383Y-2618079D01*
X-50393Y-2613101D01*
G37*
G36*
X-406Y-2613101D02*
G01*
X-7416Y-2618079D01*
X-7416Y-2663088D01*
X-406Y-2668066D01*
X47599Y-2668066D01*
X52578Y-2663088D01*
X52578Y-2618079D01*
X47599Y-2613101D01*
G37*
G36*
X586994Y-2760116D02*
G01*
X581964Y-2767126D01*
X581964Y-2815132D01*
X586994Y-2820111D01*
X631952Y-2820111D01*
X636981Y-2815132D01*
X636981Y-2767126D01*
X631952Y-2760116D01*
G37*
G36*
X586994Y-2664104D02*
G01*
X581964Y-2669133D01*
X581964Y-2717139D01*
X586994Y-2724099D01*
X631952Y-2724099D01*
X636981Y-2717139D01*
X636981Y-2669133D01*
X631952Y-2664104D01*
G37*
G36*
X839774Y-1982368D02*
G01*
X837184Y-1982876D01*
X834339Y-1984400D01*
X832459Y-1986280D01*
X830935Y-1989124D01*
X830427Y-1991715D01*
X830478Y-2053640D01*
X830732Y-2054910D01*
X831443Y-2056790D01*
X832916Y-2058924D01*
X834847Y-2060651D01*
X835964Y-2061311D01*
X837844Y-2062022D01*
X839114Y-2062276D01*
X842365Y-2062175D01*
X845413Y-2061006D01*
X847496Y-2059432D01*
X849071Y-2057349D01*
X850239Y-2054301D01*
X850392Y-2052980D01*
X850341Y-1991055D01*
X850087Y-1989734D01*
X849376Y-1987905D01*
X847902Y-1985772D01*
X845972Y-1984044D01*
X844854Y-1983384D01*
X842975Y-1982673D01*
X841705Y-1982419D01*
G37*
G36*
X639775Y-1982368D02*
G01*
X637184Y-1982876D01*
X634339Y-1984400D01*
X632460Y-1986280D01*
X630936Y-1989124D01*
X630428Y-1991715D01*
X630478Y-2053640D01*
X630732Y-2054910D01*
X631444Y-2056790D01*
X632866Y-2058924D01*
X634847Y-2060651D01*
X635965Y-2061311D01*
X637844Y-2062022D01*
X639114Y-2062276D01*
X642366Y-2062175D01*
X645414Y-2061006D01*
X647496Y-2059432D01*
X649071Y-2057349D01*
X650240Y-2054301D01*
X650392Y-2052980D01*
X650341Y-1991055D01*
X650087Y-1989734D01*
X649376Y-1987905D01*
X647954Y-1985772D01*
X645972Y-1984044D01*
X644855Y-1983384D01*
X642975Y-1982673D01*
X641705Y-1982419D01*
G37*
G36*
X759764Y-1982368D02*
G01*
X757174Y-1982876D01*
X754329Y-1984400D01*
X752449Y-1986280D01*
X750925Y-1989124D01*
X750417Y-1991715D01*
X750468Y-2053640D01*
X750722Y-2054910D01*
X751433Y-2056790D01*
X752906Y-2058924D01*
X754837Y-2060651D01*
X755954Y-2061311D01*
X757834Y-2062022D01*
X759104Y-2062276D01*
X762355Y-2062175D01*
X765403Y-2061006D01*
X767486Y-2059432D01*
X769061Y-2057349D01*
X770229Y-2054301D01*
X770382Y-2052980D01*
X770331Y-1991055D01*
X770077Y-1989734D01*
X769366Y-1987905D01*
X767943Y-1985772D01*
X765962Y-1984044D01*
X764844Y-1983384D01*
X762965Y-1982673D01*
X761695Y-1982419D01*
G37*
G36*
X559765Y-1982368D02*
G01*
X557174Y-1982876D01*
X554329Y-1984400D01*
X552450Y-1986280D01*
X550926Y-1989124D01*
X550418Y-1991715D01*
X550468Y-2053640D01*
X550722Y-2054910D01*
X551434Y-2056790D01*
X552856Y-2058924D01*
X554837Y-2060651D01*
X555955Y-2061311D01*
X557834Y-2062022D01*
X559104Y-2062276D01*
X562356Y-2062175D01*
X565404Y-2061006D01*
X567486Y-2059432D01*
X569061Y-2057349D01*
X570230Y-2054301D01*
X570382Y-2052980D01*
X570331Y-1991055D01*
X570077Y-1989734D01*
X569366Y-1987905D01*
X567893Y-1985772D01*
X565962Y-1984044D01*
X564845Y-1983384D01*
X562965Y-1982673D01*
X561695Y-1982419D01*
G37*
G36*
X799744Y-1982368D02*
G01*
X797204Y-1982876D01*
X795426Y-1983689D01*
X793800Y-1984806D01*
X791718Y-1987346D01*
X790600Y-1990394D01*
X790448Y-1991715D01*
X790498Y-2053640D01*
X791159Y-2056180D01*
X791718Y-2057349D01*
X793800Y-2059889D01*
X795426Y-2061006D01*
X798474Y-2062175D01*
X801725Y-2062276D01*
X802995Y-2062022D01*
X804824Y-2061311D01*
X806500Y-2060295D01*
X808736Y-2057907D01*
X809853Y-2055571D01*
X810361Y-2052980D01*
X810310Y-1991055D01*
X809396Y-1987905D01*
X807466Y-1985264D01*
X806500Y-1984400D01*
X804824Y-1983384D01*
X802995Y-1982673D01*
X801725Y-1982419D01*
G37*
G36*
X599744Y-1982368D02*
G01*
X597204Y-1982876D01*
X595426Y-1983689D01*
X593801Y-1984806D01*
X591769Y-1987346D01*
X591159Y-1988515D01*
X590600Y-1990394D01*
X590448Y-1991715D01*
X590499Y-2053640D01*
X591159Y-2056180D01*
X592886Y-2058924D01*
X593801Y-2059889D01*
X595426Y-2061006D01*
X598474Y-2062175D01*
X601726Y-2062276D01*
X602996Y-2062022D01*
X604824Y-2061311D01*
X606501Y-2060295D01*
X608736Y-2057907D01*
X609854Y-2055571D01*
X610362Y-2052980D01*
X610311Y-1991055D01*
X609396Y-1987905D01*
X607466Y-1985264D01*
X606501Y-1984400D01*
X604824Y-1983384D01*
X602996Y-1982673D01*
X601726Y-1982419D01*
G37*
G36*
X679754Y-1982368D02*
G01*
X677164Y-1982876D01*
X674319Y-1984400D01*
X672439Y-1986280D01*
X670915Y-1989124D01*
X670407Y-1991715D01*
X670458Y-2053640D01*
X670712Y-2054910D01*
X671423Y-2056790D01*
X672846Y-2058924D01*
X674827Y-2060651D01*
X675944Y-2061311D01*
X677824Y-2062022D01*
X679094Y-2062276D01*
X682345Y-2062175D01*
X685393Y-2061006D01*
X687476Y-2059432D01*
X689051Y-2057349D01*
X690219Y-2054301D01*
X690372Y-2052980D01*
X690321Y-1991055D01*
X690067Y-1989734D01*
X689356Y-1987905D01*
X687933Y-1985772D01*
X685952Y-1984044D01*
X684834Y-1983384D01*
X682955Y-1982673D01*
X681685Y-1982419D01*
G37*
G36*
X479755Y-1982368D02*
G01*
X477164Y-1982876D01*
X474319Y-1984400D01*
X472440Y-1986280D01*
X470916Y-1989124D01*
X470408Y-1991715D01*
X470458Y-2053640D01*
X470712Y-2054910D01*
X471424Y-2056790D01*
X472897Y-2058924D01*
X474827Y-2060651D01*
X475945Y-2061311D01*
X477824Y-2062022D01*
X479094Y-2062276D01*
X482346Y-2062175D01*
X485393Y-2061006D01*
X487476Y-2059432D01*
X489051Y-2057349D01*
X490220Y-2054301D01*
X490372Y-2052980D01*
X490321Y-1991055D01*
X490067Y-1989734D01*
X489356Y-1987905D01*
X487883Y-1985772D01*
X485952Y-1984044D01*
X484835Y-1983384D01*
X482955Y-1982673D01*
X481685Y-1982419D01*
G37*
G36*
X719734Y-1982368D02*
G01*
X717194Y-1982876D01*
X715416Y-1983689D01*
X713790Y-1984806D01*
X711758Y-1987346D01*
X711149Y-1988515D01*
X710590Y-1990394D01*
X710438Y-1991715D01*
X710488Y-2053640D01*
X711149Y-2056180D01*
X712876Y-2058924D01*
X713790Y-2059889D01*
X715416Y-2061006D01*
X718464Y-2062175D01*
X721715Y-2062276D01*
X722985Y-2062022D01*
X724814Y-2061311D01*
X726490Y-2060295D01*
X728726Y-2057907D01*
X729843Y-2055571D01*
X730351Y-2052980D01*
X730300Y-1991055D01*
X729386Y-1987905D01*
X727456Y-1985264D01*
X726490Y-1984400D01*
X724814Y-1983384D01*
X722985Y-1982673D01*
X721715Y-1982419D01*
G37*
G36*
X519734Y-1982368D02*
G01*
X517194Y-1982876D01*
X515416Y-1983689D01*
X513791Y-1984806D01*
X511708Y-1987346D01*
X510590Y-1990394D01*
X510438Y-1991715D01*
X510489Y-2053640D01*
X511149Y-2056180D01*
X511708Y-2057349D01*
X513791Y-2059889D01*
X515416Y-2061006D01*
X518464Y-2062175D01*
X521716Y-2062276D01*
X522985Y-2062022D01*
X524814Y-2061311D01*
X526491Y-2060295D01*
X528726Y-2057907D01*
X529844Y-2055571D01*
X530352Y-2052980D01*
X530301Y-1991055D01*
X529386Y-1987905D01*
X527456Y-1985264D01*
X526491Y-1984400D01*
X524814Y-1983384D01*
X522985Y-1982673D01*
X521716Y-1982419D01*
G37*
G36*
X879703Y-2082292D02*
G01*
X877112Y-2082800D01*
X874268Y-2084324D01*
X872388Y-2086203D01*
X870864Y-2089048D01*
X870356Y-2091639D01*
X870407Y-2093569D01*
X870661Y-2094839D01*
X871372Y-2096719D01*
X872794Y-2098852D01*
X874776Y-2100580D01*
X875893Y-2101240D01*
X877722Y-2101951D01*
X879043Y-2102205D01*
X940968Y-2102256D01*
X943559Y-2101748D01*
X946403Y-2100224D01*
X948283Y-2098344D01*
X949807Y-2095500D01*
X950315Y-2092909D01*
X950264Y-2090978D01*
X950010Y-2089708D01*
X949299Y-2087829D01*
X947877Y-2085695D01*
X945896Y-2083968D01*
X944778Y-2083307D01*
X942949Y-2082596D01*
X941628Y-2082342D01*
G37*
G36*
X379831Y-2082292D02*
G01*
X377240Y-2082800D01*
X374396Y-2084324D01*
X372516Y-2086203D01*
X370992Y-2089048D01*
X370484Y-2091639D01*
X370535Y-2093569D01*
X370789Y-2094839D01*
X371500Y-2096719D01*
X372922Y-2098852D01*
X374904Y-2100580D01*
X376021Y-2101240D01*
X377850Y-2101951D01*
X379171Y-2102205D01*
X441096Y-2102256D01*
X443687Y-2101748D01*
X446532Y-2100224D01*
X448411Y-2098344D01*
X449935Y-2095500D01*
X450443Y-2092909D01*
X450392Y-2090978D01*
X450138Y-2089708D01*
X449427Y-2087829D01*
X448005Y-2085695D01*
X446024Y-2083968D01*
X444906Y-2083307D01*
X443077Y-2082596D01*
X441756Y-2082342D01*
G37*
G36*
X524408Y-2136292D02*
G01*
X524408Y-2408275D01*
X796391Y-2408275D01*
X796391Y-2136292D01*
G37*
G36*
X880313Y-2122271D02*
G01*
X877722Y-2122627D01*
X875893Y-2123287D01*
X873252Y-2125218D01*
X872388Y-2126183D01*
X871372Y-2127859D01*
X870661Y-2129688D01*
X870407Y-2130958D01*
X870508Y-2134209D01*
X871677Y-2137257D01*
X872794Y-2138883D01*
X875334Y-2140915D01*
X876503Y-2141524D01*
X878382Y-2142083D01*
X879703Y-2142236D01*
X941628Y-2142185D01*
X944778Y-2141270D01*
X947419Y-2139340D01*
X948283Y-2138375D01*
X949299Y-2136698D01*
X950010Y-2134870D01*
X950264Y-2133600D01*
X950163Y-2130348D01*
X948994Y-2127300D01*
X947877Y-2125675D01*
X945337Y-2123592D01*
X942289Y-2122474D01*
X940968Y-2122322D01*
G37*
G36*
X380441Y-2122271D02*
G01*
X377850Y-2122627D01*
X376021Y-2123287D01*
X373380Y-2125218D01*
X372516Y-2126183D01*
X371500Y-2127859D01*
X370789Y-2129688D01*
X370535Y-2130958D01*
X370636Y-2134209D01*
X371805Y-2137257D01*
X372922Y-2138883D01*
X375462Y-2140915D01*
X376631Y-2141524D01*
X378510Y-2142083D01*
X379831Y-2142236D01*
X441756Y-2142185D01*
X444906Y-2141270D01*
X447548Y-2139340D01*
X448411Y-2138375D01*
X449427Y-2136698D01*
X450138Y-2134870D01*
X450392Y-2133600D01*
X450291Y-2130348D01*
X449122Y-2127300D01*
X448005Y-2125675D01*
X445465Y-2123592D01*
X442417Y-2122474D01*
X441096Y-2122322D01*
G37*
G36*
X879703Y-2162302D02*
G01*
X877112Y-2162810D01*
X874268Y-2164334D01*
X872388Y-2166213D01*
X870864Y-2169058D01*
X870356Y-2171649D01*
X870407Y-2173579D01*
X870661Y-2174849D01*
X871372Y-2176729D01*
X872794Y-2178862D01*
X874776Y-2180590D01*
X875893Y-2181250D01*
X877722Y-2181961D01*
X879043Y-2182215D01*
X940968Y-2182266D01*
X943559Y-2181758D01*
X946403Y-2180234D01*
X948283Y-2178354D01*
X949807Y-2175510D01*
X950315Y-2172919D01*
X950264Y-2170988D01*
X950010Y-2169718D01*
X949299Y-2167839D01*
X947877Y-2165705D01*
X945896Y-2163978D01*
X944778Y-2163318D01*
X942949Y-2162606D01*
X941628Y-2162352D01*
G37*
G36*
X379831Y-2162302D02*
G01*
X377240Y-2162810D01*
X374396Y-2164334D01*
X372516Y-2166213D01*
X370992Y-2169058D01*
X370484Y-2171649D01*
X370535Y-2173579D01*
X370789Y-2174849D01*
X371500Y-2176729D01*
X372922Y-2178862D01*
X374904Y-2180590D01*
X376021Y-2181250D01*
X377850Y-2181961D01*
X379171Y-2182215D01*
X441096Y-2182266D01*
X443687Y-2181758D01*
X446532Y-2180234D01*
X448411Y-2178354D01*
X449935Y-2175510D01*
X450443Y-2172919D01*
X450392Y-2170988D01*
X450138Y-2169718D01*
X449427Y-2167839D01*
X448005Y-2165705D01*
X446024Y-2163978D01*
X444906Y-2163318D01*
X443077Y-2162606D01*
X441756Y-2162352D01*
G37*
G36*
X880313Y-2202281D02*
G01*
X877722Y-2202637D01*
X875893Y-2203297D01*
X873252Y-2205228D01*
X872388Y-2206193D01*
X871372Y-2207869D01*
X870661Y-2209698D01*
X870407Y-2210968D01*
X870508Y-2214219D01*
X871677Y-2217267D01*
X872794Y-2218893D01*
X875334Y-2220925D01*
X876503Y-2221534D01*
X878382Y-2222093D01*
X879703Y-2222246D01*
X941628Y-2222195D01*
X944778Y-2221280D01*
X947419Y-2219350D01*
X948283Y-2218385D01*
X949299Y-2216708D01*
X950010Y-2214880D01*
X950264Y-2213610D01*
X950163Y-2210358D01*
X948994Y-2207310D01*
X947877Y-2205685D01*
X945337Y-2203602D01*
X942289Y-2202484D01*
X940968Y-2202332D01*
G37*
G36*
X380441Y-2202281D02*
G01*
X377850Y-2202637D01*
X376021Y-2203297D01*
X373380Y-2205228D01*
X372516Y-2206193D01*
X371500Y-2207869D01*
X370789Y-2209698D01*
X370535Y-2210968D01*
X370636Y-2214219D01*
X371805Y-2217267D01*
X372922Y-2218893D01*
X375462Y-2220925D01*
X376631Y-2221534D01*
X378510Y-2222093D01*
X379831Y-2222246D01*
X441756Y-2222195D01*
X444906Y-2221280D01*
X447548Y-2219350D01*
X448411Y-2218385D01*
X449427Y-2216708D01*
X450138Y-2214880D01*
X450392Y-2213610D01*
X450291Y-2210358D01*
X449122Y-2207310D01*
X448005Y-2205685D01*
X445465Y-2203602D01*
X442417Y-2202484D01*
X441096Y-2202332D01*
G37*
G36*
X879703Y-2242312D02*
G01*
X877112Y-2242820D01*
X874268Y-2244344D01*
X872388Y-2246223D01*
X870864Y-2249068D01*
X870356Y-2251659D01*
X870407Y-2253589D01*
X870661Y-2254859D01*
X871372Y-2256739D01*
X872794Y-2258872D01*
X874776Y-2260600D01*
X875893Y-2261260D01*
X877722Y-2261971D01*
X879043Y-2262225D01*
X940968Y-2262276D01*
X943559Y-2261768D01*
X946403Y-2260244D01*
X948283Y-2258364D01*
X949807Y-2255520D01*
X950315Y-2252929D01*
X950264Y-2250998D01*
X950010Y-2249728D01*
X949299Y-2247849D01*
X947877Y-2245715D01*
X945896Y-2243988D01*
X944778Y-2243328D01*
X942949Y-2242616D01*
X941628Y-2242362D01*
G37*
G36*
X379831Y-2242312D02*
G01*
X377240Y-2242820D01*
X374396Y-2244344D01*
X372516Y-2246223D01*
X370992Y-2249068D01*
X370484Y-2251659D01*
X370535Y-2253589D01*
X370789Y-2254859D01*
X371500Y-2256739D01*
X372922Y-2258872D01*
X374904Y-2260600D01*
X376021Y-2261260D01*
X377850Y-2261971D01*
X379171Y-2262225D01*
X441096Y-2262276D01*
X443687Y-2261768D01*
X446532Y-2260244D01*
X448411Y-2258364D01*
X449935Y-2255520D01*
X450443Y-2252929D01*
X450392Y-2250998D01*
X450138Y-2249728D01*
X449427Y-2247849D01*
X448005Y-2245715D01*
X446024Y-2243988D01*
X444906Y-2243328D01*
X443077Y-2242616D01*
X441756Y-2242362D01*
G37*
G36*
X879703Y-2282291D02*
G01*
X877112Y-2282799D01*
X874268Y-2284323D01*
X872388Y-2286203D01*
X870864Y-2289048D01*
X870356Y-2291638D01*
X870407Y-2293569D01*
X870661Y-2294839D01*
X871372Y-2296718D01*
X872794Y-2298852D01*
X874776Y-2300579D01*
X875893Y-2301240D01*
X877722Y-2301951D01*
X879043Y-2302205D01*
X940968Y-2302256D01*
X943559Y-2301748D01*
X946403Y-2300224D01*
X948283Y-2298344D01*
X949807Y-2295499D01*
X950315Y-2292908D01*
X950264Y-2290978D01*
X950010Y-2289708D01*
X949299Y-2287828D01*
X947877Y-2285695D01*
X945896Y-2283968D01*
X944778Y-2283307D01*
X942949Y-2282596D01*
X941628Y-2282342D01*
G37*
G36*
X379831Y-2282291D02*
G01*
X377240Y-2282799D01*
X374396Y-2284323D01*
X372516Y-2286203D01*
X370992Y-2289048D01*
X370484Y-2291638D01*
X370535Y-2293569D01*
X370789Y-2294839D01*
X371500Y-2296718D01*
X372922Y-2298852D01*
X374904Y-2300579D01*
X376021Y-2301240D01*
X377850Y-2301951D01*
X379171Y-2302205D01*
X441096Y-2302256D01*
X443687Y-2301748D01*
X446532Y-2300224D01*
X448411Y-2298344D01*
X449935Y-2295499D01*
X450443Y-2292908D01*
X450392Y-2290978D01*
X450138Y-2289708D01*
X449427Y-2287828D01*
X448005Y-2285695D01*
X446024Y-2283968D01*
X444906Y-2283307D01*
X443077Y-2282596D01*
X441756Y-2282342D01*
G37*
G36*
X880313Y-2322271D02*
G01*
X877722Y-2322626D01*
X875893Y-2323287D01*
X873252Y-2325217D01*
X872388Y-2326182D01*
X871372Y-2327859D01*
X870661Y-2329688D01*
X870407Y-2330958D01*
X870508Y-2334209D01*
X871677Y-2337257D01*
X872794Y-2338882D01*
X875334Y-2340965D01*
X878382Y-2342083D01*
X879703Y-2342235D01*
X941628Y-2342184D01*
X944778Y-2341270D01*
X947419Y-2339340D01*
X948283Y-2338374D01*
X949299Y-2336698D01*
X950010Y-2334869D01*
X950264Y-2333599D01*
X950163Y-2330348D01*
X948994Y-2327300D01*
X947877Y-2325674D01*
X945337Y-2323592D01*
X942289Y-2322474D01*
X940968Y-2322322D01*
G37*
G36*
X380441Y-2322271D02*
G01*
X377850Y-2322626D01*
X376021Y-2323287D01*
X373380Y-2325217D01*
X372516Y-2326182D01*
X371500Y-2327859D01*
X370789Y-2329688D01*
X370535Y-2330958D01*
X370636Y-2334209D01*
X371805Y-2337257D01*
X372922Y-2338882D01*
X375462Y-2340965D01*
X378510Y-2342083D01*
X379831Y-2342235D01*
X441756Y-2342184D01*
X444906Y-2341270D01*
X447548Y-2339340D01*
X448411Y-2338374D01*
X449427Y-2336698D01*
X450138Y-2334869D01*
X450392Y-2333599D01*
X450291Y-2330348D01*
X449122Y-2327300D01*
X448005Y-2325674D01*
X445465Y-2323592D01*
X442417Y-2322474D01*
X441096Y-2322322D01*
G37*
G36*
X879703Y-2362301D02*
G01*
X877112Y-2362809D01*
X874268Y-2364333D01*
X872388Y-2366213D01*
X870864Y-2369058D01*
X870356Y-2371648D01*
X870407Y-2373579D01*
X870661Y-2374849D01*
X871372Y-2376728D01*
X872794Y-2378862D01*
X874776Y-2380589D01*
X875893Y-2381250D01*
X877722Y-2381961D01*
X879043Y-2382215D01*
X940968Y-2382266D01*
X943559Y-2381758D01*
X946403Y-2380234D01*
X948283Y-2378354D01*
X949807Y-2375509D01*
X950315Y-2372918D01*
X950264Y-2370988D01*
X950010Y-2369718D01*
X949299Y-2367838D01*
X947877Y-2365705D01*
X945896Y-2363978D01*
X944778Y-2363317D01*
X942949Y-2362606D01*
X941628Y-2362352D01*
G37*
G36*
X379831Y-2362301D02*
G01*
X377240Y-2362809D01*
X374396Y-2364333D01*
X372516Y-2366213D01*
X370992Y-2369058D01*
X370484Y-2371648D01*
X370535Y-2373579D01*
X370789Y-2374849D01*
X371500Y-2376728D01*
X372922Y-2378862D01*
X374904Y-2380589D01*
X376021Y-2381250D01*
X377850Y-2381961D01*
X379171Y-2382215D01*
X441096Y-2382266D01*
X443687Y-2381758D01*
X446532Y-2380234D01*
X448411Y-2378354D01*
X449935Y-2375509D01*
X450443Y-2372918D01*
X450392Y-2370988D01*
X450138Y-2369718D01*
X449427Y-2367838D01*
X448005Y-2365705D01*
X446024Y-2363978D01*
X444906Y-2363317D01*
X443077Y-2362606D01*
X441756Y-2362352D01*
G37*
G36*
X880313Y-2402281D02*
G01*
X877722Y-2402636D01*
X875893Y-2403297D01*
X873252Y-2405227D01*
X872388Y-2406192D01*
X871372Y-2407869D01*
X870661Y-2409698D01*
X870407Y-2410968D01*
X870508Y-2414219D01*
X871677Y-2417267D01*
X872794Y-2418892D01*
X875334Y-2420924D01*
X876503Y-2421534D01*
X878382Y-2422093D01*
X879703Y-2422245D01*
X941628Y-2422194D01*
X944778Y-2421280D01*
X947419Y-2419350D01*
X948283Y-2418384D01*
X949299Y-2416708D01*
X950010Y-2414879D01*
X950264Y-2413609D01*
X950163Y-2410358D01*
X948994Y-2407310D01*
X947877Y-2405684D01*
X945337Y-2403602D01*
X942289Y-2402484D01*
X940968Y-2402332D01*
G37*
G36*
X380441Y-2402281D02*
G01*
X377850Y-2402636D01*
X376021Y-2403297D01*
X373380Y-2405227D01*
X372516Y-2406192D01*
X371500Y-2407869D01*
X370789Y-2409698D01*
X370535Y-2410968D01*
X370636Y-2414219D01*
X371805Y-2417267D01*
X372922Y-2418892D01*
X375462Y-2420924D01*
X376631Y-2421534D01*
X378510Y-2422093D01*
X379831Y-2422245D01*
X441756Y-2422194D01*
X444906Y-2421280D01*
X447548Y-2419350D01*
X448411Y-2418384D01*
X449427Y-2416708D01*
X450138Y-2414879D01*
X450392Y-2413609D01*
X450291Y-2410358D01*
X449122Y-2407310D01*
X448005Y-2405684D01*
X445465Y-2403602D01*
X442417Y-2402484D01*
X441096Y-2402332D01*
G37*
G36*
X879703Y-2442311D02*
G01*
X877112Y-2442819D01*
X874268Y-2444343D01*
X872388Y-2446223D01*
X870864Y-2449068D01*
X870356Y-2451658D01*
X870407Y-2453589D01*
X870661Y-2454859D01*
X871372Y-2456738D01*
X872794Y-2458872D01*
X874776Y-2460599D01*
X875893Y-2461260D01*
X877722Y-2461971D01*
X879043Y-2462225D01*
X940968Y-2462276D01*
X943559Y-2461768D01*
X946403Y-2460244D01*
X948283Y-2458364D01*
X949807Y-2455519D01*
X950315Y-2452928D01*
X950264Y-2450998D01*
X950010Y-2449728D01*
X949299Y-2447848D01*
X947877Y-2445715D01*
X945896Y-2443988D01*
X944778Y-2443327D01*
X942949Y-2442616D01*
X941628Y-2442362D01*
G37*
G36*
X379831Y-2442311D02*
G01*
X377240Y-2442819D01*
X374396Y-2444343D01*
X372516Y-2446223D01*
X370992Y-2449068D01*
X370484Y-2451658D01*
X370535Y-2453589D01*
X370789Y-2454859D01*
X371500Y-2456738D01*
X372922Y-2458872D01*
X374904Y-2460599D01*
X376021Y-2461260D01*
X377850Y-2461971D01*
X379171Y-2462225D01*
X441096Y-2462276D01*
X443687Y-2461768D01*
X446532Y-2460244D01*
X448411Y-2458364D01*
X449935Y-2455519D01*
X450443Y-2452928D01*
X450392Y-2450998D01*
X450138Y-2449728D01*
X449427Y-2447848D01*
X448005Y-2445715D01*
X446024Y-2443988D01*
X444906Y-2443327D01*
X443077Y-2442616D01*
X441756Y-2442362D01*
G37*
G36*
X479755Y-2482240D02*
G01*
X477164Y-2482748D01*
X474319Y-2484272D01*
X472440Y-2486152D01*
X470916Y-2488996D01*
X470408Y-2491587D01*
X470458Y-2553512D01*
X470712Y-2554782D01*
X471424Y-2556662D01*
X472897Y-2558796D01*
X474827Y-2560523D01*
X475945Y-2561183D01*
X477824Y-2561894D01*
X479094Y-2562148D01*
X482346Y-2562047D01*
X485393Y-2560878D01*
X487476Y-2559304D01*
X489051Y-2557221D01*
X490220Y-2554173D01*
X490372Y-2552852D01*
X490321Y-2490927D01*
X490067Y-2489606D01*
X489356Y-2487777D01*
X487883Y-2485644D01*
X485952Y-2483916D01*
X484835Y-2483256D01*
X482955Y-2482545D01*
X481685Y-2482291D01*
G37*
G36*
X679754Y-2482240D02*
G01*
X677164Y-2482748D01*
X674319Y-2484272D01*
X672439Y-2486152D01*
X670915Y-2488996D01*
X670407Y-2491587D01*
X670458Y-2553512D01*
X670712Y-2554782D01*
X671423Y-2556662D01*
X672846Y-2558796D01*
X674827Y-2560523D01*
X675944Y-2561183D01*
X677824Y-2561894D01*
X679094Y-2562148D01*
X682345Y-2562047D01*
X685393Y-2560878D01*
X687476Y-2559304D01*
X689051Y-2557221D01*
X690219Y-2554173D01*
X690372Y-2552852D01*
X690321Y-2490927D01*
X690067Y-2489606D01*
X689356Y-2487777D01*
X687933Y-2485644D01*
X685952Y-2483916D01*
X684834Y-2483256D01*
X682955Y-2482545D01*
X681685Y-2482291D01*
G37*
G36*
X559765Y-2482240D02*
G01*
X557174Y-2482748D01*
X554329Y-2484272D01*
X552450Y-2486152D01*
X550926Y-2488996D01*
X550418Y-2491587D01*
X550468Y-2553512D01*
X550722Y-2554782D01*
X551434Y-2556662D01*
X552856Y-2558796D01*
X554837Y-2560523D01*
X555955Y-2561183D01*
X557834Y-2561894D01*
X559104Y-2562148D01*
X562356Y-2562047D01*
X565404Y-2560878D01*
X567486Y-2559304D01*
X569061Y-2557221D01*
X570230Y-2554173D01*
X570382Y-2552852D01*
X570331Y-2490927D01*
X570077Y-2489606D01*
X569366Y-2487777D01*
X567893Y-2485644D01*
X565962Y-2483916D01*
X564845Y-2483256D01*
X562965Y-2482545D01*
X561695Y-2482291D01*
G37*
G36*
X759764Y-2482240D02*
G01*
X757174Y-2482748D01*
X754329Y-2484272D01*
X752449Y-2486152D01*
X750925Y-2488996D01*
X750417Y-2491587D01*
X750468Y-2553512D01*
X750722Y-2554782D01*
X751433Y-2556662D01*
X752906Y-2558796D01*
X754837Y-2560523D01*
X755954Y-2561183D01*
X757834Y-2561894D01*
X759104Y-2562148D01*
X762355Y-2562047D01*
X765403Y-2560878D01*
X767486Y-2559304D01*
X769061Y-2557221D01*
X770229Y-2554173D01*
X770382Y-2552852D01*
X770331Y-2490927D01*
X770077Y-2489606D01*
X769366Y-2487777D01*
X767943Y-2485644D01*
X765962Y-2483916D01*
X764844Y-2483256D01*
X762965Y-2482545D01*
X761695Y-2482291D01*
G37*
G36*
X519734Y-2482240D02*
G01*
X517194Y-2482748D01*
X515416Y-2483561D01*
X513791Y-2484678D01*
X511708Y-2487218D01*
X510590Y-2490266D01*
X510438Y-2491587D01*
X510489Y-2553512D01*
X511149Y-2556052D01*
X511708Y-2557221D01*
X513791Y-2559761D01*
X515416Y-2560878D01*
X518464Y-2562047D01*
X521716Y-2562148D01*
X522985Y-2561894D01*
X524814Y-2561183D01*
X526491Y-2560167D01*
X528726Y-2557780D01*
X529844Y-2555443D01*
X530352Y-2552852D01*
X530301Y-2490927D01*
X529386Y-2487777D01*
X527456Y-2485136D01*
X526491Y-2484272D01*
X524814Y-2483256D01*
X522985Y-2482545D01*
X521716Y-2482291D01*
G37*
G36*
X719734Y-2482240D02*
G01*
X717194Y-2482748D01*
X715416Y-2483561D01*
X713790Y-2484678D01*
X711758Y-2487218D01*
X711149Y-2488387D01*
X710590Y-2490266D01*
X710438Y-2491587D01*
X710488Y-2553512D01*
X711149Y-2556052D01*
X712876Y-2558796D01*
X713790Y-2559761D01*
X715416Y-2560878D01*
X718464Y-2562047D01*
X721715Y-2562148D01*
X722985Y-2561894D01*
X724814Y-2561183D01*
X726490Y-2560167D01*
X728726Y-2557780D01*
X729843Y-2555443D01*
X730351Y-2552852D01*
X730300Y-2490927D01*
X729386Y-2487777D01*
X727456Y-2485136D01*
X726490Y-2484272D01*
X724814Y-2483256D01*
X722985Y-2482545D01*
X721715Y-2482291D01*
G37*
G36*
X639775Y-2482240D02*
G01*
X637184Y-2482748D01*
X634339Y-2484272D01*
X632460Y-2486152D01*
X630936Y-2488996D01*
X630428Y-2491587D01*
X630478Y-2553512D01*
X630732Y-2554782D01*
X631444Y-2556662D01*
X632866Y-2558796D01*
X634847Y-2560523D01*
X635965Y-2561183D01*
X637844Y-2561894D01*
X639114Y-2562148D01*
X642366Y-2562047D01*
X645414Y-2560878D01*
X647496Y-2559304D01*
X649071Y-2557221D01*
X650240Y-2554173D01*
X650392Y-2552852D01*
X650341Y-2490927D01*
X650087Y-2489606D01*
X649376Y-2487777D01*
X647954Y-2485644D01*
X645972Y-2483916D01*
X644855Y-2483256D01*
X642975Y-2482545D01*
X641705Y-2482291D01*
G37*
G36*
X839774Y-2482240D02*
G01*
X837184Y-2482748D01*
X834339Y-2484272D01*
X832459Y-2486152D01*
X830935Y-2488996D01*
X830427Y-2491587D01*
X830478Y-2553512D01*
X830732Y-2554782D01*
X831443Y-2556662D01*
X832916Y-2558796D01*
X834847Y-2560523D01*
X835964Y-2561183D01*
X837844Y-2561894D01*
X839114Y-2562148D01*
X842365Y-2562047D01*
X845413Y-2560878D01*
X847496Y-2559304D01*
X849071Y-2557221D01*
X850239Y-2554173D01*
X850392Y-2552852D01*
X850341Y-2490927D01*
X850087Y-2489606D01*
X849376Y-2487777D01*
X847902Y-2485644D01*
X845972Y-2483916D01*
X844854Y-2483256D01*
X842975Y-2482545D01*
X841705Y-2482291D01*
G37*
G36*
X599744Y-2482240D02*
G01*
X597204Y-2482748D01*
X595426Y-2483561D01*
X593801Y-2484678D01*
X591769Y-2487218D01*
X591159Y-2488387D01*
X590600Y-2490266D01*
X590448Y-2491587D01*
X590499Y-2553512D01*
X591159Y-2556052D01*
X592886Y-2558796D01*
X593801Y-2559761D01*
X595426Y-2560878D01*
X598474Y-2562047D01*
X601726Y-2562148D01*
X602996Y-2561894D01*
X604824Y-2561183D01*
X606501Y-2560167D01*
X608736Y-2557780D01*
X609854Y-2555443D01*
X610362Y-2552852D01*
X610311Y-2490927D01*
X609396Y-2487777D01*
X607466Y-2485136D01*
X606501Y-2484272D01*
X604824Y-2483256D01*
X602996Y-2482545D01*
X601726Y-2482291D01*
G37*
G36*
X799744Y-2482240D02*
G01*
X797204Y-2482748D01*
X795426Y-2483561D01*
X793800Y-2484678D01*
X791718Y-2487218D01*
X790600Y-2490266D01*
X790448Y-2491587D01*
X790498Y-2553512D01*
X791159Y-2556052D01*
X791718Y-2557221D01*
X793800Y-2559761D01*
X795426Y-2560878D01*
X798474Y-2562047D01*
X801725Y-2562148D01*
X802995Y-2561894D01*
X804824Y-2561183D01*
X806500Y-2560167D01*
X808736Y-2557780D01*
X809853Y-2555443D01*
X810361Y-2552852D01*
X810310Y-2490927D01*
X809396Y-2487777D01*
X807466Y-2485136D01*
X806500Y-2484272D01*
X804824Y-2483256D01*
X802995Y-2482545D01*
X801725Y-2482291D01*
G37*
G36*
X-772312Y-2031796D02*
G01*
X-776274Y-2035810D01*
X-776274Y-2085848D01*
X-772312Y-2089861D01*
X-726287Y-2089861D01*
X-722274Y-2085848D01*
X-722274Y-2035810D01*
X-726287Y-2031796D01*
G37*
G36*
X-772312Y-1946706D02*
G01*
X-776274Y-1950720D01*
X-776274Y-2000808D01*
X-772312Y-2004771D01*
X-726287Y-2004771D01*
X-722274Y-2000808D01*
X-722274Y-1950720D01*
X-726287Y-1946706D01*
G37*
G36*
X1458569Y-1924100D02*
G01*
X1420063Y-1970887D01*
X1420063Y-2014982D01*
X1458569Y-2061768D01*
X1527302Y-2061768D01*
X1537309Y-2051761D01*
X1537309Y-1934108D01*
X1527302Y-1924100D01*
G37*
G36*
X1240790Y-1924100D02*
G01*
X1230782Y-1934108D01*
X1230782Y-2051761D01*
X1240790Y-2061768D01*
X1309522Y-2061768D01*
X1348028Y-2014982D01*
X1348028Y-1970887D01*
X1309522Y-1924100D01*
G37*
G36*
X1445818Y-2533700D02*
G01*
X1407312Y-2580487D01*
X1407312Y-2624582D01*
X1445818Y-2671368D01*
X1514602Y-2671368D01*
X1524609Y-2661361D01*
X1524609Y-2543708D01*
X1514602Y-2533700D01*
G37*
G36*
X1228090Y-2533700D02*
G01*
X1218082Y-2543708D01*
X1218082Y-2661361D01*
X1228090Y-2671368D01*
X1296822Y-2671368D01*
X1335328Y-2624582D01*
X1335328Y-2580487D01*
X1296822Y-2533700D01*
G37*
G36*
X-26822Y-2254199D02*
G01*
X-65328Y-2301036D01*
X-65328Y-2345080D01*
X-26822Y-2391918D01*
X41910Y-2391918D01*
X51917Y-2381910D01*
X51917Y-2264206D01*
X41910Y-2254199D01*
G37*
G36*
X-244602Y-2254199D02*
G01*
X-254609Y-2264206D01*
X-254609Y-2381910D01*
X-244602Y-2391918D01*
X-175869Y-2391918D01*
X-137363Y-2345080D01*
X-137363Y-2301036D01*
X-175869Y-2254199D01*
G37*
G36*
X891895Y-1584706D02*
G01*
X886917Y-1589684D01*
X886917Y-1637690D01*
X891895Y-1644700D01*
X936904Y-1644700D01*
X941882Y-1637690D01*
X941882Y-1589684D01*
X936904Y-1584706D01*
G37*
G36*
X891895Y-1680667D02*
G01*
X886917Y-1687677D01*
X886917Y-1735683D01*
X891895Y-1740712D01*
X936904Y-1740712D01*
X941882Y-1735683D01*
X941882Y-1687677D01*
X936904Y-1680667D01*
G37*
G36*
X1018641Y-2029206D02*
G01*
X1013663Y-2034235D01*
X1013663Y-2082241D01*
X1018641Y-2089251D01*
X1063650Y-2089251D01*
X1068628Y-2082241D01*
X1068628Y-2034235D01*
X1063650Y-2029206D01*
G37*
G36*
X1018641Y-2125218D02*
G01*
X1013663Y-2132228D01*
X1013663Y-2180234D01*
X1018641Y-2185212D01*
X1063650Y-2185212D01*
X1068628Y-2180234D01*
X1068628Y-2132228D01*
X1063650Y-2125218D01*
G37*
G36*
X129895Y-1680718D02*
G01*
X124917Y-1687677D01*
X124917Y-1735683D01*
X129895Y-1740712D01*
X174904Y-1740712D01*
X179882Y-1735683D01*
X179882Y-1687677D01*
X174904Y-1680718D01*
G37*
G36*
X129895Y-1584706D02*
G01*
X124917Y-1589684D01*
X124917Y-1637690D01*
X129895Y-1644700D01*
X174904Y-1644700D01*
X179882Y-1637690D01*
X179882Y-1589684D01*
X174904Y-1584706D01*
G37*
G36*
X2895Y-1680718D02*
G01*
X-2082Y-1687677D01*
X-2082Y-1735683D01*
X2895Y-1740712D01*
X47904Y-1740712D01*
X52882Y-1735683D01*
X52882Y-1687677D01*
X47904Y-1680718D01*
G37*
G36*
X2895Y-1584706D02*
G01*
X-2082Y-1589684D01*
X-2082Y-1637690D01*
X2895Y-1644700D01*
X47904Y-1644700D01*
X52882Y-1637690D01*
X52882Y-1589684D01*
X47904Y-1584706D01*
G37*
G36*
X-98145Y-2105050D02*
G01*
X-103124Y-2110028D01*
X-103124Y-2155037D01*
X-98145Y-2160066D01*
X-50139Y-2160066D01*
X-43129Y-2155037D01*
X-43129Y-2110028D01*
X-50139Y-2105050D01*
G37*
G36*
X-152Y-2105050D02*
G01*
X-7162Y-2110028D01*
X-7162Y-2155037D01*
X-152Y-2160066D01*
X47853Y-2160066D01*
X52832Y-2155037D01*
X52832Y-2110028D01*
X47853Y-2105050D01*
G37*
G36*
X-737006Y134264D02*
G01*
X-744016Y129285D01*
X-744016Y84277D01*
X-737006Y79298D01*
X-689000Y79298D01*
X-684022Y84277D01*
X-684022Y129285D01*
X-689000Y134264D01*
G37*
G36*
X-834999Y134264D02*
G01*
X-839978Y129285D01*
X-839978Y84277D01*
X-834999Y79298D01*
X-786993Y79298D01*
X-779983Y84277D01*
X-779983Y129285D01*
X-786993Y134264D01*
G37*
G36*
X-737006Y-119735D02*
G01*
X-744016Y-124714D01*
X-744016Y-169722D01*
X-737006Y-174701D01*
X-689000Y-174701D01*
X-684022Y-169722D01*
X-684022Y-124714D01*
X-689000Y-119735D01*
G37*
G36*
X-834999Y-119735D02*
G01*
X-839978Y-124714D01*
X-839978Y-169722D01*
X-834999Y-174701D01*
X-786993Y-174701D01*
X-779983Y-169722D01*
X-779983Y-124714D01*
X-786993Y-119735D01*
G37*
G36*
X-749706Y2082D02*
G01*
X-756716Y-2895D01*
X-756716Y-47904D01*
X-749706Y-52882D01*
X-701700Y-52882D01*
X-696671Y-47904D01*
X-696671Y-2895D01*
X-701700Y2082D01*
G37*
G36*
X-847699Y2082D02*
G01*
X-852678Y-2895D01*
X-852678Y-47904D01*
X-847699Y-52882D01*
X-799693Y-52882D01*
X-792683Y-47904D01*
X-792683Y-2895D01*
X-799693Y2082D01*
G37*
G36*
X1603095Y565759D02*
G01*
X1598117Y560781D01*
X1598117Y512775D01*
X1603095Y505764D01*
X1648104Y505764D01*
X1653082Y512775D01*
X1653082Y560781D01*
X1648104Y565759D01*
G37*
G36*
X1603095Y469798D02*
G01*
X1598117Y462788D01*
X1598117Y414782D01*
X1603095Y409803D01*
X1648104Y409803D01*
X1653082Y414782D01*
X1653082Y462788D01*
X1648104Y469798D01*
G37*
G36*
X1628495Y1492859D02*
G01*
X1623517Y1487881D01*
X1623517Y1439875D01*
X1628495Y1432864D01*
X1673504Y1432864D01*
X1678482Y1439875D01*
X1678482Y1487881D01*
X1673504Y1492859D01*
G37*
G36*
X1628495Y1396898D02*
G01*
X1623517Y1389888D01*
X1623517Y1341882D01*
X1628495Y1336903D01*
X1673504Y1336903D01*
X1678482Y1341882D01*
X1678482Y1389888D01*
X1673504Y1396898D01*
G37*
G36*
X1755495Y1492859D02*
G01*
X1750517Y1487881D01*
X1750517Y1439875D01*
X1755495Y1432864D01*
X1800504Y1432864D01*
X1805482Y1439875D01*
X1805482Y1487881D01*
X1800504Y1492859D01*
G37*
G36*
X1755495Y1396898D02*
G01*
X1750517Y1389888D01*
X1750517Y1341882D01*
X1755495Y1336903D01*
X1800504Y1336903D01*
X1805482Y1341882D01*
X1805482Y1389888D01*
X1800504Y1396898D01*
G37*
G36*
X573887Y114858D02*
G01*
X569874Y110845D01*
X569874Y60807D01*
X573887Y56794D01*
X619912Y56794D01*
X623925Y60807D01*
X623925Y110845D01*
X619912Y114858D01*
G37*
G36*
X573887Y29768D02*
G01*
X569874Y25806D01*
X569874Y-24282D01*
X573887Y-28295D01*
X619912Y-28295D01*
X623925Y-24282D01*
X623925Y25806D01*
X619912Y29768D01*
G37*
G36*
X-23012Y114858D02*
G01*
X-27025Y110845D01*
X-27025Y60807D01*
X-23012Y56794D01*
X23012Y56794D01*
X27025Y60807D01*
X27025Y110845D01*
X23012Y114858D01*
G37*
G36*
X-23012Y29768D02*
G01*
X-27025Y25806D01*
X-27025Y-24282D01*
X-23012Y-28295D01*
X23012Y-28295D01*
X27025Y-24282D01*
X27025Y25806D01*
X23012Y29768D01*
G37*
G36*
X269087Y114858D02*
G01*
X265074Y110845D01*
X265074Y60807D01*
X269087Y56794D01*
X315112Y56794D01*
X319125Y60807D01*
X319125Y110845D01*
X315112Y114858D01*
G37*
G36*
X269087Y29768D02*
G01*
X265074Y25806D01*
X265074Y-24282D01*
X269087Y-28295D01*
X315112Y-28295D01*
X319125Y-24282D01*
X319125Y25806D01*
X315112Y29768D01*
G37*
G36*
X-327812Y29768D02*
G01*
X-331825Y25806D01*
X-331825Y-24282D01*
X-327812Y-28295D01*
X-281787Y-28295D01*
X-277774Y-24282D01*
X-277774Y25806D01*
X-281787Y29768D01*
G37*
G36*
X-327812Y114858D02*
G01*
X-331825Y110845D01*
X-331825Y60807D01*
X-327812Y56794D01*
X-281787Y56794D01*
X-277774Y60807D01*
X-277774Y110845D01*
X-281787Y114858D01*
G37*
G36*
X-188112Y29768D02*
G01*
X-192125Y25806D01*
X-192125Y-24282D01*
X-188112Y-28295D01*
X-142087Y-28295D01*
X-138074Y-24282D01*
X-138074Y25806D01*
X-142087Y29768D01*
G37*
G36*
X-188112Y114858D02*
G01*
X-192125Y110845D01*
X-192125Y60807D01*
X-188112Y56794D01*
X-142087Y56794D01*
X-138074Y60807D01*
X-138074Y110845D01*
X-142087Y114858D01*
G37*
G36*
X1437487Y1083868D02*
G01*
X1433474Y1079855D01*
X1433474Y1029817D01*
X1437487Y1025804D01*
X1483512Y1025804D01*
X1487474Y1029817D01*
X1487474Y1079855D01*
X1483512Y1083868D01*
G37*
G36*
X1437487Y1168958D02*
G01*
X1433474Y1164945D01*
X1433474Y1114856D01*
X1437487Y1110894D01*
X1483512Y1110894D01*
X1487474Y1114856D01*
X1487474Y1164945D01*
X1483512Y1168958D01*
G37*
G36*
X2111095Y146710D02*
G01*
X2106117Y141681D01*
X2106117Y93675D01*
X2111095Y86664D01*
X2156104Y86664D01*
X2161082Y93675D01*
X2161082Y141681D01*
X2156104Y146710D01*
G37*
G36*
X2111095Y50698D02*
G01*
X2106117Y43688D01*
X2106117Y-4318D01*
X2111095Y-9296D01*
X2156104Y-9296D01*
X2161082Y-4318D01*
X2161082Y43688D01*
X2156104Y50698D01*
G37*
G36*
X1603095Y190398D02*
G01*
X1598117Y183388D01*
X1598117Y135382D01*
X1603095Y130403D01*
X1648104Y130403D01*
X1653082Y135382D01*
X1653082Y183388D01*
X1648104Y190398D01*
G37*
G36*
X1603095Y286359D02*
G01*
X1598117Y281381D01*
X1598117Y233375D01*
X1603095Y226364D01*
X1648104Y226364D01*
X1653082Y233375D01*
X1653082Y281381D01*
X1648104Y286359D01*
G37*
G36*
X1603095Y19710D02*
G01*
X1598117Y14681D01*
X1598117Y-33324D01*
X1603095Y-40335D01*
X1648104Y-40335D01*
X1653082Y-33324D01*
X1653082Y14681D01*
X1648104Y19710D01*
G37*
G36*
X1603095Y-76301D02*
G01*
X1598117Y-83312D01*
X1598117Y-131318D01*
X1603095Y-136296D01*
X1648104Y-136296D01*
X1653082Y-131318D01*
X1653082Y-83312D01*
X1648104Y-76301D01*
G37*
G36*
X1324203Y1474978D02*
G01*
X1324203Y1354988D01*
X1444193Y1354988D01*
X1444193Y1474978D01*
G37*
G36*
X1296873Y1294993D02*
G01*
X1296873Y1234998D01*
X1321866Y1234998D01*
X1321866Y1294993D01*
G37*
G36*
X1346860Y1294993D02*
G01*
X1346860Y1234998D01*
X1371854Y1234998D01*
X1371854Y1294993D01*
G37*
G36*
X1396847Y1294993D02*
G01*
X1396847Y1234998D01*
X1421841Y1234998D01*
X1421841Y1294993D01*
G37*
G36*
X1446885Y1294993D02*
G01*
X1446885Y1234998D01*
X1471879Y1234998D01*
X1471879Y1294993D01*
G37*
G36*
X1504188Y1352702D02*
G01*
X1504188Y1327658D01*
X1564233Y1327658D01*
X1564233Y1352702D01*
G37*
G36*
X1504188Y1402689D02*
G01*
X1504188Y1377696D01*
X1564233Y1377696D01*
X1564233Y1402689D01*
G37*
G36*
X1504188Y1452676D02*
G01*
X1504188Y1427683D01*
X1564233Y1427683D01*
X1564233Y1452676D01*
G37*
G36*
X1504188Y1502664D02*
G01*
X1504188Y1477670D01*
X1564233Y1477670D01*
X1564233Y1502664D01*
G37*
G36*
X1446733Y1594967D02*
G01*
X1446733Y1534972D01*
X1471726Y1534972D01*
X1471726Y1594967D01*
G37*
G36*
X1396695Y1594967D02*
G01*
X1396695Y1534972D01*
X1421688Y1534972D01*
X1421688Y1594967D01*
G37*
G36*
X1346708Y1594967D02*
G01*
X1346708Y1534972D01*
X1371701Y1534972D01*
X1371701Y1594967D01*
G37*
G36*
X1296873Y1594967D02*
G01*
X1296873Y1534972D01*
X1321866Y1534972D01*
X1321866Y1594967D01*
G37*
G36*
X1204214Y1502664D02*
G01*
X1204214Y1477670D01*
X1264208Y1477670D01*
X1264208Y1502664D01*
G37*
G36*
X1204214Y1452676D02*
G01*
X1204214Y1427683D01*
X1264208Y1427683D01*
X1264208Y1452676D01*
G37*
G36*
X1204214Y1402689D02*
G01*
X1204214Y1377696D01*
X1264208Y1377696D01*
X1264208Y1402689D01*
G37*
G36*
X1204214Y1352702D02*
G01*
X1204214Y1327658D01*
X1264208Y1327658D01*
X1264208Y1352702D01*
G37*
G36*
X447395Y23266D02*
G01*
X442417Y18288D01*
X442417Y-34696D01*
X447395Y-39725D01*
X492404Y-39725D01*
X497382Y-34696D01*
X497382Y18288D01*
X492404Y23266D01*
G37*
G36*
X447395Y126288D02*
G01*
X442417Y121310D01*
X442417Y68275D01*
X447395Y63296D01*
X492404Y63296D01*
X497382Y68275D01*
X497382Y121310D01*
X492404Y126288D01*
G37*
G36*
X104495Y23266D02*
G01*
X99517Y18288D01*
X99517Y-34696D01*
X104495Y-39725D01*
X149504Y-39725D01*
X154482Y-34696D01*
X154482Y18288D01*
X149504Y23266D01*
G37*
G36*
X104495Y126288D02*
G01*
X99517Y121310D01*
X99517Y68275D01*
X104495Y63296D01*
X149504Y63296D01*
X154482Y68275D01*
X154482Y121310D01*
X149504Y126288D01*
G37*
D10*
G01*
X1206601Y1765579D03*
G01*
X1206601Y2105583D03*
D11*
G01*
X3386836Y1317853D03*
G01*
X2626868Y1317853D03*
D12*
G01*
X2108809Y-2012187D03*
G01*
X1878990Y-2012187D03*
G01*
X1878990Y-2107184D03*
G01*
X1878990Y-2202179D03*
G01*
X2108809Y-2202179D03*
G01*
X2108809Y-2107184D03*
D13*
G01*
X1778380Y-1675409D03*
G01*
X2183993Y-1675409D03*
D14*
G01*
X3074085Y2266823D03*
G01*
X3074085Y2184628D03*
G01*
X2906496Y2184628D03*
G01*
X2906496Y2266823D03*
D15*
G01*
X2990291Y1998491D03*
D16*
G01*
X3051239Y2059462D03*
D18*
G01*
X2990291Y2120383D03*
D19*
G01*
X2929342Y2059437D03*
D20*
G01*
X1397000Y-3065297D03*
G01*
X1397000Y-3130295D03*
D21*
G01*
X-749274Y-2385288D03*
G01*
X-749300Y-2235479D03*
D22*
G01*
X-833729Y303149D03*
G01*
X-706729Y303149D03*
G01*
X-579729Y303149D03*
G01*
X-452729Y303149D03*
G01*
X-325729Y303149D03*
G01*
X-198729Y303149D03*
G01*
X-71729Y303149D03*
G01*
X55270Y303149D03*
G01*
X182270Y303149D03*
G01*
X309270Y303149D03*
G01*
X436270Y303149D03*
G01*
X563270Y303149D03*
G01*
X690270Y303149D03*
G01*
X817270Y303149D03*
D23*
G01*
X945261Y479653D03*
G01*
X945261Y606653D03*
G01*
X945261Y733653D03*
G01*
X945261Y860653D03*
G01*
X945261Y987653D03*
G01*
X945261Y1114653D03*
G01*
X945261Y1241653D03*
G01*
X945261Y1368653D03*
G01*
X945261Y1495653D03*
G01*
X945261Y1622653D03*
G01*
X945261Y1749653D03*
G01*
X942263Y1876653D03*
D22*
G01*
X817270Y2053158D03*
G01*
X690270Y2053158D03*
G01*
X563270Y2053158D03*
G01*
X436270Y2053158D03*
G01*
X309270Y2053158D03*
G01*
X182270Y2053158D03*
G01*
X55270Y2053158D03*
G01*
X-71729Y2053158D03*
G01*
X-198729Y2053158D03*
G01*
X-325729Y2053158D03*
G01*
X-452729Y2053158D03*
G01*
X-579729Y2053158D03*
G01*
X-706729Y2053158D03*
G01*
X-833729Y2053158D03*
D24*
G01*
X-61721Y1028141D03*
G01*
X-61721Y888136D03*
G01*
X-61721Y1168146D03*
G01*
X-201726Y1168146D03*
G01*
X-201726Y1028141D03*
G01*
X-201726Y888136D03*
G01*
X78282Y888136D03*
G01*
X78282Y1028141D03*
G01*
X78282Y1168146D03*
D25*
G01*
X1779600Y-166319D03*
G01*
X1829587Y-166319D03*
G01*
X1879574Y-166319D03*
G01*
X1929587Y-166319D03*
G01*
X1979599Y-166319D03*
G01*
X1979574Y303682D03*
G01*
X1929587Y303682D03*
G01*
X1879600Y303682D03*
G01*
X1829587Y303682D03*
G01*
X1779574Y303682D03*
D10*
G01*
X1206500Y101879D03*
G01*
X1206500Y441883D03*
M02*
