G04 Layer: InnerLayer1*
G04 EasyEDA v6.5.51, 2026-03-31 14:52:47*
G04 c52bac0a0f6b4f269256ffdab479d323,9ef13e28356e43f28898171320600188,10*
G04 Gerber Generator version 0.2*
G04 Scale: 100 percent, Rotated: No, Reflected: No *
G04 Dimensions in millimeters *
G04 leading zeros omitted , absolute positions ,4 integer and 5 decimal *
%FSLAX45Y45*%
%MOMM*%

%AMMACRO1*21,1,$1,$2,0,0,$3*%
%ADD10C,0.2540*%
%ADD11C,1.0000*%
%ADD12MACRO1,1X1X0.0000*%
%ADD13C,1.5240*%
%ADD14C,1.6000*%
%ADD15C,0.0139*%
%ADD16R,1.0000X1.0000*%
%ADD17C,0.6200*%

%LPD*%
G36*
X2620873Y1817979D02*
G01*
X2609088Y1818944D01*
X2598826Y1821281D01*
X2588971Y1825091D01*
X2579725Y1830222D01*
X2571343Y1836623D01*
X2563977Y1844141D01*
X2557729Y1852675D01*
X2552750Y1861972D01*
X2549144Y1871929D01*
X2547010Y1882241D01*
X2546248Y1893316D01*
X2546248Y2790799D01*
X2547213Y2803296D01*
X2549550Y2813608D01*
X2553360Y2823464D01*
X2558491Y2832658D01*
X2564892Y2841040D01*
X2572461Y2848457D01*
X2580944Y2854706D01*
X2590292Y2859633D01*
X2600198Y2863240D01*
X2610510Y2865374D01*
X2621584Y2866136D01*
X2730398Y2866136D01*
X2734259Y2865374D01*
X2737510Y2863240D01*
X2739745Y2859989D01*
X2740558Y2856128D01*
X2739847Y2852267D01*
X2730804Y2839212D01*
X2727147Y2831795D01*
X2764688Y2831795D01*
X2764688Y2855976D01*
X2765450Y2859887D01*
X2767634Y2863189D01*
X2770936Y2865374D01*
X2774848Y2866136D01*
X2817215Y2866136D01*
X2821127Y2865374D01*
X2824429Y2863189D01*
X2826613Y2859887D01*
X2827375Y2855976D01*
X2827375Y2831795D01*
X2839720Y2831795D01*
X2843428Y2831084D01*
X2846679Y2829052D01*
X2848914Y2826004D01*
X2849880Y2822346D01*
X2847390Y2806242D01*
X2847390Y2794660D01*
X2849880Y2778556D01*
X2848914Y2774899D01*
X2846679Y2771851D01*
X2843428Y2769819D01*
X2839720Y2769108D01*
X2827375Y2769108D01*
X2827375Y2731617D01*
X2832303Y2733802D01*
X2842006Y2740101D01*
X2850692Y2747822D01*
X2851759Y2749092D01*
X2855061Y2751734D01*
X2859176Y2752801D01*
X2863392Y2752039D01*
X2866898Y2749651D01*
X2872536Y2743809D01*
X2881782Y2736748D01*
X2891993Y2731211D01*
X2902915Y2727299D01*
X2914345Y2725064D01*
X2925927Y2724607D01*
X2937459Y2725978D01*
X2948686Y2729026D01*
X2959303Y2733802D01*
X2969006Y2740101D01*
X2977692Y2747822D01*
X2978759Y2749092D01*
X2982061Y2751734D01*
X2986176Y2752801D01*
X2990392Y2752039D01*
X2993898Y2749651D01*
X2999536Y2743809D01*
X3008782Y2736748D01*
X3018993Y2731211D01*
X3029915Y2727299D01*
X3041345Y2725064D01*
X3052927Y2724607D01*
X3064459Y2725978D01*
X3075686Y2729026D01*
X3086303Y2733802D01*
X3092500Y2737815D01*
X3096209Y2739288D01*
X3100222Y2739186D01*
X3103880Y2737612D01*
X3110941Y2730246D01*
X3115818Y2727147D01*
X3121304Y2725267D01*
X3127603Y2724556D01*
X3217367Y2724556D01*
X3221075Y2723845D01*
X3224276Y2721813D01*
X3226511Y2718765D01*
X3227476Y2715107D01*
X3227070Y2711348D01*
X3225292Y2707995D01*
X3221736Y2703626D01*
X3217011Y2695194D01*
X3213811Y2686100D01*
X3212185Y2676601D01*
X3212185Y2666949D01*
X3213811Y2657449D01*
X3217011Y2648356D01*
X3221736Y2639923D01*
X3227781Y2632405D01*
X3235045Y2626055D01*
X3243224Y2620975D01*
X3252215Y2617419D01*
X3261614Y2615387D01*
X3271265Y2614930D01*
X3280816Y2616200D01*
X3290062Y2618994D01*
X3298647Y2623362D01*
X3306419Y2629103D01*
X3313125Y2636062D01*
X3318510Y2644038D01*
X3322472Y2652826D01*
X3324910Y2662174D01*
X3325723Y2671775D01*
X3324910Y2681376D01*
X3322472Y2690723D01*
X3318510Y2699512D01*
X3313125Y2707487D01*
X3306419Y2714447D01*
X3298647Y2720187D01*
X3290062Y2724556D01*
X3280816Y2727350D01*
X3271265Y2728620D01*
X3261207Y2728163D01*
X3257296Y2728772D01*
X3253943Y2730804D01*
X3251555Y2733954D01*
X3250590Y2737764D01*
X3251149Y2741676D01*
X3252215Y2744724D01*
X3252927Y2751023D01*
X3252927Y2849880D01*
X3252419Y2854553D01*
X3252876Y2858922D01*
X3255162Y2862732D01*
X3258870Y2865170D01*
X3263239Y2865831D01*
X3270250Y2865221D01*
X3280308Y2863037D01*
X3289909Y2859430D01*
X3298951Y2854553D01*
X3307181Y2848457D01*
X3314547Y2841294D01*
X3320846Y2833217D01*
X3325926Y2824327D01*
X3329736Y2814777D01*
X3332429Y2804363D01*
X3444290Y2190597D01*
X3444443Y2188819D01*
X3444443Y1893316D01*
X3443478Y1880819D01*
X3441141Y1870506D01*
X3437331Y1860651D01*
X3432200Y1851456D01*
X3425799Y1843074D01*
X3418230Y1835657D01*
X3409746Y1829460D01*
X3400399Y1824482D01*
X3390493Y1820875D01*
X3380181Y1818741D01*
X3369106Y1817979D01*
X3326434Y1817979D01*
X3322116Y1818893D01*
X3317849Y1820925D01*
X3308858Y1823313D01*
X3299561Y1824126D01*
X3290315Y1823313D01*
X3281324Y1820925D01*
X3277057Y1818893D01*
X3272790Y1817979D01*
X3237484Y1817979D01*
X3233216Y1818893D01*
X3228949Y1820925D01*
X3219958Y1823313D01*
X3210661Y1824126D01*
X3201416Y1823313D01*
X3192424Y1820925D01*
X3188157Y1818893D01*
X3183890Y1817979D01*
X3148584Y1817979D01*
X3144316Y1818893D01*
X3140049Y1820925D01*
X3131058Y1823313D01*
X3121761Y1824126D01*
X3112516Y1823313D01*
X3103524Y1820925D01*
X3099257Y1818944D01*
X3094990Y1817979D01*
X3059684Y1817979D01*
X3055416Y1818944D01*
X3051149Y1820925D01*
X3042158Y1823313D01*
X3032861Y1824126D01*
X3023616Y1823313D01*
X3014624Y1820925D01*
X3010357Y1818944D01*
X3006090Y1817979D01*
X2970784Y1817979D01*
X2966516Y1818944D01*
X2962249Y1820925D01*
X2953258Y1823313D01*
X2943961Y1824126D01*
X2934716Y1823313D01*
X2925724Y1820925D01*
X2921457Y1818944D01*
X2917190Y1817979D01*
X2881884Y1817979D01*
X2877616Y1818944D01*
X2873349Y1820925D01*
X2864358Y1823313D01*
X2855061Y1824126D01*
X2845816Y1823313D01*
X2836824Y1820925D01*
X2832557Y1818944D01*
X2828290Y1817979D01*
X2792984Y1817979D01*
X2788716Y1818944D01*
X2784449Y1820925D01*
X2775458Y1823313D01*
X2766161Y1824126D01*
X2756916Y1823313D01*
X2747924Y1820925D01*
X2743657Y1818944D01*
X2739390Y1817979D01*
X2704084Y1817979D01*
X2699816Y1818944D01*
X2695549Y1820925D01*
X2686558Y1823313D01*
X2677261Y1824126D01*
X2668016Y1823313D01*
X2659024Y1820925D01*
X2654757Y1818944D01*
X2650490Y1817979D01*
G37*

%LPC*%
G36*
X2990291Y2003552D02*
G01*
X2999994Y2004415D01*
X3009392Y2006955D01*
X3018231Y2011070D01*
X3026206Y2016658D01*
X3033064Y2023516D01*
X3038652Y2031492D01*
X3042767Y2040331D01*
X3045307Y2049729D01*
X3046171Y2059432D01*
X3045307Y2069134D01*
X3042767Y2078532D01*
X3038652Y2087372D01*
X3033064Y2095347D01*
X3026206Y2102205D01*
X3018231Y2107793D01*
X3009392Y2111908D01*
X2999994Y2114448D01*
X2990291Y2115312D01*
X2980588Y2114448D01*
X2971190Y2111908D01*
X2962351Y2107793D01*
X2954375Y2102205D01*
X2947517Y2095347D01*
X2941929Y2087372D01*
X2937814Y2078532D01*
X2935274Y2069134D01*
X2934411Y2059432D01*
X2935274Y2049729D01*
X2937814Y2040331D01*
X2941929Y2031492D01*
X2947517Y2023516D01*
X2954375Y2016658D01*
X2962351Y2011070D01*
X2971190Y2006955D01*
X2980588Y2004415D01*
G37*
G36*
X2764688Y2731363D02*
G01*
X2764688Y2769108D01*
X2727147Y2769108D01*
X2730804Y2761691D01*
X2737510Y2752191D01*
X2745536Y2743809D01*
X2754782Y2736748D01*
G37*

%LPD*%
G36*
X2632913Y557987D02*
G01*
X2620467Y558952D01*
X2610154Y561289D01*
X2600299Y565048D01*
X2591104Y570230D01*
X2582722Y576630D01*
X2575306Y584149D01*
X2569057Y592683D01*
X2564079Y601980D01*
X2560523Y611936D01*
X2558389Y622249D01*
X2557576Y633323D01*
X2557576Y1530807D01*
X2558592Y1543304D01*
X2560929Y1553616D01*
X2564688Y1563471D01*
X2569870Y1572666D01*
X2576271Y1581048D01*
X2583789Y1588414D01*
X2592324Y1594662D01*
X2601620Y1599641D01*
X2611526Y1603248D01*
X2617368Y1604518D01*
X2620213Y1604721D01*
X2623058Y1604111D01*
X2626817Y1602740D01*
X2630576Y1602130D01*
X2635808Y1602130D01*
X2639466Y1602689D01*
X2646527Y1605483D01*
X2650185Y1606143D01*
X2670352Y1606092D01*
X2677261Y1605483D01*
X2685084Y1606143D01*
X2758389Y1606143D01*
X2766161Y1605483D01*
X2773984Y1606143D01*
X2847289Y1606143D01*
X2855061Y1605483D01*
X2862884Y1606143D01*
X2936189Y1606143D01*
X2943961Y1605483D01*
X2951784Y1606143D01*
X3025089Y1606143D01*
X3032861Y1605483D01*
X3040684Y1606143D01*
X3113989Y1606143D01*
X3121761Y1605483D01*
X3129584Y1606143D01*
X3202889Y1606143D01*
X3210661Y1605483D01*
X3218484Y1606143D01*
X3291789Y1606143D01*
X3299561Y1605483D01*
X3307384Y1606143D01*
X3380435Y1606143D01*
X3392932Y1605178D01*
X3403244Y1602841D01*
X3413099Y1599031D01*
X3422294Y1593900D01*
X3430676Y1587500D01*
X3438093Y1579930D01*
X3444341Y1571447D01*
X3449269Y1562150D01*
X3452876Y1552194D01*
X3455009Y1541881D01*
X3455771Y1530858D01*
X3455771Y1235303D01*
X3455619Y1233525D01*
X3343757Y619760D01*
X3340658Y607974D01*
X3336645Y598525D01*
X3331362Y589737D01*
X3324961Y581761D01*
X3317443Y574751D01*
X3309112Y568807D01*
X3299968Y564134D01*
X3290265Y560730D01*
X3280206Y558698D01*
X3269488Y557987D01*
X3266033Y557987D01*
X3262172Y558749D01*
X3258921Y560882D01*
X3256686Y564134D01*
X3255873Y567994D01*
X3256584Y571855D01*
X3265627Y584911D01*
X3269284Y592328D01*
X3231743Y592328D01*
X3231743Y568147D01*
X3230981Y564235D01*
X3228797Y560933D01*
X3225495Y558749D01*
X3221583Y557987D01*
X3179216Y557987D01*
X3175304Y558749D01*
X3172002Y560933D01*
X3169818Y564235D01*
X3169056Y568147D01*
X3169056Y592328D01*
X3156712Y592328D01*
X3153003Y593039D01*
X3149752Y595071D01*
X3147517Y598119D01*
X3146552Y601776D01*
X3149041Y617880D01*
X3149041Y629462D01*
X3146552Y645566D01*
X3147517Y649224D01*
X3149752Y652272D01*
X3153003Y654304D01*
X3156712Y655015D01*
X3169056Y655015D01*
X3169056Y692505D01*
X3164128Y690321D01*
X3154426Y684022D01*
X3145739Y676300D01*
X3144672Y675030D01*
X3141370Y672388D01*
X3137255Y671322D01*
X3133039Y672084D01*
X3129534Y674471D01*
X3123895Y680313D01*
X3114649Y687374D01*
X3104438Y692912D01*
X3093516Y696823D01*
X3082086Y699058D01*
X3070504Y699516D01*
X3058972Y698144D01*
X3047746Y695096D01*
X3037128Y690321D01*
X3027426Y684022D01*
X3018739Y676300D01*
X3017672Y675030D01*
X3014370Y672388D01*
X3010255Y671322D01*
X3006039Y672084D01*
X3002534Y674471D01*
X2996895Y680313D01*
X2987649Y687374D01*
X2977438Y692912D01*
X2966516Y696823D01*
X2955086Y699058D01*
X2943504Y699516D01*
X2931972Y698144D01*
X2920746Y695096D01*
X2910128Y690321D01*
X2903931Y686308D01*
X2900222Y684834D01*
X2896209Y684936D01*
X2892552Y686511D01*
X2885490Y693877D01*
X2880614Y696976D01*
X2875127Y698855D01*
X2868828Y699566D01*
X2769971Y699566D01*
X2763672Y698855D01*
X2758186Y696976D01*
X2753309Y693877D01*
X2749194Y689762D01*
X2746095Y684885D01*
X2744216Y679399D01*
X2743504Y673100D01*
X2743504Y574243D01*
X2744063Y569264D01*
X2743657Y565048D01*
X2741523Y561340D01*
X2738120Y558850D01*
X2733954Y557987D01*
G37*

%LPC*%
G36*
X3231743Y655015D02*
G01*
X3269284Y655015D01*
X3265627Y662432D01*
X3258921Y671931D01*
X3250895Y680313D01*
X3241649Y687374D01*
X3231743Y692759D01*
G37*

%LPD*%
G36*
X2258618Y-533349D02*
G01*
X1493062Y-533044D01*
X1488998Y-532180D01*
X1485595Y-529793D01*
X1483461Y-526237D01*
X1482902Y-522122D01*
X1484020Y-518159D01*
X1486662Y-514959D01*
X1490370Y-513080D01*
X1498854Y-510743D01*
X1509471Y-505968D01*
X1519174Y-499668D01*
X1527860Y-491947D01*
X1535277Y-482955D01*
X1541221Y-472998D01*
X1545539Y-462229D01*
X1548180Y-450900D01*
X1549095Y-439318D01*
X1548180Y-427735D01*
X1545539Y-416407D01*
X1541221Y-405638D01*
X1535277Y-395681D01*
X1527860Y-386689D01*
X1519174Y-378968D01*
X1509471Y-372668D01*
X1498854Y-367893D01*
X1487627Y-364845D01*
X1476095Y-363474D01*
X1464513Y-363931D01*
X1453083Y-366166D01*
X1442161Y-370078D01*
X1431950Y-375615D01*
X1422704Y-382676D01*
X1417066Y-388518D01*
X1413560Y-390906D01*
X1409344Y-391668D01*
X1405229Y-390601D01*
X1401927Y-387959D01*
X1400860Y-386689D01*
X1392174Y-378968D01*
X1382471Y-372668D01*
X1371854Y-367893D01*
X1360627Y-364845D01*
X1349095Y-363474D01*
X1337513Y-363931D01*
X1326083Y-366166D01*
X1315161Y-370078D01*
X1304950Y-375615D01*
X1295704Y-382676D01*
X1290066Y-388518D01*
X1286560Y-390906D01*
X1282344Y-391668D01*
X1278229Y-390601D01*
X1274927Y-387959D01*
X1273860Y-386689D01*
X1265174Y-378968D01*
X1255471Y-372668D01*
X1244854Y-367893D01*
X1233627Y-364845D01*
X1222095Y-363474D01*
X1210513Y-363931D01*
X1199083Y-366166D01*
X1188161Y-370078D01*
X1177950Y-375615D01*
X1168704Y-382676D01*
X1163066Y-388518D01*
X1159560Y-390906D01*
X1155344Y-391668D01*
X1151229Y-390601D01*
X1147927Y-387959D01*
X1146860Y-386689D01*
X1138174Y-378968D01*
X1128471Y-372668D01*
X1117854Y-367893D01*
X1106627Y-364845D01*
X1095095Y-363474D01*
X1083513Y-363931D01*
X1072083Y-366166D01*
X1061161Y-370078D01*
X1050950Y-375615D01*
X1041704Y-382676D01*
X1036066Y-388518D01*
X1032560Y-390906D01*
X1028344Y-391668D01*
X1024229Y-390601D01*
X1020927Y-387959D01*
X1019860Y-386689D01*
X1011174Y-378968D01*
X1001471Y-372668D01*
X990853Y-367893D01*
X979627Y-364845D01*
X968095Y-363474D01*
X956513Y-363931D01*
X945083Y-366166D01*
X934161Y-370078D01*
X923950Y-375615D01*
X914704Y-382676D01*
X909066Y-388518D01*
X905560Y-390906D01*
X901344Y-391668D01*
X897229Y-390601D01*
X893927Y-387959D01*
X892860Y-386689D01*
X884174Y-378968D01*
X874471Y-372668D01*
X863853Y-367893D01*
X852627Y-364845D01*
X841095Y-363474D01*
X829513Y-363931D01*
X818083Y-366166D01*
X807161Y-370078D01*
X796950Y-375615D01*
X787704Y-382676D01*
X782066Y-388518D01*
X778560Y-390906D01*
X774344Y-391668D01*
X770229Y-390601D01*
X766927Y-387959D01*
X765860Y-386689D01*
X757174Y-378968D01*
X747471Y-372668D01*
X736854Y-367893D01*
X725627Y-364845D01*
X714095Y-363474D01*
X702513Y-363931D01*
X691083Y-366166D01*
X680161Y-370078D01*
X669950Y-375615D01*
X660704Y-382676D01*
X655066Y-388518D01*
X651560Y-390906D01*
X647344Y-391668D01*
X643229Y-390601D01*
X639927Y-387959D01*
X638860Y-386689D01*
X630174Y-378968D01*
X620471Y-372668D01*
X609854Y-367893D01*
X598627Y-364845D01*
X587095Y-363474D01*
X575513Y-363931D01*
X564083Y-366166D01*
X553161Y-370078D01*
X542950Y-375615D01*
X533704Y-382676D01*
X528066Y-388518D01*
X524560Y-390906D01*
X520344Y-391668D01*
X516229Y-390601D01*
X512927Y-387959D01*
X511860Y-386689D01*
X503174Y-378968D01*
X493471Y-372668D01*
X482854Y-367893D01*
X471627Y-364845D01*
X460095Y-363474D01*
X448513Y-363931D01*
X437083Y-366166D01*
X426161Y-370078D01*
X415950Y-375615D01*
X406704Y-382676D01*
X401066Y-388518D01*
X397560Y-390906D01*
X393344Y-391668D01*
X389229Y-390601D01*
X385927Y-387959D01*
X384860Y-386689D01*
X376174Y-378968D01*
X366471Y-372668D01*
X361543Y-370484D01*
X361543Y-407974D01*
X373888Y-407974D01*
X377596Y-408686D01*
X380847Y-410718D01*
X383082Y-413766D01*
X384048Y-417423D01*
X381558Y-433527D01*
X381558Y-445109D01*
X384048Y-461213D01*
X383082Y-464870D01*
X380847Y-467918D01*
X377596Y-469950D01*
X373888Y-470662D01*
X361543Y-470662D01*
X361543Y-508152D01*
X366471Y-505968D01*
X376174Y-499668D01*
X384860Y-491947D01*
X385927Y-490677D01*
X389229Y-488035D01*
X393344Y-486968D01*
X397560Y-487730D01*
X401066Y-490118D01*
X406704Y-495960D01*
X415950Y-503021D01*
X425196Y-508050D01*
X428447Y-510844D01*
X430276Y-514756D01*
X430276Y-519023D01*
X428548Y-522935D01*
X425348Y-525830D01*
X421233Y-527100D01*
X417017Y-527456D01*
X408025Y-529844D01*
X404266Y-531622D01*
X399948Y-532587D01*
X363677Y-532587D01*
X359359Y-531571D01*
X352450Y-528320D01*
X348742Y-528015D01*
X346659Y-527456D01*
X337413Y-526643D01*
X328117Y-527456D01*
X319125Y-529844D01*
X315417Y-531571D01*
X311150Y-532536D01*
X98094Y-532434D01*
X94030Y-531622D01*
X90678Y-529234D01*
X88544Y-525678D01*
X87985Y-521563D01*
X89103Y-517601D01*
X91744Y-514400D01*
X95402Y-512521D01*
X101854Y-510743D01*
X112471Y-505968D01*
X122174Y-499668D01*
X130860Y-491947D01*
X131927Y-490677D01*
X135229Y-488035D01*
X139344Y-486968D01*
X143560Y-487730D01*
X147066Y-490118D01*
X152704Y-495960D01*
X161950Y-503021D01*
X171856Y-508406D01*
X171856Y-470662D01*
X159359Y-470662D01*
X155803Y-470001D01*
X152654Y-468122D01*
X150418Y-465277D01*
X149301Y-461822D01*
X149504Y-458216D01*
X151180Y-450900D01*
X152095Y-439318D01*
X151180Y-427735D01*
X149504Y-420420D01*
X149301Y-416814D01*
X150418Y-413359D01*
X152654Y-410514D01*
X155803Y-408635D01*
X159359Y-407974D01*
X171856Y-407974D01*
X171856Y-370230D01*
X161950Y-375615D01*
X152704Y-382676D01*
X147066Y-388518D01*
X143560Y-390906D01*
X139344Y-391668D01*
X135229Y-390601D01*
X131927Y-387959D01*
X130860Y-386689D01*
X122174Y-378968D01*
X119430Y-377190D01*
X116992Y-374904D01*
X115366Y-371957D01*
X114808Y-368655D01*
X114808Y-274116D01*
X115570Y-270205D01*
X117805Y-266903D01*
X178104Y-206603D01*
X181406Y-204368D01*
X185318Y-203606D01*
X233527Y-203606D01*
X237134Y-204266D01*
X240284Y-206146D01*
X245567Y-210820D01*
X253796Y-215900D01*
X262737Y-219456D01*
X272186Y-221488D01*
X281838Y-221945D01*
X291388Y-220675D01*
X300583Y-217881D01*
X309168Y-213563D01*
X317906Y-207010D01*
X321005Y-205435D01*
X324408Y-204978D01*
X327761Y-205689D01*
X330708Y-207517D01*
X334467Y-210820D01*
X342696Y-215900D01*
X351637Y-219456D01*
X361086Y-221488D01*
X370738Y-221945D01*
X380288Y-220675D01*
X389483Y-217881D01*
X398119Y-213512D01*
X405892Y-207771D01*
X412546Y-200812D01*
X417931Y-192836D01*
X421944Y-184048D01*
X424332Y-174701D01*
X425196Y-165100D01*
X424332Y-155498D01*
X421944Y-146151D01*
X417931Y-137363D01*
X412546Y-129387D01*
X405892Y-122428D01*
X398119Y-116687D01*
X389534Y-112369D01*
X378968Y-109220D01*
X375361Y-107238D01*
X372821Y-104038D01*
X371754Y-100076D01*
X372313Y-96012D01*
X374497Y-92506D01*
X377850Y-90119D01*
X381863Y-89306D01*
X904036Y-89306D01*
X907846Y-90017D01*
X911098Y-92151D01*
X913333Y-95300D01*
X914196Y-99060D01*
X913637Y-102870D01*
X910183Y-112674D01*
X908558Y-122174D01*
X908558Y-131826D01*
X910183Y-141325D01*
X913384Y-150418D01*
X918057Y-158851D01*
X924153Y-166370D01*
X931367Y-172720D01*
X939596Y-177800D01*
X948537Y-181356D01*
X957986Y-183388D01*
X967638Y-183845D01*
X977188Y-182575D01*
X986383Y-179781D01*
X995019Y-175412D01*
X1002792Y-169672D01*
X1009446Y-162712D01*
X1014831Y-154736D01*
X1018844Y-145948D01*
X1021232Y-136601D01*
X1022096Y-127000D01*
X1021232Y-117398D01*
X1018844Y-108051D01*
X1016812Y-103632D01*
X1015949Y-99720D01*
X1016609Y-95758D01*
X1018794Y-92354D01*
X1022146Y-90119D01*
X1026109Y-89306D01*
X1650492Y-89306D01*
X1658518Y-88493D01*
X1665732Y-86309D01*
X1672437Y-82753D01*
X1678635Y-77622D01*
X1766824Y10566D01*
X1771954Y16764D01*
X1775510Y23469D01*
X1777695Y30683D01*
X1778507Y38709D01*
X1778507Y723493D01*
X1777695Y731520D01*
X1775510Y738733D01*
X1771954Y745439D01*
X1766824Y751636D01*
X1683004Y835507D01*
X1681378Y837641D01*
X1680362Y840130D01*
X1679244Y844448D01*
X1675231Y853236D01*
X1669846Y861212D01*
X1663192Y868171D01*
X1655419Y873912D01*
X1646783Y878281D01*
X1637588Y881075D01*
X1628038Y882345D01*
X1618386Y881887D01*
X1608937Y879856D01*
X1599996Y876300D01*
X1595882Y874420D01*
X1592478Y874318D01*
X1589176Y875284D01*
X1583283Y878281D01*
X1574088Y881075D01*
X1564538Y882345D01*
X1554886Y881887D01*
X1545437Y879856D01*
X1536496Y876300D01*
X1532382Y874420D01*
X1528978Y874318D01*
X1525676Y875284D01*
X1519783Y878281D01*
X1510588Y881075D01*
X1501038Y882345D01*
X1491386Y881887D01*
X1481937Y879856D01*
X1472996Y876300D01*
X1464767Y871219D01*
X1457553Y864869D01*
X1451457Y857351D01*
X1446784Y848918D01*
X1443583Y839825D01*
X1441958Y830326D01*
X1441958Y820674D01*
X1443583Y811174D01*
X1446784Y802081D01*
X1451457Y793648D01*
X1457553Y786130D01*
X1464767Y779780D01*
X1472996Y774700D01*
X1481937Y771144D01*
X1491386Y769112D01*
X1501038Y768654D01*
X1510588Y769924D01*
X1519783Y772718D01*
X1525676Y775716D01*
X1528978Y776681D01*
X1532382Y776579D01*
X1536496Y774700D01*
X1545437Y771144D01*
X1554886Y769112D01*
X1564538Y768654D01*
X1574088Y769924D01*
X1583283Y772718D01*
X1589176Y775716D01*
X1592478Y776681D01*
X1595882Y776579D01*
X1599996Y774700D01*
X1608937Y771144D01*
X1618386Y769112D01*
X1628038Y768654D01*
X1634236Y769467D01*
X1637334Y769416D01*
X1640230Y768400D01*
X1642719Y766572D01*
X1698294Y710996D01*
X1700530Y707694D01*
X1701292Y703783D01*
X1701292Y153212D01*
X1700428Y149148D01*
X1698040Y145745D01*
X1694434Y143611D01*
X1690319Y143103D01*
X1686356Y144272D01*
X1683156Y146964D01*
X1681276Y150672D01*
X1679244Y158648D01*
X1675231Y167436D01*
X1669846Y175412D01*
X1663192Y182372D01*
X1655419Y188112D01*
X1646783Y192481D01*
X1637588Y195275D01*
X1628038Y196545D01*
X1618386Y196088D01*
X1608937Y194056D01*
X1599996Y190500D01*
X1591767Y185420D01*
X1584553Y179070D01*
X1578457Y171551D01*
X1573784Y163118D01*
X1570583Y154025D01*
X1568958Y144526D01*
X1568958Y134874D01*
X1570583Y125374D01*
X1573784Y116281D01*
X1577238Y110032D01*
X1578406Y106832D01*
X1578406Y103378D01*
X1577238Y100126D01*
X1573784Y93929D01*
X1570583Y84836D01*
X1568958Y75285D01*
X1568958Y65684D01*
X1570583Y56134D01*
X1573784Y47040D01*
X1578457Y38658D01*
X1584553Y31140D01*
X1591767Y24739D01*
X1599996Y19710D01*
X1608937Y16103D01*
X1618386Y14071D01*
X1628038Y13665D01*
X1636064Y14681D01*
X1640230Y14376D01*
X1643888Y12395D01*
X1646478Y9093D01*
X1647494Y5029D01*
X1646834Y914D01*
X1644548Y-2590D01*
X1637995Y-9093D01*
X1634693Y-11328D01*
X1630781Y-12090D01*
X-37592Y-12090D01*
X-45618Y-12903D01*
X-52832Y-15087D01*
X-59537Y-18643D01*
X-65735Y-23774D01*
X-204724Y-162763D01*
X-209854Y-168960D01*
X-213410Y-175666D01*
X-215595Y-182880D01*
X-216408Y-190906D01*
X-216408Y-353263D01*
X-217068Y-356920D01*
X-219049Y-360070D01*
X-221996Y-362305D01*
X-225602Y-363372D01*
X-233629Y-364134D01*
X-239014Y-366014D01*
X-243890Y-369112D01*
X-248005Y-373227D01*
X-251104Y-378104D01*
X-252984Y-383590D01*
X-253695Y-389890D01*
X-253695Y-488746D01*
X-252984Y-495046D01*
X-251104Y-500532D01*
X-248005Y-505409D01*
X-243890Y-509524D01*
X-235559Y-514705D01*
X-233222Y-517956D01*
X-232308Y-521919D01*
X-233019Y-525881D01*
X-235204Y-529234D01*
X-238556Y-531520D01*
X-242468Y-532333D01*
X-938377Y-532028D01*
X-950874Y-531063D01*
X-961186Y-528726D01*
X-971042Y-524916D01*
X-980236Y-519785D01*
X-988618Y-513384D01*
X-996035Y-505815D01*
X-1002284Y-497332D01*
X-1007211Y-488035D01*
X-1010818Y-478078D01*
X-1012952Y-467766D01*
X-1013714Y-456692D01*
X-1013714Y2790799D01*
X-1012748Y2803296D01*
X-1010412Y2813608D01*
X-1006652Y2823464D01*
X-1001471Y2832658D01*
X-995070Y2841040D01*
X-987552Y2848457D01*
X-979017Y2854706D01*
X-969721Y2859633D01*
X-959764Y2863240D01*
X-949452Y2865374D01*
X-938377Y2866136D01*
X-807364Y2866136D01*
X-803148Y2865221D01*
X-799693Y2862630D01*
X-797610Y2858871D01*
X-797306Y2854553D01*
X-798830Y2850540D01*
X-801878Y2847441D01*
X-810260Y2842006D01*
X-818946Y2834284D01*
X-826363Y2825292D01*
X-832307Y2815336D01*
X-836625Y2804566D01*
X-839266Y2793238D01*
X-840181Y2781655D01*
X-839266Y2770073D01*
X-836625Y2758744D01*
X-832307Y2747975D01*
X-826363Y2738018D01*
X-818946Y2729026D01*
X-810260Y2721305D01*
X-800557Y2715006D01*
X-789940Y2710230D01*
X-778713Y2707182D01*
X-767181Y2705811D01*
X-755599Y2706268D01*
X-744169Y2708503D01*
X-733247Y2712415D01*
X-723036Y2717952D01*
X-713790Y2725013D01*
X-708152Y2730855D01*
X-704646Y2733243D01*
X-700430Y2734005D01*
X-696315Y2732938D01*
X-693013Y2730296D01*
X-691946Y2729026D01*
X-683260Y2721305D01*
X-673557Y2715006D01*
X-662940Y2710230D01*
X-651713Y2707182D01*
X-640181Y2705811D01*
X-628599Y2706268D01*
X-617169Y2708503D01*
X-606247Y2712415D01*
X-596036Y2717952D01*
X-586790Y2725013D01*
X-581152Y2730855D01*
X-577646Y2733243D01*
X-573430Y2734005D01*
X-569315Y2732938D01*
X-566013Y2730296D01*
X-564946Y2729026D01*
X-556260Y2721305D01*
X-546557Y2715006D01*
X-535940Y2710230D01*
X-524713Y2707182D01*
X-513181Y2705811D01*
X-501599Y2706268D01*
X-490169Y2708503D01*
X-479247Y2712415D01*
X-464616Y2720238D01*
X-460451Y2720390D01*
X-456539Y2718765D01*
X-449376Y2711450D01*
X-444500Y2708351D01*
X-439013Y2706471D01*
X-432714Y2705760D01*
X-414629Y2705760D01*
X-414629Y2750312D01*
X-426974Y2750312D01*
X-430682Y2751023D01*
X-433933Y2753055D01*
X-436168Y2756103D01*
X-437134Y2759760D01*
X-434644Y2775864D01*
X-434644Y2787446D01*
X-437134Y2803550D01*
X-436168Y2807208D01*
X-433933Y2810256D01*
X-430682Y2812288D01*
X-426974Y2812999D01*
X-414629Y2812999D01*
X-414629Y2855976D01*
X-413867Y2859887D01*
X-411683Y2863189D01*
X-408381Y2865374D01*
X-404469Y2866136D01*
X-362102Y2866136D01*
X-358190Y2865374D01*
X-354888Y2863189D01*
X-352704Y2859887D01*
X-351942Y2855976D01*
X-351942Y2812999D01*
X-307390Y2812999D01*
X-307390Y2831084D01*
X-308102Y2837383D01*
X-309981Y2842869D01*
X-313080Y2847746D01*
X-316331Y2852115D01*
X-317093Y2855976D01*
X-316331Y2859887D01*
X-314096Y2863189D01*
X-310845Y2865374D01*
X-306933Y2866136D01*
X-190906Y2866136D01*
X-178409Y2865170D01*
X-168097Y2862834D01*
X-158242Y2859024D01*
X-149047Y2853893D01*
X-140665Y2847492D01*
X-133248Y2839974D01*
X-127000Y2831439D01*
X-122072Y2822143D01*
X-118465Y2812186D01*
X-116332Y2801874D01*
X-115570Y2790799D01*
X-115570Y2422347D01*
X-114655Y2407513D01*
X-114147Y2403703D01*
X-111709Y2391359D01*
X-110693Y2387600D01*
X-106629Y2375712D01*
X-105156Y2372106D01*
X-99568Y2360828D01*
X-97637Y2357475D01*
X-90678Y2347010D01*
X-88290Y2343912D01*
X-80010Y2334463D01*
X-77266Y2331720D01*
X-67767Y2323388D01*
X-64719Y2321052D01*
X-54254Y2314041D01*
X-50850Y2312111D01*
X-39573Y2306574D01*
X-36017Y2305050D01*
X-24079Y2301036D01*
X-20320Y2300020D01*
X-7975Y2297531D01*
X-4165Y2297074D01*
X10668Y2296160D01*
X181965Y2296160D01*
X185877Y2295347D01*
X189179Y2293162D01*
X191363Y2289810D01*
X192125Y2285949D01*
X191312Y2282037D01*
X189077Y2278735D01*
X185775Y2276551D01*
X177596Y2273300D01*
X169367Y2268220D01*
X162153Y2261870D01*
X156057Y2254351D01*
X151384Y2245918D01*
X148183Y2236825D01*
X146558Y2227326D01*
X146558Y2217674D01*
X148183Y2208174D01*
X151384Y2199081D01*
X156057Y2190648D01*
X162153Y2183130D01*
X169367Y2176780D01*
X177596Y2171700D01*
X186537Y2168144D01*
X195986Y2166112D01*
X205638Y2165654D01*
X215188Y2166924D01*
X224383Y2169718D01*
X233019Y2174087D01*
X240792Y2179828D01*
X247446Y2186787D01*
X252831Y2194763D01*
X256844Y2203551D01*
X259232Y2212898D01*
X260096Y2222500D01*
X259232Y2232101D01*
X256844Y2241448D01*
X252831Y2250236D01*
X247446Y2258212D01*
X240792Y2265172D01*
X233019Y2270912D01*
X224383Y2275281D01*
X221132Y2276297D01*
X217525Y2278227D01*
X214985Y2281478D01*
X213969Y2285441D01*
X214579Y2289505D01*
X216712Y2292959D01*
X220065Y2295347D01*
X224078Y2296160D01*
X1310030Y2296160D01*
X1324864Y2297074D01*
X1328674Y2297531D01*
X1341018Y2300020D01*
X1344777Y2301036D01*
X1356715Y2305050D01*
X1360322Y2306574D01*
X1371600Y2312111D01*
X1374952Y2314041D01*
X1385417Y2321052D01*
X1388516Y2323388D01*
X1397965Y2331720D01*
X1400708Y2334463D01*
X1408988Y2343912D01*
X1411376Y2347010D01*
X1418336Y2357475D01*
X1420317Y2360828D01*
X1425854Y2372106D01*
X1427327Y2375712D01*
X1431391Y2387600D01*
X1432407Y2391359D01*
X1434846Y2403703D01*
X1435354Y2407564D01*
X1436268Y2422347D01*
X1436268Y2790799D01*
X1437233Y2803296D01*
X1439570Y2813608D01*
X1443329Y2823464D01*
X1448511Y2832658D01*
X1454912Y2841040D01*
X1462430Y2848457D01*
X1470964Y2854706D01*
X1480261Y2859633D01*
X1490218Y2863240D01*
X1500530Y2865374D01*
X1511604Y2866136D01*
X1615795Y2866136D01*
X1619707Y2865374D01*
X1622958Y2863189D01*
X1625193Y2859887D01*
X1625955Y2855976D01*
X1625193Y2852115D01*
X1621942Y2847746D01*
X1618843Y2842869D01*
X1616964Y2837383D01*
X1616252Y2831084D01*
X1616252Y2732227D01*
X1616964Y2725928D01*
X1618843Y2720441D01*
X1621942Y2715564D01*
X1626057Y2711450D01*
X1630933Y2708351D01*
X1636420Y2706471D01*
X1642719Y2705760D01*
X1741576Y2705760D01*
X1747875Y2706471D01*
X1753362Y2708351D01*
X1758238Y2711450D01*
X1765401Y2718765D01*
X1769313Y2720390D01*
X1773478Y2720238D01*
X1788109Y2712415D01*
X1799031Y2708503D01*
X1810461Y2706268D01*
X1822043Y2705811D01*
X1833575Y2707182D01*
X1844802Y2710230D01*
X1855419Y2715006D01*
X1865122Y2721305D01*
X1873808Y2729026D01*
X1874875Y2730296D01*
X1878177Y2732938D01*
X1882292Y2734005D01*
X1886508Y2733243D01*
X1890014Y2730855D01*
X1895652Y2725013D01*
X1904898Y2717952D01*
X1915109Y2712415D01*
X1926031Y2708503D01*
X1937461Y2706268D01*
X1949043Y2705811D01*
X1960575Y2707182D01*
X1971802Y2710230D01*
X1982419Y2715006D01*
X1992122Y2721305D01*
X2000808Y2729026D01*
X2001875Y2730296D01*
X2005177Y2732938D01*
X2009292Y2734005D01*
X2013508Y2733243D01*
X2017014Y2730855D01*
X2022652Y2725013D01*
X2031898Y2717952D01*
X2041804Y2712567D01*
X2041804Y2750312D01*
X2029307Y2750312D01*
X2025751Y2750972D01*
X2022602Y2752852D01*
X2020366Y2755696D01*
X2019249Y2759151D01*
X2019452Y2762758D01*
X2021128Y2770073D01*
X2022043Y2781655D01*
X2021128Y2793238D01*
X2019452Y2800553D01*
X2019249Y2804160D01*
X2020366Y2807614D01*
X2022602Y2810459D01*
X2025751Y2812338D01*
X2029307Y2812999D01*
X2041804Y2812999D01*
X2041804Y2855976D01*
X2042566Y2859887D01*
X2044750Y2863189D01*
X2048052Y2865374D01*
X2051964Y2866136D01*
X2094331Y2866136D01*
X2098243Y2865374D01*
X2101545Y2863189D01*
X2103729Y2859887D01*
X2104491Y2855976D01*
X2104491Y2812999D01*
X2142083Y2812999D01*
X2141169Y2815336D01*
X2135225Y2825292D01*
X2127808Y2834284D01*
X2119122Y2842006D01*
X2110689Y2847441D01*
X2107692Y2850540D01*
X2106168Y2854553D01*
X2106472Y2858871D01*
X2108555Y2862630D01*
X2112010Y2865221D01*
X2116226Y2866136D01*
X2259076Y2866136D01*
X2271572Y2865170D01*
X2281885Y2862834D01*
X2291740Y2859024D01*
X2300935Y2853893D01*
X2309317Y2847492D01*
X2316734Y2839974D01*
X2322982Y2831439D01*
X2327960Y2822143D01*
X2331516Y2812186D01*
X2333650Y2801874D01*
X2334412Y2790799D01*
X2334412Y2737256D01*
X2333599Y2733192D01*
X2331669Y2728823D01*
X2330399Y2722626D01*
X2330399Y2717596D01*
X2331008Y2713786D01*
X2331821Y2711500D01*
X2332431Y2707640D01*
X2331466Y2703830D01*
X2327148Y2694584D01*
X2324760Y2685592D01*
X2323947Y2676296D01*
X2324760Y2667050D01*
X2327148Y2658059D01*
X2331110Y2649626D01*
X2333955Y2644698D01*
X2334412Y2641650D01*
X2334412Y2622092D01*
X2333955Y2619044D01*
X2331110Y2614117D01*
X2327148Y2605684D01*
X2324760Y2596692D01*
X2323947Y2587396D01*
X2324760Y2578150D01*
X2327148Y2569159D01*
X2331110Y2560726D01*
X2333955Y2555798D01*
X2334412Y2552750D01*
X2334412Y2533192D01*
X2333955Y2530144D01*
X2331110Y2525217D01*
X2327148Y2516784D01*
X2324760Y2507792D01*
X2323947Y2498496D01*
X2324760Y2489250D01*
X2327148Y2480259D01*
X2331110Y2471826D01*
X2333955Y2466898D01*
X2334412Y2463850D01*
X2334412Y2444292D01*
X2333955Y2441244D01*
X2331110Y2436317D01*
X2327148Y2427884D01*
X2324760Y2418892D01*
X2323947Y2409596D01*
X2324760Y2400350D01*
X2327148Y2391359D01*
X2331110Y2382926D01*
X2333955Y2377998D01*
X2334412Y2374950D01*
X2334412Y2355392D01*
X2333955Y2352344D01*
X2331110Y2347417D01*
X2327148Y2338984D01*
X2324760Y2329992D01*
X2323947Y2320696D01*
X2324760Y2311450D01*
X2327148Y2302459D01*
X2331110Y2294026D01*
X2333955Y2289098D01*
X2334412Y2286050D01*
X2334412Y2266492D01*
X2333955Y2263444D01*
X2331110Y2258517D01*
X2327148Y2250084D01*
X2324760Y2241092D01*
X2323947Y2231796D01*
X2324760Y2222550D01*
X2327148Y2213559D01*
X2331110Y2205126D01*
X2333955Y2200198D01*
X2334412Y2197150D01*
X2334412Y2177592D01*
X2333955Y2174544D01*
X2331110Y2169617D01*
X2327148Y2161184D01*
X2324760Y2152192D01*
X2323947Y2142896D01*
X2324760Y2133650D01*
X2327148Y2124659D01*
X2331110Y2116226D01*
X2333955Y2111298D01*
X2334412Y2108250D01*
X2334412Y2088692D01*
X2333955Y2085644D01*
X2331110Y2080717D01*
X2327148Y2072284D01*
X2324760Y2063292D01*
X2323947Y2053996D01*
X2324760Y2044750D01*
X2327148Y2035759D01*
X2331110Y2027326D01*
X2333955Y2022398D01*
X2334412Y2019350D01*
X2334463Y548538D01*
X2333955Y543661D01*
X2333955Y-457962D01*
X2332990Y-470458D01*
X2330602Y-480771D01*
X2326843Y-490626D01*
X2321712Y-499872D01*
X2315260Y-508254D01*
X2307742Y-515620D01*
X2299258Y-521868D01*
X2289911Y-526846D01*
X2280005Y-530402D01*
X2269642Y-532587D01*
G37*

%LPC*%
G36*
X298856Y-508406D02*
G01*
X298856Y-470662D01*
X234543Y-470662D01*
X234543Y-508152D01*
X239471Y-505968D01*
X249174Y-499668D01*
X257860Y-491947D01*
X258927Y-490677D01*
X262229Y-488035D01*
X266344Y-486968D01*
X270560Y-487730D01*
X274066Y-490118D01*
X279704Y-495960D01*
X288950Y-503021D01*
G37*
G36*
X1628038Y-425145D02*
G01*
X1637588Y-423875D01*
X1646783Y-421081D01*
X1655419Y-416712D01*
X1663192Y-410972D01*
X1669846Y-404012D01*
X1675231Y-396036D01*
X1679244Y-387248D01*
X1681632Y-377901D01*
X1682496Y-368300D01*
X1681632Y-358698D01*
X1679244Y-349351D01*
X1675231Y-340563D01*
X1669846Y-332587D01*
X1663192Y-325628D01*
X1655419Y-319887D01*
X1646783Y-315518D01*
X1637588Y-312724D01*
X1628038Y-311454D01*
X1618386Y-311912D01*
X1614068Y-311912D01*
X1610207Y-310134D01*
X1607362Y-306933D01*
X1606092Y-302818D01*
X1605432Y-295198D01*
X1603044Y-285851D01*
X1599031Y-277063D01*
X1593646Y-269087D01*
X1586992Y-262128D01*
X1579219Y-256387D01*
X1570583Y-252018D01*
X1561388Y-249224D01*
X1551838Y-247954D01*
X1542186Y-248412D01*
X1532737Y-250444D01*
X1523796Y-254000D01*
X1515567Y-259079D01*
X1508353Y-265430D01*
X1502257Y-272948D01*
X1497584Y-281381D01*
X1494383Y-290474D01*
X1492758Y-299974D01*
X1492758Y-309626D01*
X1494383Y-319125D01*
X1497584Y-328218D01*
X1502257Y-336651D01*
X1508353Y-344170D01*
X1515567Y-350520D01*
X1523796Y-355600D01*
X1532737Y-359156D01*
X1542186Y-361188D01*
X1551838Y-361645D01*
X1557477Y-360883D01*
X1561744Y-361238D01*
X1565503Y-363321D01*
X1568043Y-366776D01*
X1568958Y-370992D01*
X1568958Y-373126D01*
X1570583Y-382625D01*
X1573784Y-391718D01*
X1578457Y-400151D01*
X1584553Y-407670D01*
X1591767Y-414020D01*
X1599996Y-419100D01*
X1608937Y-422656D01*
X1618386Y-424688D01*
G37*
G36*
X1983638Y-425043D02*
G01*
X1993188Y-423773D01*
X2002383Y-420979D01*
X2011019Y-416610D01*
X2018792Y-410870D01*
X2025446Y-403910D01*
X2030831Y-395935D01*
X2034844Y-387146D01*
X2037232Y-377799D01*
X2038096Y-368198D01*
X2037232Y-358597D01*
X2034844Y-349250D01*
X2031187Y-341172D01*
X2030272Y-337007D01*
X2031187Y-332790D01*
X2034387Y-325729D01*
X2036775Y-316382D01*
X2037638Y-306781D01*
X2036775Y-297180D01*
X2034387Y-287832D01*
X2030374Y-279044D01*
X2024989Y-271068D01*
X2018334Y-264109D01*
X2010562Y-258368D01*
X2001926Y-254000D01*
X1992731Y-251206D01*
X1983181Y-249936D01*
X1973529Y-250393D01*
X1964080Y-252425D01*
X1955139Y-255981D01*
X1946910Y-261061D01*
X1939696Y-267411D01*
X1933600Y-274929D01*
X1928926Y-283362D01*
X1925726Y-292455D01*
X1924100Y-301955D01*
X1924100Y-311607D01*
X1925726Y-321106D01*
X1928926Y-330200D01*
X1930450Y-332943D01*
X1931568Y-336194D01*
X1931568Y-339598D01*
X1929384Y-344779D01*
X1926183Y-353872D01*
X1924557Y-363372D01*
X1924557Y-373024D01*
X1926183Y-382524D01*
X1929384Y-391617D01*
X1934057Y-400050D01*
X1940153Y-407568D01*
X1947367Y-413918D01*
X1955596Y-418998D01*
X1964537Y-422554D01*
X1973986Y-424586D01*
G37*
G36*
X234543Y-407974D02*
G01*
X298856Y-407974D01*
X298856Y-370230D01*
X288950Y-375615D01*
X279704Y-382676D01*
X274066Y-388518D01*
X270560Y-390906D01*
X266344Y-391668D01*
X262229Y-390601D01*
X258927Y-387959D01*
X257860Y-386689D01*
X249174Y-378968D01*
X239471Y-372668D01*
X234543Y-370484D01*
G37*
G36*
X840638Y-260045D02*
G01*
X850188Y-258775D01*
X859383Y-255981D01*
X868019Y-251612D01*
X875792Y-245871D01*
X882446Y-238912D01*
X887831Y-230936D01*
X891844Y-222148D01*
X894232Y-212801D01*
X895096Y-203200D01*
X894232Y-193598D01*
X891844Y-184251D01*
X887831Y-175463D01*
X882446Y-167487D01*
X875792Y-160528D01*
X868019Y-154787D01*
X859383Y-150418D01*
X850188Y-147624D01*
X840638Y-146354D01*
X830986Y-146812D01*
X821537Y-148844D01*
X812596Y-152400D01*
X804367Y-157480D01*
X797153Y-163830D01*
X791057Y-171348D01*
X786384Y-179781D01*
X783183Y-188874D01*
X781558Y-198374D01*
X781558Y-208025D01*
X783183Y-217525D01*
X786384Y-226618D01*
X791057Y-235051D01*
X797153Y-242570D01*
X804367Y-248920D01*
X812596Y-254000D01*
X821537Y-257556D01*
X830986Y-259588D01*
G37*
G36*
X-632561Y-44145D02*
G01*
X-623011Y-42875D01*
X-613816Y-40081D01*
X-605180Y-35712D01*
X-597408Y-29971D01*
X-590753Y-23012D01*
X-585368Y-15036D01*
X-581253Y-5791D01*
X-579323Y-1981D01*
X-576021Y711D01*
X-571855Y1778D01*
X-567639Y1066D01*
X-564083Y-1320D01*
X-561848Y-4978D01*
X-559816Y-10718D01*
X-555142Y-19151D01*
X-549046Y-26670D01*
X-541832Y-33020D01*
X-533603Y-38100D01*
X-524662Y-41656D01*
X-515213Y-43688D01*
X-505561Y-44145D01*
X-496011Y-42875D01*
X-486816Y-40081D01*
X-478180Y-35712D01*
X-470408Y-29971D01*
X-463753Y-23012D01*
X-458368Y-15036D01*
X-454355Y-6248D01*
X-451967Y3098D01*
X-451104Y12700D01*
X-451967Y22301D01*
X-454355Y31648D01*
X-458368Y40436D01*
X-463753Y48412D01*
X-470408Y55372D01*
X-478180Y61112D01*
X-486816Y65481D01*
X-496011Y68275D01*
X-505561Y69545D01*
X-515213Y69088D01*
X-524662Y67056D01*
X-533603Y63500D01*
X-541832Y58419D01*
X-549046Y52069D01*
X-555142Y44551D01*
X-559816Y36118D01*
X-561848Y30378D01*
X-564083Y26720D01*
X-567639Y24333D01*
X-571855Y23622D01*
X-576021Y24688D01*
X-579323Y27381D01*
X-585368Y40436D01*
X-590753Y48412D01*
X-597408Y55372D01*
X-605180Y61112D01*
X-613816Y65481D01*
X-623011Y68275D01*
X-632561Y69545D01*
X-642213Y69088D01*
X-651662Y67056D01*
X-660603Y63500D01*
X-668832Y58419D01*
X-676046Y52069D01*
X-682142Y44551D01*
X-686816Y36118D01*
X-690016Y27025D01*
X-691642Y17526D01*
X-691642Y7873D01*
X-690016Y-1625D01*
X-686816Y-10718D01*
X-682142Y-19151D01*
X-676046Y-26670D01*
X-668832Y-33020D01*
X-660603Y-38100D01*
X-651662Y-41656D01*
X-642213Y-43688D01*
G37*
G36*
X294538Y57454D02*
G01*
X304088Y58724D01*
X313283Y61518D01*
X321919Y65887D01*
X329692Y71628D01*
X336346Y78587D01*
X341731Y86563D01*
X345744Y95351D01*
X348132Y104698D01*
X348996Y114300D01*
X348132Y123901D01*
X345744Y133248D01*
X341833Y141884D01*
X340918Y146050D01*
X341833Y150215D01*
X345744Y158851D01*
X348132Y168198D01*
X348996Y177800D01*
X348132Y187401D01*
X345744Y196748D01*
X341731Y205536D01*
X336346Y213512D01*
X329692Y220471D01*
X321919Y226212D01*
X313283Y230581D01*
X304088Y233375D01*
X294538Y234645D01*
X284886Y234188D01*
X275437Y232156D01*
X266496Y228600D01*
X258267Y223520D01*
X251053Y217170D01*
X244957Y209651D01*
X240284Y201218D01*
X237083Y192125D01*
X235458Y182626D01*
X235458Y172974D01*
X237083Y163474D01*
X240284Y154381D01*
X242163Y151028D01*
X243281Y147777D01*
X243281Y144322D01*
X242163Y141071D01*
X240284Y137718D01*
X237083Y128625D01*
X235458Y119126D01*
X235458Y109474D01*
X237083Y99974D01*
X240284Y90881D01*
X244957Y82448D01*
X251053Y74930D01*
X258267Y68580D01*
X266496Y63500D01*
X275437Y59943D01*
X284886Y57912D01*
G37*
G36*
X2438Y57454D02*
G01*
X11988Y58724D01*
X21183Y61518D01*
X29819Y65887D01*
X37592Y71628D01*
X44246Y78587D01*
X49631Y86563D01*
X53644Y95351D01*
X56032Y104698D01*
X56896Y114300D01*
X56032Y123901D01*
X53644Y133248D01*
X49733Y141884D01*
X48818Y146050D01*
X49733Y150215D01*
X53644Y158851D01*
X56032Y168198D01*
X56896Y177800D01*
X56032Y187401D01*
X53644Y196748D01*
X49631Y205536D01*
X44246Y213512D01*
X37592Y220471D01*
X29819Y226212D01*
X21183Y230581D01*
X11988Y233375D01*
X2438Y234645D01*
X-7213Y234188D01*
X-16662Y232156D01*
X-25603Y228600D01*
X-33832Y223520D01*
X-41046Y217170D01*
X-47142Y209651D01*
X-51816Y201218D01*
X-55016Y192125D01*
X-56641Y182626D01*
X-56641Y172974D01*
X-55016Y163474D01*
X-51816Y154381D01*
X-49936Y151028D01*
X-48818Y147777D01*
X-48818Y144322D01*
X-49936Y141071D01*
X-51816Y137718D01*
X-55016Y128625D01*
X-56641Y119126D01*
X-56641Y109474D01*
X-55016Y99974D01*
X-51816Y90881D01*
X-47142Y82448D01*
X-41046Y74930D01*
X-33832Y68580D01*
X-25603Y63500D01*
X-16662Y59943D01*
X-7213Y57912D01*
G37*
G36*
X599338Y57454D02*
G01*
X608888Y58724D01*
X618083Y61518D01*
X626719Y65887D01*
X634492Y71628D01*
X641146Y78587D01*
X646531Y86563D01*
X650544Y95351D01*
X652932Y104698D01*
X653796Y114300D01*
X652932Y123901D01*
X650544Y133248D01*
X646633Y141884D01*
X645718Y146050D01*
X646633Y150215D01*
X650544Y158851D01*
X652932Y168198D01*
X653796Y177800D01*
X652932Y187401D01*
X650544Y196748D01*
X646531Y205536D01*
X641146Y213512D01*
X634492Y220471D01*
X626719Y226212D01*
X618083Y230581D01*
X608888Y233375D01*
X599338Y234645D01*
X589686Y234188D01*
X580237Y232156D01*
X571296Y228600D01*
X563067Y223520D01*
X555853Y217170D01*
X549757Y209651D01*
X545084Y201218D01*
X541883Y192125D01*
X540258Y182626D01*
X540258Y172974D01*
X541883Y163474D01*
X545084Y154381D01*
X546963Y151028D01*
X548081Y147777D01*
X548081Y144322D01*
X546963Y141071D01*
X545084Y137718D01*
X541883Y128625D01*
X540258Y119126D01*
X540258Y109474D01*
X541883Y99974D01*
X545084Y90881D01*
X549757Y82448D01*
X555853Y74930D01*
X563067Y68580D01*
X571296Y63500D01*
X580237Y59943D01*
X589686Y57912D01*
G37*
G36*
X-704799Y88493D02*
G01*
X-695248Y89712D01*
X-686054Y92557D01*
X-677418Y96875D01*
X-669645Y102616D01*
X-662990Y109575D01*
X-657606Y117602D01*
X-653592Y126390D01*
X-651205Y135686D01*
X-650341Y145288D01*
X-651205Y154940D01*
X-653592Y164236D01*
X-657402Y172618D01*
X-658266Y176784D01*
X-657402Y180949D01*
X-653338Y189890D01*
X-650951Y199186D01*
X-650087Y208788D01*
X-650951Y218440D01*
X-653338Y227736D01*
X-657148Y236118D01*
X-658063Y240334D01*
X-657148Y244500D01*
X-653135Y253390D01*
X-650697Y262686D01*
X-649884Y272288D01*
X-650697Y281940D01*
X-653135Y291236D01*
X-657098Y300024D01*
X-662482Y308051D01*
X-669188Y315010D01*
X-676960Y320751D01*
X-685546Y325069D01*
X-694791Y327914D01*
X-704342Y329133D01*
X-713994Y328726D01*
X-723392Y326694D01*
X-732383Y323088D01*
X-740562Y318058D01*
X-747826Y311658D01*
X-753872Y304139D01*
X-758596Y295757D01*
X-761796Y286664D01*
X-763422Y277114D01*
X-763422Y267512D01*
X-761796Y257962D01*
X-758596Y248869D01*
X-756818Y245719D01*
X-755650Y242468D01*
X-755650Y239064D01*
X-756818Y235813D01*
X-758799Y232257D01*
X-762000Y223164D01*
X-763625Y213614D01*
X-763625Y204012D01*
X-762000Y194462D01*
X-758799Y185369D01*
X-757072Y182270D01*
X-755904Y179019D01*
X-755904Y175564D01*
X-757072Y172313D01*
X-759053Y168757D01*
X-762254Y159664D01*
X-763879Y150114D01*
X-763879Y140512D01*
X-762254Y130962D01*
X-759053Y121869D01*
X-754380Y113487D01*
X-748284Y105968D01*
X-741070Y99568D01*
X-732840Y94538D01*
X-723900Y90932D01*
X-714451Y88900D01*
G37*
G36*
X-454761Y120954D02*
G01*
X-445211Y122224D01*
X-436016Y125018D01*
X-427380Y129387D01*
X-419608Y135128D01*
X-412953Y142087D01*
X-407568Y150063D01*
X-403555Y158851D01*
X-400913Y169011D01*
X-399237Y172516D01*
X-396341Y175158D01*
X-392633Y176479D01*
X-388721Y176326D01*
X-385165Y174650D01*
X-382473Y171805D01*
X-381101Y168148D01*
X-380746Y166268D01*
X-377545Y157175D01*
X-372872Y148742D01*
X-366776Y141224D01*
X-359562Y134874D01*
X-351332Y129794D01*
X-342392Y126237D01*
X-332943Y124206D01*
X-323291Y123748D01*
X-313740Y125018D01*
X-304546Y127812D01*
X-295910Y132181D01*
X-288137Y137922D01*
X-281482Y144881D01*
X-276098Y152857D01*
X-270154Y165455D01*
X-266801Y168097D01*
X-262686Y169113D01*
X-258470Y168402D01*
X-254965Y166014D01*
X-252729Y162356D01*
X-250545Y156210D01*
X-245871Y147828D01*
X-239775Y140309D01*
X-232562Y133908D01*
X-224332Y128879D01*
X-215392Y125272D01*
X-205943Y123240D01*
X-196291Y122834D01*
X-186740Y124053D01*
X-177546Y126898D01*
X-168910Y131216D01*
X-161137Y136956D01*
X-154482Y143916D01*
X-149098Y151942D01*
X-145084Y160731D01*
X-142697Y170027D01*
X-141833Y179628D01*
X-142697Y189280D01*
X-145084Y198577D01*
X-149098Y207365D01*
X-154482Y215392D01*
X-161137Y222351D01*
X-168910Y228092D01*
X-177546Y232410D01*
X-186740Y235254D01*
X-196291Y236474D01*
X-205943Y236067D01*
X-215392Y234035D01*
X-224332Y230428D01*
X-232562Y225399D01*
X-239775Y218998D01*
X-245871Y211480D01*
X-250545Y203098D01*
X-252425Y197713D01*
X-254660Y194106D01*
X-258216Y191719D01*
X-262432Y190957D01*
X-266598Y192074D01*
X-269900Y194716D01*
X-276098Y208330D01*
X-281482Y216306D01*
X-288137Y223266D01*
X-295910Y229006D01*
X-304546Y233375D01*
X-313740Y236169D01*
X-323291Y237439D01*
X-332943Y236982D01*
X-342392Y234950D01*
X-351332Y231394D01*
X-359562Y226314D01*
X-366776Y219964D01*
X-372872Y212445D01*
X-377545Y204012D01*
X-380746Y194919D01*
X-381660Y189687D01*
X-383082Y186029D01*
X-385724Y183134D01*
X-389280Y181508D01*
X-393192Y181356D01*
X-396900Y182676D01*
X-399796Y185318D01*
X-401523Y188823D01*
X-403555Y196748D01*
X-407568Y205536D01*
X-412953Y213512D01*
X-419608Y220471D01*
X-427380Y226212D01*
X-436016Y230581D01*
X-445211Y233375D01*
X-454761Y234645D01*
X-464413Y234188D01*
X-473862Y232156D01*
X-482803Y228600D01*
X-491032Y223520D01*
X-498246Y217170D01*
X-504342Y209651D01*
X-509016Y201218D01*
X-512216Y192125D01*
X-513842Y182626D01*
X-513842Y172974D01*
X-512216Y163474D01*
X-509016Y154381D01*
X-504342Y145948D01*
X-498246Y138430D01*
X-491032Y132080D01*
X-482803Y127000D01*
X-473862Y123444D01*
X-464413Y121412D01*
G37*
G36*
X1353108Y385064D02*
G01*
X1362659Y386283D01*
X1371854Y389128D01*
X1380490Y393446D01*
X1388262Y399186D01*
X1394917Y406146D01*
X1400302Y414172D01*
X1404315Y422960D01*
X1406702Y432257D01*
X1407566Y441858D01*
X1406702Y451510D01*
X1404315Y460806D01*
X1400302Y469595D01*
X1394917Y477621D01*
X1388262Y484581D01*
X1380490Y490321D01*
X1371854Y494639D01*
X1362659Y497484D01*
X1353108Y498703D01*
X1343456Y498297D01*
X1334008Y496265D01*
X1325067Y492658D01*
X1316837Y487629D01*
X1309624Y481228D01*
X1303528Y473709D01*
X1298854Y465328D01*
X1295654Y456234D01*
X1294028Y446684D01*
X1294028Y437083D01*
X1295654Y427532D01*
X1298854Y418439D01*
X1303528Y410057D01*
X1309624Y402539D01*
X1316837Y396138D01*
X1325067Y391109D01*
X1334008Y387502D01*
X1343456Y385470D01*
G37*
G36*
X65938Y430936D02*
G01*
X75488Y432206D01*
X84683Y435000D01*
X93319Y439369D01*
X101092Y445109D01*
X107746Y452069D01*
X113131Y460044D01*
X117144Y468833D01*
X119532Y478180D01*
X120396Y487781D01*
X119532Y497382D01*
X117144Y506730D01*
X113131Y515518D01*
X107746Y523493D01*
X101092Y530453D01*
X93319Y536194D01*
X84683Y540562D01*
X75488Y543356D01*
X65938Y544626D01*
X56286Y544169D01*
X46837Y542137D01*
X37896Y538581D01*
X29667Y533501D01*
X22453Y527151D01*
X16357Y519633D01*
X11684Y511200D01*
X8483Y502107D01*
X6858Y492607D01*
X6858Y482955D01*
X8483Y473456D01*
X11684Y464362D01*
X16357Y455930D01*
X22453Y448411D01*
X29667Y442061D01*
X37896Y436981D01*
X46837Y433425D01*
X56286Y431393D01*
G37*
G36*
X243738Y430936D02*
G01*
X253288Y432206D01*
X262483Y435000D01*
X271119Y439369D01*
X278892Y445109D01*
X285546Y452069D01*
X290931Y460044D01*
X294944Y468833D01*
X297332Y478180D01*
X298196Y487781D01*
X297332Y497382D01*
X294944Y506730D01*
X290931Y515518D01*
X285546Y523493D01*
X278892Y530453D01*
X271119Y536194D01*
X262483Y540562D01*
X253288Y543356D01*
X243738Y544626D01*
X234086Y544169D01*
X224637Y542137D01*
X215696Y538581D01*
X207467Y533501D01*
X200253Y527151D01*
X194157Y519633D01*
X189484Y511200D01*
X186283Y502107D01*
X184658Y492607D01*
X184658Y482955D01*
X186283Y473456D01*
X189484Y464362D01*
X194157Y455930D01*
X200253Y448411D01*
X207467Y442061D01*
X215696Y436981D01*
X224637Y433425D01*
X234086Y431393D01*
G37*
G36*
X-73761Y430936D02*
G01*
X-64211Y432206D01*
X-55016Y435000D01*
X-46380Y439369D01*
X-38608Y445109D01*
X-31953Y452069D01*
X-26568Y460044D01*
X-22555Y468833D01*
X-20167Y478180D01*
X-19304Y487781D01*
X-20167Y497382D01*
X-22555Y506730D01*
X-26568Y515518D01*
X-31953Y523493D01*
X-38608Y530453D01*
X-46380Y536194D01*
X-55016Y540562D01*
X-64211Y543356D01*
X-73761Y544626D01*
X-83413Y544169D01*
X-92862Y542137D01*
X-101803Y538581D01*
X-110032Y533501D01*
X-117246Y527151D01*
X-123342Y519633D01*
X-128016Y511200D01*
X-131216Y502107D01*
X-132842Y492607D01*
X-132842Y482955D01*
X-131216Y473456D01*
X-128016Y464362D01*
X-123342Y455930D01*
X-117246Y448411D01*
X-110032Y442061D01*
X-101803Y436981D01*
X-92862Y433425D01*
X-83413Y431393D01*
G37*
G36*
X561238Y430936D02*
G01*
X570788Y432206D01*
X579983Y435000D01*
X588619Y439369D01*
X596392Y445109D01*
X603046Y452069D01*
X608431Y460044D01*
X612444Y468833D01*
X614832Y478180D01*
X615696Y487781D01*
X614832Y497382D01*
X612444Y506730D01*
X608431Y515518D01*
X603046Y523493D01*
X596392Y530453D01*
X588619Y536194D01*
X579983Y540562D01*
X570788Y543356D01*
X561238Y544626D01*
X551586Y544169D01*
X542137Y542137D01*
X533196Y538581D01*
X524967Y533501D01*
X517753Y527151D01*
X511657Y519633D01*
X506984Y511200D01*
X503783Y502107D01*
X502158Y492607D01*
X502158Y482955D01*
X503783Y473456D01*
X506984Y464362D01*
X511657Y455930D01*
X517753Y448411D01*
X524967Y442061D01*
X533196Y436981D01*
X542137Y433425D01*
X551586Y431393D01*
G37*
G36*
X1945487Y462686D02*
G01*
X2044344Y462686D01*
X2050643Y463397D01*
X2056130Y465277D01*
X2061006Y468376D01*
X2065985Y473405D01*
X2069642Y475792D01*
X2073910Y476402D01*
X2078075Y475234D01*
X2088896Y469341D01*
X2099818Y465429D01*
X2111197Y463194D01*
X2122830Y462737D01*
X2134362Y464108D01*
X2145588Y467156D01*
X2156155Y471932D01*
X2165908Y478231D01*
X2174595Y485952D01*
X2181961Y494944D01*
X2187905Y504901D01*
X2192274Y515670D01*
X2194915Y526999D01*
X2195779Y538581D01*
X2194915Y550164D01*
X2192274Y561492D01*
X2187905Y572262D01*
X2181961Y582218D01*
X2174595Y591210D01*
X2165908Y598932D01*
X2156155Y605231D01*
X2145588Y610006D01*
X2134362Y613054D01*
X2122830Y614426D01*
X2111197Y613968D01*
X2099818Y611733D01*
X2088896Y607822D01*
X2078075Y601929D01*
X2073910Y600760D01*
X2069642Y601370D01*
X2065985Y603758D01*
X2061006Y608787D01*
X2056130Y611886D01*
X2050643Y613765D01*
X2044344Y614476D01*
X1945487Y614476D01*
X1939188Y613765D01*
X1933702Y611886D01*
X1928825Y608787D01*
X1924710Y604672D01*
X1921611Y599795D01*
X1919732Y594309D01*
X1919020Y588010D01*
X1919020Y489153D01*
X1919732Y482854D01*
X1921611Y477367D01*
X1924710Y472490D01*
X1928825Y468376D01*
X1933702Y465277D01*
X1939188Y463397D01*
G37*
G36*
X789838Y723036D02*
G01*
X799388Y724306D01*
X808583Y727100D01*
X817219Y731469D01*
X824992Y737209D01*
X831646Y744169D01*
X837031Y752144D01*
X841044Y760933D01*
X843432Y770280D01*
X844296Y779881D01*
X843432Y789482D01*
X841044Y798830D01*
X837031Y807618D01*
X831646Y815594D01*
X824992Y822553D01*
X817219Y828294D01*
X808583Y832662D01*
X799388Y835456D01*
X789838Y836726D01*
X780186Y836269D01*
X770737Y834237D01*
X761796Y830681D01*
X753567Y825601D01*
X746353Y819251D01*
X740257Y811733D01*
X735584Y803300D01*
X732383Y794207D01*
X730758Y784707D01*
X730758Y775055D01*
X732383Y765556D01*
X735584Y756462D01*
X740257Y748030D01*
X746353Y740511D01*
X753567Y734161D01*
X761796Y729081D01*
X770737Y725525D01*
X780186Y723493D01*
G37*
G36*
X243738Y730554D02*
G01*
X253288Y731824D01*
X262483Y734618D01*
X271119Y738987D01*
X278892Y744728D01*
X285546Y751687D01*
X290931Y759663D01*
X294944Y768451D01*
X297332Y777798D01*
X298196Y787400D01*
X297332Y797001D01*
X294944Y806348D01*
X290931Y815136D01*
X285546Y823112D01*
X278892Y830071D01*
X271119Y835812D01*
X262483Y840181D01*
X253288Y842975D01*
X243738Y844245D01*
X234086Y843787D01*
X224637Y841756D01*
X215696Y838200D01*
X207467Y833119D01*
X200253Y826769D01*
X194157Y819251D01*
X189484Y810818D01*
X186283Y801725D01*
X184658Y792226D01*
X184658Y782574D01*
X186283Y773074D01*
X189484Y763981D01*
X194157Y755548D01*
X200253Y748030D01*
X207467Y741680D01*
X215696Y736600D01*
X224637Y733044D01*
X234086Y731012D01*
G37*
G36*
X1399438Y870356D02*
G01*
X1408988Y871626D01*
X1418183Y874420D01*
X1426819Y878789D01*
X1434592Y884529D01*
X1441246Y891489D01*
X1446631Y899464D01*
X1450644Y908253D01*
X1453032Y917600D01*
X1453896Y927201D01*
X1453032Y936802D01*
X1450644Y946150D01*
X1446631Y954938D01*
X1441246Y962914D01*
X1434592Y969873D01*
X1426819Y975614D01*
X1418183Y979982D01*
X1408988Y982776D01*
X1399438Y984046D01*
X1389786Y983589D01*
X1380337Y981557D01*
X1371396Y978001D01*
X1363167Y972921D01*
X1355953Y966571D01*
X1349857Y959053D01*
X1345184Y950620D01*
X1341983Y941527D01*
X1340358Y932027D01*
X1340358Y922375D01*
X1341983Y912876D01*
X1345184Y903782D01*
X1349857Y895350D01*
X1355953Y887831D01*
X1363167Y881481D01*
X1371396Y876401D01*
X1380337Y872845D01*
X1389786Y870813D01*
G37*
G36*
X789838Y984554D02*
G01*
X799388Y985824D01*
X808583Y988618D01*
X817219Y992987D01*
X824992Y998728D01*
X831646Y1005687D01*
X837031Y1013663D01*
X841044Y1022451D01*
X843432Y1031798D01*
X844296Y1041400D01*
X843432Y1051001D01*
X841044Y1060348D01*
X837031Y1069136D01*
X831646Y1077112D01*
X824992Y1084072D01*
X817219Y1089812D01*
X808583Y1094181D01*
X799388Y1096975D01*
X789838Y1098245D01*
X780186Y1097788D01*
X770737Y1095756D01*
X761796Y1092200D01*
X753567Y1087120D01*
X746353Y1080770D01*
X740257Y1073251D01*
X735584Y1064818D01*
X732383Y1055725D01*
X730758Y1046226D01*
X730758Y1036574D01*
X732383Y1027074D01*
X735584Y1017981D01*
X740257Y1009548D01*
X746353Y1002030D01*
X753567Y995680D01*
X761796Y990600D01*
X770737Y987044D01*
X780186Y985012D01*
G37*
G36*
X1462938Y997254D02*
G01*
X1472488Y998524D01*
X1481683Y1001318D01*
X1490319Y1005687D01*
X1498092Y1011428D01*
X1504746Y1018387D01*
X1510131Y1026363D01*
X1514144Y1035151D01*
X1516532Y1044498D01*
X1517396Y1054100D01*
X1516532Y1063701D01*
X1514144Y1073048D01*
X1510131Y1081836D01*
X1504746Y1089812D01*
X1498092Y1096772D01*
X1490319Y1102512D01*
X1481683Y1106881D01*
X1472488Y1109675D01*
X1462938Y1110945D01*
X1453286Y1110488D01*
X1443837Y1108456D01*
X1434896Y1104900D01*
X1426667Y1099820D01*
X1419453Y1093470D01*
X1413357Y1085951D01*
X1408684Y1077518D01*
X1405483Y1068425D01*
X1403858Y1058926D01*
X1403858Y1049274D01*
X1405483Y1039774D01*
X1408684Y1030681D01*
X1413357Y1022248D01*
X1419453Y1014730D01*
X1426667Y1008380D01*
X1434896Y1003300D01*
X1443837Y999744D01*
X1453286Y997712D01*
G37*
G36*
X1094638Y997356D02*
G01*
X1104188Y998626D01*
X1113383Y1001420D01*
X1122019Y1005789D01*
X1129792Y1011529D01*
X1136446Y1018489D01*
X1141831Y1026464D01*
X1145844Y1035253D01*
X1148232Y1044600D01*
X1148842Y1051509D01*
X1149705Y1054811D01*
X1151636Y1057656D01*
X1154379Y1059738D01*
X1157681Y1060704D01*
X1167688Y1062024D01*
X1176883Y1064818D01*
X1185519Y1069187D01*
X1193292Y1074928D01*
X1199946Y1081887D01*
X1205331Y1089863D01*
X1209344Y1098651D01*
X1211732Y1107998D01*
X1212392Y1115212D01*
X1213612Y1119276D01*
X1216456Y1122527D01*
X1220368Y1124254D01*
X1224635Y1124254D01*
X1226108Y1123950D01*
X1235760Y1123543D01*
X1239977Y1124102D01*
X1244244Y1123746D01*
X1248003Y1121613D01*
X1250543Y1118209D01*
X1253083Y1103376D01*
X1256284Y1094282D01*
X1260957Y1085850D01*
X1267053Y1078331D01*
X1274267Y1071981D01*
X1282496Y1066901D01*
X1291437Y1063345D01*
X1300886Y1061313D01*
X1310538Y1060856D01*
X1320088Y1062126D01*
X1329283Y1064920D01*
X1337919Y1069289D01*
X1345692Y1075029D01*
X1352346Y1081989D01*
X1357731Y1089964D01*
X1361744Y1098753D01*
X1364132Y1108100D01*
X1364996Y1117701D01*
X1364132Y1127302D01*
X1361744Y1136650D01*
X1357731Y1145438D01*
X1352346Y1153414D01*
X1345692Y1160373D01*
X1337919Y1166114D01*
X1329283Y1170482D01*
X1320088Y1173276D01*
X1310538Y1174546D01*
X1300480Y1174089D01*
X1296670Y1174648D01*
X1293368Y1176629D01*
X1290980Y1179677D01*
X1289913Y1183386D01*
X1289354Y1189990D01*
X1286967Y1199286D01*
X1282954Y1208074D01*
X1277569Y1216101D01*
X1270914Y1223060D01*
X1263142Y1228801D01*
X1254506Y1233119D01*
X1245311Y1235964D01*
X1235760Y1237183D01*
X1220470Y1236472D01*
X1216558Y1238250D01*
X1213764Y1241450D01*
X1212494Y1245565D01*
X1211732Y1254201D01*
X1209344Y1263548D01*
X1205331Y1272336D01*
X1199946Y1280312D01*
X1193292Y1287272D01*
X1185519Y1293012D01*
X1176883Y1297381D01*
X1167688Y1300175D01*
X1157681Y1301496D01*
X1154379Y1302461D01*
X1151636Y1304544D01*
X1149705Y1307388D01*
X1148842Y1310690D01*
X1148232Y1317701D01*
X1145844Y1327048D01*
X1141831Y1335836D01*
X1136446Y1343812D01*
X1129792Y1350772D01*
X1122019Y1356512D01*
X1113383Y1360881D01*
X1104188Y1363675D01*
X1094638Y1364945D01*
X1084986Y1364488D01*
X1075537Y1362456D01*
X1066596Y1358900D01*
X1058367Y1353820D01*
X1051153Y1347470D01*
X1045057Y1339951D01*
X1040384Y1331518D01*
X1037183Y1322425D01*
X1035558Y1312926D01*
X1035558Y1303274D01*
X1037183Y1293774D01*
X1040384Y1284681D01*
X1045057Y1276248D01*
X1051153Y1268730D01*
X1058367Y1262380D01*
X1066596Y1257300D01*
X1075537Y1253744D01*
X1084986Y1251712D01*
X1089304Y1251508D01*
X1093063Y1250594D01*
X1096213Y1248359D01*
X1098296Y1245158D01*
X1100683Y1230274D01*
X1103884Y1221181D01*
X1108557Y1212748D01*
X1114653Y1205230D01*
X1121867Y1198880D01*
X1130096Y1193800D01*
X1138275Y1190548D01*
X1141628Y1188313D01*
X1143863Y1185011D01*
X1144676Y1181100D01*
X1143863Y1177188D01*
X1141628Y1173886D01*
X1138275Y1171651D01*
X1130096Y1168400D01*
X1121867Y1163320D01*
X1114653Y1156970D01*
X1108557Y1149451D01*
X1103884Y1141018D01*
X1100683Y1131925D01*
X1098296Y1117142D01*
X1096213Y1113942D01*
X1093063Y1111707D01*
X1089304Y1110792D01*
X1084986Y1110589D01*
X1075537Y1108557D01*
X1066596Y1105001D01*
X1058367Y1099921D01*
X1051153Y1093571D01*
X1045057Y1086053D01*
X1040384Y1077620D01*
X1037183Y1068527D01*
X1035558Y1059027D01*
X1035558Y1049375D01*
X1037183Y1039876D01*
X1040384Y1030782D01*
X1045057Y1022350D01*
X1051153Y1014831D01*
X1058367Y1008481D01*
X1066596Y1003401D01*
X1075537Y999845D01*
X1084986Y997813D01*
G37*
G36*
X345338Y1027836D02*
G01*
X354888Y1029106D01*
X364083Y1031900D01*
X372719Y1036269D01*
X380492Y1042009D01*
X387146Y1048969D01*
X392531Y1056944D01*
X396544Y1065733D01*
X398932Y1075080D01*
X399796Y1084681D01*
X398932Y1094282D01*
X396544Y1103630D01*
X392531Y1112418D01*
X387146Y1120394D01*
X380492Y1127353D01*
X372719Y1133094D01*
X364083Y1137462D01*
X354888Y1140256D01*
X345338Y1141526D01*
X335686Y1141069D01*
X326237Y1139037D01*
X317296Y1135481D01*
X309067Y1130401D01*
X301853Y1124051D01*
X295757Y1116533D01*
X291084Y1108100D01*
X287883Y1099007D01*
X286258Y1089507D01*
X286258Y1079855D01*
X287883Y1070356D01*
X291084Y1061262D01*
X295757Y1052830D01*
X301853Y1045311D01*
X309067Y1038961D01*
X317296Y1033881D01*
X326237Y1030325D01*
X335686Y1028293D01*
G37*
G36*
X-492861Y1124254D02*
G01*
X-483311Y1125524D01*
X-474116Y1128318D01*
X-465531Y1132636D01*
X-456793Y1139190D01*
X-453694Y1140764D01*
X-450291Y1141222D01*
X-446938Y1140510D01*
X-443992Y1138682D01*
X-440232Y1135380D01*
X-432003Y1130300D01*
X-423062Y1126744D01*
X-413613Y1124712D01*
X-403961Y1124254D01*
X-394411Y1125524D01*
X-385216Y1128318D01*
X-376580Y1132687D01*
X-368808Y1138428D01*
X-362153Y1145387D01*
X-356768Y1153363D01*
X-352755Y1162151D01*
X-350367Y1171498D01*
X-349504Y1181100D01*
X-350367Y1190701D01*
X-352755Y1200048D01*
X-356768Y1208836D01*
X-362153Y1216812D01*
X-368808Y1223772D01*
X-376580Y1229512D01*
X-385216Y1233881D01*
X-394411Y1236675D01*
X-403961Y1237945D01*
X-413613Y1237488D01*
X-423062Y1235456D01*
X-432003Y1231900D01*
X-440232Y1226820D01*
X-443992Y1223518D01*
X-446938Y1221689D01*
X-450291Y1220978D01*
X-453694Y1221435D01*
X-456793Y1223010D01*
X-465531Y1229563D01*
X-474116Y1233881D01*
X-483311Y1236675D01*
X-492861Y1237945D01*
X-502513Y1237488D01*
X-511962Y1235456D01*
X-520903Y1231900D01*
X-529132Y1226820D01*
X-536346Y1220470D01*
X-542442Y1212951D01*
X-547116Y1204518D01*
X-550316Y1195425D01*
X-551942Y1185926D01*
X-551942Y1176274D01*
X-550316Y1166774D01*
X-547116Y1157681D01*
X-542442Y1149248D01*
X-536346Y1141730D01*
X-529132Y1135380D01*
X-520903Y1130300D01*
X-511962Y1126744D01*
X-502513Y1124712D01*
G37*
G36*
X205638Y1269136D02*
G01*
X215188Y1270406D01*
X224383Y1273200D01*
X233019Y1277569D01*
X240792Y1283309D01*
X247446Y1290269D01*
X252831Y1298244D01*
X256844Y1307033D01*
X259232Y1316380D01*
X260096Y1325981D01*
X259232Y1335582D01*
X256844Y1344930D01*
X252831Y1353718D01*
X247446Y1361694D01*
X240792Y1368653D01*
X233019Y1374394D01*
X224383Y1378762D01*
X215188Y1381556D01*
X205638Y1382826D01*
X195986Y1382369D01*
X186537Y1380337D01*
X177596Y1376781D01*
X169367Y1371701D01*
X162153Y1365351D01*
X156057Y1357833D01*
X151384Y1349400D01*
X148183Y1340307D01*
X146558Y1330807D01*
X146558Y1321155D01*
X148183Y1311656D01*
X151384Y1302562D01*
X156057Y1294130D01*
X162153Y1286611D01*
X169367Y1280261D01*
X177596Y1275181D01*
X186537Y1271625D01*
X195986Y1269593D01*
G37*
G36*
X15138Y1332636D02*
G01*
X24688Y1333906D01*
X33883Y1336700D01*
X42519Y1341069D01*
X50292Y1346809D01*
X56946Y1353769D01*
X62331Y1361744D01*
X66344Y1370533D01*
X68732Y1379880D01*
X69596Y1389481D01*
X68732Y1399082D01*
X66344Y1408430D01*
X62331Y1417218D01*
X56946Y1425194D01*
X50292Y1432153D01*
X42519Y1437894D01*
X33883Y1442262D01*
X24688Y1445056D01*
X15138Y1446326D01*
X5486Y1445869D01*
X-3962Y1443837D01*
X-12903Y1440281D01*
X-21132Y1435201D01*
X-28346Y1428851D01*
X-34442Y1421333D01*
X-39116Y1412900D01*
X-42316Y1403807D01*
X-43942Y1394307D01*
X-43942Y1384655D01*
X-42316Y1375156D01*
X-39116Y1366062D01*
X-34442Y1357630D01*
X-28346Y1350111D01*
X-21132Y1343761D01*
X-12903Y1338681D01*
X-3962Y1335125D01*
X5486Y1333093D01*
G37*
G36*
X-645261Y1378254D02*
G01*
X-635711Y1379524D01*
X-626516Y1382318D01*
X-617880Y1386687D01*
X-610108Y1392428D01*
X-603453Y1399387D01*
X-598068Y1407363D01*
X-594055Y1416151D01*
X-591667Y1425498D01*
X-590804Y1435150D01*
X-591464Y1443482D01*
X-591058Y1447292D01*
X-589229Y1450695D01*
X-586282Y1453184D01*
X-582625Y1454353D01*
X-572211Y1455724D01*
X-563016Y1458518D01*
X-554380Y1462887D01*
X-546608Y1468628D01*
X-539953Y1475587D01*
X-534568Y1483563D01*
X-530555Y1492351D01*
X-528167Y1501698D01*
X-527304Y1511300D01*
X-528116Y1520444D01*
X-527710Y1524203D01*
X-525983Y1527556D01*
X-523138Y1530045D01*
X-519633Y1531315D01*
X-505561Y1530654D01*
X-496011Y1531924D01*
X-486816Y1534718D01*
X-478180Y1539087D01*
X-470408Y1544828D01*
X-463753Y1551787D01*
X-458368Y1559763D01*
X-454355Y1568551D01*
X-451967Y1577898D01*
X-451104Y1587500D01*
X-451967Y1597101D01*
X-454355Y1606448D01*
X-458368Y1615236D01*
X-463753Y1623212D01*
X-470408Y1630172D01*
X-478180Y1635912D01*
X-486816Y1640281D01*
X-496011Y1643075D01*
X-505561Y1644345D01*
X-515213Y1643888D01*
X-524662Y1641856D01*
X-533603Y1638300D01*
X-541832Y1633220D01*
X-549046Y1626870D01*
X-555142Y1619351D01*
X-559816Y1610918D01*
X-563016Y1601825D01*
X-564642Y1592326D01*
X-564642Y1582674D01*
X-564032Y1579067D01*
X-564134Y1575308D01*
X-565556Y1571853D01*
X-568147Y1569110D01*
X-571601Y1567535D01*
X-575360Y1567281D01*
X-581761Y1568145D01*
X-591413Y1567688D01*
X-600862Y1565656D01*
X-609803Y1562100D01*
X-618032Y1557020D01*
X-625246Y1550670D01*
X-631342Y1543151D01*
X-636016Y1534718D01*
X-639216Y1525625D01*
X-640842Y1516126D01*
X-640842Y1506474D01*
X-640384Y1503578D01*
X-640537Y1499311D01*
X-642467Y1495501D01*
X-645820Y1492808D01*
X-649935Y1491742D01*
X-654913Y1491488D01*
X-664362Y1489456D01*
X-673303Y1485900D01*
X-681532Y1480820D01*
X-688746Y1474470D01*
X-694842Y1466951D01*
X-699516Y1458518D01*
X-702716Y1449425D01*
X-704342Y1439926D01*
X-704342Y1430274D01*
X-702716Y1420774D01*
X-699516Y1411681D01*
X-694842Y1403248D01*
X-688746Y1395730D01*
X-681532Y1389380D01*
X-673303Y1384300D01*
X-664362Y1380744D01*
X-654913Y1378712D01*
G37*
G36*
X129438Y1403654D02*
G01*
X138988Y1404924D01*
X148183Y1407718D01*
X156819Y1412087D01*
X164592Y1417828D01*
X171246Y1424787D01*
X176631Y1432763D01*
X180644Y1441551D01*
X183032Y1450898D01*
X183642Y1457909D01*
X184505Y1461211D01*
X186436Y1464056D01*
X189179Y1466138D01*
X192481Y1467104D01*
X202488Y1468424D01*
X211683Y1471218D01*
X220319Y1475587D01*
X228092Y1481328D01*
X234746Y1488287D01*
X240131Y1496263D01*
X244144Y1505051D01*
X246532Y1514398D01*
X247396Y1524000D01*
X246532Y1533601D01*
X244144Y1542948D01*
X240131Y1551736D01*
X234746Y1559712D01*
X228092Y1566672D01*
X220319Y1572412D01*
X211683Y1576781D01*
X202488Y1579575D01*
X192938Y1580845D01*
X183286Y1580388D01*
X173837Y1578356D01*
X164896Y1574800D01*
X156667Y1569720D01*
X149453Y1563370D01*
X143357Y1555851D01*
X138684Y1547418D01*
X135483Y1538325D01*
X133096Y1523441D01*
X131013Y1520240D01*
X127863Y1518005D01*
X124104Y1517091D01*
X119786Y1516888D01*
X110337Y1514856D01*
X101396Y1511300D01*
X93167Y1506220D01*
X85953Y1499870D01*
X79857Y1492351D01*
X75184Y1483918D01*
X71983Y1474825D01*
X70358Y1465326D01*
X70358Y1455674D01*
X71983Y1446174D01*
X75184Y1437081D01*
X79857Y1428648D01*
X85953Y1421130D01*
X93167Y1414780D01*
X101396Y1409700D01*
X110337Y1406144D01*
X119786Y1404112D01*
G37*
G36*
X1946249Y1416354D02*
G01*
X1955800Y1417624D01*
X1964994Y1420418D01*
X1970532Y1423212D01*
X1973783Y1424228D01*
X1977237Y1424076D01*
X1989937Y1418844D01*
X1999386Y1416812D01*
X2009038Y1416354D01*
X2018588Y1417624D01*
X2027783Y1420418D01*
X2036419Y1424787D01*
X2044192Y1430528D01*
X2050846Y1437487D01*
X2056231Y1445463D01*
X2060244Y1454251D01*
X2062632Y1463598D01*
X2063496Y1473200D01*
X2062632Y1482801D01*
X2060244Y1492148D01*
X2056231Y1500936D01*
X2050846Y1508912D01*
X2044192Y1515872D01*
X2036419Y1521612D01*
X2027783Y1525981D01*
X2018588Y1528775D01*
X2009038Y1530045D01*
X1999386Y1529588D01*
X1989937Y1527556D01*
X1977237Y1522323D01*
X1973783Y1522171D01*
X1970532Y1523187D01*
X1964994Y1525981D01*
X1955800Y1528775D01*
X1946249Y1530045D01*
X1936597Y1529588D01*
X1927148Y1527556D01*
X1918207Y1524000D01*
X1909978Y1518920D01*
X1902764Y1512570D01*
X1896668Y1505051D01*
X1891995Y1496618D01*
X1888794Y1487525D01*
X1887169Y1478026D01*
X1887169Y1468374D01*
X1888794Y1458874D01*
X1891995Y1449781D01*
X1896668Y1441348D01*
X1902764Y1433830D01*
X1909978Y1427480D01*
X1918207Y1422400D01*
X1927148Y1418844D01*
X1936597Y1416812D01*
G37*
G36*
X1208938Y1530654D02*
G01*
X1218488Y1531924D01*
X1227683Y1534718D01*
X1236319Y1539087D01*
X1244092Y1544828D01*
X1250746Y1551787D01*
X1256131Y1559763D01*
X1260144Y1568551D01*
X1262532Y1577898D01*
X1263396Y1587500D01*
X1262532Y1597101D01*
X1260144Y1606448D01*
X1256131Y1615236D01*
X1250746Y1623212D01*
X1244092Y1630172D01*
X1236319Y1635912D01*
X1227683Y1640281D01*
X1218488Y1643075D01*
X1208938Y1644345D01*
X1199286Y1643888D01*
X1189837Y1641856D01*
X1180896Y1638300D01*
X1172667Y1633220D01*
X1165453Y1626870D01*
X1159357Y1619351D01*
X1154684Y1610918D01*
X1151483Y1601825D01*
X1149858Y1592326D01*
X1149858Y1582674D01*
X1151483Y1573174D01*
X1154684Y1564081D01*
X1159357Y1555648D01*
X1165453Y1548130D01*
X1172667Y1541780D01*
X1180896Y1536700D01*
X1189837Y1533144D01*
X1199286Y1531112D01*
G37*
G36*
X459638Y1530654D02*
G01*
X469188Y1531924D01*
X478383Y1534718D01*
X486968Y1539036D01*
X495706Y1545590D01*
X498805Y1547164D01*
X502208Y1547622D01*
X505561Y1546910D01*
X508508Y1545082D01*
X512267Y1541780D01*
X520496Y1536700D01*
X529437Y1533144D01*
X538886Y1531112D01*
X548538Y1530654D01*
X558088Y1531924D01*
X567283Y1534718D01*
X575868Y1539036D01*
X584606Y1545590D01*
X587705Y1547164D01*
X591108Y1547622D01*
X594461Y1546910D01*
X597408Y1545082D01*
X601167Y1541780D01*
X609396Y1536700D01*
X618337Y1533144D01*
X627786Y1531112D01*
X637438Y1530654D01*
X646988Y1531924D01*
X656183Y1534718D01*
X664768Y1539036D01*
X673506Y1545590D01*
X676605Y1547164D01*
X680008Y1547622D01*
X683361Y1546910D01*
X686308Y1545082D01*
X690067Y1541780D01*
X698296Y1536700D01*
X707237Y1533144D01*
X716686Y1531112D01*
X726338Y1530654D01*
X735888Y1531924D01*
X745083Y1534718D01*
X753668Y1539036D01*
X762406Y1545590D01*
X765505Y1547164D01*
X768908Y1547622D01*
X772261Y1546910D01*
X775208Y1545082D01*
X778967Y1541780D01*
X787196Y1536700D01*
X796137Y1533144D01*
X805586Y1531112D01*
X815238Y1530654D01*
X824788Y1531924D01*
X833983Y1534718D01*
X842619Y1539087D01*
X850392Y1544828D01*
X857046Y1551787D01*
X862431Y1559763D01*
X866444Y1568551D01*
X868832Y1577898D01*
X869696Y1587500D01*
X868832Y1597101D01*
X866444Y1606448D01*
X862431Y1615236D01*
X857046Y1623212D01*
X850392Y1630172D01*
X842619Y1635912D01*
X833983Y1640281D01*
X824788Y1643075D01*
X815238Y1644345D01*
X805586Y1643888D01*
X796137Y1641856D01*
X787196Y1638300D01*
X778967Y1633220D01*
X775208Y1629918D01*
X772261Y1628089D01*
X768908Y1627378D01*
X765505Y1627835D01*
X762406Y1629410D01*
X753668Y1635963D01*
X745083Y1640281D01*
X735888Y1643075D01*
X726338Y1644345D01*
X716686Y1643888D01*
X707237Y1641856D01*
X698296Y1638300D01*
X690067Y1633220D01*
X686308Y1629918D01*
X683361Y1628089D01*
X680008Y1627378D01*
X676605Y1627835D01*
X673506Y1629410D01*
X664768Y1635963D01*
X656183Y1640281D01*
X646988Y1643075D01*
X637438Y1644345D01*
X627786Y1643888D01*
X618337Y1641856D01*
X609396Y1638300D01*
X601167Y1633220D01*
X597408Y1629918D01*
X594461Y1628089D01*
X591108Y1627378D01*
X587705Y1627835D01*
X584606Y1629410D01*
X575868Y1635963D01*
X567283Y1640281D01*
X558088Y1643075D01*
X548538Y1644345D01*
X538886Y1643888D01*
X529437Y1641856D01*
X520496Y1638300D01*
X512267Y1633220D01*
X508508Y1629918D01*
X505561Y1628089D01*
X502208Y1627378D01*
X498805Y1627835D01*
X495706Y1629410D01*
X486968Y1635963D01*
X478485Y1640230D01*
X475742Y1642262D01*
X473811Y1645107D01*
X472948Y1648460D01*
X473201Y1651863D01*
X475132Y1659280D01*
X475996Y1668881D01*
X475132Y1678482D01*
X472744Y1687830D01*
X468731Y1696618D01*
X463346Y1704593D01*
X456692Y1711553D01*
X448919Y1717293D01*
X440283Y1721662D01*
X431088Y1724456D01*
X421538Y1725726D01*
X411886Y1725269D01*
X402437Y1723237D01*
X393496Y1719681D01*
X385267Y1714601D01*
X381508Y1711299D01*
X378561Y1709470D01*
X375208Y1708759D01*
X371805Y1709216D01*
X368706Y1710791D01*
X359968Y1717344D01*
X351383Y1721662D01*
X342188Y1724456D01*
X332638Y1725726D01*
X322986Y1725269D01*
X313537Y1723237D01*
X304596Y1719681D01*
X296367Y1714601D01*
X289153Y1708251D01*
X283057Y1700733D01*
X278384Y1692300D01*
X275183Y1683207D01*
X273558Y1673707D01*
X273558Y1664055D01*
X275183Y1654556D01*
X278384Y1645462D01*
X283057Y1637030D01*
X289153Y1629511D01*
X296367Y1623161D01*
X304596Y1618081D01*
X313537Y1614525D01*
X322986Y1612493D01*
X332638Y1612036D01*
X342188Y1613306D01*
X351383Y1616100D01*
X359968Y1620418D01*
X368706Y1626971D01*
X371805Y1628546D01*
X375208Y1629003D01*
X378561Y1628292D01*
X381508Y1626463D01*
X385267Y1623161D01*
X393496Y1618081D01*
X397103Y1616659D01*
X400304Y1614576D01*
X402539Y1611426D01*
X403453Y1607667D01*
X402894Y1603857D01*
X402183Y1601825D01*
X400558Y1592326D01*
X400558Y1582674D01*
X402183Y1573174D01*
X405384Y1564081D01*
X410057Y1555648D01*
X416153Y1548130D01*
X423367Y1541780D01*
X431596Y1536700D01*
X440537Y1533144D01*
X449986Y1531112D01*
G37*
G36*
X1945487Y1656486D02*
G01*
X2044344Y1656486D01*
X2050643Y1657197D01*
X2056130Y1659077D01*
X2061006Y1662175D01*
X2065985Y1667205D01*
X2069642Y1669592D01*
X2073910Y1670202D01*
X2078075Y1669034D01*
X2088896Y1663141D01*
X2099818Y1659229D01*
X2111197Y1656994D01*
X2122830Y1656537D01*
X2134362Y1657908D01*
X2145588Y1660956D01*
X2156155Y1665732D01*
X2165908Y1672031D01*
X2174595Y1679752D01*
X2181961Y1688744D01*
X2187905Y1698701D01*
X2192274Y1709470D01*
X2194915Y1720799D01*
X2195779Y1732381D01*
X2194915Y1743964D01*
X2192274Y1755292D01*
X2187905Y1766062D01*
X2181961Y1776018D01*
X2174595Y1785010D01*
X2165908Y1792732D01*
X2156155Y1799031D01*
X2145588Y1803806D01*
X2134362Y1806854D01*
X2122830Y1808225D01*
X2111197Y1807768D01*
X2099818Y1805533D01*
X2088896Y1801622D01*
X2078075Y1795729D01*
X2073910Y1794560D01*
X2069642Y1795170D01*
X2065985Y1797557D01*
X2061006Y1802587D01*
X2056130Y1805686D01*
X2050643Y1807565D01*
X2044344Y1808276D01*
X1945487Y1808276D01*
X1939188Y1807565D01*
X1933702Y1805686D01*
X1928825Y1802587D01*
X1924710Y1798472D01*
X1921611Y1793595D01*
X1919732Y1788109D01*
X1919020Y1781810D01*
X1919020Y1682953D01*
X1919732Y1676654D01*
X1921611Y1671167D01*
X1924710Y1666290D01*
X1928825Y1662175D01*
X1933702Y1659077D01*
X1939188Y1657197D01*
G37*
G36*
X1704238Y1797354D02*
G01*
X1713788Y1798624D01*
X1722983Y1801418D01*
X1731619Y1805787D01*
X1739392Y1811528D01*
X1746046Y1818487D01*
X1751431Y1826463D01*
X1755444Y1835251D01*
X1757832Y1844598D01*
X1758696Y1854200D01*
X1757832Y1863801D01*
X1755444Y1873148D01*
X1751431Y1881936D01*
X1746046Y1889912D01*
X1739392Y1896872D01*
X1731619Y1902612D01*
X1722983Y1906981D01*
X1713788Y1909775D01*
X1704238Y1911045D01*
X1694586Y1910588D01*
X1685137Y1908556D01*
X1676196Y1905000D01*
X1667967Y1899920D01*
X1660753Y1893570D01*
X1654657Y1886051D01*
X1649984Y1877618D01*
X1646783Y1868525D01*
X1645157Y1859025D01*
X1645157Y1849374D01*
X1646783Y1839874D01*
X1649984Y1830781D01*
X1654657Y1822348D01*
X1660753Y1814830D01*
X1667967Y1808480D01*
X1676196Y1803400D01*
X1685137Y1799843D01*
X1694586Y1797812D01*
G37*
G36*
X-137261Y1873554D02*
G01*
X-127711Y1874824D01*
X-118516Y1877618D01*
X-109880Y1881987D01*
X-102108Y1887728D01*
X-95453Y1894687D01*
X-90068Y1902663D01*
X-86055Y1911451D01*
X-83667Y1920798D01*
X-82804Y1930400D01*
X-83667Y1940001D01*
X-86055Y1949348D01*
X-90068Y1958136D01*
X-95453Y1966112D01*
X-102108Y1973072D01*
X-109880Y1978812D01*
X-118516Y1983181D01*
X-127711Y1985975D01*
X-137261Y1987245D01*
X-146913Y1986788D01*
X-156362Y1984756D01*
X-165303Y1981200D01*
X-173532Y1976120D01*
X-180746Y1969770D01*
X-186842Y1962251D01*
X-191516Y1953818D01*
X-194716Y1944725D01*
X-196342Y1935225D01*
X-196342Y1925574D01*
X-194716Y1916074D01*
X-191516Y1906981D01*
X-186842Y1898548D01*
X-180746Y1891030D01*
X-173532Y1884680D01*
X-165303Y1879600D01*
X-156362Y1876043D01*
X-146913Y1874012D01*
G37*
G36*
X1297838Y1924354D02*
G01*
X1307388Y1925624D01*
X1316583Y1928418D01*
X1325219Y1932787D01*
X1332992Y1938528D01*
X1339646Y1945487D01*
X1345031Y1953463D01*
X1349044Y1962251D01*
X1351432Y1971598D01*
X1352296Y1981200D01*
X1351432Y1990801D01*
X1349044Y2000148D01*
X1345031Y2008936D01*
X1339646Y2016912D01*
X1332992Y2023872D01*
X1325219Y2029612D01*
X1316583Y2033981D01*
X1307388Y2036775D01*
X1297838Y2038045D01*
X1288186Y2037588D01*
X1278737Y2035556D01*
X1269796Y2032000D01*
X1261567Y2026920D01*
X1254353Y2020570D01*
X1248257Y2013051D01*
X1243584Y2004618D01*
X1240383Y1995525D01*
X1238758Y1986025D01*
X1238758Y1976374D01*
X1240383Y1966874D01*
X1243584Y1957781D01*
X1248257Y1949348D01*
X1254353Y1941830D01*
X1261567Y1935480D01*
X1269796Y1930400D01*
X1278737Y1926843D01*
X1288186Y1924812D01*
G37*
G36*
X1043838Y2114854D02*
G01*
X1053388Y2116124D01*
X1062583Y2118918D01*
X1071219Y2123287D01*
X1078992Y2129028D01*
X1085646Y2135987D01*
X1091031Y2143963D01*
X1095044Y2152751D01*
X1097432Y2162098D01*
X1098296Y2171700D01*
X1097432Y2181301D01*
X1095044Y2190648D01*
X1091031Y2199436D01*
X1085646Y2207412D01*
X1078992Y2214372D01*
X1071219Y2220112D01*
X1062583Y2224481D01*
X1053388Y2227275D01*
X1043838Y2228545D01*
X1034186Y2228088D01*
X1024737Y2226056D01*
X1015796Y2222500D01*
X1007567Y2217420D01*
X1000353Y2211070D01*
X994257Y2203551D01*
X989584Y2195118D01*
X986383Y2186025D01*
X984758Y2176526D01*
X984758Y2166874D01*
X986383Y2157374D01*
X989584Y2148281D01*
X994257Y2139848D01*
X1000353Y2132330D01*
X1007567Y2125980D01*
X1015796Y2120900D01*
X1024737Y2117344D01*
X1034186Y2115312D01*
G37*
G36*
X1450238Y2127554D02*
G01*
X1459788Y2128824D01*
X1468983Y2131618D01*
X1477619Y2135987D01*
X1485392Y2141728D01*
X1492046Y2148687D01*
X1497431Y2156663D01*
X1501444Y2165451D01*
X1503832Y2174798D01*
X1504696Y2184400D01*
X1503832Y2194001D01*
X1501444Y2203348D01*
X1497431Y2212136D01*
X1492046Y2220112D01*
X1485392Y2227072D01*
X1477619Y2232812D01*
X1468983Y2237181D01*
X1459788Y2239975D01*
X1450238Y2241245D01*
X1440586Y2240788D01*
X1431137Y2238756D01*
X1422196Y2235200D01*
X1413967Y2230120D01*
X1406753Y2223770D01*
X1400657Y2216251D01*
X1395984Y2207818D01*
X1392783Y2198725D01*
X1391158Y2189226D01*
X1391158Y2179574D01*
X1392783Y2170074D01*
X1395984Y2160981D01*
X1400657Y2152548D01*
X1406753Y2145030D01*
X1413967Y2138680D01*
X1422196Y2133600D01*
X1431137Y2130044D01*
X1440586Y2128012D01*
G37*
G36*
X599338Y2127554D02*
G01*
X608888Y2128824D01*
X618083Y2131618D01*
X626719Y2135987D01*
X634492Y2141728D01*
X641146Y2148687D01*
X646531Y2156663D01*
X650544Y2165451D01*
X652932Y2174798D01*
X653796Y2184400D01*
X652932Y2194001D01*
X650544Y2203348D01*
X646531Y2212136D01*
X641146Y2220112D01*
X634492Y2227072D01*
X626719Y2232812D01*
X618083Y2237181D01*
X608888Y2239975D01*
X599338Y2241245D01*
X589686Y2240788D01*
X580237Y2238756D01*
X571296Y2235200D01*
X563067Y2230120D01*
X555853Y2223770D01*
X549757Y2216251D01*
X545084Y2207818D01*
X541883Y2198725D01*
X540258Y2189226D01*
X540258Y2179574D01*
X541883Y2170074D01*
X545084Y2160981D01*
X549757Y2152548D01*
X555853Y2145030D01*
X563067Y2138680D01*
X571296Y2133600D01*
X580237Y2130044D01*
X589686Y2128012D01*
G37*
G36*
X-351942Y2705760D02*
G01*
X-333857Y2705760D01*
X-327558Y2706471D01*
X-322072Y2708351D01*
X-317195Y2711450D01*
X-313080Y2715564D01*
X-309981Y2720441D01*
X-308102Y2725928D01*
X-307390Y2732227D01*
X-307390Y2750312D01*
X-351942Y2750312D01*
G37*
G36*
X2104491Y2712821D02*
G01*
X2109419Y2715006D01*
X2119122Y2721305D01*
X2127808Y2729026D01*
X2135225Y2738018D01*
X2141169Y2747975D01*
X2142083Y2750312D01*
X2104491Y2750312D01*
G37*

%LPD*%
G36*
X-409448Y-3410102D02*
G01*
X-443788Y-3409137D01*
X-477570Y-3406241D01*
X-511098Y-3401517D01*
X-544322Y-3394862D01*
X-577138Y-3386378D01*
X-609447Y-3376117D01*
X-641096Y-3363976D01*
X-671982Y-3350158D01*
X-702106Y-3334562D01*
X-731266Y-3317341D01*
X-759409Y-3298494D01*
X-786485Y-3278124D01*
X-812393Y-3256229D01*
X-836980Y-3232962D01*
X-860247Y-3208324D01*
X-882091Y-3182416D01*
X-902462Y-3155340D01*
X-921258Y-3127146D01*
X-938479Y-3097987D01*
X-954024Y-3067862D01*
X-967841Y-3036925D01*
X-979932Y-3005277D01*
X-990193Y-2972968D01*
X-998626Y-2940151D01*
X-1005230Y-2906928D01*
X-1009954Y-2873349D01*
X-1012799Y-2839618D01*
X-1013714Y-2805531D01*
X-1013714Y-837285D01*
X-1012748Y-824788D01*
X-1010412Y-814476D01*
X-1006652Y-804621D01*
X-1001471Y-795426D01*
X-995070Y-787044D01*
X-987552Y-779627D01*
X-979017Y-773379D01*
X-969721Y-768400D01*
X-959764Y-764844D01*
X-949452Y-762711D01*
X-938377Y-761898D01*
X-545947Y-761847D01*
X-542036Y-762609D01*
X-538734Y-764794D01*
X-536549Y-768096D01*
X-535787Y-772007D01*
X-535787Y-855319D01*
X-534974Y-861821D01*
X-532892Y-867359D01*
X-529336Y-872490D01*
X-526288Y-875537D01*
X-522732Y-878179D01*
X-517143Y-880668D01*
X-509727Y-881837D01*
X272084Y-881837D01*
X275082Y-882294D01*
X277825Y-883615D01*
X281330Y-886002D01*
X284632Y-887425D01*
X290830Y-888695D01*
X295859Y-888695D01*
X299669Y-888034D01*
X301955Y-887221D01*
X305866Y-886663D01*
X309676Y-887577D01*
X318922Y-891895D01*
X327914Y-894334D01*
X337159Y-895146D01*
X346405Y-894334D01*
X355396Y-891895D01*
X363829Y-887984D01*
X369976Y-883666D01*
X372770Y-882294D01*
X375818Y-881837D01*
X387400Y-881837D01*
X390448Y-882294D01*
X393242Y-883666D01*
X399389Y-887984D01*
X407822Y-891895D01*
X416814Y-894334D01*
X426059Y-895146D01*
X435305Y-894334D01*
X444296Y-891895D01*
X452729Y-887984D01*
X458876Y-883666D01*
X461670Y-882294D01*
X464718Y-881837D01*
X476300Y-881837D01*
X479348Y-882294D01*
X482142Y-883666D01*
X488289Y-887984D01*
X496722Y-891895D01*
X505714Y-894334D01*
X514959Y-895146D01*
X524205Y-894334D01*
X533196Y-891895D01*
X541629Y-887984D01*
X547776Y-883666D01*
X550570Y-882294D01*
X553618Y-881837D01*
X565200Y-881837D01*
X568248Y-882294D01*
X571042Y-883666D01*
X577189Y-887984D01*
X585622Y-891895D01*
X594614Y-894334D01*
X603859Y-895146D01*
X613105Y-894334D01*
X622096Y-891895D01*
X630529Y-887984D01*
X636676Y-883666D01*
X639470Y-882294D01*
X642518Y-881837D01*
X654100Y-881837D01*
X657148Y-882294D01*
X659942Y-883666D01*
X666089Y-887984D01*
X674522Y-891895D01*
X683514Y-894334D01*
X692759Y-895146D01*
X702005Y-894334D01*
X710996Y-891895D01*
X719429Y-887984D01*
X725576Y-883666D01*
X728370Y-882294D01*
X731418Y-881837D01*
X743000Y-881837D01*
X746048Y-882294D01*
X748842Y-883666D01*
X754989Y-887984D01*
X763422Y-891895D01*
X772414Y-894334D01*
X781659Y-895146D01*
X790905Y-894334D01*
X799896Y-891895D01*
X808329Y-887984D01*
X814476Y-883666D01*
X817270Y-882294D01*
X820318Y-881837D01*
X831900Y-881837D01*
X834948Y-882294D01*
X837742Y-883666D01*
X843889Y-887984D01*
X852322Y-891895D01*
X861314Y-894334D01*
X870559Y-895146D01*
X879805Y-894334D01*
X888796Y-891895D01*
X897229Y-887984D01*
X903376Y-883666D01*
X906170Y-882294D01*
X909218Y-881837D01*
X920800Y-881837D01*
X923848Y-882294D01*
X926642Y-883666D01*
X932789Y-887984D01*
X941222Y-891895D01*
X950214Y-894334D01*
X959459Y-895146D01*
X968705Y-894334D01*
X977696Y-891895D01*
X986129Y-887984D01*
X989837Y-885393D01*
X993089Y-883869D01*
X996696Y-883615D01*
X1004417Y-884428D01*
X1009954Y-883767D01*
X1014018Y-882396D01*
X1017320Y-881837D01*
X1854707Y-881837D01*
X1861210Y-881024D01*
X1866747Y-878941D01*
X1871878Y-875385D01*
X1874926Y-872388D01*
X1877568Y-868781D01*
X1880057Y-863244D01*
X1881225Y-855776D01*
X1881225Y-772007D01*
X1882038Y-768096D01*
X1884222Y-764794D01*
X1887524Y-762609D01*
X1891385Y-761847D01*
X2259177Y-761847D01*
X2271674Y-762812D01*
X2281986Y-765149D01*
X2291842Y-768959D01*
X2301036Y-774090D01*
X2309418Y-780491D01*
X2316835Y-788009D01*
X2323084Y-796544D01*
X2328011Y-805840D01*
X2331618Y-815797D01*
X2333752Y-826109D01*
X2334514Y-837184D01*
X2334412Y-2805734D01*
X2333396Y-2840126D01*
X2330551Y-2873857D01*
X2325776Y-2907436D01*
X2319172Y-2940659D01*
X2310688Y-2973476D01*
X2300376Y-3005734D01*
X2288286Y-3037382D01*
X2274417Y-3068320D01*
X2258872Y-3098393D01*
X2241651Y-3127552D01*
X2222804Y-3155746D01*
X2202383Y-3182823D01*
X2180539Y-3208680D01*
X2157222Y-3233318D01*
X2132634Y-3256584D01*
X2106726Y-3278428D01*
X2079650Y-3298748D01*
X2051456Y-3317595D01*
X2022246Y-3334765D01*
X1992122Y-3350310D01*
X1961184Y-3364128D01*
X1929536Y-3376218D01*
X1897278Y-3386480D01*
X1864461Y-3394964D01*
X1831187Y-3401517D01*
X1797659Y-3406241D01*
X1791766Y-3406749D01*
X1787804Y-3406292D01*
X1784299Y-3404362D01*
X1781860Y-3401212D01*
X1780793Y-3397351D01*
X1781302Y-3393389D01*
X1783283Y-3389934D01*
X1785924Y-3386937D01*
X1793646Y-3375406D01*
X1796897Y-3368801D01*
X1748282Y-3368801D01*
X1748282Y-3399637D01*
X1747520Y-3403447D01*
X1745386Y-3406749D01*
X1742186Y-3408934D01*
X1738375Y-3409797D01*
X1729790Y-3410051D01*
X1665732Y-3410051D01*
X1661820Y-3409289D01*
X1658569Y-3407054D01*
X1656334Y-3403752D01*
X1655572Y-3399891D01*
X1655572Y-3368801D01*
X1606956Y-3368801D01*
X1610207Y-3375406D01*
X1617929Y-3386937D01*
X1623415Y-3393186D01*
X1625346Y-3396487D01*
X1625904Y-3400348D01*
X1625041Y-3404057D01*
X1622806Y-3407206D01*
X1619554Y-3409289D01*
X1615795Y-3410051D01*
X1442262Y-3410051D01*
X1435608Y-3408730D01*
X1432052Y-3407105D01*
X1429410Y-3404260D01*
X1427124Y-3400145D01*
X1426210Y-3393998D01*
X1426210Y-3276142D01*
X1425244Y-3263595D01*
X1424330Y-3258515D01*
X1421790Y-3249066D01*
X1420012Y-3244189D01*
X1415897Y-3235299D01*
X1413306Y-3230829D01*
X1407668Y-3222802D01*
X1404366Y-3218840D01*
X1397406Y-3211931D01*
X1393444Y-3208578D01*
X1385417Y-3202990D01*
X1380947Y-3200400D01*
X1372057Y-3196234D01*
X1367231Y-3194456D01*
X1357731Y-3191916D01*
X1352651Y-3191052D01*
X1342898Y-3190189D01*
X1337716Y-3190189D01*
X1327962Y-3191052D01*
X1322882Y-3191916D01*
X1313383Y-3194456D01*
X1308557Y-3196234D01*
X1299667Y-3200400D01*
X1295196Y-3202990D01*
X1287170Y-3208578D01*
X1283208Y-3211931D01*
X1276248Y-3218840D01*
X1272946Y-3222802D01*
X1267307Y-3230829D01*
X1264716Y-3235299D01*
X1260602Y-3244189D01*
X1258824Y-3249066D01*
X1256284Y-3258515D01*
X1255369Y-3263595D01*
X1254404Y-3276193D01*
X1254404Y-3393998D01*
X1253083Y-3400653D01*
X1251458Y-3404209D01*
X1248613Y-3406851D01*
X1244498Y-3409137D01*
X1238351Y-3410051D01*
X82092Y-3410051D01*
X75692Y-3408781D01*
X72136Y-3407156D01*
X69443Y-3404311D01*
X67157Y-3400196D01*
X66243Y-3394049D01*
X66243Y-3276244D01*
X65278Y-3263696D01*
X64363Y-3258565D01*
X61823Y-3249117D01*
X60096Y-3244240D01*
X55930Y-3235350D01*
X53340Y-3230880D01*
X47752Y-3222853D01*
X44399Y-3218891D01*
X37490Y-3211982D01*
X33528Y-3208629D01*
X25501Y-3203041D01*
X20980Y-3200450D01*
X12141Y-3196285D01*
X7264Y-3194507D01*
X-2184Y-3192018D01*
X-7315Y-3191103D01*
X-17068Y-3190240D01*
X-22250Y-3190240D01*
X-32004Y-3191103D01*
X-37084Y-3192018D01*
X-46532Y-3194507D01*
X-51409Y-3196285D01*
X-60299Y-3200450D01*
X-64769Y-3203041D01*
X-72796Y-3208629D01*
X-76758Y-3211982D01*
X-83667Y-3218891D01*
X-87020Y-3222853D01*
X-92608Y-3230880D01*
X-95199Y-3235350D01*
X-99364Y-3244240D01*
X-101142Y-3249117D01*
X-103682Y-3258565D01*
X-104546Y-3263646D01*
X-105562Y-3276244D01*
X-105562Y-3394049D01*
X-106883Y-3400704D01*
X-108508Y-3404260D01*
X-111353Y-3406952D01*
X-115468Y-3409238D01*
X-121615Y-3410102D01*
G37*

%LPC*%
G36*
X1606956Y-3276092D02*
G01*
X1655572Y-3276092D01*
X1655572Y-3227527D01*
X1648968Y-3230778D01*
X1637487Y-3238449D01*
X1627073Y-3247593D01*
X1617929Y-3258007D01*
X1610207Y-3269488D01*
G37*
G36*
X1748282Y-3276092D02*
G01*
X1796897Y-3276092D01*
X1793646Y-3269488D01*
X1785924Y-3258007D01*
X1776780Y-3247593D01*
X1766366Y-3238449D01*
X1754886Y-3230778D01*
X1748282Y-3227527D01*
G37*
G36*
X1546961Y-3233267D02*
G01*
X1560779Y-3232353D01*
X1574393Y-3229660D01*
X1587500Y-3225190D01*
X1599946Y-3219094D01*
X1611426Y-3211372D01*
X1621840Y-3202279D01*
X1630984Y-3191865D01*
X1638706Y-3180334D01*
X1644802Y-3167888D01*
X1649272Y-3154781D01*
X1651965Y-3141218D01*
X1652879Y-3127400D01*
X1651965Y-3113582D01*
X1649272Y-3099968D01*
X1644802Y-3086862D01*
X1638706Y-3074416D01*
X1630984Y-3062935D01*
X1621840Y-3052521D01*
X1611426Y-3043377D01*
X1599946Y-3035706D01*
X1587500Y-3029559D01*
X1574393Y-3025089D01*
X1560779Y-3022396D01*
X1546961Y-3021482D01*
X1533144Y-3022396D01*
X1519580Y-3025089D01*
X1506474Y-3029559D01*
X1494028Y-3035706D01*
X1482547Y-3043377D01*
X1472133Y-3052521D01*
X1462989Y-3062935D01*
X1455267Y-3074416D01*
X1449171Y-3086862D01*
X1444701Y-3099968D01*
X1442008Y-3113582D01*
X1441094Y-3127400D01*
X1442008Y-3141218D01*
X1444701Y-3154781D01*
X1449171Y-3167888D01*
X1455267Y-3180334D01*
X1462989Y-3191865D01*
X1472133Y-3202279D01*
X1482547Y-3211372D01*
X1494028Y-3219094D01*
X1506474Y-3225190D01*
X1519580Y-3229660D01*
X1533144Y-3232353D01*
G37*
G36*
X1903222Y-3222345D02*
G01*
X1909825Y-3219094D01*
X1921306Y-3211372D01*
X1931720Y-3202279D01*
X1940864Y-3191865D01*
X1948586Y-3180334D01*
X1951837Y-3173730D01*
X1903222Y-3173730D01*
G37*
G36*
X1810512Y-3222345D02*
G01*
X1810512Y-3173730D01*
X1761896Y-3173730D01*
X1765147Y-3180334D01*
X1772869Y-3191865D01*
X1782013Y-3202279D01*
X1792427Y-3211372D01*
X1803907Y-3219094D01*
G37*
G36*
X-22961Y-3159810D02*
G01*
X-13411Y-3158540D01*
X-4216Y-3155746D01*
X4419Y-3151378D01*
X12192Y-3145637D01*
X18846Y-3138678D01*
X24231Y-3130702D01*
X28244Y-3121914D01*
X30632Y-3112566D01*
X31495Y-3102965D01*
X30632Y-3093364D01*
X28244Y-3084017D01*
X24231Y-3075228D01*
X18846Y-3067253D01*
X12192Y-3060293D01*
X4419Y-3054553D01*
X-4216Y-3050184D01*
X-13411Y-3047390D01*
X-22961Y-3046120D01*
X-32613Y-3046577D01*
X-42062Y-3048609D01*
X-51003Y-3052165D01*
X-59232Y-3057245D01*
X-66446Y-3063595D01*
X-72542Y-3071114D01*
X-77216Y-3079546D01*
X-80416Y-3088640D01*
X-82042Y-3098139D01*
X-82042Y-3107791D01*
X-80416Y-3117291D01*
X-77216Y-3126384D01*
X-72542Y-3134817D01*
X-66446Y-3142335D01*
X-59232Y-3148685D01*
X-51003Y-3153765D01*
X-42062Y-3157321D01*
X-32613Y-3159353D01*
G37*
G36*
X1761896Y-3081020D02*
G01*
X1810512Y-3081020D01*
X1810512Y-3032455D01*
X1803907Y-3035706D01*
X1792427Y-3043377D01*
X1782013Y-3052521D01*
X1772869Y-3062935D01*
X1765147Y-3074416D01*
G37*
G36*
X1903222Y-3081020D02*
G01*
X1951837Y-3081020D01*
X1948586Y-3074416D01*
X1940864Y-3062935D01*
X1931720Y-3052521D01*
X1921306Y-3043377D01*
X1909825Y-3035706D01*
X1903222Y-3032455D01*
G37*
G36*
X373888Y-2989072D02*
G01*
X383692Y-2987802D01*
X393141Y-2984906D01*
X401980Y-2980436D01*
X409956Y-2974594D01*
X416814Y-2967431D01*
X422351Y-2959201D01*
X426415Y-2950210D01*
X428955Y-2940608D01*
X429768Y-2930753D01*
X428955Y-2920898D01*
X426415Y-2911297D01*
X422351Y-2902305D01*
X416814Y-2894076D01*
X409956Y-2886913D01*
X401980Y-2881071D01*
X393141Y-2876600D01*
X383692Y-2873705D01*
X373888Y-2872435D01*
X363982Y-2872841D01*
X354330Y-2874924D01*
X345135Y-2878632D01*
X336702Y-2883814D01*
X329234Y-2890367D01*
X323037Y-2898089D01*
X318211Y-2906725D01*
X314909Y-2916021D01*
X313232Y-2925826D01*
X313232Y-2935681D01*
X314909Y-2945485D01*
X318211Y-2954782D01*
X323037Y-2963418D01*
X329234Y-2971139D01*
X336702Y-2977692D01*
X345135Y-2982874D01*
X354330Y-2986582D01*
X363982Y-2988665D01*
G37*
G36*
X951890Y-2989072D02*
G01*
X961694Y-2987802D01*
X971143Y-2984906D01*
X979982Y-2980436D01*
X987958Y-2974594D01*
X994816Y-2967431D01*
X1000353Y-2959201D01*
X1004417Y-2950210D01*
X1006957Y-2940608D01*
X1007770Y-2930753D01*
X1006957Y-2920898D01*
X1004417Y-2911297D01*
X1000353Y-2902305D01*
X994816Y-2894076D01*
X987958Y-2886913D01*
X979982Y-2881071D01*
X971143Y-2876600D01*
X961694Y-2873705D01*
X951890Y-2872435D01*
X941984Y-2872841D01*
X932332Y-2874924D01*
X923137Y-2878632D01*
X914704Y-2883814D01*
X907237Y-2890367D01*
X901039Y-2898089D01*
X896213Y-2906725D01*
X892911Y-2916021D01*
X891235Y-2925826D01*
X891235Y-2935681D01*
X892911Y-2945485D01*
X896213Y-2954782D01*
X901039Y-2963418D01*
X907237Y-2971139D01*
X914704Y-2977692D01*
X923137Y-2982874D01*
X932332Y-2986582D01*
X941984Y-2988665D01*
G37*
G36*
X-22961Y-2937560D02*
G01*
X-13411Y-2936341D01*
X-4216Y-2933496D01*
X4419Y-2929178D01*
X12192Y-2923438D01*
X18846Y-2916478D01*
X24231Y-2908452D01*
X28244Y-2899664D01*
X30632Y-2890367D01*
X31495Y-2880766D01*
X30632Y-2871114D01*
X28244Y-2861818D01*
X24231Y-2853029D01*
X18846Y-2845003D01*
X12192Y-2838043D01*
X4419Y-2832303D01*
X-4216Y-2827985D01*
X-13411Y-2825140D01*
X-22961Y-2823921D01*
X-32613Y-2824327D01*
X-42062Y-2826359D01*
X-51003Y-2829966D01*
X-59232Y-2834995D01*
X-66446Y-2841396D01*
X-72542Y-2848914D01*
X-77216Y-2857296D01*
X-80416Y-2866390D01*
X-82042Y-2875940D01*
X-82042Y-2885541D01*
X-80416Y-2895092D01*
X-77216Y-2904185D01*
X-72542Y-2912567D01*
X-66446Y-2920085D01*
X-59232Y-2926486D01*
X-51003Y-2931515D01*
X-42062Y-2935122D01*
X-32613Y-2937154D01*
G37*
G36*
X1513738Y-2926029D02*
G01*
X1523288Y-2924759D01*
X1532483Y-2921965D01*
X1541119Y-2917596D01*
X1548892Y-2911856D01*
X1555546Y-2904896D01*
X1560931Y-2896920D01*
X1564944Y-2888132D01*
X1567332Y-2878785D01*
X1568196Y-2869184D01*
X1567332Y-2859582D01*
X1564944Y-2850235D01*
X1560931Y-2841447D01*
X1555546Y-2833471D01*
X1548892Y-2826512D01*
X1541119Y-2820771D01*
X1532483Y-2816402D01*
X1523288Y-2813608D01*
X1513738Y-2812338D01*
X1504086Y-2812796D01*
X1494637Y-2814828D01*
X1485696Y-2818384D01*
X1477467Y-2823464D01*
X1470253Y-2829814D01*
X1464157Y-2837332D01*
X1459484Y-2845765D01*
X1456283Y-2854858D01*
X1454658Y-2864358D01*
X1454658Y-2874010D01*
X1456283Y-2883509D01*
X1459484Y-2892602D01*
X1464157Y-2901035D01*
X1470253Y-2908554D01*
X1477467Y-2914904D01*
X1485696Y-2919984D01*
X1494637Y-2923540D01*
X1504086Y-2925572D01*
G37*
G36*
X1653438Y-2926029D02*
G01*
X1662988Y-2924759D01*
X1672183Y-2921965D01*
X1680819Y-2917596D01*
X1688592Y-2911856D01*
X1695246Y-2904896D01*
X1700631Y-2896920D01*
X1704644Y-2888132D01*
X1707032Y-2878785D01*
X1707896Y-2869184D01*
X1707032Y-2859582D01*
X1704644Y-2850235D01*
X1700631Y-2841447D01*
X1695246Y-2833471D01*
X1688592Y-2826512D01*
X1680819Y-2820771D01*
X1672183Y-2816402D01*
X1662988Y-2813608D01*
X1653438Y-2812338D01*
X1643786Y-2812796D01*
X1634337Y-2814828D01*
X1625396Y-2818384D01*
X1617167Y-2823464D01*
X1609953Y-2829814D01*
X1603857Y-2837332D01*
X1599184Y-2845765D01*
X1595983Y-2854858D01*
X1594358Y-2864358D01*
X1594358Y-2874010D01*
X1595983Y-2883509D01*
X1599184Y-2892602D01*
X1603857Y-2901035D01*
X1609953Y-2908554D01*
X1617167Y-2914904D01*
X1625396Y-2919984D01*
X1634337Y-2923540D01*
X1643786Y-2925572D01*
G37*
G36*
X693572Y-2672029D02*
G01*
X703122Y-2670759D01*
X712317Y-2667965D01*
X720953Y-2663596D01*
X728726Y-2657856D01*
X735380Y-2650896D01*
X740765Y-2642920D01*
X744778Y-2634132D01*
X747166Y-2624785D01*
X748030Y-2615184D01*
X747166Y-2605582D01*
X744778Y-2596235D01*
X740765Y-2587447D01*
X735380Y-2579471D01*
X728726Y-2572512D01*
X720953Y-2566771D01*
X712317Y-2562402D01*
X703122Y-2559608D01*
X693572Y-2558338D01*
X683920Y-2558796D01*
X674471Y-2560828D01*
X665530Y-2564384D01*
X657301Y-2569464D01*
X650087Y-2575814D01*
X643991Y-2583332D01*
X639318Y-2591765D01*
X636117Y-2600858D01*
X634492Y-2610358D01*
X634492Y-2620010D01*
X636117Y-2629509D01*
X639318Y-2638602D01*
X643991Y-2647035D01*
X650087Y-2654554D01*
X657301Y-2660904D01*
X665530Y-2665984D01*
X674471Y-2669540D01*
X683920Y-2671572D01*
G37*
G36*
X1277112Y-2659380D02*
G01*
X1286662Y-2658110D01*
X1295908Y-2655316D01*
X1304493Y-2650947D01*
X1312265Y-2645206D01*
X1318971Y-2638247D01*
X1324356Y-2630271D01*
X1328318Y-2621483D01*
X1330756Y-2612136D01*
X1331569Y-2602534D01*
X1330756Y-2592933D01*
X1328318Y-2583586D01*
X1324356Y-2574798D01*
X1318971Y-2566822D01*
X1312265Y-2559862D01*
X1304493Y-2554122D01*
X1295908Y-2549753D01*
X1289253Y-2547721D01*
X1286154Y-2546197D01*
X1283766Y-2543708D01*
X1282395Y-2540558D01*
X1281328Y-2536596D01*
X1277366Y-2527808D01*
X1271981Y-2519781D01*
X1265275Y-2512822D01*
X1257503Y-2507081D01*
X1248918Y-2502763D01*
X1239672Y-2499918D01*
X1230122Y-2498699D01*
X1220470Y-2499106D01*
X1211072Y-2501138D01*
X1202080Y-2504744D01*
X1193901Y-2509774D01*
X1186637Y-2516174D01*
X1180592Y-2523693D01*
X1175867Y-2532075D01*
X1172667Y-2541168D01*
X1171041Y-2550718D01*
X1171041Y-2560320D01*
X1172667Y-2569870D01*
X1175867Y-2578963D01*
X1180592Y-2587345D01*
X1186637Y-2594864D01*
X1193901Y-2601264D01*
X1202080Y-2606294D01*
X1215339Y-2611424D01*
X1217930Y-2613710D01*
X1219606Y-2616708D01*
X1222857Y-2625953D01*
X1227582Y-2634386D01*
X1233627Y-2641904D01*
X1240891Y-2648254D01*
X1249070Y-2653334D01*
X1258062Y-2656890D01*
X1267460Y-2658922D01*
G37*
G36*
X1729638Y-2614523D02*
G01*
X1739188Y-2613253D01*
X1748383Y-2610459D01*
X1757019Y-2606090D01*
X1764792Y-2600350D01*
X1771446Y-2593390D01*
X1776831Y-2585415D01*
X1780844Y-2576626D01*
X1783232Y-2567279D01*
X1784096Y-2557678D01*
X1783232Y-2548077D01*
X1780844Y-2538730D01*
X1776831Y-2529941D01*
X1771446Y-2521966D01*
X1764792Y-2515006D01*
X1757019Y-2509266D01*
X1748383Y-2504897D01*
X1739188Y-2502103D01*
X1729638Y-2500833D01*
X1719986Y-2501290D01*
X1710537Y-2503322D01*
X1701596Y-2506878D01*
X1693367Y-2511958D01*
X1686153Y-2518308D01*
X1680057Y-2525826D01*
X1675384Y-2534259D01*
X1672183Y-2543352D01*
X1670557Y-2552852D01*
X1670557Y-2562504D01*
X1672183Y-2572004D01*
X1675384Y-2581097D01*
X1680057Y-2589530D01*
X1686153Y-2597048D01*
X1693367Y-2603398D01*
X1701596Y-2608478D01*
X1710537Y-2612034D01*
X1719986Y-2614066D01*
G37*
G36*
X1102461Y-2430068D02*
G01*
X1112012Y-2428798D01*
X1121257Y-2426004D01*
X1129842Y-2421636D01*
X1137615Y-2415895D01*
X1144320Y-2408936D01*
X1149705Y-2400960D01*
X1153668Y-2392172D01*
X1156106Y-2382824D01*
X1156919Y-2373223D01*
X1156106Y-2363622D01*
X1153668Y-2354275D01*
X1149705Y-2345486D01*
X1144320Y-2337511D01*
X1137615Y-2330551D01*
X1129842Y-2324811D01*
X1121257Y-2320442D01*
X1112012Y-2317648D01*
X1102461Y-2316378D01*
X1092809Y-2316835D01*
X1083411Y-2318867D01*
X1074420Y-2322423D01*
X1066241Y-2327503D01*
X1058976Y-2333853D01*
X1052931Y-2341372D01*
X1048207Y-2349804D01*
X1045006Y-2358898D01*
X1043381Y-2368397D01*
X1043381Y-2378049D01*
X1045006Y-2387549D01*
X1048207Y-2396642D01*
X1052931Y-2405075D01*
X1058976Y-2412593D01*
X1066241Y-2418943D01*
X1074420Y-2424023D01*
X1083411Y-2427579D01*
X1092809Y-2429611D01*
G37*
G36*
X192938Y-2389124D02*
G01*
X202488Y-2387904D01*
X211683Y-2385060D01*
X220319Y-2380742D01*
X228092Y-2375001D01*
X234746Y-2368042D01*
X240131Y-2360015D01*
X244144Y-2351227D01*
X246532Y-2341930D01*
X247396Y-2332329D01*
X246532Y-2322677D01*
X244144Y-2313381D01*
X240131Y-2304592D01*
X234746Y-2296566D01*
X228092Y-2289606D01*
X220319Y-2283866D01*
X211683Y-2279548D01*
X202488Y-2276703D01*
X192938Y-2275484D01*
X183286Y-2275890D01*
X173837Y-2277922D01*
X164896Y-2281529D01*
X156667Y-2286558D01*
X149453Y-2292959D01*
X143357Y-2300478D01*
X138684Y-2308860D01*
X135483Y-2317953D01*
X133858Y-2327503D01*
X133858Y-2337104D01*
X135483Y-2346655D01*
X138684Y-2355748D01*
X143357Y-2364130D01*
X149453Y-2371648D01*
X156667Y-2378049D01*
X164896Y-2383078D01*
X173837Y-2386685D01*
X183286Y-2388717D01*
G37*
G36*
X319938Y-2291029D02*
G01*
X329488Y-2289759D01*
X338683Y-2286965D01*
X347319Y-2282596D01*
X355092Y-2276856D01*
X361746Y-2269896D01*
X367131Y-2261920D01*
X371144Y-2253132D01*
X373532Y-2243785D01*
X374396Y-2234184D01*
X373532Y-2224582D01*
X371144Y-2215235D01*
X367131Y-2206447D01*
X361746Y-2198471D01*
X355092Y-2191512D01*
X347319Y-2185771D01*
X338683Y-2181402D01*
X329488Y-2178608D01*
X319938Y-2177338D01*
X310286Y-2177796D01*
X300837Y-2179828D01*
X291896Y-2183384D01*
X283667Y-2188464D01*
X276453Y-2194814D01*
X270357Y-2202332D01*
X265684Y-2210765D01*
X262483Y-2219858D01*
X260858Y-2229358D01*
X260858Y-2239010D01*
X262483Y-2248509D01*
X265684Y-2257602D01*
X270357Y-2266035D01*
X276453Y-2273554D01*
X283667Y-2279904D01*
X291896Y-2284984D01*
X300837Y-2288540D01*
X310286Y-2290572D01*
G37*
G36*
X1729638Y-2221534D02*
G01*
X1739188Y-2220264D01*
X1748383Y-2217470D01*
X1757019Y-2213102D01*
X1764792Y-2207361D01*
X1771446Y-2200402D01*
X1776831Y-2192426D01*
X1780844Y-2183638D01*
X1783232Y-2174290D01*
X1784096Y-2164689D01*
X1783232Y-2155088D01*
X1780844Y-2145741D01*
X1776831Y-2136952D01*
X1771446Y-2128977D01*
X1764792Y-2122017D01*
X1757019Y-2116277D01*
X1748383Y-2111908D01*
X1739188Y-2109114D01*
X1729638Y-2107844D01*
X1719986Y-2108301D01*
X1710537Y-2110333D01*
X1701596Y-2113889D01*
X1693367Y-2118969D01*
X1686153Y-2125319D01*
X1680057Y-2132838D01*
X1675384Y-2141270D01*
X1672183Y-2150364D01*
X1670557Y-2159863D01*
X1670557Y-2169515D01*
X1672183Y-2179015D01*
X1675384Y-2188108D01*
X1680057Y-2196541D01*
X1686153Y-2204059D01*
X1693367Y-2210409D01*
X1701596Y-2215489D01*
X1710537Y-2219045D01*
X1719986Y-2221077D01*
G37*
G36*
X1475638Y-2202129D02*
G01*
X1485188Y-2200859D01*
X1494383Y-2198065D01*
X1503019Y-2193696D01*
X1510792Y-2187956D01*
X1517446Y-2180996D01*
X1522831Y-2173020D01*
X1526844Y-2164232D01*
X1529232Y-2154885D01*
X1530096Y-2145284D01*
X1529232Y-2135682D01*
X1526844Y-2126335D01*
X1522831Y-2117547D01*
X1517446Y-2109571D01*
X1510792Y-2102612D01*
X1503019Y-2096871D01*
X1494383Y-2092502D01*
X1485188Y-2089708D01*
X1475638Y-2088438D01*
X1465986Y-2088896D01*
X1456537Y-2090928D01*
X1447596Y-2094484D01*
X1439367Y-2099564D01*
X1432153Y-2105914D01*
X1426057Y-2113432D01*
X1421384Y-2121865D01*
X1418183Y-2130958D01*
X1416558Y-2140458D01*
X1416558Y-2150110D01*
X1418183Y-2159609D01*
X1421384Y-2168702D01*
X1426057Y-2177135D01*
X1432153Y-2184654D01*
X1439367Y-2191004D01*
X1447596Y-2196084D01*
X1456537Y-2199640D01*
X1465986Y-2201672D01*
G37*
G36*
X2199538Y-2178304D02*
G01*
X2209088Y-2177084D01*
X2218283Y-2174240D01*
X2226919Y-2169922D01*
X2234692Y-2164181D01*
X2241346Y-2157222D01*
X2246731Y-2149195D01*
X2250744Y-2140407D01*
X2253132Y-2131110D01*
X2253996Y-2121509D01*
X2253132Y-2111857D01*
X2250744Y-2102561D01*
X2246731Y-2093772D01*
X2241346Y-2085746D01*
X2234692Y-2078786D01*
X2226919Y-2073046D01*
X2218283Y-2068728D01*
X2209088Y-2065883D01*
X2199538Y-2064664D01*
X2189886Y-2065070D01*
X2180437Y-2067102D01*
X2171496Y-2070709D01*
X2163267Y-2075738D01*
X2156053Y-2082139D01*
X2149957Y-2089657D01*
X2145284Y-2098040D01*
X2142083Y-2107133D01*
X2140458Y-2116683D01*
X2140458Y-2126284D01*
X2142083Y-2135835D01*
X2145284Y-2144928D01*
X2149957Y-2153310D01*
X2156053Y-2160828D01*
X2163267Y-2167229D01*
X2171496Y-2172258D01*
X2180437Y-2175865D01*
X2189886Y-2177897D01*
G37*
G36*
X916838Y-2087829D02*
G01*
X926388Y-2086559D01*
X935583Y-2083765D01*
X944219Y-2079396D01*
X951992Y-2073656D01*
X958646Y-2066696D01*
X964031Y-2058720D01*
X968044Y-2049932D01*
X970432Y-2040585D01*
X971296Y-2030984D01*
X970432Y-2021382D01*
X968044Y-2012035D01*
X964031Y-2003247D01*
X958646Y-1995271D01*
X951992Y-1988312D01*
X944219Y-1982571D01*
X935583Y-1978202D01*
X926388Y-1975408D01*
X916838Y-1974138D01*
X907186Y-1974596D01*
X897737Y-1976628D01*
X888796Y-1980184D01*
X880567Y-1985264D01*
X873353Y-1991614D01*
X867257Y-1999132D01*
X862584Y-2007565D01*
X859383Y-2016658D01*
X857758Y-2026157D01*
X857758Y-2035810D01*
X859383Y-2045309D01*
X862584Y-2054402D01*
X867257Y-2062835D01*
X873353Y-2070354D01*
X880567Y-2076704D01*
X888796Y-2081784D01*
X897737Y-2085339D01*
X907186Y-2087372D01*
G37*
G36*
X319938Y-2087829D02*
G01*
X329488Y-2086559D01*
X338683Y-2083765D01*
X347319Y-2079396D01*
X355092Y-2073656D01*
X361746Y-2066696D01*
X367131Y-2058720D01*
X371144Y-2049932D01*
X372516Y-2044547D01*
X373938Y-2041448D01*
X376326Y-2038959D01*
X379374Y-2037435D01*
X392988Y-2035759D01*
X402183Y-2032965D01*
X410819Y-2028596D01*
X418592Y-2022856D01*
X425246Y-2015896D01*
X430631Y-2007920D01*
X434644Y-1999132D01*
X437032Y-1989785D01*
X437896Y-1980184D01*
X437032Y-1970582D01*
X434644Y-1961235D01*
X430631Y-1952447D01*
X425246Y-1944471D01*
X418592Y-1937512D01*
X410819Y-1931771D01*
X402183Y-1927402D01*
X392988Y-1924608D01*
X383438Y-1923338D01*
X373786Y-1923796D01*
X364337Y-1925828D01*
X355396Y-1929384D01*
X347167Y-1934464D01*
X339953Y-1940814D01*
X333857Y-1948332D01*
X329184Y-1956765D01*
X324815Y-1969109D01*
X322681Y-1971802D01*
X319735Y-1973580D01*
X316382Y-1974291D01*
X310286Y-1974596D01*
X300837Y-1976628D01*
X291896Y-1980184D01*
X283667Y-1985264D01*
X276453Y-1991614D01*
X270357Y-1999132D01*
X265684Y-2007565D01*
X262483Y-2016658D01*
X260858Y-2026157D01*
X260858Y-2035810D01*
X262483Y-2045309D01*
X265684Y-2054402D01*
X270357Y-2062835D01*
X276453Y-2070354D01*
X283667Y-2076704D01*
X291896Y-2081784D01*
X300837Y-2085339D01*
X310286Y-2087372D01*
G37*
G36*
X129438Y-1960829D02*
G01*
X138988Y-1959559D01*
X148183Y-1956765D01*
X156819Y-1952396D01*
X164592Y-1946656D01*
X171246Y-1939696D01*
X176631Y-1931720D01*
X180644Y-1922932D01*
X183032Y-1913585D01*
X183896Y-1903984D01*
X183032Y-1894382D01*
X180644Y-1885035D01*
X176631Y-1876247D01*
X171246Y-1868271D01*
X164592Y-1861312D01*
X156819Y-1855571D01*
X148183Y-1851202D01*
X138988Y-1848408D01*
X129438Y-1847138D01*
X119786Y-1847596D01*
X110337Y-1849628D01*
X101396Y-1853184D01*
X93167Y-1858264D01*
X85953Y-1864614D01*
X79857Y-1872132D01*
X75184Y-1880565D01*
X71983Y-1889658D01*
X70358Y-1899157D01*
X70358Y-1908810D01*
X71983Y-1918309D01*
X75184Y-1927402D01*
X79857Y-1935835D01*
X85953Y-1943354D01*
X93167Y-1949704D01*
X101396Y-1954784D01*
X110337Y-1958339D01*
X119786Y-1960372D01*
G37*
G36*
X2199538Y-1911451D02*
G01*
X2209088Y-1910232D01*
X2218283Y-1907387D01*
X2226919Y-1903069D01*
X2234692Y-1897329D01*
X2241346Y-1890369D01*
X2246731Y-1882343D01*
X2250744Y-1873554D01*
X2253132Y-1864258D01*
X2253996Y-1854657D01*
X2253132Y-1845005D01*
X2250744Y-1835708D01*
X2246528Y-1826412D01*
X2245614Y-1822246D01*
X2246528Y-1818081D01*
X2250744Y-1808784D01*
X2253132Y-1799488D01*
X2253996Y-1789887D01*
X2253132Y-1780235D01*
X2250744Y-1770938D01*
X2246731Y-1762150D01*
X2241346Y-1754124D01*
X2234692Y-1747164D01*
X2226919Y-1741424D01*
X2218283Y-1737106D01*
X2209088Y-1734261D01*
X2199538Y-1733042D01*
X2189886Y-1733448D01*
X2180437Y-1735480D01*
X2171496Y-1739087D01*
X2163267Y-1744116D01*
X2156053Y-1750517D01*
X2149957Y-1758035D01*
X2145284Y-1766417D01*
X2142083Y-1775510D01*
X2140458Y-1785061D01*
X2140458Y-1794662D01*
X2142083Y-1804212D01*
X2145284Y-1813306D01*
X2147519Y-1817268D01*
X2148636Y-1820519D01*
X2148636Y-1823974D01*
X2147519Y-1827225D01*
X2145284Y-1831187D01*
X2142083Y-1840280D01*
X2140458Y-1849831D01*
X2140458Y-1859432D01*
X2142083Y-1868982D01*
X2145284Y-1878075D01*
X2149957Y-1886457D01*
X2156053Y-1893976D01*
X2163267Y-1900377D01*
X2171496Y-1905406D01*
X2180437Y-1909013D01*
X2189886Y-1911045D01*
G37*
G36*
X662838Y-1910029D02*
G01*
X672388Y-1908759D01*
X681583Y-1905965D01*
X690219Y-1901596D01*
X697992Y-1895856D01*
X704646Y-1888896D01*
X710031Y-1880920D01*
X714044Y-1872132D01*
X717397Y-1858772D01*
X719277Y-1855927D01*
X722071Y-1853895D01*
X725322Y-1852879D01*
X732383Y-1851964D01*
X741578Y-1849170D01*
X749808Y-1845056D01*
X753516Y-1843989D01*
X757326Y-1844395D01*
X760730Y-1846224D01*
X763219Y-1849170D01*
X764641Y-1851660D01*
X770686Y-1859178D01*
X777951Y-1865579D01*
X786130Y-1870608D01*
X795121Y-1874215D01*
X804519Y-1876247D01*
X814171Y-1876653D01*
X823721Y-1875434D01*
X832967Y-1872589D01*
X841552Y-1868271D01*
X849325Y-1862531D01*
X856030Y-1855571D01*
X861415Y-1847545D01*
X865378Y-1838756D01*
X867816Y-1829460D01*
X868629Y-1819859D01*
X867816Y-1810207D01*
X865378Y-1800910D01*
X861415Y-1792122D01*
X856030Y-1784096D01*
X852525Y-1780438D01*
X850341Y-1776984D01*
X849680Y-1772869D01*
X850747Y-1768906D01*
X853287Y-1765655D01*
X858367Y-1761388D01*
X867511Y-1751228D01*
X875233Y-1740001D01*
X879043Y-1732432D01*
X831850Y-1732432D01*
X831850Y-1753717D01*
X830935Y-1757934D01*
X828395Y-1761337D01*
X824687Y-1763471D01*
X820419Y-1763826D01*
X814171Y-1763014D01*
X804519Y-1763420D01*
X795121Y-1765452D01*
X786130Y-1769059D01*
X783285Y-1770837D01*
X779627Y-1772208D01*
X775817Y-1772107D01*
X772261Y-1770583D01*
X769518Y-1767890D01*
X764641Y-1760677D01*
X757986Y-1753717D01*
X750214Y-1747977D01*
X745591Y-1744878D01*
X743610Y-1741678D01*
X742950Y-1738020D01*
X742950Y-1732432D01*
X695604Y-1732432D01*
X696468Y-1734464D01*
X697280Y-1737918D01*
X696772Y-1741474D01*
X695096Y-1744675D01*
X692454Y-1747062D01*
X686562Y-1750669D01*
X679348Y-1757019D01*
X673252Y-1764538D01*
X668578Y-1772970D01*
X665378Y-1782064D01*
X664311Y-1788261D01*
X663143Y-1791512D01*
X661009Y-1794205D01*
X658063Y-1795983D01*
X653186Y-1796796D01*
X643737Y-1798828D01*
X634796Y-1802384D01*
X626567Y-1807464D01*
X619353Y-1813814D01*
X613257Y-1821332D01*
X608584Y-1829765D01*
X605383Y-1838858D01*
X603758Y-1848357D01*
X603758Y-1858010D01*
X605383Y-1867509D01*
X608584Y-1876602D01*
X613257Y-1885035D01*
X619353Y-1892554D01*
X626567Y-1898904D01*
X634796Y-1903984D01*
X643737Y-1907539D01*
X653186Y-1909572D01*
G37*
G36*
X-403961Y-1897329D02*
G01*
X-394411Y-1896059D01*
X-385216Y-1893265D01*
X-376580Y-1888896D01*
X-368808Y-1883156D01*
X-362153Y-1876196D01*
X-356768Y-1868220D01*
X-352755Y-1859432D01*
X-350367Y-1850085D01*
X-349504Y-1840484D01*
X-350367Y-1830882D01*
X-352755Y-1821535D01*
X-356768Y-1812747D01*
X-362153Y-1804771D01*
X-368808Y-1797812D01*
X-376580Y-1792071D01*
X-385216Y-1787702D01*
X-394411Y-1784908D01*
X-403961Y-1783638D01*
X-412445Y-1784045D01*
X-416814Y-1783232D01*
X-420471Y-1780641D01*
X-422605Y-1776780D01*
X-422909Y-1772310D01*
X-421284Y-1768195D01*
X-420268Y-1766620D01*
X-416255Y-1757832D01*
X-413867Y-1748485D01*
X-413004Y-1738884D01*
X-413867Y-1729282D01*
X-416255Y-1719935D01*
X-420268Y-1711147D01*
X-425653Y-1703171D01*
X-432308Y-1696212D01*
X-440080Y-1690471D01*
X-448716Y-1686102D01*
X-457911Y-1683308D01*
X-467461Y-1682038D01*
X-477113Y-1682496D01*
X-486562Y-1684528D01*
X-495503Y-1688084D01*
X-503732Y-1693164D01*
X-505206Y-1694484D01*
X-509117Y-1696618D01*
X-513588Y-1696872D01*
X-517702Y-1695196D01*
X-520750Y-1691893D01*
X-522071Y-1687626D01*
X-522884Y-1676501D01*
X-525526Y-1665224D01*
X-529894Y-1654403D01*
X-535838Y-1644446D01*
X-543204Y-1635455D01*
X-551891Y-1627733D01*
X-561644Y-1621434D01*
X-572262Y-1616659D01*
X-583438Y-1613611D01*
X-594969Y-1612290D01*
X-606602Y-1612696D01*
X-617982Y-1614932D01*
X-628954Y-1618843D01*
X-639724Y-1624736D01*
X-643890Y-1625955D01*
X-648157Y-1625295D01*
X-651814Y-1622958D01*
X-656793Y-1617878D01*
X-661670Y-1614830D01*
X-667156Y-1612900D01*
X-673455Y-1612188D01*
X-691540Y-1612188D01*
X-691540Y-1656740D01*
X-681177Y-1656740D01*
X-677468Y-1657451D01*
X-674268Y-1659483D01*
X-672033Y-1662531D01*
X-671068Y-1666189D01*
X-673557Y-1682292D01*
X-673557Y-1693925D01*
X-671068Y-1709978D01*
X-672033Y-1713636D01*
X-674268Y-1716735D01*
X-677468Y-1718716D01*
X-681177Y-1719427D01*
X-691540Y-1719427D01*
X-691540Y-1763979D01*
X-673455Y-1763979D01*
X-667156Y-1763268D01*
X-661670Y-1761388D01*
X-656793Y-1758340D01*
X-651814Y-1753260D01*
X-648157Y-1750872D01*
X-643890Y-1750263D01*
X-639724Y-1751482D01*
X-628954Y-1757324D01*
X-617982Y-1761236D01*
X-606602Y-1763471D01*
X-594969Y-1763928D01*
X-583438Y-1762607D01*
X-572262Y-1759508D01*
X-561644Y-1754733D01*
X-551891Y-1748434D01*
X-542899Y-1740407D01*
X-539140Y-1738325D01*
X-534873Y-1737918D01*
X-530809Y-1739341D01*
X-527710Y-1742287D01*
X-526135Y-1746300D01*
X-524916Y-1753209D01*
X-521716Y-1762302D01*
X-517042Y-1770735D01*
X-510946Y-1778254D01*
X-503732Y-1784604D01*
X-495503Y-1789684D01*
X-486562Y-1793239D01*
X-477113Y-1795272D01*
X-467461Y-1795729D01*
X-464667Y-1795322D01*
X-460197Y-1795780D01*
X-456387Y-1798015D01*
X-453898Y-1801723D01*
X-453237Y-1806092D01*
X-454507Y-1810359D01*
X-458216Y-1817065D01*
X-461416Y-1826158D01*
X-463042Y-1835657D01*
X-463042Y-1845310D01*
X-461416Y-1854809D01*
X-458216Y-1863902D01*
X-453542Y-1872335D01*
X-447446Y-1879854D01*
X-440232Y-1886204D01*
X-432003Y-1891284D01*
X-423062Y-1894839D01*
X-413613Y-1896872D01*
G37*
G36*
X-899261Y-1871929D02*
G01*
X-889711Y-1870659D01*
X-880516Y-1867865D01*
X-871880Y-1863496D01*
X-864108Y-1857756D01*
X-857453Y-1850796D01*
X-852068Y-1842820D01*
X-848055Y-1834032D01*
X-845667Y-1824685D01*
X-844803Y-1815084D01*
X-845667Y-1805482D01*
X-848055Y-1796135D01*
X-852068Y-1787347D01*
X-857453Y-1779371D01*
X-864108Y-1772412D01*
X-871880Y-1766671D01*
X-880516Y-1762302D01*
X-889711Y-1759508D01*
X-899261Y-1758238D01*
X-908913Y-1758696D01*
X-918362Y-1760728D01*
X-927303Y-1764284D01*
X-935532Y-1769364D01*
X-942746Y-1775714D01*
X-948842Y-1783232D01*
X-953516Y-1791665D01*
X-956716Y-1800758D01*
X-958342Y-1810257D01*
X-958342Y-1819910D01*
X-956716Y-1829409D01*
X-953516Y-1838502D01*
X-948842Y-1846935D01*
X-942746Y-1854454D01*
X-935532Y-1860804D01*
X-927303Y-1865884D01*
X-918362Y-1869439D01*
X-908913Y-1871472D01*
G37*
G36*
X-188061Y-1859229D02*
G01*
X-178511Y-1857959D01*
X-169316Y-1855165D01*
X-160680Y-1850796D01*
X-152908Y-1845056D01*
X-146253Y-1838096D01*
X-140868Y-1830120D01*
X-136855Y-1821332D01*
X-134467Y-1811985D01*
X-133604Y-1802384D01*
X-134467Y-1792782D01*
X-136855Y-1783435D01*
X-140868Y-1774647D01*
X-146253Y-1766671D01*
X-152908Y-1759712D01*
X-160680Y-1753971D01*
X-169316Y-1749602D01*
X-178511Y-1746808D01*
X-188061Y-1745538D01*
X-197713Y-1745996D01*
X-207162Y-1748028D01*
X-216103Y-1751584D01*
X-224332Y-1756664D01*
X-231546Y-1763014D01*
X-237642Y-1770532D01*
X-242316Y-1778965D01*
X-245516Y-1788058D01*
X-247142Y-1797557D01*
X-247142Y-1807210D01*
X-245516Y-1816709D01*
X-242316Y-1825802D01*
X-237642Y-1834235D01*
X-231546Y-1841754D01*
X-224332Y-1848104D01*
X-216103Y-1853184D01*
X-207162Y-1856739D01*
X-197713Y-1858772D01*
G37*
G36*
X275996Y-1789988D02*
G01*
X289610Y-1789531D01*
X303072Y-1787296D01*
X316077Y-1783232D01*
X328472Y-1777492D01*
X339953Y-1770176D01*
X350367Y-1761388D01*
X359511Y-1751228D01*
X367233Y-1740001D01*
X373380Y-1727860D01*
X377850Y-1714957D01*
X380593Y-1701596D01*
X381508Y-1687982D01*
X380593Y-1674368D01*
X377850Y-1661007D01*
X373380Y-1648104D01*
X367233Y-1635963D01*
X359511Y-1624736D01*
X350367Y-1614576D01*
X339953Y-1605788D01*
X328472Y-1598472D01*
X316077Y-1592732D01*
X303072Y-1588668D01*
X289610Y-1586433D01*
X275996Y-1585976D01*
X262432Y-1587296D01*
X249174Y-1590497D01*
X236423Y-1595374D01*
X224485Y-1601927D01*
X213512Y-1610004D01*
X203708Y-1619504D01*
X195224Y-1630222D01*
X188264Y-1641957D01*
X182981Y-1654505D01*
X179374Y-1667662D01*
X177546Y-1681175D01*
X177546Y-1694789D01*
X179374Y-1708302D01*
X182981Y-1721459D01*
X188264Y-1734007D01*
X195224Y-1745742D01*
X203708Y-1756460D01*
X213512Y-1765960D01*
X224485Y-1774037D01*
X236423Y-1780590D01*
X249174Y-1785467D01*
X262432Y-1788668D01*
G37*
G36*
X1037996Y-1789988D02*
G01*
X1051610Y-1789531D01*
X1065072Y-1787296D01*
X1078077Y-1783232D01*
X1090472Y-1777492D01*
X1101953Y-1770176D01*
X1112367Y-1761388D01*
X1121511Y-1751228D01*
X1129233Y-1740001D01*
X1135380Y-1727860D01*
X1139850Y-1714957D01*
X1142593Y-1701596D01*
X1143508Y-1687982D01*
X1142593Y-1674368D01*
X1139850Y-1661007D01*
X1135380Y-1648104D01*
X1129233Y-1635963D01*
X1121511Y-1624736D01*
X1112367Y-1614576D01*
X1101953Y-1605788D01*
X1090472Y-1598472D01*
X1078077Y-1592732D01*
X1065072Y-1588668D01*
X1051610Y-1586433D01*
X1037996Y-1585976D01*
X1024432Y-1587296D01*
X1011174Y-1590497D01*
X998423Y-1595374D01*
X986485Y-1601927D01*
X975512Y-1610004D01*
X965708Y-1619504D01*
X957224Y-1630222D01*
X950264Y-1641957D01*
X944981Y-1654505D01*
X941374Y-1667662D01*
X939546Y-1681175D01*
X939546Y-1694789D01*
X941374Y-1708302D01*
X944981Y-1721459D01*
X950264Y-1734007D01*
X957224Y-1745742D01*
X965708Y-1756460D01*
X975512Y-1765960D01*
X986485Y-1774037D01*
X998423Y-1780590D01*
X1011174Y-1785467D01*
X1024432Y-1788668D01*
G37*
G36*
X529996Y-1789988D02*
G01*
X543610Y-1789531D01*
X557072Y-1787296D01*
X570077Y-1783232D01*
X582472Y-1777492D01*
X593953Y-1770176D01*
X604367Y-1761388D01*
X613511Y-1751228D01*
X621233Y-1740001D01*
X627380Y-1727860D01*
X631850Y-1714957D01*
X634593Y-1701596D01*
X635508Y-1687982D01*
X634593Y-1674368D01*
X631850Y-1661007D01*
X627380Y-1648104D01*
X621233Y-1635963D01*
X613511Y-1624736D01*
X604367Y-1614576D01*
X593953Y-1605788D01*
X582472Y-1598472D01*
X570077Y-1592732D01*
X557072Y-1588668D01*
X543610Y-1586433D01*
X529996Y-1585976D01*
X516432Y-1587296D01*
X503174Y-1590497D01*
X490423Y-1595374D01*
X478485Y-1601927D01*
X467512Y-1610004D01*
X457708Y-1619504D01*
X449224Y-1630222D01*
X442264Y-1641957D01*
X436981Y-1654505D01*
X433374Y-1667662D01*
X431546Y-1681175D01*
X431546Y-1694789D01*
X433374Y-1708302D01*
X436981Y-1721459D01*
X442264Y-1734007D01*
X449224Y-1745742D01*
X457708Y-1756460D01*
X467512Y-1765960D01*
X478485Y-1774037D01*
X490423Y-1780590D01*
X503174Y-1785467D01*
X516432Y-1788668D01*
G37*
G36*
X-772312Y-1763979D02*
G01*
X-754227Y-1763979D01*
X-754227Y-1719427D01*
X-798779Y-1719427D01*
X-798779Y-1737512D01*
X-798068Y-1743862D01*
X-796188Y-1749298D01*
X-793089Y-1754225D01*
X-789025Y-1758289D01*
X-784098Y-1761388D01*
X-778662Y-1763268D01*
G37*
G36*
X-798779Y-1656740D02*
G01*
X-754227Y-1656740D01*
X-754227Y-1612188D01*
X-772312Y-1612188D01*
X-778662Y-1612900D01*
X-784098Y-1614830D01*
X-789025Y-1617878D01*
X-793089Y-1621993D01*
X-796188Y-1626870D01*
X-798068Y-1632356D01*
X-798779Y-1638655D01*
G37*
G36*
X831850Y-1643532D02*
G01*
X879043Y-1643532D01*
X875233Y-1635963D01*
X867511Y-1624736D01*
X858367Y-1614576D01*
X847953Y-1605788D01*
X836472Y-1598472D01*
X831850Y-1596339D01*
G37*
G36*
X695604Y-1643532D02*
G01*
X742950Y-1643532D01*
X742950Y-1596186D01*
X732485Y-1601927D01*
X721512Y-1610004D01*
X711708Y-1619504D01*
X703224Y-1630222D01*
X696264Y-1641957D01*
G37*
G36*
X-214528Y-1370177D02*
G01*
X-115671Y-1370177D01*
X-109372Y-1369466D01*
X-103885Y-1367586D01*
X-99009Y-1364488D01*
X-91948Y-1357122D01*
X-88290Y-1355547D01*
X-84277Y-1355445D01*
X-80568Y-1356918D01*
X-74371Y-1360932D01*
X-63754Y-1365707D01*
X-52527Y-1368755D01*
X-40995Y-1370126D01*
X-29413Y-1369669D01*
X-17983Y-1367434D01*
X-7061Y-1363522D01*
X3149Y-1357985D01*
X12395Y-1350924D01*
X18034Y-1345082D01*
X21539Y-1342694D01*
X25755Y-1341932D01*
X29870Y-1342999D01*
X33172Y-1345641D01*
X34239Y-1346911D01*
X42926Y-1354632D01*
X52628Y-1360932D01*
X63246Y-1365707D01*
X74472Y-1368755D01*
X86004Y-1370126D01*
X97586Y-1369669D01*
X109016Y-1367434D01*
X119938Y-1363522D01*
X130149Y-1357985D01*
X139395Y-1350924D01*
X145034Y-1345082D01*
X148539Y-1342694D01*
X152755Y-1341932D01*
X156870Y-1342999D01*
X160172Y-1345641D01*
X161239Y-1346911D01*
X169926Y-1354632D01*
X179628Y-1360932D01*
X190246Y-1365707D01*
X201472Y-1368755D01*
X213004Y-1370126D01*
X224586Y-1369669D01*
X236016Y-1367434D01*
X246938Y-1363522D01*
X257149Y-1357985D01*
X266395Y-1350924D01*
X272034Y-1345082D01*
X275539Y-1342694D01*
X279755Y-1341932D01*
X283870Y-1342999D01*
X287172Y-1345641D01*
X288239Y-1346911D01*
X296926Y-1354632D01*
X306628Y-1360932D01*
X317246Y-1365707D01*
X328472Y-1368755D01*
X340004Y-1370126D01*
X351586Y-1369669D01*
X363016Y-1367434D01*
X373938Y-1363522D01*
X384149Y-1357985D01*
X393395Y-1350924D01*
X399034Y-1345082D01*
X402539Y-1342694D01*
X406755Y-1341932D01*
X410870Y-1342999D01*
X414172Y-1345641D01*
X415239Y-1346911D01*
X423926Y-1354632D01*
X433628Y-1360932D01*
X444246Y-1365707D01*
X455472Y-1368755D01*
X467004Y-1370126D01*
X478586Y-1369669D01*
X490016Y-1367434D01*
X500938Y-1363522D01*
X511149Y-1357985D01*
X520395Y-1350924D01*
X526034Y-1345082D01*
X529539Y-1342694D01*
X533755Y-1341932D01*
X537870Y-1342999D01*
X541172Y-1345641D01*
X542239Y-1346911D01*
X550926Y-1354632D01*
X560628Y-1360932D01*
X571246Y-1365707D01*
X582472Y-1368755D01*
X594004Y-1370126D01*
X605586Y-1369669D01*
X617016Y-1367434D01*
X627938Y-1363522D01*
X638149Y-1357985D01*
X647395Y-1350924D01*
X653034Y-1345082D01*
X656539Y-1342694D01*
X660755Y-1341932D01*
X664870Y-1342999D01*
X668172Y-1345641D01*
X669239Y-1346911D01*
X677926Y-1354632D01*
X687628Y-1360932D01*
X698246Y-1365707D01*
X709472Y-1368755D01*
X721004Y-1370126D01*
X732586Y-1369669D01*
X744016Y-1367434D01*
X754938Y-1363522D01*
X765149Y-1357985D01*
X774395Y-1350924D01*
X780034Y-1345082D01*
X783539Y-1342694D01*
X787755Y-1341932D01*
X791870Y-1342999D01*
X795172Y-1345641D01*
X796239Y-1346911D01*
X804926Y-1354632D01*
X814628Y-1360932D01*
X825246Y-1365707D01*
X836472Y-1368755D01*
X848004Y-1370126D01*
X859586Y-1369669D01*
X871016Y-1367434D01*
X881938Y-1363522D01*
X892149Y-1357985D01*
X901395Y-1350924D01*
X907034Y-1345082D01*
X910539Y-1342694D01*
X914755Y-1341932D01*
X918870Y-1342999D01*
X922172Y-1345641D01*
X923239Y-1346911D01*
X931926Y-1354632D01*
X941628Y-1360932D01*
X946556Y-1363116D01*
X946556Y-1325626D01*
X934212Y-1325626D01*
X930503Y-1324914D01*
X927252Y-1322882D01*
X925017Y-1319834D01*
X924052Y-1316177D01*
X926541Y-1300073D01*
X926541Y-1288491D01*
X924052Y-1272387D01*
X925017Y-1268730D01*
X927252Y-1265682D01*
X930503Y-1263650D01*
X934212Y-1262938D01*
X946556Y-1262938D01*
X946556Y-1225448D01*
X941628Y-1227632D01*
X931926Y-1233932D01*
X923239Y-1241653D01*
X922172Y-1242923D01*
X918870Y-1245565D01*
X914755Y-1246632D01*
X910539Y-1245870D01*
X907034Y-1243482D01*
X901395Y-1237640D01*
X892149Y-1230579D01*
X881938Y-1225042D01*
X871016Y-1221130D01*
X859586Y-1218895D01*
X848004Y-1218438D01*
X836472Y-1219809D01*
X825246Y-1222857D01*
X814628Y-1227632D01*
X804926Y-1233932D01*
X796239Y-1241653D01*
X795172Y-1242923D01*
X791870Y-1245565D01*
X787755Y-1246632D01*
X783539Y-1245870D01*
X780034Y-1243482D01*
X774395Y-1237640D01*
X765149Y-1230579D01*
X754938Y-1225042D01*
X744016Y-1221130D01*
X732586Y-1218895D01*
X721004Y-1218438D01*
X709472Y-1219809D01*
X698246Y-1222857D01*
X687628Y-1227632D01*
X677926Y-1233932D01*
X669239Y-1241653D01*
X668172Y-1242923D01*
X664870Y-1245565D01*
X660755Y-1246632D01*
X656539Y-1245870D01*
X653034Y-1243482D01*
X647395Y-1237640D01*
X638149Y-1230579D01*
X627938Y-1225042D01*
X617016Y-1221130D01*
X605586Y-1218895D01*
X594004Y-1218438D01*
X582472Y-1219809D01*
X571246Y-1222857D01*
X560628Y-1227632D01*
X550926Y-1233932D01*
X542239Y-1241653D01*
X541172Y-1242923D01*
X537870Y-1245565D01*
X533755Y-1246632D01*
X529539Y-1245870D01*
X526034Y-1243482D01*
X520395Y-1237640D01*
X511149Y-1230579D01*
X500938Y-1225042D01*
X490016Y-1221130D01*
X478586Y-1218895D01*
X467004Y-1218438D01*
X455472Y-1219809D01*
X444246Y-1222857D01*
X433628Y-1227632D01*
X423926Y-1233932D01*
X415239Y-1241653D01*
X414172Y-1242923D01*
X410870Y-1245565D01*
X406755Y-1246632D01*
X402539Y-1245870D01*
X399034Y-1243482D01*
X393395Y-1237640D01*
X384149Y-1230579D01*
X373938Y-1225042D01*
X363016Y-1221130D01*
X351586Y-1218895D01*
X340004Y-1218438D01*
X328472Y-1219809D01*
X317246Y-1222857D01*
X306628Y-1227632D01*
X296926Y-1233932D01*
X288239Y-1241653D01*
X287172Y-1242923D01*
X283870Y-1245565D01*
X279755Y-1246632D01*
X275539Y-1245870D01*
X272034Y-1243482D01*
X266395Y-1237640D01*
X257149Y-1230579D01*
X246938Y-1225042D01*
X236016Y-1221130D01*
X224586Y-1218895D01*
X213004Y-1218438D01*
X201472Y-1219809D01*
X190246Y-1222857D01*
X179628Y-1227632D01*
X169926Y-1233932D01*
X161239Y-1241653D01*
X160172Y-1242923D01*
X156870Y-1245565D01*
X152755Y-1246632D01*
X148539Y-1245870D01*
X145034Y-1243482D01*
X139395Y-1237640D01*
X130149Y-1230579D01*
X119938Y-1225042D01*
X109016Y-1221130D01*
X97586Y-1218895D01*
X86004Y-1218438D01*
X74472Y-1219809D01*
X63246Y-1222857D01*
X52628Y-1227632D01*
X42926Y-1233932D01*
X34239Y-1241653D01*
X33172Y-1242923D01*
X29870Y-1245565D01*
X25755Y-1246632D01*
X21539Y-1245870D01*
X18034Y-1243482D01*
X12395Y-1237640D01*
X3149Y-1230579D01*
X-7061Y-1225042D01*
X-17983Y-1221130D01*
X-29413Y-1218895D01*
X-40995Y-1218438D01*
X-52527Y-1219809D01*
X-63754Y-1222857D01*
X-74371Y-1227632D01*
X-80568Y-1231646D01*
X-84277Y-1233119D01*
X-88290Y-1233017D01*
X-91948Y-1231442D01*
X-99009Y-1224076D01*
X-103885Y-1220978D01*
X-109372Y-1219098D01*
X-115671Y-1218387D01*
X-214528Y-1218387D01*
X-220827Y-1219098D01*
X-226314Y-1220978D01*
X-231190Y-1224076D01*
X-235305Y-1228191D01*
X-238404Y-1233068D01*
X-240284Y-1238554D01*
X-240995Y-1244854D01*
X-240995Y-1343710D01*
X-240284Y-1350010D01*
X-238404Y-1355496D01*
X-235305Y-1360373D01*
X-231190Y-1364488D01*
X-226314Y-1367586D01*
X-220827Y-1369466D01*
G37*
G36*
X1229004Y-1370126D02*
G01*
X1240586Y-1369669D01*
X1252016Y-1367434D01*
X1262938Y-1363522D01*
X1273149Y-1357985D01*
X1282395Y-1350924D01*
X1288034Y-1345082D01*
X1291539Y-1342694D01*
X1295755Y-1341932D01*
X1299870Y-1342999D01*
X1303172Y-1345641D01*
X1304239Y-1346911D01*
X1312926Y-1354632D01*
X1322628Y-1360932D01*
X1333246Y-1365707D01*
X1344472Y-1368755D01*
X1356004Y-1370126D01*
X1367586Y-1369669D01*
X1379016Y-1367434D01*
X1389938Y-1363522D01*
X1400149Y-1357985D01*
X1409395Y-1350924D01*
X1415034Y-1345082D01*
X1418539Y-1342694D01*
X1422755Y-1341932D01*
X1426870Y-1342999D01*
X1430172Y-1345641D01*
X1431239Y-1346911D01*
X1439926Y-1354632D01*
X1449628Y-1360932D01*
X1460246Y-1365707D01*
X1471472Y-1368755D01*
X1483004Y-1370126D01*
X1494586Y-1369669D01*
X1506016Y-1367434D01*
X1516938Y-1363522D01*
X1527149Y-1357985D01*
X1536395Y-1350924D01*
X1544421Y-1342542D01*
X1551127Y-1333042D01*
X1556258Y-1322628D01*
X1559763Y-1311554D01*
X1561541Y-1300073D01*
X1561541Y-1288491D01*
X1559763Y-1277010D01*
X1556258Y-1265936D01*
X1551127Y-1255522D01*
X1544421Y-1246022D01*
X1536395Y-1237640D01*
X1527149Y-1230579D01*
X1516938Y-1225042D01*
X1506016Y-1221130D01*
X1494586Y-1218895D01*
X1483004Y-1218438D01*
X1471472Y-1219809D01*
X1460246Y-1222857D01*
X1449628Y-1227632D01*
X1439926Y-1233932D01*
X1431239Y-1241653D01*
X1430172Y-1242923D01*
X1426870Y-1245565D01*
X1422755Y-1246632D01*
X1418539Y-1245870D01*
X1415034Y-1243482D01*
X1409395Y-1237640D01*
X1400149Y-1230579D01*
X1389938Y-1225042D01*
X1379016Y-1221130D01*
X1367586Y-1218895D01*
X1356004Y-1218438D01*
X1344472Y-1219809D01*
X1333246Y-1222857D01*
X1322628Y-1227632D01*
X1312926Y-1233932D01*
X1304239Y-1241653D01*
X1303172Y-1242923D01*
X1299870Y-1245565D01*
X1295755Y-1246632D01*
X1291539Y-1245870D01*
X1288034Y-1243482D01*
X1282395Y-1237640D01*
X1273149Y-1230579D01*
X1262938Y-1225042D01*
X1252016Y-1221130D01*
X1240586Y-1218895D01*
X1229004Y-1218438D01*
X1217472Y-1219809D01*
X1206246Y-1222857D01*
X1195628Y-1227632D01*
X1185926Y-1233932D01*
X1177239Y-1241653D01*
X1176172Y-1242923D01*
X1172870Y-1245565D01*
X1168755Y-1246632D01*
X1164539Y-1245870D01*
X1161034Y-1243482D01*
X1155395Y-1237640D01*
X1146149Y-1230579D01*
X1136243Y-1225194D01*
X1136243Y-1262938D01*
X1148740Y-1262938D01*
X1152296Y-1263599D01*
X1155446Y-1265478D01*
X1157681Y-1268323D01*
X1158798Y-1271778D01*
X1158595Y-1275384D01*
X1156919Y-1282700D01*
X1156004Y-1294282D01*
X1156919Y-1305864D01*
X1158595Y-1313180D01*
X1158798Y-1316786D01*
X1157681Y-1320241D01*
X1155446Y-1323086D01*
X1152296Y-1324965D01*
X1148740Y-1325626D01*
X1136243Y-1325626D01*
X1136243Y-1363370D01*
X1146149Y-1357985D01*
X1155395Y-1350924D01*
X1161034Y-1345082D01*
X1164539Y-1342694D01*
X1168755Y-1341932D01*
X1172870Y-1342999D01*
X1176172Y-1345641D01*
X1177239Y-1346911D01*
X1185926Y-1354632D01*
X1195628Y-1360932D01*
X1206246Y-1365707D01*
X1217472Y-1368755D01*
G37*
G36*
X1009243Y-1363370D02*
G01*
X1019149Y-1357985D01*
X1028395Y-1350924D01*
X1034034Y-1345082D01*
X1037539Y-1342694D01*
X1041755Y-1341932D01*
X1045870Y-1342999D01*
X1049172Y-1345641D01*
X1050239Y-1346911D01*
X1058926Y-1354632D01*
X1068628Y-1360932D01*
X1073556Y-1363116D01*
X1073556Y-1325626D01*
X1009243Y-1325626D01*
G37*
G36*
X1009243Y-1262938D02*
G01*
X1073556Y-1262938D01*
X1073556Y-1225448D01*
X1068628Y-1227632D01*
X1058926Y-1233932D01*
X1050239Y-1241653D01*
X1049172Y-1242923D01*
X1045870Y-1245565D01*
X1041755Y-1246632D01*
X1037539Y-1245870D01*
X1034034Y-1243482D01*
X1028395Y-1237640D01*
X1019149Y-1230579D01*
X1009243Y-1225194D01*
G37*

%LPD*%
D10*
X-177800Y-439318D02*
G01*
X-177800Y-190398D01*
X-38100Y-50698D01*
X1651000Y-50698D01*
X1739900Y38201D01*
X1739900Y724001D01*
X1638300Y825601D01*
X1498600Y825601D01*
X76200Y-439318D02*
G01*
X76200Y-253898D01*
X165100Y-164998D01*
X279400Y-164998D01*
D11*
G01*
X2796031Y2800451D03*
G01*
X2923031Y2800451D03*
G01*
X3050031Y2800451D03*
D12*
G01*
X3177031Y2800451D03*
D11*
G01*
X1231900Y-1294282D03*
G01*
X1104900Y-1294282D03*
G01*
X977900Y-1294282D03*
G01*
X850900Y-1294282D03*
G01*
X723900Y-1294282D03*
G01*
X596900Y-1294282D03*
G01*
X469900Y-1294282D03*
G01*
X342900Y-1294282D03*
G01*
X215900Y-1294282D03*
G01*
X88900Y-1294282D03*
G01*
X-38100Y-1294282D03*
D12*
G01*
X-165100Y-1294282D03*
D11*
G01*
X1358900Y-1294282D03*
G01*
X1485900Y-1294282D03*
G01*
X3200400Y623671D03*
G01*
X3073400Y623671D03*
G01*
X2946400Y623671D03*
D12*
G01*
X2819400Y623671D03*
D13*
G01*
X1041400Y-1687982D03*
G01*
X787400Y-1687982D03*
G01*
X533400Y-1687982D03*
G01*
X279400Y-1687982D03*
D14*
G01*
X1856867Y-3127400D03*
G01*
X1546987Y-3127400D03*
G01*
X1701927Y-3322472D03*
D16*
G01*
X1692147Y2781655D03*
D11*
G01*
X1819147Y2781655D03*
G01*
X1946147Y2781655D03*
G01*
X2073147Y2781655D03*
D16*
G01*
X-383286Y2781655D03*
D11*
G01*
X-510286Y2781655D03*
G01*
X-637286Y2781655D03*
G01*
X-764286Y2781655D03*
D16*
G01*
X-177800Y-439318D03*
D11*
G01*
X-50800Y-439318D03*
G01*
X76200Y-439318D03*
G01*
X203200Y-439318D03*
G01*
X330200Y-439318D03*
G01*
X457200Y-439318D03*
G01*
X584200Y-439318D03*
G01*
X711200Y-439318D03*
G01*
X838200Y-439318D03*
G01*
X965200Y-439318D03*
G01*
X1092200Y-439318D03*
G01*
X1219200Y-439318D03*
G01*
X1346200Y-439318D03*
G01*
X1473200Y-439318D03*
G01*
X-597890Y-1688109D03*
D16*
G01*
X-722884Y-1688084D03*
D11*
G01*
X2119909Y1732381D03*
D16*
G01*
X1994915Y1732381D03*
D11*
G01*
X2119909Y538581D03*
D16*
G01*
X1994915Y538581D03*
D17*
G01*
X787400Y779881D03*
G01*
X-76200Y487781D03*
G01*
X558800Y487781D03*
G01*
X190500Y1524000D03*
G01*
X127000Y1460500D03*
G01*
X12700Y1389481D03*
G01*
X203200Y1325981D03*
G01*
X812800Y1587500D03*
G01*
X723900Y1587500D03*
G01*
X635000Y1587500D03*
G01*
X63500Y487781D03*
G01*
X241300Y487781D03*
G01*
X546100Y1587500D03*
G01*
X457200Y1587500D03*
G01*
X419100Y1668881D03*
G01*
X330200Y1668881D03*
G01*
X342900Y1084681D03*
G01*
X-50800Y-165100D03*
G01*
X368300Y-165100D03*
G01*
X1155700Y1244600D03*
G01*
X1460500Y1054100D03*
G01*
X1092200Y1308100D03*
G01*
X1155700Y1117600D03*
G01*
X1092200Y1054201D03*
G01*
X1308100Y1117701D03*
G01*
X-406400Y1181100D03*
G01*
X-495300Y1181100D03*
G01*
X-508000Y1587500D03*
G01*
X-584200Y1511300D03*
G01*
X-647700Y1435100D03*
G01*
X965200Y-127000D03*
G01*
X838200Y-203200D03*
G01*
X-325729Y180594D03*
G01*
X-198729Y179654D03*
G01*
X-457200Y177800D03*
G01*
X1549400Y-304800D03*
G01*
X1625600Y-368300D03*
G01*
X596900Y177800D03*
G01*
X596900Y114300D03*
G01*
X292100Y177800D03*
G01*
X292100Y114300D03*
G01*
X0Y177800D03*
G01*
X0Y114300D03*
G01*
X596900Y2184400D03*
G01*
X1041400Y2171700D03*
G01*
X-139700Y1930400D03*
G01*
X1701800Y1854200D03*
G01*
X1233322Y1180363D03*
G01*
X1295400Y1981200D03*
G01*
X1206500Y1587500D03*
G01*
X1447800Y2184400D03*
G01*
X1350670Y441883D03*
G01*
X-635000Y12700D03*
G01*
X-279400Y1143000D03*
G01*
X-279400Y1066800D03*
G01*
X-279400Y990600D03*
G01*
X-279400Y914400D03*
G01*
X165100Y990600D03*
G01*
X165100Y1066800D03*
G01*
X165100Y1143000D03*
G01*
X-127000Y1092200D03*
G01*
X-127000Y952500D03*
G01*
X71602Y1095044D03*
G01*
X76200Y952500D03*
G01*
X-25400Y-3102965D03*
G01*
X-25400Y-2880740D03*
G01*
X811758Y-1819833D03*
G01*
X-190500Y-1802384D03*
G01*
X-469900Y-1738884D03*
G01*
X-406400Y-1840484D03*
G01*
X-901700Y-1815084D03*
G01*
X1227709Y-2555519D03*
G01*
X1274698Y-2602534D03*
G01*
X2197100Y-1854631D03*
G01*
X2197100Y-1789861D03*
G01*
X1651000Y-2869184D03*
G01*
X1511300Y-2869184D03*
G01*
X1473200Y-2145284D03*
G01*
X914400Y-2030984D03*
G01*
X2197100Y-2121484D03*
G01*
X558800Y-2361184D03*
G01*
X660400Y-2361184D03*
G01*
X762000Y-2361184D03*
G01*
X558800Y-2259584D03*
G01*
X660400Y-2259584D03*
G01*
X762000Y-2259584D03*
G01*
X762000Y-2170684D03*
G01*
X660400Y-2170684D03*
G01*
X1727200Y-2557678D03*
G01*
X1727200Y-2164689D03*
G01*
X691134Y-2615184D03*
G01*
X317500Y-2234184D03*
G01*
X190500Y-2332304D03*
G01*
X1100048Y-2373223D03*
G01*
X720394Y-1796389D03*
G01*
X127000Y-1903984D03*
G01*
X317500Y-2030984D03*
G01*
X381000Y-1980184D03*
G01*
X660400Y-1853184D03*
G01*
X1625600Y825500D03*
G01*
X1562100Y825500D03*
G01*
X1498600Y825500D03*
G01*
X3268852Y2671775D03*
G01*
X1422400Y1371600D03*
G01*
X1346200Y1371600D03*
G01*
X1346200Y1447800D03*
G01*
X1422400Y1447800D03*
G01*
X381000Y177800D03*
G01*
X381000Y114300D03*
G01*
X279400Y-165100D03*
G01*
X-673100Y469900D03*
G01*
X-673100Y533400D03*
G01*
X-736600Y533400D03*
G01*
X-736600Y469900D03*
G01*
X-749300Y1206500D03*
G01*
X-749300Y1143000D03*
G01*
X-736600Y850900D03*
G01*
X-736600Y787400D03*
G01*
X-812800Y-469900D03*
G01*
X-812800Y-406400D03*
G01*
X-876300Y-406400D03*
G01*
X-876300Y-469900D03*
G01*
X-838200Y2374900D03*
G01*
X-838200Y2438400D03*
G01*
X-901700Y2438400D03*
G01*
X-901700Y2374900D03*
G01*
X2222500Y2590800D03*
G01*
X2222500Y2527300D03*
G01*
X2159000Y2527300D03*
G01*
X2159000Y2590800D03*
G01*
X2247900Y1295400D03*
G01*
X2247900Y1231900D03*
G01*
X2184400Y1231900D03*
G01*
X2184400Y1295400D03*
G01*
X2222500Y-381000D03*
G01*
X2222500Y-317500D03*
G01*
X2159000Y-317500D03*
G01*
X2159000Y-381000D03*
G01*
X787400Y889000D03*
G01*
X787400Y952500D03*
G01*
X1130300Y927100D03*
G01*
X1066800Y927100D03*
G01*
X1689100Y1066800D03*
G01*
X1689100Y1130300D03*
G01*
X914400Y2184400D03*
G01*
X850900Y2184400D03*
G01*
X2108200Y-1041400D03*
G01*
X2108200Y-977900D03*
G01*
X2044700Y-977900D03*
G01*
X2044700Y-1041400D03*
G01*
X-914400Y-1028700D03*
G01*
X-914400Y-965200D03*
G01*
X-850900Y-965200D03*
G01*
X-850900Y-1028700D03*
G01*
X-736600Y-2971800D03*
G01*
X-736600Y-2908300D03*
G01*
X-800100Y-2908300D03*
G01*
X-800100Y-2971800D03*
G01*
X2209800Y-2908300D03*
G01*
X2209800Y-2844800D03*
G01*
X2146300Y-2844800D03*
G01*
X2146300Y-2908300D03*
G01*
X1130300Y-2679700D03*
G01*
X1130300Y-2616200D03*
G01*
X1066800Y-2616200D03*
G01*
X1066800Y-2679700D03*
G01*
X1397000Y-1536700D03*
G01*
X1397000Y-1473200D03*
G01*
X1333500Y-1473200D03*
G01*
X1333500Y-1536700D03*
G01*
X-266700Y-1638300D03*
G01*
X-266700Y-1574800D03*
G01*
X-330200Y-1574800D03*
G01*
X-330200Y-1638300D03*
G01*
X571500Y-1409700D03*
G01*
X1460500Y-2349500D03*
G01*
X1460500Y-2286000D03*
G01*
X368300Y-3175000D03*
G01*
X368300Y-3111500D03*
G01*
X431800Y-3175000D03*
G01*
X431800Y-3111500D03*
G01*
X914400Y-3175000D03*
G01*
X914400Y-3111500D03*
G01*
X977900Y-3175000D03*
G01*
X977900Y-3111500D03*
G01*
X177800Y-2692400D03*
G01*
X241300Y-2692400D03*
G01*
X-101600Y-2806700D03*
G01*
X-101600Y-2743200D03*
G01*
X-355600Y-2235200D03*
G01*
X-355600Y-2171700D03*
G01*
X-419100Y-2171700D03*
G01*
X-419100Y-2235200D03*
G01*
X1498600Y-2730500D03*
G01*
X1435100Y-2730500D03*
G01*
X203200Y2222500D03*
G01*
X914400Y2044700D03*
G01*
X977900Y2044700D03*
G01*
X3086100Y927100D03*
G01*
X3086100Y990600D03*
G01*
X3022600Y990600D03*
G01*
X3022600Y927100D03*
G01*
X2692400Y1943100D03*
G01*
X2692400Y2006600D03*
G01*
X2628900Y2006600D03*
G01*
X2628900Y1943100D03*
G01*
X241300Y787400D03*
G01*
X787400Y1041400D03*
G01*
X1397000Y927201D03*
G01*
X2006600Y1473200D03*
G01*
X1943811Y1473200D03*
G01*
X1981200Y-368198D03*
G01*
X1980742Y-306781D03*
G01*
X1625600Y70485D03*
G01*
X1625600Y139700D03*
G01*
X-508000Y12700D03*
G01*
X-707237Y145313D03*
G01*
X-706983Y208813D03*
G01*
X-706754Y272313D03*
M02*
