G04 Layer: TopSilkscreenLayer*
G04 EasyEDA v6.5.51, 2026-03-31 14:52:47*
G04 c52bac0a0f6b4f269256ffdab479d323,9ef13e28356e43f28898171320600188,10*
G04 Gerber Generator version 0.2*
G04 Scale: 100 percent, Rotated: No, Reflected: No *
G04 Dimensions in millimeters *
G04 leading zeros omitted , absolute positions ,4 integer and 5 decimal *
%FSLAX45Y45*%
%MOMM*%

%ADD10C,0.1524*%
%ADD11C,0.2540*%
%ADD12C,0.1000*%
%ADD13C,0.0800*%
%ADD14C,0.2000*%
%ADD15C,0.1500*%
%ADD16C,0.3000*%
%ADD17C,0.0148*%
%ADD18C,0.1520*%

%LPD*%
D10*
X1903115Y1016002D02*
G01*
X1988967Y1016002D01*
X1903115Y1016002D02*
G01*
X1988967Y1048768D01*
X1903115Y1081534D02*
G01*
X1988967Y1048768D01*
X1903115Y1081534D02*
G01*
X1988967Y1081534D01*
X1952137Y1108458D02*
G01*
X1952137Y1182118D01*
X2106312Y1016002D02*
G01*
X2192164Y1016002D01*
X2106312Y1016002D02*
G01*
X2192164Y1048768D01*
X2106312Y1081534D02*
G01*
X2192164Y1048768D01*
X2106312Y1081534D02*
G01*
X2192164Y1081534D01*
X2118504Y1145288D02*
G01*
X2192164Y1145288D01*
X2155334Y1108458D02*
G01*
X2155334Y1182118D01*
X2131204Y2279650D02*
G01*
X2123076Y2271522D01*
X2119012Y2259330D01*
X2119012Y2243074D01*
X2123076Y2230628D01*
X2131204Y2222500D01*
X2139332Y2222500D01*
X2147714Y2226564D01*
X2151778Y2230628D01*
X2155842Y2238756D01*
X2163970Y2263394D01*
X2168034Y2271522D01*
X2172098Y2275586D01*
X2180226Y2279650D01*
X2192672Y2279650D01*
X2200800Y2271522D01*
X2204864Y2259330D01*
X2204864Y2243074D01*
X2200800Y2230628D01*
X2192672Y2222500D01*
X2119012Y2306828D02*
G01*
X2204864Y2306828D01*
X2119012Y2306828D02*
G01*
X2119012Y2343657D01*
X2123076Y2355850D01*
X2127140Y2359914D01*
X2135268Y2363978D01*
X2147714Y2363978D01*
X2155842Y2359914D01*
X2159906Y2355850D01*
X2163970Y2343657D01*
X2163970Y2306828D01*
X2131204Y2427732D02*
G01*
X2204864Y2427732D01*
X2168034Y2391156D02*
G01*
X2168034Y2464562D01*
X1928004Y2279650D02*
G01*
X1919876Y2271522D01*
X1915812Y2259330D01*
X1915812Y2243074D01*
X1919876Y2230628D01*
X1928004Y2222500D01*
X1936132Y2222500D01*
X1944514Y2226564D01*
X1948578Y2230628D01*
X1952642Y2238756D01*
X1960770Y2263394D01*
X1964834Y2271522D01*
X1968898Y2275586D01*
X1977026Y2279650D01*
X1989472Y2279650D01*
X1997600Y2271522D01*
X2001664Y2259330D01*
X2001664Y2243074D01*
X1997600Y2230628D01*
X1989472Y2222500D01*
X1915812Y2306828D02*
G01*
X2001664Y2306828D01*
X1915812Y2306828D02*
G01*
X1915812Y2343657D01*
X1919876Y2355850D01*
X1923940Y2359914D01*
X1932068Y2363978D01*
X1944514Y2363978D01*
X1952642Y2359914D01*
X1956706Y2355850D01*
X1960770Y2343657D01*
X1960770Y2306828D01*
X1964834Y2391156D02*
G01*
X1964834Y2464562D01*
X1625600Y2643479D02*
G01*
X1625600Y2582265D01*
X1629663Y2569819D01*
X1637792Y2561691D01*
X1650237Y2557627D01*
X1658365Y2557627D01*
X1670557Y2561691D01*
X1678686Y2569819D01*
X1682750Y2582265D01*
X1682750Y2643479D01*
X1709928Y2643479D02*
G01*
X1709928Y2557627D01*
X1709928Y2643479D02*
G01*
X1746757Y2643479D01*
X1758950Y2639415D01*
X1763013Y2635351D01*
X1767078Y2627223D01*
X1767078Y2618841D01*
X1763013Y2610713D01*
X1758950Y2606649D01*
X1746757Y2602585D01*
X1709928Y2602585D02*
G01*
X1746757Y2602585D01*
X1758950Y2598521D01*
X1763013Y2594457D01*
X1767078Y2586329D01*
X1767078Y2573883D01*
X1763013Y2565755D01*
X1758950Y2561691D01*
X1746757Y2557627D01*
X1709928Y2557627D01*
X2614310Y622302D02*
G01*
X2675524Y622302D01*
X2687970Y626366D01*
X2696098Y634494D01*
X2700162Y646938D01*
X2700162Y655068D01*
X2696098Y667260D01*
X2687970Y675388D01*
X2675524Y679452D01*
X2614310Y679452D01*
X2614310Y706630D02*
G01*
X2700162Y706630D01*
X2614310Y706630D02*
G01*
X2614310Y743460D01*
X2618374Y755652D01*
X2622438Y759716D01*
X2630566Y763780D01*
X2638948Y763780D01*
X2647076Y759716D01*
X2651140Y755652D01*
X2655204Y743460D01*
X2655204Y706630D02*
G01*
X2655204Y743460D01*
X2659268Y755652D01*
X2663332Y759716D01*
X2671460Y763780D01*
X2683906Y763780D01*
X2692034Y759716D01*
X2696098Y755652D01*
X2700162Y743460D01*
X2700162Y706630D01*
X2601612Y2641602D02*
G01*
X2687464Y2641602D01*
X2601612Y2641602D02*
G01*
X2687464Y2674368D01*
X2601612Y2707134D02*
G01*
X2687464Y2674368D01*
X2601612Y2707134D02*
G01*
X2687464Y2707134D01*
X2601612Y2734058D02*
G01*
X2687464Y2734058D01*
X2621932Y2822450D02*
G01*
X2613804Y2818386D01*
X2605676Y2810258D01*
X2601612Y2801876D01*
X2601612Y2785620D01*
X2605676Y2777492D01*
X2613804Y2769110D01*
X2621932Y2765046D01*
X2634378Y2760982D01*
X2654698Y2760982D01*
X2667144Y2765046D01*
X2675272Y2769110D01*
X2683400Y2777492D01*
X2687464Y2785620D01*
X2687464Y2801876D01*
X2683400Y2810258D01*
X2675272Y2818386D01*
X2667144Y2822450D01*
X-495292Y2643474D02*
G01*
X-495292Y2557622D01*
X-495292Y2643474D02*
G01*
X-462526Y2557622D01*
X-429760Y2643474D02*
G01*
X-462526Y2557622D01*
X-429760Y2643474D02*
G01*
X-429760Y2557622D01*
X-402836Y2643474D02*
G01*
X-402836Y2557622D01*
X-314444Y2623154D02*
G01*
X-318508Y2631282D01*
X-326636Y2639410D01*
X-335018Y2643474D01*
X-351274Y2643474D01*
X-359402Y2639410D01*
X-367784Y2631282D01*
X-371848Y2623154D01*
X-375912Y2610708D01*
X-375912Y2590388D01*
X-371848Y2577942D01*
X-367784Y2569814D01*
X-359402Y2561686D01*
X-351274Y2557622D01*
X-335018Y2557622D01*
X-326636Y2561686D01*
X-318508Y2569814D01*
X-314444Y2577942D01*
X-598777Y-1219200D02*
G01*
X-512925Y-1219200D01*
X-598777Y-1219200D02*
G01*
X-598777Y-1182369D01*
X-594713Y-1170177D01*
X-590649Y-1166113D01*
X-582521Y-1162050D01*
X-574393Y-1162050D01*
X-566011Y-1166113D01*
X-561947Y-1170177D01*
X-557883Y-1182369D01*
X-557883Y-1219200D02*
G01*
X-557883Y-1182369D01*
X-553819Y-1170177D01*
X-549755Y-1166113D01*
X-541627Y-1162050D01*
X-529181Y-1162050D01*
X-521053Y-1166113D01*
X-516989Y-1170177D01*
X-512925Y-1182369D01*
X-512925Y-1219200D01*
X-598777Y-1106169D02*
G01*
X-512925Y-1106169D01*
X-598777Y-1134871D02*
G01*
X-598777Y-1077721D01*
X-586585Y-1013713D02*
G01*
X-512925Y-1013713D01*
X-549755Y-1050543D02*
G01*
X-549755Y-977137D01*
X-801974Y-1219200D02*
G01*
X-716122Y-1219200D01*
X-801974Y-1219200D02*
G01*
X-801974Y-1182369D01*
X-797910Y-1170177D01*
X-793846Y-1166113D01*
X-785718Y-1162050D01*
X-777590Y-1162050D01*
X-769208Y-1166113D01*
X-765144Y-1170177D01*
X-761080Y-1182369D01*
X-761080Y-1219200D02*
G01*
X-761080Y-1182369D01*
X-757016Y-1170177D01*
X-752952Y-1166113D01*
X-744824Y-1162050D01*
X-732378Y-1162050D01*
X-724250Y-1166113D01*
X-720186Y-1170177D01*
X-716122Y-1182369D01*
X-716122Y-1219200D01*
X-801974Y-1106169D02*
G01*
X-716122Y-1106169D01*
X-801974Y-1134871D02*
G01*
X-801974Y-1077721D01*
X-752952Y-1050543D02*
G01*
X-752952Y-977137D01*
X1534413Y-2341778D02*
G01*
X1530095Y-2333396D01*
X1521968Y-2325268D01*
X1513839Y-2321204D01*
X1497584Y-2321204D01*
X1489202Y-2325268D01*
X1481073Y-2333396D01*
X1477010Y-2341778D01*
X1472945Y-2353970D01*
X1472945Y-2374290D01*
X1477010Y-2386736D01*
X1481073Y-2394864D01*
X1489202Y-2402992D01*
X1497584Y-2407056D01*
X1513839Y-2407056D01*
X1521968Y-2402992D01*
X1530095Y-2394864D01*
X1534413Y-2386736D01*
X1618487Y-2321204D02*
G01*
X1577594Y-2407056D01*
X1561337Y-2321204D02*
G01*
X1618487Y-2321204D01*
X1521460Y-2773578D02*
G01*
X1517395Y-2765196D01*
X1509268Y-2757068D01*
X1501139Y-2753004D01*
X1484884Y-2753004D01*
X1476502Y-2757068D01*
X1468373Y-2765196D01*
X1464310Y-2773578D01*
X1460245Y-2785770D01*
X1460245Y-2806090D01*
X1464310Y-2818536D01*
X1468373Y-2826664D01*
X1476502Y-2834792D01*
X1484884Y-2838856D01*
X1501139Y-2838856D01*
X1509268Y-2834792D01*
X1517395Y-2826664D01*
X1521460Y-2818536D01*
X1568957Y-2753004D02*
G01*
X1556765Y-2757068D01*
X1552702Y-2765196D01*
X1552702Y-2773578D01*
X1556765Y-2781706D01*
X1564894Y-2785770D01*
X1581404Y-2789834D01*
X1593595Y-2793898D01*
X1601723Y-2802026D01*
X1605787Y-2810408D01*
X1605787Y-2822600D01*
X1601723Y-2830728D01*
X1597660Y-2834792D01*
X1585468Y-2838856D01*
X1568957Y-2838856D01*
X1556765Y-2834792D01*
X1552702Y-2830728D01*
X1548637Y-2822600D01*
X1548637Y-2810408D01*
X1552702Y-2802026D01*
X1560829Y-2793898D01*
X1573021Y-2789834D01*
X1589531Y-2785770D01*
X1597660Y-2781706D01*
X1601723Y-2773578D01*
X1601723Y-2765196D01*
X1597660Y-2757068D01*
X1585468Y-2753004D01*
X1568957Y-2753004D01*
X449630Y-2977540D02*
G01*
X441502Y-2981604D01*
X433120Y-2989986D01*
X429056Y-2998114D01*
X429056Y-3014370D01*
X433120Y-3022498D01*
X441502Y-3030880D01*
X449630Y-3034944D01*
X461822Y-3039008D01*
X482396Y-3039008D01*
X494588Y-3034944D01*
X502716Y-3030880D01*
X510844Y-3022498D01*
X515162Y-3014370D01*
X515162Y-2998114D01*
X510844Y-2989986D01*
X502716Y-2981604D01*
X494588Y-2977540D01*
X457758Y-2897530D02*
G01*
X469950Y-2901594D01*
X478332Y-2909722D01*
X482396Y-2921914D01*
X482396Y-2925978D01*
X478332Y-2938424D01*
X469950Y-2946552D01*
X457758Y-2950616D01*
X453694Y-2950616D01*
X441502Y-2946552D01*
X433120Y-2938424D01*
X429056Y-2925978D01*
X429056Y-2921914D01*
X433120Y-2909722D01*
X441502Y-2901594D01*
X457758Y-2897530D01*
X478332Y-2897530D01*
X498652Y-2901594D01*
X510844Y-2909722D01*
X515162Y-2921914D01*
X515162Y-2930042D01*
X510844Y-2942488D01*
X502716Y-2946552D01*
X1521713Y-2202078D02*
G01*
X1517395Y-2193696D01*
X1509268Y-2185568D01*
X1501139Y-2181504D01*
X1484884Y-2181504D01*
X1476502Y-2185568D01*
X1468373Y-2193696D01*
X1464310Y-2202078D01*
X1460245Y-2214270D01*
X1460245Y-2234590D01*
X1464310Y-2247036D01*
X1468373Y-2255164D01*
X1476502Y-2263292D01*
X1484884Y-2267356D01*
X1501139Y-2267356D01*
X1509268Y-2263292D01*
X1517395Y-2255164D01*
X1521713Y-2247036D01*
X1548637Y-2197760D02*
G01*
X1556765Y-2193696D01*
X1568957Y-2181504D01*
X1568957Y-2267356D01*
X1620520Y-2181504D02*
G01*
X1608328Y-2185568D01*
X1600200Y-2197760D01*
X1596136Y-2218334D01*
X1596136Y-2230526D01*
X1600200Y-2251100D01*
X1608328Y-2263292D01*
X1620520Y-2267356D01*
X1628902Y-2267356D01*
X1641094Y-2263292D01*
X1649221Y-2251100D01*
X1653286Y-2230526D01*
X1653286Y-2218334D01*
X1649221Y-2197760D01*
X1641094Y-2185568D01*
X1628902Y-2181504D01*
X1620520Y-2181504D01*
X741146Y-3020542D02*
G01*
X732764Y-3024606D01*
X724636Y-3032734D01*
X720572Y-3040862D01*
X720572Y-3057372D01*
X724636Y-3065500D01*
X732764Y-3073628D01*
X741146Y-3077692D01*
X753338Y-3081756D01*
X773912Y-3081756D01*
X786104Y-3077692D01*
X794232Y-3073628D01*
X802360Y-3065500D01*
X806424Y-3057372D01*
X806424Y-3040862D01*
X802360Y-3032734D01*
X794232Y-3024606D01*
X786104Y-3020542D01*
X737082Y-2993618D02*
G01*
X732764Y-2985236D01*
X720572Y-2973044D01*
X806424Y-2973044D01*
X737082Y-2946120D02*
G01*
X732764Y-2937738D01*
X720572Y-2925546D01*
X806424Y-2925546D01*
X1521713Y-1770278D02*
G01*
X1517395Y-1761896D01*
X1509268Y-1753768D01*
X1501139Y-1749704D01*
X1484884Y-1749704D01*
X1476502Y-1753768D01*
X1468373Y-1761896D01*
X1464310Y-1770278D01*
X1460245Y-1782470D01*
X1460245Y-1802790D01*
X1464310Y-1815236D01*
X1468373Y-1823364D01*
X1476502Y-1831492D01*
X1484884Y-1835556D01*
X1501139Y-1835556D01*
X1509268Y-1831492D01*
X1517395Y-1823364D01*
X1521713Y-1815236D01*
X1548637Y-1765960D02*
G01*
X1556765Y-1761896D01*
X1568957Y-1749704D01*
X1568957Y-1835556D01*
X1600200Y-1770278D02*
G01*
X1600200Y-1765960D01*
X1604263Y-1757832D01*
X1608328Y-1753768D01*
X1616455Y-1749704D01*
X1632965Y-1749704D01*
X1641094Y-1753768D01*
X1645157Y-1757832D01*
X1649221Y-1765960D01*
X1649221Y-1774342D01*
X1645157Y-1782470D01*
X1637029Y-1794662D01*
X1596136Y-1835556D01*
X1653286Y-1835556D01*
X-306831Y-2494940D02*
G01*
X-311150Y-2486812D01*
X-319278Y-2478684D01*
X-327405Y-2474620D01*
X-343662Y-2474620D01*
X-352044Y-2478684D01*
X-360171Y-2486812D01*
X-364236Y-2494940D01*
X-368300Y-2507386D01*
X-368300Y-2527706D01*
X-364236Y-2540152D01*
X-360171Y-2548280D01*
X-352044Y-2556408D01*
X-343662Y-2560472D01*
X-327405Y-2560472D01*
X-319278Y-2556408D01*
X-311150Y-2548280D01*
X-306831Y-2540152D01*
X-279907Y-2490876D02*
G01*
X-271779Y-2486812D01*
X-259587Y-2474620D01*
X-259587Y-2560472D01*
X-224281Y-2474620D02*
G01*
X-179323Y-2474620D01*
X-203962Y-2507386D01*
X-191515Y-2507386D01*
X-183387Y-2511450D01*
X-179323Y-2515514D01*
X-175260Y-2527706D01*
X-175260Y-2535834D01*
X-179323Y-2548280D01*
X-187452Y-2556408D01*
X-199644Y-2560472D01*
X-212089Y-2560472D01*
X-224281Y-2556408D01*
X-228345Y-2552344D01*
X-232410Y-2544216D01*
X1473200Y2821279D02*
G01*
X1473200Y2735427D01*
X1530350Y2821279D02*
G01*
X1530350Y2735427D01*
X1473200Y2780385D02*
G01*
X1530350Y2780385D01*
X1561592Y2800959D02*
G01*
X1561592Y2805023D01*
X1565655Y2813151D01*
X1569720Y2817215D01*
X1577847Y2821279D01*
X1594357Y2821279D01*
X1602486Y2817215D01*
X1606550Y2813151D01*
X1610613Y2805023D01*
X1610613Y2796895D01*
X1606550Y2788513D01*
X1598421Y2776321D01*
X1557528Y2735427D01*
X1614678Y2735427D01*
X-279400Y2821279D02*
G01*
X-279400Y2735427D01*
X-222250Y2821279D02*
G01*
X-222250Y2735427D01*
X-279400Y2780385D02*
G01*
X-222250Y2780385D01*
X-186944Y2821279D02*
G01*
X-141986Y2821279D01*
X-166370Y2788513D01*
X-154178Y2788513D01*
X-146050Y2784449D01*
X-141986Y2780385D01*
X-137921Y2768193D01*
X-137921Y2760065D01*
X-141986Y2747619D01*
X-150113Y2739491D01*
X-162305Y2735427D01*
X-174752Y2735427D01*
X-186944Y2739491D01*
X-191007Y2743555D01*
X-195071Y2751683D01*
X850900Y-1876704D02*
G01*
X850900Y-1962556D01*
X850900Y-1876704D02*
G01*
X887729Y-1876704D01*
X899921Y-1880768D01*
X903986Y-1884832D01*
X908050Y-1892960D01*
X908050Y-1901088D01*
X903986Y-1909470D01*
X899921Y-1913534D01*
X887729Y-1917598D01*
X850900Y-1917598D01*
X879602Y-1917598D02*
G01*
X908050Y-1962556D01*
X976121Y-1876704D02*
G01*
X935228Y-1933854D01*
X996442Y-1933854D01*
X976121Y-1876704D02*
G01*
X976121Y-1962556D01*
X-471931Y-304800D02*
G01*
X-385826Y-304800D01*
X-471931Y-304800D02*
G01*
X-471931Y-267969D01*
X-467613Y-255777D01*
X-463550Y-251713D01*
X-455421Y-247650D01*
X-447294Y-247650D01*
X-439165Y-251713D01*
X-435102Y-255777D01*
X-430784Y-267969D01*
X-430784Y-304800D01*
X-430784Y-276097D02*
G01*
X-385826Y-247650D01*
X-455421Y-220471D02*
G01*
X-459486Y-212343D01*
X-471931Y-200151D01*
X-385826Y-200151D01*
X-471931Y-148589D02*
G01*
X-467613Y-160781D01*
X-455421Y-168909D01*
X-435102Y-172973D01*
X-422655Y-172973D01*
X-402336Y-168909D01*
X-389889Y-160781D01*
X-385826Y-148589D01*
X-385826Y-140461D01*
X-389889Y-128015D01*
X-402336Y-119887D01*
X-422655Y-115823D01*
X-435102Y-115823D01*
X-455421Y-119887D01*
X-467613Y-128015D01*
X-471931Y-140461D01*
X-471931Y-148589D01*
X1382268Y1783181D02*
G01*
X1468373Y1783181D01*
X1382268Y1783181D02*
G01*
X1382268Y1820011D01*
X1386586Y1832203D01*
X1390650Y1836267D01*
X1398778Y1840331D01*
X1406905Y1840331D01*
X1415034Y1836267D01*
X1419097Y1832203D01*
X1423415Y1820011D01*
X1423415Y1783181D02*
G01*
X1423415Y1820011D01*
X1427479Y1832203D01*
X1431544Y1836267D01*
X1439671Y1840331D01*
X1451863Y1840331D01*
X1459992Y1836267D01*
X1464310Y1832203D01*
X1468373Y1820011D01*
X1468373Y1783181D01*
X1382268Y1891893D02*
G01*
X1386586Y1883765D01*
X1394713Y1875637D01*
X1402842Y1871573D01*
X1415034Y1867509D01*
X1435607Y1867509D01*
X1447800Y1871573D01*
X1455928Y1875637D01*
X1464310Y1883765D01*
X1468373Y1891893D01*
X1468373Y1908403D01*
X1464310Y1916531D01*
X1455928Y1924659D01*
X1447800Y1928723D01*
X1435607Y1932787D01*
X1415034Y1932787D01*
X1402842Y1928723D01*
X1394713Y1924659D01*
X1386586Y1916531D01*
X1382268Y1908403D01*
X1382268Y1891893D01*
X1382268Y1984349D02*
G01*
X1386586Y1976221D01*
X1394713Y1968093D01*
X1402842Y1964029D01*
X1415034Y1959965D01*
X1435607Y1959965D01*
X1447800Y1964029D01*
X1455928Y1968093D01*
X1464310Y1976221D01*
X1468373Y1984349D01*
X1468373Y2000859D01*
X1464310Y2008987D01*
X1455928Y2017115D01*
X1447800Y2021179D01*
X1435607Y2025243D01*
X1415034Y2025243D01*
X1402842Y2021179D01*
X1394713Y2017115D01*
X1386586Y2008987D01*
X1382268Y2000859D01*
X1382268Y1984349D01*
X1382268Y2081123D02*
G01*
X1468373Y2081123D01*
X1382268Y2052421D02*
G01*
X1382268Y2109571D01*
X2949600Y1010767D02*
G01*
X2957728Y1002639D01*
X2969920Y998321D01*
X2986430Y998321D01*
X2998622Y1002639D01*
X3006750Y1010767D01*
X3006750Y1018895D01*
X3002686Y1027023D01*
X2998622Y1031087D01*
X2990494Y1035151D01*
X2965856Y1043533D01*
X2957728Y1047597D01*
X2953664Y1051661D01*
X2949600Y1059789D01*
X2949600Y1071981D01*
X2957728Y1080363D01*
X2969920Y1084427D01*
X2986430Y1084427D01*
X2998622Y1080363D01*
X3006750Y1071981D01*
X2922422Y998321D02*
G01*
X2902102Y1084427D01*
X2881528Y998321D02*
G01*
X2902102Y1084427D01*
X2881528Y998321D02*
G01*
X2861208Y1084427D01*
X2840634Y998321D02*
G01*
X2861208Y1084427D01*
X2772816Y998321D02*
G01*
X2813710Y1055725D01*
X2752242Y1055725D01*
X2772816Y998321D02*
G01*
X2772816Y1084427D01*
X2184392Y-2195169D02*
G01*
X2184392Y-2256533D01*
X2188484Y-2268806D01*
X2196665Y-2276988D01*
X2208938Y-2281077D01*
X2217120Y-2281077D01*
X2229391Y-2276988D01*
X2237574Y-2268806D01*
X2241664Y-2256533D01*
X2241664Y-2195169D01*
X2325936Y-2195169D02*
G01*
X2285029Y-2281077D01*
X2268664Y-2195169D02*
G01*
X2325936Y-2195169D01*
X1990768Y-2436505D02*
G01*
X1990768Y-2522413D01*
X1990768Y-2436505D02*
G01*
X2027585Y-2436505D01*
X2039858Y-2440594D01*
X2043950Y-2444686D01*
X2048040Y-2452867D01*
X2048040Y-2461049D01*
X2043950Y-2469233D01*
X2039858Y-2473322D01*
X2027585Y-2477414D01*
X1990768Y-2477414D01*
X2019404Y-2477414D02*
G01*
X2048040Y-2522413D01*
X2075040Y-2452867D02*
G01*
X2083221Y-2448778D01*
X2095494Y-2436505D01*
X2095494Y-2522413D01*
X2175677Y-2465141D02*
G01*
X2171585Y-2477414D01*
X2163404Y-2485595D01*
X2151131Y-2489687D01*
X2147041Y-2489687D01*
X2134768Y-2485595D01*
X2126587Y-2477414D01*
X2122495Y-2465141D01*
X2122495Y-2461049D01*
X2126587Y-2448778D01*
X2134768Y-2440594D01*
X2147041Y-2436505D01*
X2151131Y-2436505D01*
X2163404Y-2440594D01*
X2171585Y-2448778D01*
X2175677Y-2465141D01*
X2175677Y-2485595D01*
X2171585Y-2506050D01*
X2163404Y-2518323D01*
X2151131Y-2522413D01*
X2142949Y-2522413D01*
X2130676Y-2518323D01*
X2126587Y-2510142D01*
X2070092Y-1343284D02*
G01*
X2070092Y-1429191D01*
X2070092Y-1429191D02*
G01*
X2119182Y-1429191D01*
X2187092Y-1343284D02*
G01*
X2146183Y-1400555D01*
X2207547Y-1400555D01*
X2187092Y-1343284D02*
G01*
X2187092Y-1429191D01*
X1774868Y-2436505D02*
G01*
X1774868Y-2522413D01*
X1774868Y-2436505D02*
G01*
X1811685Y-2436505D01*
X1823958Y-2440594D01*
X1828050Y-2444686D01*
X1832140Y-2452867D01*
X1832140Y-2461049D01*
X1828050Y-2469233D01*
X1823958Y-2473322D01*
X1811685Y-2477414D01*
X1774868Y-2477414D01*
X1803504Y-2477414D02*
G01*
X1832140Y-2522413D01*
X1859140Y-2452867D02*
G01*
X1867321Y-2448778D01*
X1879594Y-2436505D01*
X1879594Y-2522413D01*
X1927049Y-2436505D02*
G01*
X1914776Y-2440594D01*
X1910687Y-2448778D01*
X1910687Y-2456959D01*
X1914776Y-2465141D01*
X1922957Y-2469233D01*
X1939323Y-2473322D01*
X1951596Y-2477414D01*
X1959777Y-2485595D01*
X1963867Y-2493777D01*
X1963867Y-2506050D01*
X1959777Y-2514231D01*
X1955685Y-2518323D01*
X1943412Y-2522413D01*
X1927049Y-2522413D01*
X1914776Y-2518323D01*
X1910687Y-2514231D01*
X1906595Y-2506050D01*
X1906595Y-2493777D01*
X1910687Y-2485595D01*
X1918868Y-2477414D01*
X1931141Y-2473322D01*
X1947504Y-2469233D01*
X1955685Y-2465141D01*
X1959777Y-2456959D01*
X1959777Y-2448778D01*
X1955685Y-2440594D01*
X1943412Y-2436505D01*
X1927049Y-2436505D01*
X3160478Y1947738D02*
G01*
X3160478Y1886270D01*
X3164542Y1874078D01*
X3172670Y1865696D01*
X3185116Y1861632D01*
X3193244Y1861632D01*
X3205436Y1865696D01*
X3213564Y1874078D01*
X3217882Y1886270D01*
X3217882Y1947738D01*
X3293828Y1947738D02*
G01*
X3252934Y1947738D01*
X3248870Y1910908D01*
X3252934Y1914972D01*
X3265126Y1919036D01*
X3277572Y1919036D01*
X3289764Y1914972D01*
X3297892Y1906590D01*
X3301956Y1894398D01*
X3301956Y1886270D01*
X3297892Y1874078D01*
X3289764Y1865696D01*
X3277572Y1861632D01*
X3265126Y1861632D01*
X3252934Y1865696D01*
X3248870Y1870014D01*
X3244806Y1878142D01*
X3331867Y2139985D02*
G01*
X3323739Y2135921D01*
X3315611Y2127539D01*
X3311293Y2119411D01*
X3311293Y2103155D01*
X3315611Y2095027D01*
X3323739Y2086645D01*
X3331867Y2082581D01*
X3344059Y2078517D01*
X3364633Y2078517D01*
X3376825Y2082581D01*
X3384953Y2086645D01*
X3393335Y2095027D01*
X3397399Y2103155D01*
X3397399Y2119411D01*
X3393335Y2127539D01*
X3384953Y2135921D01*
X3376825Y2139985D01*
X3311293Y2175037D02*
G01*
X3311293Y2219995D01*
X3344059Y2195611D01*
X3344059Y2207803D01*
X3348123Y2215931D01*
X3352441Y2219995D01*
X3364633Y2224059D01*
X3372761Y2224059D01*
X3384953Y2219995D01*
X3393335Y2211867D01*
X3397399Y2199675D01*
X3397399Y2187483D01*
X3393335Y2175037D01*
X3389017Y2170973D01*
X3380889Y2166909D01*
X3331867Y2255301D02*
G01*
X3327803Y2255301D01*
X3319675Y2259365D01*
X3315611Y2263429D01*
X3311293Y2271557D01*
X3311293Y2288067D01*
X3315611Y2296195D01*
X3319675Y2300259D01*
X3327803Y2304323D01*
X3335931Y2304323D01*
X3344059Y2300259D01*
X3356505Y2292131D01*
X3397399Y2251237D01*
X3397399Y2308387D01*
X3298134Y897983D02*
G01*
X3302452Y889855D01*
X3310580Y881727D01*
X3318708Y877409D01*
X3334964Y877409D01*
X3343346Y881727D01*
X3351474Y889855D01*
X3355538Y897983D01*
X3359602Y910175D01*
X3359602Y930749D01*
X3355538Y942941D01*
X3351474Y951069D01*
X3343346Y959451D01*
X3334964Y963515D01*
X3318708Y963515D01*
X3310580Y959451D01*
X3302452Y951069D01*
X3298134Y942941D01*
X3267146Y897983D02*
G01*
X3267146Y893919D01*
X3263082Y885791D01*
X3259018Y881727D01*
X3250890Y877409D01*
X3234380Y877409D01*
X3226252Y881727D01*
X3222188Y885791D01*
X3218124Y893919D01*
X3218124Y902047D01*
X3222188Y910175D01*
X3230316Y922621D01*
X3271210Y963515D01*
X3214060Y963515D01*
X3129732Y877409D02*
G01*
X3170626Y963515D01*
X3186882Y877409D02*
G01*
X3129732Y877409D01*
X640854Y-1457439D02*
G01*
X632726Y-1461757D01*
X624344Y-1469885D01*
X620280Y-1478013D01*
X620280Y-1494269D01*
X624344Y-1502651D01*
X632726Y-1510779D01*
X640854Y-1514843D01*
X653046Y-1518907D01*
X673620Y-1518907D01*
X685812Y-1514843D01*
X693940Y-1510779D01*
X702068Y-1502651D01*
X706386Y-1494269D01*
X706386Y-1478013D01*
X702068Y-1469885D01*
X693940Y-1461757D01*
X685812Y-1457439D01*
X620280Y-1422387D02*
G01*
X620280Y-1377429D01*
X653046Y-1401813D01*
X653046Y-1389621D01*
X657110Y-1381493D01*
X661174Y-1377429D01*
X673620Y-1373365D01*
X681748Y-1373365D01*
X693940Y-1377429D01*
X702068Y-1385557D01*
X706386Y-1397749D01*
X706386Y-1410195D01*
X702068Y-1422387D01*
X698004Y-1426451D01*
X689876Y-1430515D01*
X386834Y-1448821D02*
G01*
X378706Y-1453139D01*
X370578Y-1461267D01*
X366260Y-1469395D01*
X366260Y-1485651D01*
X370578Y-1494033D01*
X378706Y-1502161D01*
X386834Y-1506225D01*
X399026Y-1510289D01*
X419600Y-1510289D01*
X431792Y-1506225D01*
X439920Y-1502161D01*
X448302Y-1494033D01*
X452366Y-1485651D01*
X452366Y-1469395D01*
X448302Y-1461267D01*
X439920Y-1453139D01*
X431792Y-1448821D01*
X386834Y-1417833D02*
G01*
X382770Y-1417833D01*
X374642Y-1413769D01*
X370578Y-1409705D01*
X366260Y-1401577D01*
X366260Y-1385067D01*
X370578Y-1376939D01*
X374642Y-1372875D01*
X382770Y-1368811D01*
X390898Y-1368811D01*
X399026Y-1372875D01*
X411472Y-1381003D01*
X452366Y-1421897D01*
X452366Y-1364747D01*
X296926Y-1194574D02*
G01*
X383031Y-1194574D01*
X296926Y-1194574D02*
G01*
X296926Y-1157744D01*
X301244Y-1145552D01*
X305307Y-1141488D01*
X313436Y-1137424D01*
X321563Y-1137424D01*
X329692Y-1141488D01*
X333755Y-1145552D01*
X338073Y-1157744D01*
X338073Y-1194574D01*
X338073Y-1165872D02*
G01*
X383031Y-1137424D01*
X296926Y-1061224D02*
G01*
X296926Y-1102118D01*
X333755Y-1106182D01*
X329692Y-1102118D01*
X325628Y-1089926D01*
X325628Y-1077480D01*
X329692Y-1065288D01*
X338073Y-1057160D01*
X350265Y-1053096D01*
X358394Y-1053096D01*
X370586Y-1057160D01*
X378968Y-1065288D01*
X383031Y-1077480D01*
X383031Y-1089926D01*
X378968Y-1102118D01*
X374650Y-1106182D01*
X366521Y-1110246D01*
X-972057Y-1716768D02*
G01*
X-980186Y-1720832D01*
X-988313Y-1728960D01*
X-992631Y-1737088D01*
X-992631Y-1753344D01*
X-988313Y-1761726D01*
X-980186Y-1769854D01*
X-972057Y-1773918D01*
X-959865Y-1777982D01*
X-939292Y-1777982D01*
X-927100Y-1773918D01*
X-918971Y-1769854D01*
X-910589Y-1761726D01*
X-906526Y-1753344D01*
X-906526Y-1737088D01*
X-910589Y-1728960D01*
X-918971Y-1720832D01*
X-927100Y-1716768D01*
X-992631Y-1689590D02*
G01*
X-906526Y-1689590D01*
X-992631Y-1689590D02*
G01*
X-906526Y-1632440D01*
X-992631Y-1632440D02*
G01*
X-906526Y-1632440D01*
X-976121Y-1605262D02*
G01*
X-980186Y-1597134D01*
X-992631Y-1584942D01*
X-906526Y-1584942D01*
X-306959Y-2621909D02*
G01*
X-311022Y-2613781D01*
X-319151Y-2605653D01*
X-327279Y-2601589D01*
X-343788Y-2601589D01*
X-351917Y-2605653D01*
X-360045Y-2613781D01*
X-364109Y-2621909D01*
X-368172Y-2634355D01*
X-368172Y-2654675D01*
X-364109Y-2667121D01*
X-360045Y-2675249D01*
X-351917Y-2683377D01*
X-343788Y-2687441D01*
X-327279Y-2687441D01*
X-319151Y-2683377D01*
X-311022Y-2675249D01*
X-306959Y-2667121D01*
X-280035Y-2617845D02*
G01*
X-271653Y-2613781D01*
X-259461Y-2601589D01*
X-259461Y-2687441D01*
X-183514Y-2601589D02*
G01*
X-224409Y-2601589D01*
X-228472Y-2638419D01*
X-224409Y-2634355D01*
X-211962Y-2630291D01*
X-199770Y-2630291D01*
X-187579Y-2634355D01*
X-179196Y-2642483D01*
X-175132Y-2654675D01*
X-175132Y-2663057D01*
X-179196Y-2675249D01*
X-187579Y-2683377D01*
X-199770Y-2687441D01*
X-211962Y-2687441D01*
X-224409Y-2683377D01*
X-228472Y-2679313D01*
X-232537Y-2671185D01*
X589914Y-3023552D02*
G01*
X581787Y-3027870D01*
X573659Y-3035998D01*
X569340Y-3044126D01*
X569340Y-3060382D01*
X573659Y-3068764D01*
X581787Y-3076892D01*
X589914Y-3080956D01*
X602106Y-3085020D01*
X622680Y-3085020D01*
X634872Y-3080956D01*
X643001Y-3076892D01*
X651382Y-3068764D01*
X655446Y-3060382D01*
X655446Y-3044126D01*
X651382Y-3035998D01*
X643001Y-3027870D01*
X634872Y-3023552D01*
X585851Y-2996628D02*
G01*
X581787Y-2988500D01*
X569340Y-2976308D01*
X655446Y-2976308D01*
X569340Y-2908236D02*
G01*
X626745Y-2949130D01*
X626745Y-2887916D01*
X569340Y-2908236D02*
G01*
X655446Y-2908236D01*
X1242623Y-3148683D02*
G01*
X1328475Y-3148683D01*
X1242623Y-3148683D02*
G01*
X1242623Y-3119981D01*
X1246687Y-3107789D01*
X1255069Y-3099407D01*
X1263197Y-3095343D01*
X1275389Y-3091279D01*
X1295963Y-3091279D01*
X1308155Y-3095343D01*
X1316283Y-3099407D01*
X1324411Y-3107789D01*
X1328475Y-3119981D01*
X1328475Y-3148683D01*
X1259133Y-3064355D02*
G01*
X1255069Y-3056227D01*
X1242623Y-3043781D01*
X1328475Y-3043781D01*
X228600Y-2093447D02*
G01*
X228600Y-2154915D01*
X232663Y-2167107D01*
X240792Y-2175489D01*
X253237Y-2179553D01*
X261365Y-2179553D01*
X273557Y-2175489D01*
X281686Y-2167107D01*
X285750Y-2154915D01*
X285750Y-2093447D01*
X312928Y-2109957D02*
G01*
X321055Y-2105893D01*
X333247Y-2093447D01*
X333247Y-2179553D01*
X-662429Y-2070092D02*
G01*
X-576323Y-2070092D01*
X-662429Y-2070092D02*
G01*
X-662429Y-2033262D01*
X-658111Y-2021070D01*
X-654047Y-2017006D01*
X-645919Y-2012942D01*
X-637791Y-2012942D01*
X-629663Y-2017006D01*
X-625599Y-2021070D01*
X-621281Y-2033262D01*
X-621281Y-2070092D01*
X-621281Y-2041390D02*
G01*
X-576323Y-2012942D01*
X-649983Y-1936742D02*
G01*
X-658111Y-1940806D01*
X-662429Y-1952998D01*
X-662429Y-1961380D01*
X-658111Y-1973572D01*
X-645919Y-1981700D01*
X-625599Y-1985764D01*
X-605025Y-1985764D01*
X-588769Y-1981700D01*
X-580387Y-1973572D01*
X-576323Y-1961380D01*
X-576323Y-1957062D01*
X-580387Y-1944870D01*
X-588769Y-1936742D01*
X-600961Y-1932678D01*
X-605025Y-1932678D01*
X-617217Y-1936742D01*
X-625599Y-1944870D01*
X-629663Y-1957062D01*
X-629663Y-1961380D01*
X-625599Y-1973572D01*
X-617217Y-1981700D01*
X-605025Y-1985764D01*
X-637042Y-2438379D02*
G01*
X-550936Y-2438379D01*
X-550936Y-2438379D02*
G01*
X-550936Y-2389357D01*
X-637042Y-2362179D02*
G01*
X-550936Y-2362179D01*
X-637042Y-2362179D02*
G01*
X-637042Y-2309093D01*
X-595894Y-2362179D02*
G01*
X-595894Y-2329667D01*
X-550936Y-2362179D02*
G01*
X-550936Y-2309093D01*
X-637042Y-2282169D02*
G01*
X-550936Y-2282169D01*
X-637042Y-2282169D02*
G01*
X-637042Y-2253467D01*
X-632724Y-2241275D01*
X-624596Y-2232893D01*
X-616468Y-2228829D01*
X-604276Y-2224765D01*
X-583702Y-2224765D01*
X-571510Y-2228829D01*
X-563382Y-2232893D01*
X-555000Y-2241275D01*
X-550936Y-2253467D01*
X-550936Y-2282169D01*
X-620532Y-2197841D02*
G01*
X-624596Y-2189713D01*
X-637042Y-2177267D01*
X-550936Y-2177267D01*
X1612638Y-1940100D02*
G01*
X1612638Y-2026206D01*
X1612638Y-2026206D02*
G01*
X1661660Y-2026206D01*
X1696966Y-1940100D02*
G01*
X1741924Y-1940100D01*
X1717286Y-1972866D01*
X1729732Y-1972866D01*
X1737860Y-1976930D01*
X1741924Y-1981248D01*
X1745988Y-1993440D01*
X1745988Y-2001568D01*
X1741924Y-2013760D01*
X1733796Y-2022142D01*
X1721350Y-2026206D01*
X1709158Y-2026206D01*
X1696966Y-2022142D01*
X1692902Y-2017824D01*
X1688838Y-2009696D01*
X1600194Y-2600457D02*
G01*
X1600194Y-2686563D01*
X1600194Y-2686563D02*
G01*
X1649216Y-2686563D01*
X1680458Y-2621031D02*
G01*
X1680458Y-2616967D01*
X1684522Y-2608839D01*
X1688586Y-2604775D01*
X1696714Y-2600457D01*
X1713224Y-2600457D01*
X1721352Y-2604775D01*
X1725416Y-2608839D01*
X1729480Y-2616967D01*
X1729480Y-2625095D01*
X1725416Y-2633223D01*
X1717288Y-2645669D01*
X1676394Y-2686563D01*
X1733544Y-2686563D01*
X-418843Y-2282903D02*
G01*
X-418843Y-2369009D01*
X-418843Y-2369009D02*
G01*
X-369821Y-2369009D01*
X-342643Y-2299413D02*
G01*
X-334515Y-2295349D01*
X-322323Y-2282903D01*
X-322323Y-2369009D01*
X882139Y-1461526D02*
G01*
X874011Y-1465844D01*
X865883Y-1473972D01*
X861565Y-1482100D01*
X861565Y-1498356D01*
X865883Y-1506738D01*
X874011Y-1514866D01*
X882139Y-1518930D01*
X894331Y-1522994D01*
X914905Y-1522994D01*
X927097Y-1518930D01*
X935225Y-1514866D01*
X943607Y-1506738D01*
X947671Y-1498356D01*
X947671Y-1482100D01*
X943607Y-1473972D01*
X935225Y-1465844D01*
X927097Y-1461526D01*
X878075Y-1434602D02*
G01*
X874011Y-1426474D01*
X861565Y-1414282D01*
X947671Y-1414282D01*
X861565Y-1329954D02*
G01*
X947671Y-1370848D01*
X861565Y-1387104D02*
G01*
X861565Y-1329954D01*
X1008882Y-2388664D02*
G01*
X1000754Y-2392982D01*
X992626Y-2401110D01*
X988308Y-2409238D01*
X988308Y-2425494D01*
X992626Y-2433876D01*
X1000754Y-2442004D01*
X1008882Y-2446068D01*
X1021074Y-2450132D01*
X1041648Y-2450132D01*
X1053840Y-2446068D01*
X1061968Y-2442004D01*
X1070350Y-2433876D01*
X1074414Y-2425494D01*
X1074414Y-2409238D01*
X1070350Y-2401110D01*
X1061968Y-2392982D01*
X1053840Y-2388664D01*
X1004818Y-2361740D02*
G01*
X1000754Y-2353612D01*
X988308Y-2341420D01*
X1074414Y-2341420D01*
X1000754Y-2265220D02*
G01*
X992626Y-2269284D01*
X988308Y-2281476D01*
X988308Y-2289858D01*
X992626Y-2302050D01*
X1004818Y-2310178D01*
X1025138Y-2314242D01*
X1045712Y-2314242D01*
X1061968Y-2310178D01*
X1070350Y-2302050D01*
X1074414Y-2289858D01*
X1074414Y-2285794D01*
X1070350Y-2273348D01*
X1061968Y-2265220D01*
X1049776Y-2261156D01*
X1045712Y-2261156D01*
X1033520Y-2265220D01*
X1025138Y-2273348D01*
X1021074Y-2285794D01*
X1021074Y-2289858D01*
X1025138Y-2302050D01*
X1033520Y-2310178D01*
X1045712Y-2314242D01*
X132854Y-1448826D02*
G01*
X124726Y-1453144D01*
X116598Y-1461272D01*
X112280Y-1469400D01*
X112280Y-1485656D01*
X116598Y-1494038D01*
X124726Y-1502166D01*
X132854Y-1506230D01*
X145046Y-1510294D01*
X165620Y-1510294D01*
X177812Y-1506230D01*
X185940Y-1502166D01*
X194322Y-1494038D01*
X198386Y-1485656D01*
X198386Y-1469400D01*
X194322Y-1461272D01*
X185940Y-1453144D01*
X177812Y-1448826D01*
X112280Y-1372880D02*
G01*
X112280Y-1413774D01*
X149110Y-1417838D01*
X145046Y-1413774D01*
X140982Y-1401582D01*
X140982Y-1389136D01*
X145046Y-1376944D01*
X153174Y-1368816D01*
X165620Y-1364752D01*
X173748Y-1364752D01*
X185940Y-1368816D01*
X194322Y-1376944D01*
X198386Y-1389136D01*
X198386Y-1401582D01*
X194322Y-1413774D01*
X190004Y-1417838D01*
X181876Y-1421902D01*
X5836Y-1448810D02*
G01*
X-2291Y-1453128D01*
X-10419Y-1461256D01*
X-14737Y-1469384D01*
X-14737Y-1485640D01*
X-10419Y-1494022D01*
X-2291Y-1502150D01*
X5836Y-1506214D01*
X18028Y-1510278D01*
X38602Y-1510278D01*
X50794Y-1506214D01*
X58922Y-1502150D01*
X67304Y-1494022D01*
X71368Y-1485640D01*
X71368Y-1469384D01*
X67304Y-1461256D01*
X58922Y-1453128D01*
X50794Y-1448810D01*
X-14737Y-1380992D02*
G01*
X42666Y-1421886D01*
X42666Y-1360672D01*
X-14737Y-1380992D02*
G01*
X71368Y-1380992D01*
X-230378Y-2112980D02*
G01*
X-234695Y-2104852D01*
X-242823Y-2096724D01*
X-250952Y-2092406D01*
X-267207Y-2092406D01*
X-275589Y-2096724D01*
X-283718Y-2104852D01*
X-287781Y-2112980D01*
X-291845Y-2125172D01*
X-291845Y-2145746D01*
X-287781Y-2157938D01*
X-283718Y-2166066D01*
X-275589Y-2174448D01*
X-267207Y-2178512D01*
X-250952Y-2178512D01*
X-242823Y-2174448D01*
X-234695Y-2166066D01*
X-230378Y-2157938D01*
X-203454Y-2108916D02*
G01*
X-195326Y-2104852D01*
X-183134Y-2092406D01*
X-183134Y-2178512D01*
X-548131Y121157D02*
G01*
X-552450Y129286D01*
X-560578Y137414D01*
X-568705Y141732D01*
X-584962Y141732D01*
X-593344Y137414D01*
X-601471Y129286D01*
X-605536Y121157D01*
X-609600Y108965D01*
X-609600Y88392D01*
X-605536Y76200D01*
X-601471Y68072D01*
X-593344Y59690D01*
X-584962Y55626D01*
X-568705Y55626D01*
X-560578Y59690D01*
X-552450Y68072D01*
X-548131Y76200D01*
X-521207Y125222D02*
G01*
X-513079Y129286D01*
X-500887Y141732D01*
X-500887Y55626D01*
X-420623Y113030D02*
G01*
X-424687Y100584D01*
X-432815Y92456D01*
X-445262Y88392D01*
X-449326Y88392D01*
X-461518Y92456D01*
X-469645Y100584D01*
X-473710Y113030D01*
X-473710Y117094D01*
X-469645Y129286D01*
X-461518Y137414D01*
X-449326Y141732D01*
X-445262Y141732D01*
X-432815Y137414D01*
X-424687Y129286D01*
X-420623Y113030D01*
X-420623Y92456D01*
X-424687Y72136D01*
X-432815Y59690D01*
X-445262Y55626D01*
X-453389Y55626D01*
X-465581Y59690D01*
X-469645Y68072D01*
X-802131Y-241960D02*
G01*
X-806450Y-233832D01*
X-814578Y-225704D01*
X-822705Y-221386D01*
X-838962Y-221386D01*
X-847344Y-225704D01*
X-855471Y-233832D01*
X-859536Y-241960D01*
X-863600Y-254152D01*
X-863600Y-274726D01*
X-859536Y-286918D01*
X-855471Y-295046D01*
X-847344Y-303428D01*
X-838962Y-307492D01*
X-822705Y-307492D01*
X-814578Y-303428D01*
X-806450Y-295046D01*
X-802131Y-286918D01*
X-771144Y-241960D02*
G01*
X-771144Y-237896D01*
X-767079Y-229768D01*
X-763015Y-225704D01*
X-754887Y-221386D01*
X-738378Y-221386D01*
X-730250Y-225704D01*
X-726186Y-229768D01*
X-722121Y-237896D01*
X-722121Y-246024D01*
X-726186Y-254152D01*
X-734313Y-266598D01*
X-775207Y-307492D01*
X-718057Y-307492D01*
X-666495Y-221386D02*
G01*
X-678687Y-225704D01*
X-686815Y-237896D01*
X-690879Y-258216D01*
X-690879Y-270662D01*
X-686815Y-290982D01*
X-678687Y-303428D01*
X-666495Y-307492D01*
X-658113Y-307492D01*
X-645921Y-303428D01*
X-637794Y-290982D01*
X-633729Y-270662D01*
X-633729Y-258216D01*
X-637794Y-237896D01*
X-645921Y-225704D01*
X-658113Y-221386D01*
X-666495Y-221386D01*
X-548131Y-31242D02*
G01*
X-552450Y-23113D01*
X-560578Y-14985D01*
X-568705Y-10667D01*
X-584962Y-10667D01*
X-593344Y-14985D01*
X-601471Y-23113D01*
X-605536Y-31242D01*
X-609600Y-43434D01*
X-609600Y-64007D01*
X-605536Y-76200D01*
X-601471Y-84327D01*
X-593344Y-92709D01*
X-584962Y-96773D01*
X-568705Y-96773D01*
X-560578Y-92709D01*
X-552450Y-84327D01*
X-548131Y-76200D01*
X-517144Y-31242D02*
G01*
X-517144Y-27177D01*
X-513079Y-19050D01*
X-509015Y-14985D01*
X-500887Y-10667D01*
X-484378Y-10667D01*
X-476250Y-14985D01*
X-472186Y-19050D01*
X-468121Y-27177D01*
X-468121Y-35305D01*
X-472186Y-43434D01*
X-480313Y-55879D01*
X-521207Y-96773D01*
X-464057Y-96773D01*
X-436879Y-27177D02*
G01*
X-428752Y-23113D01*
X-416560Y-10667D01*
X-416560Y-96773D01*
X1479039Y434947D02*
G01*
X1470911Y430629D01*
X1462783Y422501D01*
X1458465Y414373D01*
X1458465Y398117D01*
X1462783Y389735D01*
X1470911Y381607D01*
X1479039Y377543D01*
X1491231Y373479D01*
X1511805Y373479D01*
X1523997Y377543D01*
X1532125Y381607D01*
X1540507Y389735D01*
X1544571Y398117D01*
X1544571Y414373D01*
X1540507Y422501D01*
X1532125Y430629D01*
X1523997Y434947D01*
X1479039Y465935D02*
G01*
X1474975Y465935D01*
X1466847Y469999D01*
X1462783Y474063D01*
X1458465Y482191D01*
X1458465Y498701D01*
X1462783Y506829D01*
X1466847Y510893D01*
X1474975Y514957D01*
X1483103Y514957D01*
X1491231Y510893D01*
X1503677Y502765D01*
X1544571Y461871D01*
X1544571Y519021D01*
X1470911Y595221D02*
G01*
X1462783Y591157D01*
X1458465Y578965D01*
X1458465Y570583D01*
X1462783Y558391D01*
X1474975Y550263D01*
X1495295Y546199D01*
X1515869Y546199D01*
X1532125Y550263D01*
X1540507Y558391D01*
X1544571Y570583D01*
X1544571Y574647D01*
X1540507Y587093D01*
X1532125Y595221D01*
X1519933Y599285D01*
X1515869Y599285D01*
X1503677Y595221D01*
X1495295Y587093D01*
X1491231Y574647D01*
X1491231Y570583D01*
X1495295Y558391D01*
X1503677Y550263D01*
X1515869Y546199D01*
X1631439Y1628744D02*
G01*
X1623311Y1624426D01*
X1615183Y1616298D01*
X1610865Y1608170D01*
X1610865Y1591914D01*
X1615183Y1583532D01*
X1623311Y1575404D01*
X1631439Y1571340D01*
X1643631Y1567276D01*
X1664205Y1567276D01*
X1676397Y1571340D01*
X1684525Y1575404D01*
X1692907Y1583532D01*
X1696971Y1591914D01*
X1696971Y1608170D01*
X1692907Y1616298D01*
X1684525Y1624426D01*
X1676397Y1628744D01*
X1631439Y1659732D02*
G01*
X1627375Y1659732D01*
X1619247Y1663796D01*
X1615183Y1667860D01*
X1610865Y1675988D01*
X1610865Y1692498D01*
X1615183Y1700626D01*
X1619247Y1704690D01*
X1627375Y1708754D01*
X1635503Y1708754D01*
X1643631Y1704690D01*
X1656077Y1696562D01*
X1696971Y1655668D01*
X1696971Y1712818D01*
X1610865Y1760316D02*
G01*
X1615183Y1748124D01*
X1623311Y1744060D01*
X1631439Y1744060D01*
X1639567Y1748124D01*
X1643631Y1756252D01*
X1647695Y1772762D01*
X1652013Y1784954D01*
X1660141Y1793082D01*
X1668269Y1797146D01*
X1680461Y1797146D01*
X1688589Y1793082D01*
X1692907Y1789018D01*
X1696971Y1776826D01*
X1696971Y1760316D01*
X1692907Y1748124D01*
X1688589Y1744060D01*
X1680461Y1739996D01*
X1668269Y1739996D01*
X1660141Y1744060D01*
X1652013Y1752188D01*
X1647695Y1764380D01*
X1643631Y1780890D01*
X1639567Y1789018D01*
X1631439Y1793082D01*
X1623311Y1793082D01*
X1615183Y1789018D01*
X1610865Y1776826D01*
X1610865Y1760316D01*
X1885436Y1362039D02*
G01*
X1877308Y1357721D01*
X1869180Y1349593D01*
X1864862Y1341465D01*
X1864862Y1325209D01*
X1869180Y1316827D01*
X1877308Y1308699D01*
X1885436Y1304635D01*
X1897628Y1300571D01*
X1918202Y1300571D01*
X1930394Y1304635D01*
X1938522Y1308699D01*
X1946904Y1316827D01*
X1950968Y1325209D01*
X1950968Y1341465D01*
X1946904Y1349593D01*
X1938522Y1357721D01*
X1930394Y1362039D01*
X1885436Y1393027D02*
G01*
X1881372Y1393027D01*
X1873244Y1397091D01*
X1869180Y1401155D01*
X1864862Y1409283D01*
X1864862Y1425793D01*
X1869180Y1433921D01*
X1873244Y1437985D01*
X1881372Y1442049D01*
X1889500Y1442049D01*
X1897628Y1437985D01*
X1910074Y1429857D01*
X1950968Y1388963D01*
X1950968Y1446113D01*
X1893564Y1526377D02*
G01*
X1906010Y1522313D01*
X1914138Y1514185D01*
X1918202Y1501739D01*
X1918202Y1497675D01*
X1914138Y1485483D01*
X1906010Y1477355D01*
X1893564Y1473291D01*
X1889500Y1473291D01*
X1877308Y1477355D01*
X1869180Y1485483D01*
X1864862Y1497675D01*
X1864862Y1501739D01*
X1869180Y1514185D01*
X1877308Y1522313D01*
X1893564Y1526377D01*
X1914138Y1526377D01*
X1934458Y1522313D01*
X1946904Y1514185D01*
X1950968Y1501739D01*
X1950968Y1493611D01*
X1946904Y1481419D01*
X1938522Y1477355D01*
X1373502Y1186200D02*
G01*
X1287650Y1186200D01*
X1373502Y1186200D02*
G01*
X1373502Y1149370D01*
X1369438Y1137178D01*
X1365374Y1133114D01*
X1357246Y1129050D01*
X1348864Y1129050D01*
X1340736Y1133114D01*
X1336672Y1137178D01*
X1332608Y1149370D01*
X1332608Y1186200D01*
X1332608Y1157752D02*
G01*
X1287650Y1129050D01*
X1357246Y1102126D02*
G01*
X1361310Y1093744D01*
X1373502Y1081552D01*
X1287650Y1081552D01*
X1361310Y1005352D02*
G01*
X1369438Y1009670D01*
X1373502Y1021862D01*
X1373502Y1029990D01*
X1369438Y1042182D01*
X1357246Y1050564D01*
X1336672Y1054628D01*
X1316352Y1054628D01*
X1299842Y1050564D01*
X1291714Y1042182D01*
X1287650Y1029990D01*
X1287650Y1025926D01*
X1291714Y1013734D01*
X1299842Y1005352D01*
X1312034Y1001288D01*
X1316352Y1001288D01*
X1328544Y1005352D01*
X1336672Y1013734D01*
X1340736Y1025926D01*
X1340736Y1029990D01*
X1336672Y1042182D01*
X1328544Y1050564D01*
X1316352Y1054628D01*
X-966985Y2255766D02*
G01*
X-966985Y2194298D01*
X-962921Y2182106D01*
X-954793Y2173724D01*
X-942347Y2169660D01*
X-934219Y2169660D01*
X-922027Y2173724D01*
X-913899Y2182106D01*
X-909835Y2194298D01*
X-909835Y2255766D01*
X-878593Y2235192D02*
G01*
X-878593Y2239256D01*
X-874529Y2247384D01*
X-870465Y2251448D01*
X-862337Y2255766D01*
X-845827Y2255766D01*
X-837699Y2251448D01*
X-833635Y2247384D01*
X-829571Y2239256D01*
X-829571Y2231128D01*
X-833635Y2223000D01*
X-841763Y2210554D01*
X-882657Y2169660D01*
X-825507Y2169660D01*
X2031883Y337334D02*
G01*
X2031883Y275866D01*
X2036201Y263674D01*
X2044329Y255546D01*
X2056521Y251482D01*
X2064649Y251482D01*
X2077095Y255546D01*
X2085223Y263674D01*
X2089287Y275866D01*
X2089287Y337334D01*
X2165487Y325142D02*
G01*
X2161169Y333270D01*
X2148977Y337334D01*
X2140849Y337334D01*
X2128657Y333270D01*
X2120275Y320824D01*
X2116211Y300504D01*
X2116211Y279930D01*
X2120275Y263674D01*
X2128657Y255546D01*
X2140849Y251482D01*
X2144913Y251482D01*
X2157105Y255546D01*
X2165487Y263674D01*
X2169551Y275866D01*
X2169551Y279930D01*
X2165487Y292376D01*
X2157105Y300504D01*
X2144913Y304568D01*
X2140849Y304568D01*
X2128657Y300504D01*
X2120275Y292376D01*
X2116211Y279930D01*
X2241042Y15849D02*
G01*
X2232913Y11531D01*
X2224786Y3403D01*
X2220468Y-4724D01*
X2220468Y-20980D01*
X2224786Y-29362D01*
X2232913Y-37490D01*
X2241042Y-41554D01*
X2253234Y-45618D01*
X2273807Y-45618D01*
X2286000Y-41554D01*
X2294128Y-37490D01*
X2302510Y-29362D01*
X2306573Y-20980D01*
X2306573Y-4724D01*
X2302510Y3403D01*
X2294128Y11531D01*
X2286000Y15849D01*
X2220468Y50901D02*
G01*
X2220468Y95859D01*
X2253234Y71475D01*
X2253234Y83667D01*
X2257297Y91795D01*
X2261615Y95859D01*
X2273807Y99923D01*
X2281936Y99923D01*
X2294128Y95859D01*
X2302510Y87731D01*
X2306573Y75539D01*
X2306573Y63093D01*
X2302510Y50901D01*
X2298192Y46837D01*
X2290063Y42773D01*
X2220468Y135229D02*
G01*
X2220468Y180187D01*
X2253234Y155549D01*
X2253234Y167995D01*
X2257297Y176123D01*
X2261615Y180187D01*
X2273807Y184251D01*
X2281936Y184251D01*
X2294128Y180187D01*
X2302510Y172059D01*
X2306573Y159867D01*
X2306573Y147421D01*
X2302510Y135229D01*
X2298192Y131165D01*
X2290063Y127101D01*
X1479042Y155549D02*
G01*
X1470913Y151231D01*
X1462786Y143103D01*
X1458468Y134975D01*
X1458468Y118719D01*
X1462786Y110337D01*
X1470913Y102209D01*
X1479042Y98145D01*
X1491234Y94081D01*
X1511807Y94081D01*
X1524000Y98145D01*
X1532128Y102209D01*
X1540510Y110337D01*
X1544573Y118719D01*
X1544573Y134975D01*
X1540510Y143103D01*
X1532128Y151231D01*
X1524000Y155549D01*
X1458468Y190601D02*
G01*
X1458468Y235559D01*
X1491234Y211175D01*
X1491234Y223367D01*
X1495297Y231495D01*
X1499615Y235559D01*
X1511807Y239623D01*
X1519936Y239623D01*
X1532128Y235559D01*
X1540510Y227431D01*
X1544573Y215239D01*
X1544573Y202793D01*
X1540510Y190601D01*
X1536192Y186537D01*
X1528063Y182473D01*
X1458468Y307695D02*
G01*
X1515871Y266801D01*
X1515871Y328015D01*
X1458468Y307695D02*
G01*
X1544573Y307695D01*
X1479042Y-111150D02*
G01*
X1470913Y-115468D01*
X1462786Y-123596D01*
X1458468Y-131724D01*
X1458468Y-147980D01*
X1462786Y-156362D01*
X1470913Y-164490D01*
X1479042Y-168554D01*
X1491234Y-172618D01*
X1511807Y-172618D01*
X1524000Y-168554D01*
X1532128Y-164490D01*
X1540510Y-156362D01*
X1544573Y-147980D01*
X1544573Y-131724D01*
X1540510Y-123596D01*
X1532128Y-115468D01*
X1524000Y-111150D01*
X1458468Y-76098D02*
G01*
X1458468Y-31140D01*
X1491234Y-55524D01*
X1491234Y-43332D01*
X1495297Y-35204D01*
X1499615Y-31140D01*
X1511807Y-27076D01*
X1519936Y-27076D01*
X1532128Y-31140D01*
X1540510Y-39268D01*
X1544573Y-51460D01*
X1544573Y-63906D01*
X1540510Y-76098D01*
X1536192Y-80162D01*
X1528063Y-84226D01*
X1458468Y49123D02*
G01*
X1458468Y8229D01*
X1495297Y4165D01*
X1491234Y8229D01*
X1487170Y20421D01*
X1487170Y32867D01*
X1491234Y45059D01*
X1499615Y53187D01*
X1511807Y57251D01*
X1519936Y57251D01*
X1532128Y53187D01*
X1540510Y45059D01*
X1544573Y32867D01*
X1544573Y20421D01*
X1540510Y8229D01*
X1536192Y4165D01*
X1528063Y101D01*
X2106932Y1586842D02*
G01*
X2102868Y1594970D01*
X2094740Y1603098D01*
X2086612Y1607416D01*
X2070356Y1607416D01*
X2061974Y1603098D01*
X2053846Y1594970D01*
X2049782Y1586842D01*
X2045718Y1574650D01*
X2045718Y1554076D01*
X2049782Y1541884D01*
X2053846Y1533756D01*
X2061974Y1525374D01*
X2070356Y1521310D01*
X2086612Y1521310D01*
X2094740Y1525374D01*
X2102868Y1533756D01*
X2106932Y1541884D01*
X2134110Y1607416D02*
G01*
X2134110Y1521310D01*
X2134110Y1607416D02*
G01*
X2191260Y1521310D01*
X2191260Y1607416D02*
G01*
X2191260Y1521310D01*
X2226566Y1607416D02*
G01*
X2271524Y1607416D01*
X2246886Y1574650D01*
X2259332Y1574650D01*
X2267460Y1570586D01*
X2271524Y1566268D01*
X2275588Y1554076D01*
X2275588Y1545948D01*
X2271524Y1533756D01*
X2263396Y1525374D01*
X2250950Y1521310D01*
X2238758Y1521310D01*
X2226566Y1525374D01*
X2222502Y1529692D01*
X2218438Y1537820D01*
X1726666Y792607D02*
G01*
X1718538Y788543D01*
X1710410Y780415D01*
X1706092Y772287D01*
X1706092Y756031D01*
X1710410Y747649D01*
X1718538Y739521D01*
X1726666Y735457D01*
X1738858Y731393D01*
X1759432Y731393D01*
X1771624Y735457D01*
X1779752Y739521D01*
X1788134Y747649D01*
X1792198Y756031D01*
X1792198Y772287D01*
X1788134Y780415D01*
X1779752Y788543D01*
X1771624Y792607D01*
X1706092Y819785D02*
G01*
X1792198Y819785D01*
X1706092Y819785D02*
G01*
X1792198Y876935D01*
X1706092Y876935D02*
G01*
X1792198Y876935D01*
X1706092Y945007D02*
G01*
X1763496Y904113D01*
X1763496Y965327D01*
X1706092Y945007D02*
G01*
X1792198Y945007D01*
X1166365Y513176D02*
G01*
X1252471Y513176D01*
X1166365Y513176D02*
G01*
X1166365Y550006D01*
X1170683Y562198D01*
X1174747Y566262D01*
X1182875Y570326D01*
X1191003Y570326D01*
X1199131Y566262D01*
X1203195Y562198D01*
X1207513Y550006D01*
X1207513Y513176D01*
X1207513Y541878D02*
G01*
X1252471Y570326D01*
X1178811Y654654D02*
G01*
X1170683Y646526D01*
X1166365Y634334D01*
X1166365Y617824D01*
X1170683Y605632D01*
X1178811Y597504D01*
X1186939Y597504D01*
X1195067Y601568D01*
X1199131Y605632D01*
X1203195Y613760D01*
X1211577Y638398D01*
X1215641Y646526D01*
X1219705Y650590D01*
X1227833Y654654D01*
X1240025Y654654D01*
X1248407Y646526D01*
X1252471Y634334D01*
X1252471Y617824D01*
X1248407Y605632D01*
X1240025Y597504D01*
X1166365Y710280D02*
G01*
X1252471Y710280D01*
X1166365Y681832D02*
G01*
X1166365Y738982D01*
X1362455Y1730603D02*
G01*
X1362455Y1669135D01*
X1366773Y1656943D01*
X1374902Y1648815D01*
X1387094Y1644497D01*
X1395221Y1644497D01*
X1407668Y1648815D01*
X1415795Y1656943D01*
X1419860Y1669135D01*
X1419860Y1730603D01*
X1454912Y1730603D02*
G01*
X1500123Y1730603D01*
X1475486Y1697837D01*
X1487678Y1697837D01*
X1495805Y1693773D01*
X1500123Y1689709D01*
X1504187Y1677263D01*
X1504187Y1669135D01*
X1500123Y1656943D01*
X1491742Y1648815D01*
X1479550Y1644497D01*
X1467357Y1644497D01*
X1454912Y1648815D01*
X1450847Y1652879D01*
X1446784Y1661007D01*
X1206215Y-2423896D02*
G01*
X1285224Y-2423896D01*
X1285224Y-2324176D02*
G01*
X1206215Y-2324176D01*
X1190975Y-2339416D02*
G01*
X1190975Y-2408656D01*
X1409476Y-2423896D02*
G01*
X1330467Y-2423896D01*
X1330467Y-2324176D02*
G01*
X1409476Y-2324176D01*
X1424716Y-2339416D02*
G01*
X1424716Y-2408656D01*
X1285224Y-2743278D02*
G01*
X1206215Y-2743278D01*
X1206215Y-2842994D02*
G01*
X1285224Y-2842994D01*
X1190972Y-2758516D02*
G01*
X1190972Y-2827756D01*
X1409476Y-2842994D02*
G01*
X1330467Y-2842994D01*
X1330467Y-2743278D02*
G01*
X1409476Y-2743278D01*
X1424719Y-2758516D02*
G01*
X1424719Y-2827756D01*
X420039Y-2640451D02*
G01*
X420039Y-2719461D01*
X519760Y-2719461D02*
G01*
X519760Y-2640451D01*
X504520Y-2625211D02*
G01*
X435279Y-2625211D01*
X420039Y-2843712D02*
G01*
X420039Y-2764703D01*
X519760Y-2764703D02*
G01*
X519760Y-2843712D01*
X504520Y-2858952D02*
G01*
X435279Y-2858952D01*
X1206215Y-2284196D02*
G01*
X1285224Y-2284196D01*
X1285224Y-2184476D02*
G01*
X1206215Y-2184476D01*
X1190975Y-2199716D02*
G01*
X1190975Y-2268956D01*
X1409476Y-2284196D02*
G01*
X1330467Y-2284196D01*
X1330467Y-2184476D02*
G01*
X1409476Y-2184476D01*
X1424716Y-2199716D02*
G01*
X1424716Y-2268956D01*
X712139Y-2640451D02*
G01*
X712139Y-2719461D01*
X811860Y-2719461D02*
G01*
X811860Y-2640451D01*
X796620Y-2625211D02*
G01*
X727379Y-2625211D01*
X712139Y-2843712D02*
G01*
X712139Y-2764703D01*
X811860Y-2764703D02*
G01*
X811860Y-2843712D01*
X796620Y-2858952D02*
G01*
X727379Y-2858952D01*
X1285224Y-1752678D02*
G01*
X1206215Y-1752678D01*
X1206215Y-1852394D02*
G01*
X1285224Y-1852394D01*
X1190972Y-1767916D02*
G01*
X1190972Y-1837156D01*
X1409476Y-1852394D02*
G01*
X1330467Y-1852394D01*
X1330467Y-1752678D02*
G01*
X1409476Y-1752678D01*
X1424719Y-1767916D02*
G01*
X1424719Y-1837156D01*
X76230Y-2463622D02*
G01*
X-2778Y-2463622D01*
X-2778Y-2563342D02*
G01*
X76230Y-2563342D01*
X91470Y-2548102D02*
G01*
X91470Y-2478862D01*
X-127030Y-2463622D02*
G01*
X-48021Y-2463622D01*
X-48021Y-2563342D02*
G01*
X-127030Y-2563342D01*
X-142270Y-2548102D02*
G01*
X-142270Y-2478862D01*
D11*
X1628647Y2712953D02*
G01*
X1628647Y2681655D01*
X1628647Y2881655D02*
G01*
X1628647Y2850357D01*
X2136647Y2745676D02*
G01*
X2136647Y2681655D01*
X2136647Y2881655D02*
G01*
X2136647Y2817634D01*
X1628647Y2681655D02*
G01*
X2136647Y2681655D01*
X1628647Y2881655D02*
G01*
X2136647Y2881655D01*
X-319786Y2850357D02*
G01*
X-319786Y2881655D01*
X-319786Y2681655D02*
G01*
X-319786Y2712953D01*
X-827786Y2817634D02*
G01*
X-827786Y2881655D01*
X-827786Y2681655D02*
G01*
X-827786Y2745676D01*
X-319786Y2881655D02*
G01*
X-827786Y2881655D01*
X-319786Y2681655D02*
G01*
X-827786Y2681655D01*
X-241300Y-540918D02*
G01*
X1536700Y-540918D01*
X1536700Y-337718D01*
X-241300Y-337718D01*
X-241300Y-540918D01*
D10*
X1091260Y-1888403D02*
G01*
X1091260Y-1960206D01*
X991539Y-1960206D01*
X991539Y-1888403D01*
X1091260Y-1843161D02*
G01*
X1091260Y-1771357D01*
X991539Y-1771357D01*
X991539Y-1843161D01*
X-608660Y-188097D02*
G01*
X-608660Y-116293D01*
X-508939Y-116293D01*
X-508939Y-188097D01*
X-608660Y-233339D02*
G01*
X-608660Y-305142D01*
X-508939Y-305142D01*
X-508939Y-233339D01*
D11*
X1331600Y2085581D02*
G01*
X1331597Y1785581D01*
X1081598Y2085581D02*
G01*
X1081600Y1785581D01*
X1314716Y2085581D02*
G01*
X1331600Y2085581D01*
X1331600Y2085581D02*
G01*
X1331600Y1785581D01*
X1331600Y1785581D02*
G01*
X1314714Y1785581D01*
X1098486Y1785581D02*
G01*
X1081600Y1785581D01*
X1081600Y1785581D02*
G01*
X1081600Y2085581D01*
X1081600Y2085581D02*
G01*
X1097914Y2085581D01*
X3316853Y1137851D02*
G01*
X2696860Y1137851D01*
X2696860Y1497855D02*
G01*
X3316853Y1497855D01*
X3311657Y1444853D02*
G01*
X3260857Y1495653D01*
X3311657Y1190853D02*
G01*
X3260857Y1140053D01*
X2752857Y1140053D02*
G01*
X2702057Y1190853D01*
X2752857Y1495653D02*
G01*
X2702057Y1444853D01*
X2696860Y1137851D02*
G01*
X2696860Y1219738D01*
X2696860Y1415966D02*
G01*
X2696860Y1497855D01*
X3316853Y1137851D02*
G01*
X3316853Y1219738D01*
X3316853Y1415966D02*
G01*
X3316853Y1497855D01*
D10*
X1904977Y-2261113D02*
G01*
X2082817Y-2261113D01*
X1904977Y-1953275D02*
G01*
X2082817Y-1953275D01*
X2102291Y-2312362D02*
G01*
X2174095Y-2312362D01*
X2174095Y-2412083D01*
X2102291Y-2412083D01*
X2057049Y-2312362D02*
G01*
X1985246Y-2312362D01*
X1985246Y-2412083D01*
X2057049Y-2412083D01*
X1753577Y-1554157D02*
G01*
X1753577Y-1457777D01*
X2208817Y-1457777D01*
X2208817Y-1554157D01*
X1753577Y-1796635D02*
G01*
X1753577Y-1893016D01*
X2208817Y-1893016D01*
X2208817Y-1796635D01*
X1886391Y-2312362D02*
G01*
X1958195Y-2312362D01*
X1958195Y-2412083D01*
X1886391Y-2412083D01*
X1841149Y-2312362D02*
G01*
X1769346Y-2312362D01*
X1769346Y-2412083D01*
X1841149Y-2412083D01*
D11*
X2850283Y2316667D02*
G01*
X3130293Y2316667D01*
X3130293Y1951669D01*
X2850283Y1951669D01*
X2850283Y2316667D01*
D10*
X3281372Y2093498D02*
G01*
X3281372Y2172507D01*
X3181652Y2172507D02*
G01*
X3181652Y2093498D01*
X3196892Y2078258D02*
G01*
X3266132Y2078258D01*
X3281372Y2296759D02*
G01*
X3281372Y2217750D01*
X3181652Y2217750D02*
G01*
X3181652Y2296759D01*
X3196892Y2311999D02*
G01*
X3266132Y2311999D01*
X3355822Y1086782D02*
G01*
X3276813Y1086782D01*
X3276813Y987061D02*
G01*
X3355822Y987061D01*
X3371062Y1002301D02*
G01*
X3371062Y1071542D01*
X3152561Y1086782D02*
G01*
X3231570Y1086782D01*
X3231570Y987061D02*
G01*
X3152561Y987061D01*
X3137321Y1002301D02*
G01*
X3137321Y1071542D01*
X610542Y-1685315D02*
G01*
X610542Y-1764324D01*
X710257Y-1764324D02*
G01*
X710257Y-1685315D01*
X625779Y-1779567D02*
G01*
X695020Y-1779567D01*
X710257Y-1561063D02*
G01*
X710257Y-1640072D01*
X610542Y-1640072D02*
G01*
X610542Y-1561063D01*
X625779Y-1545821D02*
G01*
X695020Y-1545821D01*
X356542Y-1685315D02*
G01*
X356542Y-1764324D01*
X456257Y-1764324D02*
G01*
X456257Y-1685315D01*
X371779Y-1779567D02*
G01*
X441020Y-1779567D01*
X456257Y-1561063D02*
G01*
X456257Y-1640072D01*
X356542Y-1640072D02*
G01*
X356542Y-1561063D01*
X371779Y-1545821D02*
G01*
X441020Y-1545821D01*
X166039Y-1106672D02*
G01*
X166039Y-1034869D01*
X265760Y-1034869D01*
X265760Y-1106672D01*
X166039Y-1151915D02*
G01*
X166039Y-1223718D01*
X265760Y-1223718D01*
X265760Y-1151915D01*
D11*
X-442897Y-1268094D02*
G01*
X-442897Y-1764294D01*
X-877892Y-1764294D02*
G01*
X-877892Y-1268094D01*
X-442897Y-1764294D02*
G01*
X-877892Y-1764294D01*
X-442897Y-1268094D02*
G01*
X-877892Y-1268094D01*
D10*
X76230Y-2590731D02*
G01*
X-2778Y-2590731D01*
X-2778Y-2690451D02*
G01*
X76230Y-2690451D01*
X91470Y-2675211D02*
G01*
X91470Y-2605971D01*
X-127030Y-2590731D02*
G01*
X-48021Y-2590731D01*
X-48021Y-2690451D02*
G01*
X-127030Y-2690451D01*
X-142270Y-2675211D02*
G01*
X-142270Y-2605971D01*
X559612Y-2640490D02*
G01*
X559612Y-2719499D01*
X659333Y-2719499D02*
G01*
X659333Y-2640490D01*
X644093Y-2625250D02*
G01*
X574852Y-2625250D01*
X559612Y-2843750D02*
G01*
X559612Y-2764741D01*
X659333Y-2764741D02*
G01*
X659333Y-2843750D01*
X644093Y-2858990D02*
G01*
X574852Y-2858990D01*
D12*
X1371998Y-3022790D02*
G01*
X1421998Y-3022790D01*
X1421998Y-3172792D02*
G01*
X1371998Y-3172792D01*
D13*
X1356992Y-3157799D02*
G01*
X1356992Y-3037809D01*
X1437002Y-3037809D01*
X1437002Y-3157799D01*
X1356992Y-3157799D01*
D14*
X440410Y-2542296D02*
G01*
X390397Y-2542296D01*
X390397Y-2492283D01*
X880389Y-2542296D02*
G01*
X930402Y-2542296D01*
X930402Y-2492283D01*
X930402Y-2052304D02*
G01*
X930402Y-2002292D01*
X880389Y-2002292D01*
X390397Y-2052304D02*
G01*
X390397Y-2002292D01*
X440410Y-2002292D01*
D10*
X-799157Y-1995672D02*
G01*
X-799157Y-1923869D01*
X-699437Y-1923869D01*
X-699437Y-1995672D01*
X-799157Y-2040915D02*
G01*
X-799157Y-2112718D01*
X-699437Y-2112718D01*
X-699437Y-2040915D01*
D15*
X-781649Y-2332436D02*
G01*
X-781649Y-2331440D01*
X-748644Y-2298435D01*
X-713646Y-2332436D02*
G01*
X-714644Y-2332436D01*
X-748644Y-2298435D01*
X-713646Y-2332436D02*
G01*
X-781649Y-2332436D01*
X-673638Y-2334440D02*
G01*
X-673638Y-2449441D01*
X-823650Y-2334440D02*
G01*
X-823650Y-2449441D01*
X-673648Y-2449441D02*
G01*
X-821641Y-2449441D01*
X-823882Y-2296439D02*
G01*
X-823882Y-2191428D01*
X-783874Y-2161433D02*
G01*
X-793877Y-2161433D01*
X-823882Y-2191428D01*
X-713879Y-2161433D02*
G01*
X-783874Y-2161433D01*
X-713879Y-2161433D02*
G01*
X-703864Y-2161433D01*
X-673869Y-2191428D01*
X-673869Y-2296439D02*
G01*
X-673869Y-2191428D01*
X-748644Y-2332436D02*
G01*
X-748644Y-2298435D01*
D11*
X1426166Y-2094529D02*
G01*
X1540466Y-2094529D01*
X1553166Y-2094529D01*
X1578566Y-2069129D01*
X1578566Y-1929429D01*
X1578566Y-1916729D01*
X1553166Y-1891329D01*
X1426166Y-1891329D01*
X1349966Y-1891329D02*
G01*
X1235666Y-1891329D01*
X1222966Y-1891329D01*
X1197566Y-1916729D01*
X1197566Y-2056429D01*
X1197566Y-2069129D01*
X1222966Y-2094529D01*
X1349966Y-2094529D01*
X1413456Y-2704124D02*
G01*
X1527756Y-2704124D01*
X1540456Y-2704124D01*
X1565856Y-2678724D01*
X1565856Y-2539024D01*
X1565856Y-2526324D01*
X1540456Y-2500924D01*
X1413456Y-2500924D01*
X1337256Y-2500924D02*
G01*
X1222956Y-2500924D01*
X1210256Y-2500924D01*
X1184856Y-2526324D01*
X1184856Y-2666024D01*
X1184856Y-2678724D01*
X1210256Y-2704124D01*
X1337256Y-2704124D01*
X-59217Y-2424645D02*
G01*
X55082Y-2424645D01*
X67782Y-2424645D01*
X93182Y-2399245D01*
X93182Y-2259545D01*
X93182Y-2246845D01*
X67782Y-2221445D01*
X-59217Y-2221445D01*
X-135417Y-2221445D02*
G01*
X-249717Y-2221445D01*
X-262417Y-2221445D01*
X-287817Y-2246845D01*
X-287817Y-2386545D01*
X-287817Y-2399245D01*
X-262417Y-2424645D01*
X-135417Y-2424645D01*
D10*
X964257Y-1764324D02*
G01*
X964257Y-1685315D01*
X864537Y-1685315D02*
G01*
X864537Y-1764324D01*
X879777Y-1779564D02*
G01*
X949017Y-1779564D01*
X964257Y-1561063D02*
G01*
X964257Y-1640072D01*
X864537Y-1640072D02*
G01*
X864537Y-1561063D01*
X879777Y-1545823D02*
G01*
X949017Y-1545823D01*
X1091001Y-2208865D02*
G01*
X1091001Y-2129856D01*
X991280Y-2129856D02*
G01*
X991280Y-2208865D01*
X1006520Y-2224105D02*
G01*
X1075761Y-2224105D01*
X1091001Y-2005604D02*
G01*
X1091001Y-2084613D01*
X991280Y-2084613D02*
G01*
X991280Y-2005604D01*
X1006520Y-1990364D02*
G01*
X1075761Y-1990364D01*
X102539Y-1561063D02*
G01*
X102539Y-1640072D01*
X202260Y-1640072D02*
G01*
X202260Y-1561063D01*
X187020Y-1545823D02*
G01*
X117779Y-1545823D01*
X102539Y-1764324D02*
G01*
X102539Y-1685315D01*
X202260Y-1685315D02*
G01*
X202260Y-1764324D01*
X187020Y-1779564D02*
G01*
X117779Y-1779564D01*
X-24460Y-1561063D02*
G01*
X-24460Y-1640072D01*
X75260Y-1640072D02*
G01*
X75260Y-1561063D01*
X60020Y-1545823D02*
G01*
X-9220Y-1545823D01*
X-24460Y-1764324D02*
G01*
X-24460Y-1685315D01*
X75260Y-1685315D02*
G01*
X75260Y-1764324D01*
X60020Y-1779564D02*
G01*
X-9220Y-1779564D01*
X76487Y-2082690D02*
G01*
X-2522Y-2082690D01*
X-2522Y-2182411D02*
G01*
X76487Y-2182411D01*
X91727Y-2167171D02*
G01*
X91727Y-2097930D01*
X-126773Y-2082690D02*
G01*
X-47764Y-2082690D01*
X-47764Y-2182411D02*
G01*
X-126773Y-2182411D01*
X-142013Y-2167171D02*
G01*
X-142013Y-2097930D01*
X-863630Y56921D02*
G01*
X-784621Y56921D01*
X-784621Y156641D02*
G01*
X-863630Y156641D01*
X-878870Y141401D02*
G01*
X-878870Y72161D01*
X-660369Y56921D02*
G01*
X-739378Y56921D01*
X-739378Y156641D02*
G01*
X-660369Y156641D01*
X-645129Y141401D02*
G01*
X-645129Y72161D01*
X-863630Y-197078D02*
G01*
X-784621Y-197078D01*
X-784621Y-97358D02*
G01*
X-863630Y-97358D01*
X-878870Y-112598D02*
G01*
X-878870Y-181838D01*
X-660369Y-197078D02*
G01*
X-739378Y-197078D01*
X-739378Y-97358D02*
G01*
X-660369Y-97358D01*
X-645129Y-112598D02*
G01*
X-645129Y-181838D01*
X-876327Y-75260D02*
G01*
X-797318Y-75260D01*
X-797318Y24460D02*
G01*
X-876327Y24460D01*
X-891567Y9220D02*
G01*
X-891567Y-60020D01*
X-673066Y-75260D02*
G01*
X-752076Y-75260D01*
X-752076Y24460D02*
G01*
X-673066Y24460D01*
X-657826Y9220D02*
G01*
X-657826Y-60020D01*
X1675457Y386148D02*
G01*
X1675457Y465157D01*
X1575737Y465157D02*
G01*
X1575737Y386148D01*
X1590977Y370908D02*
G01*
X1660217Y370908D01*
X1675457Y589409D02*
G01*
X1675457Y510400D01*
X1575737Y510400D02*
G01*
X1575737Y589409D01*
X1590977Y604649D02*
G01*
X1660217Y604649D01*
X1700857Y1313246D02*
G01*
X1700857Y1392255D01*
X1601137Y1392255D02*
G01*
X1601137Y1313246D01*
X1616377Y1298006D02*
G01*
X1685617Y1298006D01*
X1700857Y1516507D02*
G01*
X1700857Y1437497D01*
X1601137Y1437497D02*
G01*
X1601137Y1516507D01*
X1616377Y1531747D02*
G01*
X1685617Y1531747D01*
X1827857Y1313246D02*
G01*
X1827857Y1392255D01*
X1728137Y1392255D02*
G01*
X1728137Y1313246D01*
X1743377Y1298006D02*
G01*
X1812617Y1298006D01*
X1827857Y1516507D02*
G01*
X1827857Y1437497D01*
X1728137Y1437497D02*
G01*
X1728137Y1516507D01*
X1743377Y1531747D02*
G01*
X1812617Y1531747D01*
X646760Y20660D02*
G01*
X646760Y-51142D01*
X547039Y-51142D01*
X547039Y20660D01*
X646760Y65902D02*
G01*
X646760Y137706D01*
X547039Y137706D01*
X547039Y65902D01*
X49860Y20660D02*
G01*
X49860Y-51142D01*
X-49860Y-51142D01*
X-49860Y20660D01*
X49860Y65902D02*
G01*
X49860Y137706D01*
X-49860Y137706D01*
X-49860Y65902D01*
X341960Y20660D02*
G01*
X341960Y-51142D01*
X242239Y-51142D01*
X242239Y20660D01*
X341960Y65902D02*
G01*
X341960Y137706D01*
X242239Y137706D01*
X242239Y65902D01*
X-354660Y65902D02*
G01*
X-354660Y137706D01*
X-254939Y137706D01*
X-254939Y65902D01*
X-354660Y20660D02*
G01*
X-354660Y-51142D01*
X-254939Y-51142D01*
X-254939Y20660D01*
X-214960Y65902D02*
G01*
X-214960Y137706D01*
X-115239Y137706D01*
X-115239Y65902D01*
X-214960Y20660D02*
G01*
X-214960Y-51142D01*
X-115239Y-51142D01*
X-115239Y20660D01*
X1410637Y1119997D02*
G01*
X1410637Y1191801D01*
X1510357Y1191801D01*
X1510357Y1119997D01*
X1410637Y1074755D02*
G01*
X1410637Y1002952D01*
X1510357Y1002952D01*
X1510357Y1074755D01*
D11*
X-901852Y2079853D02*
G01*
X-979736Y2079853D01*
X-979736Y278152D02*
G01*
X-901852Y278152D01*
X-979777Y278152D02*
G01*
X-979736Y2079853D01*
X970163Y1944768D02*
G01*
X970163Y2079853D01*
X885377Y2079853D01*
X885377Y278152D02*
G01*
X970163Y278152D01*
X970163Y411538D01*
D15*
X1721749Y222331D02*
G01*
X2031756Y222331D01*
X2031756Y-87675D02*
G01*
X2031756Y222331D01*
X1721749Y-87548D02*
G01*
X2031756Y-87548D01*
X1719336Y222331D02*
G01*
X1719336Y138511D01*
X1719336Y-3728D02*
G01*
X1719336Y-87548D01*
D10*
X2183460Y-32948D02*
G01*
X2183460Y46060D01*
X2083739Y46060D02*
G01*
X2083739Y-32948D01*
X2098979Y-48188D02*
G01*
X2168220Y-48188D01*
X2183460Y170312D02*
G01*
X2183460Y91302D01*
X2083739Y91302D02*
G01*
X2083739Y170312D01*
X2098979Y185552D02*
G01*
X2168220Y185552D01*
X1575739Y310012D02*
G01*
X1575739Y231002D01*
X1675460Y231002D02*
G01*
X1675460Y310012D01*
X1660220Y325252D02*
G01*
X1590979Y325252D01*
X1575739Y106751D02*
G01*
X1575739Y185760D01*
X1675460Y185760D02*
G01*
X1675460Y106751D01*
X1660220Y91511D02*
G01*
X1590979Y91511D01*
X1675460Y-159948D02*
G01*
X1675460Y-80939D01*
X1575739Y-80939D02*
G01*
X1575739Y-159948D01*
X1590979Y-175188D02*
G01*
X1660220Y-175188D01*
X1675460Y43312D02*
G01*
X1675460Y-35697D01*
X1575739Y-35697D02*
G01*
X1575739Y43312D01*
X1590979Y58552D02*
G01*
X1660220Y58552D01*
D11*
X2274912Y2152380D02*
G01*
X2274912Y1656181D01*
X1839917Y1656181D02*
G01*
X1839917Y2152380D01*
X2274912Y1656181D02*
G01*
X1839917Y1656181D01*
X2274912Y2152380D02*
G01*
X1839917Y2152380D01*
X2274912Y958580D02*
G01*
X2274912Y462381D01*
X1839917Y462381D02*
G01*
X1839917Y958580D01*
X2274912Y462381D02*
G01*
X1839917Y462381D01*
X2274912Y958580D02*
G01*
X1839917Y958580D01*
X1331495Y421878D02*
G01*
X1331493Y121879D01*
X1081493Y421878D02*
G01*
X1081496Y121879D01*
X1314612Y421878D02*
G01*
X1331495Y421878D01*
X1331495Y421878D02*
G01*
X1331495Y121879D01*
X1331495Y121879D02*
G01*
X1314610Y121879D01*
X1098382Y121879D02*
G01*
X1081496Y121879D01*
X1081496Y121879D02*
G01*
X1081496Y421878D01*
X1081496Y421878D02*
G01*
X1097810Y421878D01*
X1234221Y1564985D02*
G01*
X1234221Y1525790D01*
X1234221Y1304564D02*
G01*
X1234221Y1264983D01*
X1534223Y1264983D02*
G01*
X1534223Y1304564D01*
X1534223Y1525790D02*
G01*
X1534223Y1564985D01*
X1234221Y1564985D02*
G01*
X1273749Y1564985D01*
X1494823Y1564985D02*
G01*
X1534223Y1564985D01*
X1234221Y1264983D02*
G01*
X1273749Y1264983D01*
X1494975Y1264983D02*
G01*
X1534223Y1264983D01*
D10*
X519757Y65902D02*
G01*
X519757Y144912D01*
X420042Y144912D02*
G01*
X420042Y65902D01*
X504520Y160154D02*
G01*
X435279Y160154D01*
X420042Y-58348D02*
G01*
X420042Y20660D01*
X519757Y20660D02*
G01*
X519757Y-58348D01*
X504520Y-73591D02*
G01*
X435279Y-73591D01*
X176857Y65902D02*
G01*
X176857Y144912D01*
X77142Y144912D02*
G01*
X77142Y65902D01*
X161620Y160154D02*
G01*
X92379Y160154D01*
X77142Y-58348D02*
G01*
X77142Y20660D01*
X176857Y20660D02*
G01*
X176857Y-58348D01*
X161620Y-73591D02*
G01*
X92379Y-73591D01*
G75*
G01*
X1206216Y-2324176D02*
G03*
X1190976Y-2339416I0J-15240D01*
G75*
G01*
X1190976Y-2408657D02*
G03*
X1206216Y-2423897I15240J0D01*
G75*
G01*
X1409476Y-2324176D02*
G02*
X1424716Y-2339416I0J-15240D01*
G75*
G01*
X1424716Y-2408657D02*
G02*
X1409476Y-2423897I-15240J0D01*
G75*
G01*
X1424716Y-2827757D02*
G02*
X1409476Y-2842997I-15240J0D01*
G75*
G01*
X1409476Y-2743276D02*
G02*
X1424716Y-2758516I0J-15240D01*
G75*
G01*
X1190976Y-2827757D02*
G03*
X1206216Y-2842997I15240J0D01*
G75*
G01*
X1206216Y-2743276D02*
G03*
X1190976Y-2758516I0J-15240D01*
G75*
G01*
X519760Y-2640452D02*
G03*
X504520Y-2625212I-15240J0D01*
G75*
G01*
X435280Y-2625212D02*
G03*
X420040Y-2640452I0J-15240D01*
G75*
G01*
X519760Y-2843713D02*
G02*
X504520Y-2858953I-15240J0D01*
G75*
G01*
X435280Y-2858953D02*
G02*
X420040Y-2843713I0J15240D01*
G75*
G01*
X1206216Y-2184476D02*
G03*
X1190976Y-2199716I0J-15240D01*
G75*
G01*
X1190976Y-2268957D02*
G03*
X1206216Y-2284197I15240J0D01*
G75*
G01*
X1409476Y-2184476D02*
G02*
X1424716Y-2199716I0J-15240D01*
G75*
G01*
X1424716Y-2268957D02*
G02*
X1409476Y-2284197I-15240J0D01*
G75*
G01*
X811860Y-2640452D02*
G03*
X796620Y-2625212I-15240J0D01*
G75*
G01*
X727380Y-2625212D02*
G03*
X712140Y-2640452I0J-15240D01*
G75*
G01*
X811860Y-2843713D02*
G02*
X796620Y-2858953I-15240J0D01*
G75*
G01*
X727380Y-2858953D02*
G02*
X712140Y-2843713I0J15240D01*
G75*
G01*
X1424716Y-1837157D02*
G02*
X1409476Y-1852397I-15240J0D01*
G75*
G01*
X1409476Y-1752676D02*
G02*
X1424716Y-1767916I0J-15240D01*
G75*
G01*
X1190976Y-1837157D02*
G03*
X1206216Y-1852397I15240J0D01*
G75*
G01*
X1206216Y-1752676D02*
G03*
X1190976Y-1767916I0J-15240D01*
G75*
G01*
X76230Y-2563343D02*
G03*
X91470Y-2548103I0J15240D01*
G75*
G01*
X91470Y-2478862D02*
G03*
X76230Y-2463622I-15240J0D01*
G75*
G01*
X-127030Y-2563343D02*
G02*
X-142270Y-2548103I0J15240D01*
G75*
G01*
X-142270Y-2478862D02*
G02*
X-127030Y-2463622I15240J0D01*
G75*
G01*
X3181652Y2093498D02*
G03*
X3196892Y2078258I15240J0D01*
G75*
G01*
X3266133Y2078258D02*
G03*
X3281373Y2093498I0J15240D01*
G75*
G01*
X3181652Y2296759D02*
G02*
X3196892Y2311999I15240J0D01*
G75*
G01*
X3266133Y2311999D02*
G02*
X3281373Y2296759I0J-15240D01*
G75*
G01*
X3355823Y987062D02*
G03*
X3371063Y1002302I0J15240D01*
G75*
G01*
X3371063Y1071542D02*
G03*
X3355823Y1086782I-15240J0D01*
G75*
G01*
X3152562Y987062D02*
G02*
X3137322Y1002302I0J15240D01*
G75*
G01*
X3137322Y1071542D02*
G02*
X3152562Y1086782I15240J0D01*
G75*
G01*
X695020Y-1545824D02*
G02*
X710260Y-1561064I0J-15240D01*
G75*
G01*
X610540Y-1561064D02*
G02*
X625780Y-1545824I15240J0D01*
G75*
G01*
X695020Y-1779565D02*
G03*
X710260Y-1764325I0J15240D01*
G75*
G01*
X610540Y-1764325D02*
G03*
X625780Y-1779565I15240J0D01*
G75*
G01*
X441020Y-1545824D02*
G02*
X456260Y-1561064I0J-15240D01*
G75*
G01*
X356540Y-1561064D02*
G02*
X371780Y-1545824I15240J0D01*
G75*
G01*
X441020Y-1779565D02*
G03*
X456260Y-1764325I0J15240D01*
G75*
G01*
X356540Y-1764325D02*
G03*
X371780Y-1779565I15240J0D01*
G75*
G01*
X76230Y-2690452D02*
G03*
X91470Y-2675212I0J15240D01*
G75*
G01*
X91470Y-2605971D02*
G03*
X76230Y-2590731I-15240J0D01*
G75*
G01*
X-127030Y-2690452D02*
G02*
X-142270Y-2675212I0J15240D01*
G75*
G01*
X-142270Y-2605971D02*
G02*
X-127030Y-2590731I15240J0D01*
G75*
G01*
X659333Y-2640490D02*
G03*
X644093Y-2625250I-15240J0D01*
G75*
G01*
X574853Y-2625250D02*
G03*
X559613Y-2640490I0J-15240D01*
G75*
G01*
X659333Y-2843751D02*
G02*
X644093Y-2858991I-15240J0D01*
G75*
G01*
X574853Y-2858991D02*
G02*
X559613Y-2843751I0J15240D01*
D16*
G75*
G01*
X355346Y-2022358D02*
G03*
X355346Y-2022612I-15001J-127D01*
D10*
G75*
G01*
X864537Y-1764325D02*
G03*
X879777Y-1779565I15240J0D01*
G75*
G01*
X949018Y-1779565D02*
G03*
X964258Y-1764325I0J15240D01*
G75*
G01*
X864537Y-1561064D02*
G02*
X879777Y-1545824I15240J0D01*
G75*
G01*
X949018Y-1545824D02*
G02*
X964258Y-1561064I0J-15240D01*
G75*
G01*
X991281Y-2208865D02*
G03*
X1006521Y-2224105I15240J0D01*
G75*
G01*
X1075761Y-2224105D02*
G03*
X1091001Y-2208865I0J15240D01*
G75*
G01*
X991281Y-2005604D02*
G02*
X1006521Y-1990364I15240J0D01*
G75*
G01*
X1075761Y-1990364D02*
G02*
X1091001Y-2005604I0J-15240D01*
G75*
G01*
X202260Y-1561064D02*
G03*
X187020Y-1545824I-15240J0D01*
G75*
G01*
X117780Y-1545824D02*
G03*
X102540Y-1561064I0J-15240D01*
G75*
G01*
X202260Y-1764325D02*
G02*
X187020Y-1779565I-15240J0D01*
G75*
G01*
X117780Y-1779565D02*
G02*
X102540Y-1764325I0J15240D01*
G75*
G01*
X75260Y-1561064D02*
G03*
X60020Y-1545824I-15240J0D01*
G75*
G01*
X-9220Y-1545824D02*
G03*
X-24460Y-1561064I0J-15240D01*
G75*
G01*
X75260Y-1764325D02*
G02*
X60020Y-1779565I-15240J0D01*
G75*
G01*
X-9220Y-1779565D02*
G02*
X-24460Y-1764325I0J15240D01*
G75*
G01*
X76487Y-2182411D02*
G03*
X91727Y-2167171I0J15240D01*
G75*
G01*
X91727Y-2097931D02*
G03*
X76487Y-2082691I-15240J0D01*
G75*
G01*
X-126774Y-2182411D02*
G02*
X-142014Y-2167171I0J15240D01*
G75*
G01*
X-142014Y-2097931D02*
G02*
X-126774Y-2082691I15240J0D01*
G75*
G01*
X-863630Y156642D02*
G03*
X-878870Y141402I0J-15240D01*
G75*
G01*
X-878870Y72161D02*
G03*
X-863630Y56921I15240J0D01*
G75*
G01*
X-660370Y156642D02*
G02*
X-645130Y141402I0J-15240D01*
G75*
G01*
X-645130Y72161D02*
G02*
X-660370Y56921I-15240J0D01*
G75*
G01*
X-863630Y-97358D02*
G03*
X-878870Y-112598I0J-15240D01*
G75*
G01*
X-878870Y-181839D02*
G03*
X-863630Y-197079I15240J0D01*
G75*
G01*
X-660370Y-97358D02*
G02*
X-645130Y-112598I0J-15240D01*
G75*
G01*
X-645130Y-181839D02*
G02*
X-660370Y-197079I-15240J0D01*
G75*
G01*
X-876328Y24460D02*
G03*
X-891568Y9220I0J-15240D01*
G75*
G01*
X-891568Y-60020D02*
G03*
X-876328Y-75260I15240J0D01*
G75*
G01*
X-673067Y24460D02*
G02*
X-657827Y9220I0J-15240D01*
G75*
G01*
X-657827Y-60020D02*
G02*
X-673067Y-75260I-15240J0D01*
G75*
G01*
X1575737Y386149D02*
G03*
X1590977Y370909I15240J0D01*
G75*
G01*
X1660218Y370909D02*
G03*
X1675458Y386149I0J15240D01*
G75*
G01*
X1575737Y589410D02*
G02*
X1590977Y604650I15240J0D01*
G75*
G01*
X1660218Y604650D02*
G02*
X1675458Y589410I0J-15240D01*
G75*
G01*
X1601137Y1313246D02*
G03*
X1616377Y1298006I15240J0D01*
G75*
G01*
X1685618Y1298006D02*
G03*
X1700858Y1313246I0J15240D01*
G75*
G01*
X1601137Y1516507D02*
G02*
X1616377Y1531747I15240J0D01*
G75*
G01*
X1685618Y1531747D02*
G02*
X1700858Y1516507I0J-15240D01*
G75*
G01*
X1728137Y1313246D02*
G03*
X1743377Y1298006I15240J0D01*
G75*
G01*
X1812618Y1298006D02*
G03*
X1827858Y1313246I0J15240D01*
G75*
G01*
X1728137Y1516507D02*
G02*
X1743377Y1531747I15240J0D01*
G75*
G01*
X1812618Y1531747D02*
G02*
X1827858Y1516507I0J-15240D01*
D15*
G75*
G01*
X1719336Y135971D02*
G02*
X1719336Y-3729I-21730J-69850D01*
D10*
G75*
G01*
X2083740Y-32949D02*
G03*
X2098980Y-48189I15240J0D01*
G75*
G01*
X2168220Y-48189D02*
G03*
X2183460Y-32949I0J15240D01*
G75*
G01*
X2083740Y170312D02*
G02*
X2098980Y185552I15240J0D01*
G75*
G01*
X2168220Y185552D02*
G02*
X2183460Y170312I0J-15240D01*
G75*
G01*
X1675460Y310012D02*
G03*
X1660220Y325252I-15240J0D01*
G75*
G01*
X1590980Y325252D02*
G03*
X1575740Y310012I0J-15240D01*
G75*
G01*
X1675460Y106751D02*
G02*
X1660220Y91511I-15240J0D01*
G75*
G01*
X1590980Y91511D02*
G02*
X1575740Y106751I0J15240D01*
G75*
G01*
X1575740Y-159949D02*
G03*
X1590980Y-175189I15240J0D01*
G75*
G01*
X1660220Y-175189D02*
G03*
X1675460Y-159949I0J15240D01*
G75*
G01*
X1575740Y43312D02*
G02*
X1590980Y58552I15240J0D01*
G75*
G01*
X1660220Y58552D02*
G02*
X1675460Y43312I0J-15240D01*
G75*
G01*
X435280Y-73589D02*
G02*
X420040Y-58349I0J15240D01*
G75*
G01*
X519760Y-58349D02*
G02*
X504520Y-73589I-15240J0D01*
G75*
G01*
X435280Y160152D02*
G03*
X420040Y144912I0J-15240D01*
G75*
G01*
X519760Y144912D02*
G03*
X504520Y160152I-15240J0D01*
G75*
G01*
X92380Y-73589D02*
G02*
X77140Y-58349I0J15240D01*
G75*
G01*
X176860Y-58349D02*
G02*
X161620Y-73589I-15240J0D01*
G75*
G01*
X92380Y160152D02*
G03*
X77140Y144912I0J-15240D01*
G75*
G01*
X176860Y144912D02*
G03*
X161620Y160152I-15240J0D01*
D11*
G75*
G01
X1286612Y1935582D02*
G03X1286612Y1935582I-80010J0D01*
G75*
G01
X3063646Y1317854D02*
G03X3063646Y1317854I-56794J0D01*
G75*
G01
X3108452Y1317854D02*
G03X3108452Y1317854I-101600J0D01*
G75*
G01
X2860446Y1317854D02*
G03X2860446Y1317854I-56794J0D01*
G75*
G01
X3266846Y1317854D02*
G03X3266846Y1317854I-56794J0D01*
D16*
G75*
G01
X1878762Y-1940357D02*
G03X1878762Y-1940357I-15011J0D01*
D18*
G75*
G01
X2817876Y2264435D02*
G03X2817876Y2264435I-7595J0D01*
D11*
G75*
G01
X-921334Y192634D02*
G03X-921334Y192634I-18339J0D01*
D14*
G75*
G01
X1737233Y-129438D02*
G03X1737233Y-129438I-10008J0D01*
D11*
G75*
G01
X1286510Y271882D02*
G03X1286510Y271882I-80010J0D01*
G75*
G01
X1260754Y1230503D02*
G03X1260754Y1230503I-5436J0D01*
M02*
